<svg xmlns="http://www.w3.org/2000/svg" viewBox="0 0 1199.6 70.74"><defs><style>.cls-1{fill:#416064;}.cls-2{fill:#dfe1d4;}</style></defs><title>Asset 20</title><g id="Layer_2" data-name="Layer 2"><g id="Layer_1-2" data-name="Layer 1"><rect class="cls-1" width="1199.58" height="70.74"/><polygon class="cls-2" points="0 19.64 0 16.79 4.17 12.61 0 8.44 0 5.47 24.49 5.47 24.49 8.44 20.43 12.61 24.49 16.79 24.49 19.64 0 19.64"/><polygon class="cls-2" points="0 66.52 0 63.66 4.17 59.49 0 55.32 0 52.35 24.49 52.35 24.49 55.32 20.43 59.49 24.49 63.66 24.49 66.52 0 66.52"/><polygon class="cls-2" points="24.49 19.64 24.49 16.79 28.66 12.61 24.49 8.44 24.49 5.47 48.98 5.47 48.98 8.44 44.92 12.61 48.98 16.79 48.98 19.64 24.49 19.64"/><polygon class="cls-2" points="24.49 66.52 24.49 63.66 28.66 59.49 24.49 55.32 24.49 52.35 48.98 52.35 48.98 55.32 44.92 59.49 48.98 63.66 48.98 66.52 24.49 66.52"/><polygon class="cls-2" points="48.94 19.64 48.94 16.79 53.11 12.61 48.94 8.44 48.94 5.47 73.43 5.47 73.43 8.44 69.36 12.61 73.43 16.79 73.43 19.64 48.94 19.64"/><polygon class="cls-2" points="48.94 66.52 48.94 63.66 53.11 59.49 48.94 55.32 48.94 52.35 73.43 52.35 73.43 55.32 69.36 59.49 73.43 63.66 73.43 66.52 48.94 66.52"/><polygon class="cls-2" points="73.43 19.64 73.43 16.79 77.6 12.61 73.43 8.44 73.43 5.47 97.92 5.47 97.92 8.44 93.85 12.61 97.92 16.79 97.92 19.64 73.43 19.64"/><polygon class="cls-2" points="73.43 66.52 73.43 63.66 77.6 59.49 73.43 55.32 73.43 52.35 97.92 52.35 97.92 55.32 93.85 59.49 97.92 63.66 97.92 66.52 73.43 66.52"/><polygon class="cls-2" points="97.92 19.64 97.92 16.79 102.09 12.61 97.92 8.44 97.92 5.47 122.41 5.47 122.41 8.44 118.34 12.61 122.41 16.79 122.41 19.64 97.92 19.64"/><polygon class="cls-2" points="97.92 66.52 97.92 63.66 102.09 59.49 97.92 55.32 97.92 52.35 122.41 52.35 122.41 55.32 118.34 59.49 122.41 63.66 122.41 66.52 97.92 66.52"/><polygon class="cls-2" points="122.41 66.52 122.41 63.66 126.58 59.49 122.41 55.32 122.41 52.35 146.9 52.35 146.9 55.32 142.83 59.49 146.9 63.66 146.9 66.52 122.41 66.52"/><polygon class="cls-2" points="146.9 66.52 146.9 63.66 151.07 59.49 146.9 55.32 146.9 52.35 171.39 52.35 171.39 55.32 167.32 59.49 171.39 63.66 171.39 66.52 146.9 66.52"/><polygon class="cls-2" points="171.35 66.52 171.35 63.66 175.52 59.49 171.35 55.32 171.35 52.35 195.84 52.35 195.84 55.32 191.77 59.49 195.84 63.66 195.84 66.52 171.35 66.52"/><polygon class="cls-2" points="195.84 66.52 195.84 63.66 200.01 59.49 195.84 55.32 195.84 52.35 220.32 52.35 220.32 55.32 216.26 59.49 220.32 63.66 220.32 66.52 195.84 66.52"/><polygon class="cls-2" points="220.32 66.52 220.32 63.66 224.5 59.49 220.32 55.32 220.32 52.35 244.81 52.35 244.81 55.32 240.75 59.49 244.81 63.66 244.81 66.52 220.32 66.52"/><polygon class="cls-2" points="244.81 66.52 244.81 63.66 248.99 59.49 244.81 55.32 244.81 52.35 269.3 52.35 269.3 55.32 265.24 59.49 269.3 63.66 269.3 66.52 244.81 66.52"/><polygon class="cls-2" points="269.3 66.52 269.3 63.66 273.48 59.49 269.3 55.32 269.3 52.35 293.79 52.35 293.79 55.32 289.73 59.49 293.79 63.66 293.79 66.52 269.3 66.52"/><polygon class="cls-2" points="293.75 66.52 293.75 63.66 297.93 59.49 293.75 55.32 293.75 52.35 318.24 52.35 318.24 55.32 314.18 59.49 318.24 63.66 318.24 66.52 293.75 66.52"/><polygon class="cls-2" points="318.24 66.52 318.24 63.66 322.42 59.49 318.24 55.32 318.24 52.35 342.73 52.35 342.73 55.32 338.67 59.49 342.73 63.66 342.73 66.52 318.24 66.52"/><polygon class="cls-2" points="342.73 66.52 342.73 63.66 346.9 59.49 342.73 55.32 342.73 52.35 367.22 52.35 367.22 55.32 363.16 59.49 367.22 63.66 367.22 66.52 342.73 66.52"/><polygon class="cls-2" points="367.22 66.52 367.22 63.66 371.39 59.49 367.22 55.32 367.22 52.35 391.71 52.35 391.71 55.32 387.65 59.49 391.71 63.66 391.71 66.52 367.22 66.52"/><polygon class="cls-2" points="391.71 66.52 391.71 63.66 395.88 59.49 391.71 55.32 391.71 52.35 416.2 52.35 416.2 55.32 412.14 59.49 416.2 63.66 416.2 66.52 391.71 66.52"/><polygon class="cls-2" points="416.16 66.52 416.16 63.66 420.33 59.49 416.16 55.32 416.16 52.35 440.65 52.35 440.65 55.32 436.59 59.49 440.65 63.66 440.65 66.52 416.16 66.52"/><polygon class="cls-2" points="440.65 66.52 440.65 63.66 444.82 59.49 440.65 55.32 440.65 52.35 465.14 52.35 465.14 55.32 461.08 59.49 465.14 63.66 465.14 66.52 440.65 66.52"/><polygon class="cls-2" points="465.14 66.52 465.14 63.66 469.31 59.49 465.14 55.32 465.14 52.35 489.63 52.35 489.63 55.32 485.56 59.49 489.63 63.66 489.63 66.52 465.14 66.52"/><polygon class="cls-2" points="489.63 66.52 489.63 63.66 493.8 59.49 489.63 55.32 489.63 52.35 514.12 52.35 514.12 55.32 510.06 59.49 514.12 63.66 514.12 66.52 489.63 66.52"/><polygon class="cls-2" points="514.12 66.52 514.12 63.66 518.29 59.49 514.12 55.32 514.12 52.35 538.61 52.35 538.61 55.32 534.54 59.49 538.61 63.66 538.61 66.52 514.12 66.52"/><polygon class="cls-2" points="538.57 66.52 538.57 63.66 542.74 59.49 538.57 55.32 538.57 52.35 563.06 52.35 563.06 55.32 558.99 59.49 563.06 63.66 563.06 66.52 538.57 66.52"/><polygon class="cls-2" points="563.06 66.52 563.06 63.66 567.23 59.49 563.06 55.32 563.06 52.35 587.55 52.35 587.55 55.32 583.48 59.49 587.55 63.66 587.55 66.52 563.06 66.52"/><polygon class="cls-2" points="587.55 66.52 587.55 63.66 591.72 59.49 587.55 55.32 587.55 52.35 612.04 52.35 612.04 55.32 607.97 59.49 612.04 63.66 612.04 66.52 587.55 66.52"/><polygon class="cls-2" points="612.04 66.52 612.04 63.66 616.21 59.49 612.04 55.32 612.04 52.35 636.52 52.35 636.52 55.32 632.46 59.49 636.52 63.66 636.52 66.52 612.04 66.52"/><polygon class="cls-2" points="636.53 66.52 636.53 63.66 640.7 59.49 636.53 55.32 636.53 52.35 661.01 52.35 661.01 55.32 656.95 59.49 661.01 63.66 661.01 66.52 636.53 66.52"/><polygon class="cls-2" points="660.98 66.52 660.98 63.66 665.15 59.49 660.98 55.32 660.98 52.35 685.46 52.35 685.46 55.32 681.4 59.49 685.46 63.66 685.46 66.52 660.98 66.52"/><polygon class="cls-2" points="685.46 66.52 685.46 63.66 689.64 59.49 685.46 55.32 685.46 52.35 709.95 52.35 709.95 55.32 705.89 59.49 709.95 63.66 709.95 66.52 685.46 66.52"/><polygon class="cls-2" points="709.95 66.52 709.95 63.66 714.13 59.49 709.95 55.32 709.95 52.35 734.44 52.35 734.44 55.32 730.38 59.49 734.44 63.66 734.44 66.52 709.95 66.52"/><polygon class="cls-2" points="734.44 66.52 734.44 63.66 738.62 59.49 734.44 55.32 734.44 52.35 758.93 52.35 758.93 55.32 754.87 59.49 758.93 63.66 758.93 66.52 734.44 66.52"/><polygon class="cls-2" points="758.93 66.52 758.93 63.66 763.11 59.49 758.93 55.32 758.93 52.35 783.42 52.35 783.42 55.32 779.36 59.49 783.42 63.66 783.42 66.52 758.93 66.52"/><polygon class="cls-2" points="783.38 66.52 783.38 63.66 787.55 59.49 783.38 55.32 783.38 52.35 807.87 52.35 807.87 55.32 803.81 59.49 807.87 63.66 807.87 66.52 783.38 66.52"/><polygon class="cls-2" points="807.87 66.52 807.87 63.66 812.04 59.49 807.87 55.32 807.87 52.35 832.36 52.35 832.36 55.32 828.3 59.49 832.36 63.66 832.36 66.52 807.87 66.52"/><polygon class="cls-2" points="832.36 66.52 832.36 63.66 836.53 59.49 832.36 55.32 832.36 52.35 856.85 52.35 856.85 55.32 852.79 59.49 856.85 63.66 856.85 66.52 832.36 66.52"/><polygon class="cls-2" points="856.85 66.52 856.85 63.66 861.02 59.49 856.85 55.32 856.85 52.35 881.34 52.35 881.34 55.32 877.28 59.49 881.34 63.66 881.34 66.52 856.85 66.52"/><polygon class="cls-2" points="881.34 66.52 881.34 63.66 885.51 59.49 881.34 55.32 881.34 52.35 905.83 52.35 905.83 55.32 901.77 59.49 905.83 63.66 905.83 66.52 881.34 66.52"/><polygon class="cls-2" points="905.79 66.52 905.79 63.66 909.96 59.49 905.79 55.32 905.79 52.35 930.28 52.35 930.28 55.32 926.22 59.49 930.28 63.66 930.28 66.52 905.79 66.52"/><polygon class="cls-2" points="930.28 66.52 930.28 63.66 934.45 59.49 930.28 55.32 930.28 52.35 954.77 52.35 954.77 55.32 950.71 59.49 954.77 63.66 954.77 66.52 930.28 66.52"/><polygon class="cls-2" points="954.77 66.52 954.77 63.66 958.94 59.49 954.77 55.32 954.77 52.35 979.26 52.35 979.26 55.32 975.19 59.49 979.26 63.66 979.26 66.52 954.77 66.52"/><polygon class="cls-2" points="979.26 66.52 979.26 63.66 983.43 59.49 979.26 55.32 979.26 52.35 1003.75 52.35 1003.75 55.32 999.68 59.49 1003.75 63.66 1003.75 66.52 979.26 66.52"/><polygon class="cls-2" points="1003.75 66.52 1003.75 63.66 1007.92 59.49 1003.75 55.32 1003.75 52.35 1028.24 52.35 1028.24 55.32 1024.17 59.49 1028.24 63.66 1028.24 66.52 1003.75 66.52"/><polygon class="cls-2" points="1028.2 66.52 1028.2 63.66 1032.37 59.49 1028.2 55.32 1028.2 52.35 1052.69 52.35 1052.69 55.32 1048.62 59.49 1052.69 63.66 1052.69 66.52 1028.2 66.52"/><polygon class="cls-2" points="1052.69 66.52 1052.69 63.66 1056.86 59.49 1052.69 55.32 1052.69 52.35 1077.18 52.35 1077.18 55.32 1073.11 59.49 1077.18 63.66 1077.18 66.52 1052.69 66.52"/><polygon class="cls-2" points="1077.18 66.52 1077.18 63.66 1081.35 59.49 1077.18 55.32 1077.18 52.35 1101.66 52.35 1101.66 55.32 1097.6 59.49 1101.66 63.66 1101.66 66.52 1077.18 66.52"/><polygon class="cls-2" points="1101.66 66.52 1101.66 63.66 1105.84 59.49 1101.66 55.32 1101.66 52.35 1126.15 52.35 1126.15 55.32 1122.09 59.49 1126.15 63.66 1126.15 66.52 1101.66 66.52"/><polygon class="cls-2" points="1126.15 66.52 1126.15 63.66 1130.33 59.49 1126.15 55.32 1126.15 52.35 1150.64 52.35 1150.64 55.32 1146.58 59.49 1150.64 63.66 1150.64 66.52 1126.15 66.52"/><polygon class="cls-2" points="1150.6 66.52 1150.6 63.66 1154.78 59.49 1150.6 55.32 1150.6 52.35 1175.09 52.35 1175.09 55.32 1171.03 59.49 1175.09 63.66 1175.09 66.52 1150.6 66.52"/><polygon class="cls-2" points="1175.09 66.52 1175.09 63.66 1179.27 59.49 1175.09 55.32 1175.09 52.35 1199.58 52.35 1199.58 55.32 1195.52 59.49 1199.58 63.66 1199.58 66.52 1175.09 66.52"/><polygon class="cls-2" points="122.43 19.64 122.43 16.78 126.6 12.61 122.43 8.44 122.43 5.47 146.92 5.47 146.92 8.44 142.85 12.61 146.92 16.78 146.92 19.64 122.43 19.64"/><polygon class="cls-2" points="146.92 19.64 146.92 16.78 151.09 12.61 146.92 8.44 146.92 5.47 171.41 5.47 171.41 8.44 167.34 12.61 171.41 16.78 171.41 19.64 146.92 19.64"/><polygon class="cls-2" points="171.37 19.64 171.37 16.78 175.54 12.61 171.37 8.44 171.37 5.47 195.85 5.47 195.85 8.44 191.79 12.61 195.85 16.78 195.85 19.64 171.37 19.64"/><polygon class="cls-2" points="195.85 19.64 195.85 16.78 200.03 12.61 195.85 8.44 195.85 5.47 220.34 5.47 220.34 8.44 216.28 12.61 220.34 16.78 220.34 19.64 195.85 19.64"/><polygon class="cls-2" points="220.34 19.64 220.34 16.78 224.52 12.61 220.34 8.44 220.34 5.47 244.83 5.47 244.83 8.44 240.77 12.61 244.83 16.78 244.83 19.64 220.34 19.64"/><polygon class="cls-2" points="244.83 19.64 244.83 16.78 249.01 12.61 244.83 8.44 244.83 5.47 269.32 5.47 269.32 8.44 265.26 12.61 269.32 16.78 269.32 19.64 244.83 19.64"/><polygon class="cls-2" points="269.32 19.64 269.32 16.78 273.5 12.61 269.32 8.44 269.32 5.47 293.81 5.47 293.81 8.44 289.75 12.61 293.81 16.78 293.81 19.64 269.32 19.64"/><polygon class="cls-2" points="293.77 19.64 293.77 16.78 297.95 12.61 293.77 8.44 293.77 5.47 318.26 5.47 318.26 8.44 314.2 12.61 318.26 16.78 318.26 19.64 293.77 19.64"/><polygon class="cls-2" points="318.26 19.64 318.26 16.78 322.44 12.61 318.26 8.44 318.26 5.47 342.75 5.47 342.75 8.44 338.69 12.61 342.75 16.78 342.75 19.64 318.26 19.64"/><polygon class="cls-2" points="342.75 19.64 342.75 16.78 346.93 12.61 342.75 8.44 342.75 5.47 367.24 5.47 367.24 8.44 363.18 12.61 367.24 16.78 367.24 19.64 342.75 19.64"/><polygon class="cls-2" points="367.24 19.64 367.24 16.78 371.42 12.61 367.24 8.44 367.24 5.47 391.73 5.47 391.73 8.44 387.67 12.61 391.73 16.78 391.73 19.64 367.24 19.64"/><polygon class="cls-2" points="391.73 19.64 391.73 16.78 395.9 12.61 391.73 8.44 391.73 5.47 416.22 5.47 416.22 8.44 412.16 12.61 416.22 16.78 416.22 19.64 391.73 19.64"/><polygon class="cls-2" points="416.18 19.64 416.18 16.78 420.35 12.61 416.18 8.44 416.18 5.47 440.67 5.47 440.67 8.44 436.61 12.61 440.67 16.78 440.67 19.64 416.18 19.64"/><polygon class="cls-2" points="440.67 19.64 440.67 16.78 444.84 12.61 440.67 8.44 440.67 5.47 465.16 5.47 465.16 8.44 461.1 12.61 465.16 16.78 465.16 19.64 440.67 19.64"/><polygon class="cls-2" points="465.16 19.64 465.16 16.78 469.33 12.61 465.16 8.44 465.16 5.47 489.65 5.47 489.65 8.44 485.58 12.61 489.65 16.78 489.65 19.64 465.16 19.64"/><polygon class="cls-2" points="489.65 19.64 489.65 16.78 493.82 12.61 489.65 8.44 489.65 5.47 514.14 5.47 514.14 8.44 510.07 12.61 514.14 16.78 514.14 19.64 489.65 19.64"/><polygon class="cls-2" points="514.14 19.64 514.14 16.78 518.31 12.61 514.14 8.44 514.14 5.47 538.63 5.47 538.63 8.44 534.57 12.61 538.63 16.78 538.63 19.64 514.14 19.64"/><polygon class="cls-2" points="538.59 19.64 538.59 16.78 542.76 12.61 538.59 8.44 538.59 5.47 563.08 5.47 563.08 8.44 559.01 12.61 563.08 16.78 563.08 19.64 538.59 19.64"/><polygon class="cls-2" points="563.08 19.64 563.08 16.78 567.25 12.61 563.08 8.44 563.08 5.47 587.57 5.47 587.57 8.44 583.5 12.61 587.57 16.78 587.57 19.64 563.08 19.64"/><polygon class="cls-2" points="587.57 19.64 587.57 16.78 591.74 12.61 587.57 8.44 587.57 5.47 612.06 5.47 612.06 8.44 607.99 12.61 612.06 16.78 612.06 19.64 587.57 19.64"/><polygon class="cls-2" points="612.06 19.64 612.06 16.78 616.23 12.61 612.06 8.44 612.06 5.47 636.54 5.47 636.54 8.44 632.48 12.61 636.54 16.78 636.54 19.64 612.06 19.64"/><polygon class="cls-2" points="636.55 19.64 636.55 16.78 640.72 12.61 636.55 8.44 636.55 5.47 661.03 5.47 661.03 8.44 656.97 12.61 661.03 16.78 661.03 19.64 636.55 19.64"/><polygon class="cls-2" points="661 19.64 661 16.78 665.17 12.61 661 8.44 661 5.47 685.48 5.47 685.48 8.44 681.42 12.61 685.48 16.78 685.48 19.64 661 19.64"/><polygon class="cls-2" points="685.48 19.64 685.48 16.78 689.66 12.61 685.48 8.44 685.48 5.47 709.97 5.47 709.97 8.44 705.91 12.61 709.97 16.78 709.97 19.64 685.48 19.64"/><polygon class="cls-2" points="709.97 19.64 709.97 16.78 714.15 12.61 709.97 8.44 709.97 5.47 734.46 5.47 734.46 8.44 730.4 12.61 734.46 16.78 734.46 19.64 709.97 19.64"/><polygon class="cls-2" points="734.46 19.64 734.46 16.78 738.64 12.61 734.46 8.44 734.46 5.47 758.95 5.47 758.95 8.44 754.89 12.61 758.95 16.78 758.95 19.64 734.46 19.64"/><polygon class="cls-2" points="758.95 19.64 758.95 16.78 763.13 12.61 758.95 8.44 758.95 5.47 783.44 5.47 783.44 8.44 779.38 12.61 783.44 16.78 783.44 19.64 758.95 19.64"/><polygon class="cls-2" points="783.4 19.64 783.4 16.78 787.58 12.61 783.4 8.44 783.4 5.47 807.89 5.47 807.89 8.44 803.83 12.61 807.89 16.78 807.89 19.64 783.4 19.64"/><polygon class="cls-2" points="807.89 19.64 807.89 16.78 812.06 12.61 807.89 8.44 807.89 5.47 832.38 5.47 832.38 8.44 828.32 12.61 832.38 16.78 832.38 19.64 807.89 19.64"/><polygon class="cls-2" points="832.38 19.64 832.38 16.78 836.55 12.61 832.38 8.44 832.38 5.47 856.87 5.47 856.87 8.44 852.81 12.61 856.87 16.78 856.87 19.64 832.38 19.64"/><polygon class="cls-2" points="856.87 19.64 856.87 16.78 861.04 12.61 856.87 8.44 856.87 5.47 881.36 5.47 881.36 8.44 877.3 12.61 881.36 16.78 881.36 19.64 856.87 19.64"/><polygon class="cls-2" points="881.36 19.64 881.36 16.78 885.53 12.61 881.36 8.44 881.36 5.47 905.85 5.47 905.85 8.44 901.79 12.61 905.85 16.78 905.85 19.64 881.36 19.64"/><polygon class="cls-2" points="905.81 19.64 905.81 16.78 909.98 12.61 905.81 8.44 905.81 5.47 930.3 5.47 930.3 8.44 926.24 12.61 930.3 16.78 930.3 19.64 905.81 19.64"/><polygon class="cls-2" points="930.3 19.64 930.3 16.78 934.47 12.61 930.3 8.44 930.3 5.47 954.79 5.47 954.79 8.44 950.73 12.61 954.79 16.78 954.79 19.64 930.3 19.64"/><polygon class="cls-2" points="954.79 19.64 954.79 16.78 958.96 12.61 954.79 8.44 954.79 5.47 979.28 5.47 979.28 8.44 975.21 12.61 979.28 16.78 979.28 19.64 954.79 19.64"/><polygon class="cls-2" points="979.28 19.64 979.28 16.78 983.45 12.61 979.28 8.44 979.28 5.47 1003.77 5.47 1003.77 8.44 999.7 12.61 1003.77 16.78 1003.77 19.64 979.28 19.64"/><polygon class="cls-2" points="1003.77 19.64 1003.77 16.78 1007.94 12.61 1003.77 8.44 1003.77 5.47 1028.26 5.47 1028.26 8.44 1024.19 12.61 1028.26 16.78 1028.26 19.64 1003.77 19.64"/><polygon class="cls-2" points="1028.22 19.64 1028.22 16.78 1032.39 12.61 1028.22 8.44 1028.22 5.47 1052.71 5.47 1052.71 8.44 1048.64 12.61 1052.71 16.78 1052.71 19.64 1028.22 19.64"/><polygon class="cls-2" points="1052.71 19.64 1052.71 16.78 1056.88 12.61 1052.71 8.44 1052.71 5.47 1077.2 5.47 1077.2 8.44 1073.13 12.61 1077.2 16.78 1077.2 19.64 1052.71 19.64"/><polygon class="cls-2" points="1077.2 19.64 1077.2 16.78 1081.37 12.61 1077.2 8.44 1077.2 5.47 1101.68 5.47 1101.68 8.44 1097.62 12.61 1101.68 16.78 1101.68 19.64 1077.2 19.64"/><polygon class="cls-2" points="1101.68 19.64 1101.68 16.78 1105.86 12.61 1101.68 8.44 1101.68 5.47 1126.17 5.47 1126.17 8.44 1122.11 12.61 1126.17 16.78 1126.17 19.64 1101.68 19.64"/><polygon class="cls-2" points="1126.17 19.64 1126.17 16.78 1130.35 12.61 1126.17 8.44 1126.17 5.47 1150.66 5.47 1150.66 8.44 1146.6 12.61 1150.66 16.78 1150.66 19.64 1126.17 19.64"/><polygon class="cls-2" points="1150.62 19.64 1150.62 16.78 1154.8 12.61 1150.62 8.44 1150.62 5.47 1175.11 5.47 1175.11 8.44 1171.05 12.61 1175.11 16.78 1175.11 19.64 1150.62 19.64"/><polygon class="cls-2" points="1175.11 19.64 1175.11 16.78 1179.29 12.61 1175.11 8.44 1175.11 5.47 1199.6 5.47 1199.6 8.44 1195.54 12.61 1199.6 16.78 1199.6 19.64 1175.11 19.64"/></g></g></svg>