<svg id="Layer_1" data-name="Layer 1" xmlns="http://www.w3.org/2000/svg" viewBox="0 0 79.08 51.9"><defs><style>.cls-1{fill:#166c76;}</style></defs><title>arrow</title><path class="cls-1" d="M330.38,501.25h79a7,7,0,0,0-1.69-5.62c-2.31-2.75-20-20.37-20-20.37s-5.12-1.5-5.87,2.69l15.63,17.75s-60.44-.75-63.75.19S330.38,501.25,330.38,501.25Z" transform="translate(-330.37 -474.99)"/><path class="cls-1" d="M330.38,500.63h79a7,7,0,0,1-1.69,5.63c-2.31,2.75-20,20.38-20,20.38s-5.12,1.5-5.87-2.69l15.63-17.75s-60.44.75-63.75-.19S330.38,500.63,330.38,500.63Z" transform="translate(-330.37 -474.99)"/></svg>