<svg xmlns="http://www.w3.org/2000/svg" viewBox="0 0 569.17 296.28"><defs><style>.cls-1{fill:#17562a;}</style></defs><title>Bicycle Dude</title><g id="Layer_2" data-name="Layer 2"><g id="Layer_1-2" data-name="Layer 1"><path class="cls-1" d="M208.6,190.18c0-.78-.06-1.53-.11-2.31A13.78,13.78,0,0,0,181,189.76a78.82,78.82,0,1,1-27.76-60.1l.83.72c5.9,4.7,13.63,4.9,17.49.33s2.42-12.46-3.45-17.55a.15.15,0,0,1-.11-.08c-.72-.53-1.45-1.06-2.2-1.59a.66.66,0,0,0-.25-.17,105.06,105.06,0,0,0-61.22-19.47C46.73,91.86,0,137.64,0,194.07S46.73,296.28,104.36,296.28s104.33-45.75,104.33-102.21C208.68,192.76,208.66,191.46,208.6,190.18Zm360.49,0c0-.78-.06-1.53-.11-2.31a13.78,13.78,0,0,0-27.48,1.89A78.86,78.86,0,1,1,390.42,158c18.89,18.69,32,23.89,56,34.74,29.43,13.32,48.31,5.65,48.76-13.29.61-24.78-29-14.41-65.08-27.34a98.35,98.35,0,0,1-26.37-14.82,78.93,78.93,0,0,1,110-7.65l.83.72c5.9,4.7,13.63,4.9,17.49.33s2.42-12.46-3.45-17.55a.15.15,0,0,1-.11-.08c-.72-.53-1.45-1.06-2.2-1.59a.66.66,0,0,0-.25-.17,105.88,105.88,0,0,0-137.23,12.74,220.64,220.64,0,0,1-32.07-42.3c-7.84-13.49-6.84-21.14-15.1-18.11s7,46.42,33.63,77.93a100.1,100.1,0,0,0-14.8,52.48c0,56.46,46.73,102.21,104.36,102.21s104.33-45.75,104.33-102.21C569.17,192.76,569.15,191.46,569.09,190.18ZM231.18,246.46c12.75,11.35,30.83,8.58,41.26-4.64s63.24-60,53.31-102.21c-10.2-43.34-61.81-29.26-67.42-49.72-5.82-21.2,21.3-46.7,115.4-59.91l1.39-12.05c-83.9-3.24-149.27,21.79-148.11,67s20.63,45.66,40.79,53.54,23.26,7.78,12.75,23.87C257.37,197.79,199.42,218.18,231.18,246.46ZM426.11,0c-21.38,0-38.72,10.31-38.72,23s17.34,23,38.72,23,38.72-10.31,38.72-23S447.49,0,426.11,0Z"/></g></g></svg>