<svg id="Layer_1" data-name="Layer 1" xmlns="http://www.w3.org/2000/svg" viewBox="0 0 1337.45 199.86"><defs><style>.cls-1{fill:#17562a;}.cls-2{fill:#fff;}</style></defs><title>cutLogoR</title><rect class="cls-1" width="1337.45" height="199.86"/><g id="Layer_1-2" data-name="Layer 1"><g id="Layer_2-2" data-name="Layer 2-2"><g id="Layer_1-2-2" data-name="Layer 1-2"><path class="cls-2" d="M131.77,110.5H113.64v-.11h-.07l-3.44-6c3.54.3,3.89-1,3-2.59s-3.32-5.28-3.32-5.28c3.47.25,4.7-.6,3.09-3.18s-5.25-8.88-5.83-10c-.77-1.43-1.9-2-3.12-.11s-5.13,8.91-6.08,10.17-1,3.64,2.92,3.29c0,0-1.83,3.21-2.81,4.79s-.94,3.59,2.69,3.12l-3,5.77h-.07v.11H89.78v-.11h.16l-.16-.28v0h0l-4.07-6.88,2.59.14c1.52.08,2.31-1.8,1.14-3.53s-3.84-5.94-3.84-5.94S87,94,88.16,94s2.55-.87,1.53-3-4-6.53-4-6.53,1,.11,2.58.14,2.33-1.46,1-3.55-6.22-10.76-6.89-12c-.86-1.63-2.47-2-3.52-.27-1.16,1.88-7.11,11.93-7.57,12.7S70.15,85.4,75,84.55c0,0-3.1,5.19-4.07,7-.78,1.46.6,3.06,4.11,2.34,0,0-3,4.56-3.87,6.43-.71,1.55-.31,3.79,3.83,2.87l-3.78,6.9H71.2v.13l-.08.15h.08v.11h-8v-.11h.26l-3.63-6.06c.94.54,5,.31,3.1-2.84s-3.33-5.16-3.33-5.16c2.33.37,4.81.56,3.33-2.67A101,101,0,0,0,56.82,83c-.57-.68-1.74-1.89-2.93,0S48.45,92.29,47.6,93.8s.11,3.33,3.06,2.78c0,0-2.15,3.76-3.06,5.31s.51,3.33,3.22,2.56l-3.41,5.64-.19.3v.11H28.91a4.35,4.35,0,0,1-3.07-7.42L76.76,52.24a5,5,0,0,1,7.1,0h0l50.89,51.07A4.21,4.21,0,0,1,131.77,110.5ZM41,127.1l0,0,0,0Zm0,0,0,0,0,0Zm5.86,6.18a1.79,1.79,0,0,0,0,.24.22.22,0,0,0,0,0,1.13,1.13,0,0,0,0-.2Zm0,.24a1.79,1.79,0,0,0,0-.24,1.46,1.46,0,0,0-2.92.2A8.37,8.37,0,1,1,41,127.1l.09.08a1.34,1.34,0,0,0,1.85,0,1.38,1.38,0,0,0-.37-1.86h0l-.23-.17,0,0a11.15,11.15,0,0,0-6.5-2.07,10.85,10.85,0,1,0,11.08,10.85v-.41Zm38.27,0a1.79,1.79,0,0,0,0-.24,1.46,1.46,0,0,0-2.92.2,8.37,8.37,0,1,1-16-3.37c2,2,3.4,2.54,5.94,3.69,3.12,1.41,5.13.6,5.18-1.41.06-2.63-3.08-1.53-6.91-2.9a10.44,10.44,0,0,1-2.8-1.57,8.38,8.38,0,0,1,11.68-.81l.09.08a1.34,1.34,0,0,0,1.85,0,1.38,1.38,0,0,0-.37-1.86h0l-.23-.17,0,0A11.24,11.24,0,0,0,66,126.51a23.42,23.42,0,0,1-3.4-4.48c-.83-1.43-.73-2.24-1.6-1.92s.74,4.93,3.57,8.27A10.63,10.63,0,0,0,63,133.95a11.07,11.07,0,0,0,22.15,0v-.42ZM41,127.1l0,0,0,0Zm8.27,12.4a3,3,0,0,0,4.38-.49c1.11-1.4,6.71-6.37,5.66-10.85s-6.56-3.11-7.16-5.28,2.26-5,12.26-6.36l.15-1.28c-8.91-.34-15.84,2.31-15.72,7.11S51,127.2,53.18,128s2.47.83,1.35,2.53c-2.46,3.76-8.61,5.92-5.24,8.93ZM129.72,143c2-.21,2.21-1.89,1.07-4a12.25,12.25,0,0,0-5.55-4.41c-3.59-1.34-8-1.92-8.72-1.13-.53.57.17,1.33,1.69,1.39s6.31,1.59,8,4.06,1.79,4.24,3.51,4.05ZM70,113.33c-2.27,0-4.11,1.09-4.11,2.44s1.84,2.44,4.11,2.44,4.11-1.09,4.11-2.44S72.25,113.33,70,113.33Zm65.44,9.36c-1.16-1-3.33,1.3-4.65,2s-7.82,2.56-11.48,1.18c1.56-1.89,2.55-3.45,2-3.76-.82-.48-1.73.72-3.61,2.82l-.1.11c-3.8-1.87-9.92-4-14.91-2.12-5.49,2.09-6.37,5-4.5,6s2.56-1.33,6.35-3.47c3.46-1.95,8.59-1.11,12.19.54-2.84,3.15-9.63,10.15-17.53,12-8.62,2-14.05-1.8-14.05,2.81,0,2.95,8,2.82,15.18.48,4.39-1.44,7.53-3.84,13.33-9.41,1.46-1.41,3.27-3.28,4.78-5a18.27,18.27,0,0,0,11.68.82c4.41-1,6.52-4,5.29-5Zm-12.84-6.36c-1.13,2-1.11,4.11.06,4.78s3-.37,4.17-2.34,1.11-4.11-.06-4.78-3,.37-4.17,2.34Zm57.58-26.56C194,83,187.61,63.29,170.74,63.29H149.25c-3,.35-4.26,1.78-4.26,6.57v41.74c-.53,3.91.53,6.75,3.2,6.75h25.5C193.3,118.36,194.72,93,180.15,89.76Zm-24.51-17.4h10.3c15.45-1.25,11.54,13.14,4.44,13.33H155.64Zm14,38.54h-14V94.56h14c14.57,1.07,9.6,16.17,0,16.34ZM226,64.26H204.49c-3,.36-4.26,1.78-4.26,6.57V115a4.69,4.69,0,0,0,5.09,5,5.5,5.5,0,0,0,5.82-4.95l.27-17.54,13.11-.09c7.57.09,17.28-5.33,17.27-15.26,0-8.81-3.19-18-15.81-18Zm-1.72,24.45H211.39V72.38h9c13.48-1.52,12.83,16.32,3.87,16.32Zm62.07,31.37c-5.64,0-9.18-14-9.18-14l-22.57-.19c-1.92,6.48-3.36,13.86-8.53,13.74s-6.48-4.44-3.72-11.64,14.4-36.5,14.4-36.5c2.2-4.88,3.93-8.64,8.7-8.64s7.2,2.82,9.78,9.85,14.84,36.2,14.84,36.2c2.89,6.84,1.93,11.16-3.71,11.19ZM273.79,97l-8.1-21.43L257.83,97Zm47.52-25.31c7.59,0,10.83,4,12.66,7.46,1.67,3.13,2.46,5.53,5.66,5.26s6.07-2.35,4.2-8.86c-2-7.13-11.9-12.77-22.11-12.77-12.59,0-26,8.84-26,26.76,0,20.92,10.86,30.1,25.57,30.1s23.3-8.26,23.3-19.45c0-5.2-7.44-4.33-9.18-.74-1.85,3.86-3.13,11.52-13.19,11.52s-15.25-7.16-15.25-19.8,6.59-19.48,14.39-19.48ZM155.61,140a4.88,4.88,0,0,1-3.23,1.1,5.56,5.56,0,0,1-2.91-.81,4.75,4.75,0,0,1-2-2.44,10.46,10.46,0,0,1-.64-3.82,10.24,10.24,0,0,1,.54-3.29,5,5,0,0,1,1.87-2.55,5.54,5.54,0,0,1,3.31-.95,4.62,4.62,0,0,1,2.85.85,5.3,5.3,0,0,1,1.73,2.73l2.24-.53a6.81,6.81,0,0,0-2.45-3.69,7,7,0,0,0-4.33-1.31,8.51,8.51,0,0,0-4.16,1,7,7,0,0,0-2.91,3,10.08,10.08,0,0,0-1,4.68,11.66,11.66,0,0,0,.91,4.6,7,7,0,0,0,2.65,3.27,8.15,8.15,0,0,0,4.51,1.13,7.08,7.08,0,0,0,4.53-1.47,7.63,7.63,0,0,0,2.57-4.26l-2.27-.57A5.66,5.66,0,0,1,155.61,140Zm8.64,2.75V125.61h-2.1v17.15Zm13.46-1.48a29.62,29.62,0,0,1-.14-3.71v-2.81a11.7,11.7,0,0,0-.11-1.94,3.32,3.32,0,0,0-.66-1.43,3.41,3.41,0,0,0-1.46-.94,7.55,7.55,0,0,0-2.59-.37,8.3,8.3,0,0,0-2.82.44,4,4,0,0,0-1.85,1.25,5.09,5.09,0,0,0-.93,2.13l2.06.28a3.22,3.22,0,0,1,1-1.85,3.63,3.63,0,0,1,2.19-.52,3.56,3.56,0,0,1,2.41.71,2.32,2.32,0,0,1,.6,1.81c0,.08,0,.26,0,.56a19.31,19.31,0,0,1-3.75.73,15,15,0,0,0-1.88.31,5.09,5.09,0,0,0-1.51.69,3.46,3.46,0,0,0-1.5,2.88,3.3,3.3,0,0,0,1.1,2.55,4.51,4.51,0,0,0,3.15,1,6.52,6.52,0,0,0,2.32-.41,7.87,7.87,0,0,0,2.25-1.4,4.45,4.45,0,0,0,.42,1.53h2.2A4.69,4.69,0,0,1,177.7,141.28Zm-2.27-4a5.1,5.1,0,0,1-.34,2.11,3.27,3.27,0,0,1-1.39,1.46,4.35,4.35,0,0,1-2.17.53,2.77,2.77,0,0,1-1.87-.56,1.83,1.83,0,0,1,.49-3.09,7.91,7.91,0,0,1,1.84-.42,15.42,15.42,0,0,0,3.44-.8Zm7.48,5.45v-6.5a8.2,8.2,0,0,1,.35-2.46,2.25,2.25,0,0,1,.78-1.15,2,2,0,0,1,1.24-.41,3,3,0,0,1,1.54.46l.73-2a4.11,4.11,0,0,0-2.16-.68,2.34,2.34,0,0,0-1.35.42,5.15,5.15,0,0,0-1.34,1.74v-1.88h-1.9v12.42Zm8,0v-4.92l1.48-1.43,4.11,6.35h2.59l-5.23-7.81,4.75-4.61h-2.72l-5,5.05v-9.78h-2.1v17.15ZM218.17,140a4.88,4.88,0,0,1-3.23,1.1,5.56,5.56,0,0,1-2.91-.81,4.75,4.75,0,0,1-2-2.44,10.46,10.46,0,0,1-.64-3.82,10.24,10.24,0,0,1,.54-3.29,5,5,0,0,1,1.87-2.55,5.54,5.54,0,0,1,3.31-.95,4.62,4.62,0,0,1,2.85.85,5.3,5.3,0,0,1,1.73,2.73l2.23-.53a6.81,6.81,0,0,0-2.45-3.69,7,7,0,0,0-4.33-1.31,8.51,8.51,0,0,0-4.16,1,7,7,0,0,0-2.91,3,10.08,10.08,0,0,0-1,4.68,11.66,11.66,0,0,0,.91,4.6,7,7,0,0,0,2.65,3.27,8.15,8.15,0,0,0,4.51,1.13,7.08,7.08,0,0,0,4.53-1.47,7.63,7.63,0,0,0,2.57-4.26l-2.27-.57a5.61,5.61,0,0,1-1.79,3.26ZM234,131.73A5.58,5.58,0,0,0,229.8,130a5.78,5.78,0,0,0-3.91,1.38,6.41,6.41,0,0,0-1.92,5.11,6.66,6.66,0,0,0,1.61,4.81A5.6,5.6,0,0,0,229.8,143a6.11,6.11,0,0,0,3-.76,5.09,5.09,0,0,0,2.1-2.13,8.22,8.22,0,0,0,.72-3.77,6.37,6.37,0,0,0-1.63-4.63Zm-1.58,8.38a3.47,3.47,0,0,1-5.23,0,6.64,6.64,0,0,1,0-7.14,3.47,3.47,0,0,1,5.23,0,5.12,5.12,0,0,1,1,3.49A5.43,5.43,0,0,1,232.41,140.11Zm7.79,2.65v-6.44a7.67,7.67,0,0,1,.34-2.59,2.66,2.66,0,0,1,1.09-1.37,3.06,3.06,0,0,1,1.64-.47,2,2,0,0,1,1.68.7,3.55,3.55,0,0,1,.51,2.11v8.06h2.11v-7.22a3.83,3.83,0,0,1,.87-2.79,2.94,2.94,0,0,1,2.18-.87,2.32,2.32,0,0,1,1.26.34,1.76,1.76,0,0,1,.74.89,5.74,5.74,0,0,1,.21,1.82v7.83h2.1v-8.53a4.35,4.35,0,0,0-1-3.15,3.81,3.81,0,0,0-2.84-1,4.46,4.46,0,0,0-3.84,2.18,3.07,3.07,0,0,0-1.25-1.6,4.08,4.08,0,0,0-2.26-.57,4.37,4.37,0,0,0-2.21.56,4.43,4.43,0,0,0-1.56,1.47v-1.74h-1.88v12.42Zm20,0v-6.44a7.67,7.67,0,0,1,.34-2.59,2.65,2.65,0,0,1,1.09-1.37,3.06,3.06,0,0,1,1.64-.47,2,2,0,0,1,1.68.7,3.55,3.55,0,0,1,.51,2.11v8.06h2.11v-7.22a3.83,3.83,0,0,1,.87-2.79,2.94,2.94,0,0,1,2.18-.87,2.32,2.32,0,0,1,1.26.34,1.76,1.76,0,0,1,.74.89,5.74,5.74,0,0,1,.21,1.82v7.83h2.09v-8.53a4.35,4.35,0,0,0-1-3.15,3.81,3.81,0,0,0-2.84-1,4.46,4.46,0,0,0-3.84,2.18,3.07,3.07,0,0,0-1.25-1.6,4.08,4.08,0,0,0-2.26-.57,4.37,4.37,0,0,0-2.21.56,4.43,4.43,0,0,0-1.56,1.47v-1.74H258v12.42Zm27.88,0V130.34h-2.11V137a6.65,6.65,0,0,1-.34,2.43,2.7,2.7,0,0,1-1.18,1.32,3.47,3.47,0,0,1-1.78.48,2.61,2.61,0,0,1-1.59-.47,2.2,2.2,0,0,1-.84-1.3,12.13,12.13,0,0,1-.13-2.22v-6.91H278V138a10.66,10.66,0,0,0,.13,2,4,4,0,0,0,.65,1.56,3.38,3.38,0,0,0,1.42,1.06,5,5,0,0,0,2.05.42,4.55,4.55,0,0,0,3.94-2.11v1.82Zm5.4,0V136q0-2.39,1-3.24a3.41,3.41,0,0,1,2.32-.85,2.78,2.78,0,0,1,1.47.37,2,2,0,0,1,.87,1,5.67,5.67,0,0,1,.25,1.93v7.56h2.11v-7.64a12.06,12.06,0,0,0-.12-2,4.07,4.07,0,0,0-.66-1.56,3.25,3.25,0,0,0-1.41-1.06,5.18,5.18,0,0,0-2.07-.4,4.46,4.46,0,0,0-4,2v-1.76h-1.9v12.42ZM306.78,128v-2.42h-2.1V128Zm0,14.73V130.34h-2.1v12.42Zm6.88-1.8a1.4,1.4,0,0,1-.72-.15.88.88,0,0,1-.37-.41,3.67,3.67,0,0,1-.11-1.16V132h2.12v-1.64h-2.12V126l-2.1,1.26v3.08h-1.54V132h1.54v7.15a7.54,7.54,0,0,0,.26,2.49,2,2,0,0,0,.89,1,3.54,3.54,0,0,0,1.78.37,7.83,7.83,0,0,0,1.59-.19l-.3-1.85a6.87,6.87,0,0,1-.93.06Zm5.1-12.93v-2.42h-2.12V128Zm0,14.73V130.34h-2.12v12.42Zm14-6.24a6.74,6.74,0,0,0-1.58-4.77,5.31,5.31,0,0,0-4.07-1.7,5.47,5.47,0,0,0-4.19,1.73,6.86,6.86,0,0,0-1.61,4.87,6.56,6.56,0,0,0,1.6,4.71,6.46,6.46,0,0,0,7.88.62,5.32,5.32,0,0,0,1.91-3l-2.18-.27a4,4,0,0,1-1.3,1.94,3.23,3.23,0,0,1-2,.61,3.45,3.45,0,0,1-2.59-1.09,4.77,4.77,0,0,1-1.16-3.14h9.27v-.57Zm-9.16-1.17a3.81,3.81,0,0,1,1.09-2.59,3.34,3.34,0,0,1,2.44-1A3.23,3.23,0,0,1,329.7,133a4.21,4.21,0,0,1,.8,2.35ZM336.07,142a5.84,5.84,0,0,0,3.69,1,6.45,6.45,0,0,0,2.62-.51,4,4,0,0,0,1.77-1.44,3.53,3.53,0,0,0,.61-2,3.09,3.09,0,0,0-.5-1.8,3.17,3.17,0,0,0-1.39-1.11,26,26,0,0,0-3.12-1q-1.54-.42-1.86-.54a1.85,1.85,0,0,1-.81-.56,1.16,1.16,0,0,1-.26-.74,1.4,1.4,0,0,1,.62-1.12,3.45,3.45,0,0,1,2.07-.48,3,3,0,0,1,1.9.54,2.25,2.25,0,0,1,.81,1.5l2.06-.28a4.46,4.46,0,0,0-.73-1.93,3.49,3.49,0,0,0-1.63-1.14,7.19,7.19,0,0,0-2.57-.42,6.37,6.37,0,0,0-1.82.25,4.34,4.34,0,0,0-1.34.61,3.41,3.41,0,0,0-1,1.18,3.2,3.2,0,0,0-.38,1.54,3.07,3.07,0,0,0,1.82,2.85,19.63,19.63,0,0,0,3.21,1,9.12,9.12,0,0,1,2.15.71,1.28,1.28,0,0,1,.62,1.12,1.77,1.77,0,0,1-.7,1.39,3.29,3.29,0,0,1-2.15.59,3.37,3.37,0,0,1-2.24-.67,2.91,2.91,0,0,1-1-1.92l-2.09.34a4.69,4.69,0,0,0,1.62,3Z" transform="translate(-0.65 -0.5)"/></g></g></g></svg>