<svg xmlns="http://www.w3.org/2000/svg" viewBox="0 0 1729.93 507.91"><defs><style>.cls-1{fill:#17562a;}</style></defs><title>Horizontal Logo</title><g id="Layer_2" data-name="Layer 2"><g id="Layer_1-2" data-name="Layer 1"><path class="cls-1" d="M579.2,322.68H481.28v-.59h-.4l-18.6-32.43c19.14,1.6,21-5.41,16.46-14s-17.93-28.55-17.93-28.55c18.76,1.34,25.39-3.24,16.68-17.16S449.15,182,446,176.08c-4.15-7.72-10.29-10.7-16.84-.59-6.84,10.57-27.71,48.12-32.86,54.93s-5.39,19.67,15.77,17.75c0,0-9.87,17.34-15.18,25.89s-5.06,19.41,14.51,16.84l-16.11,31.18h-.37v.59H352.39v-.57h.89l-.89-1.5v-.11h-.06l-22-37.15s5.81.33,14,.75,12.46-9.7,6.14-19.08-20.74-32.11-20.74-32.11,7.8.57,13.86.65,13.76-4.72,8.29-16-21.82-35.27-21.82-35.27,5.22.57,13.94.75,12.6-7.88,5.55-19.17-33.59-58.12-37.24-65c-4.66-8.79-13.37-10.61-19-1.48-6.27,10.13-38.42,64.45-40.91,68.6s-6.14,21.07,20.34,16.51c0,0-16.75,28.06-22,37.83-4.23,7.88,3.24,16.51,22.23,12.62,0,0-16.3,24.64-20.91,34.76-3.81,8.39-1.66,20.5,20.67,15.52l-20.34,37.31H252v.72l-.43.8-5.2.08H252v.59H208.95v-.59h1.47l-19.63-32.76c5.06,2.9,27.12,1.66,16.75-15.34s-18-27.88-18-27.88c12.6,2,26,3,18-14.43s-30.19-53.93-33.26-57.58-9.38-10.21-15.85.16-29.36,50-33.93,58.17.57,18,16.51,15c0,0-11.61,20.32-16.51,28.71s2.73,18,17.42,13.84L123.5,320.49l-1,1.6v.59h-99c-20.94,0-31.42-25.33-16.6-40.11L282,7.94a27.12,27.12,0,0,1,38.39,0L595.3,283.84C609.61,298.2,599.45,322.68,579.2,322.68ZM88.89,412.35a2.52,2.52,0,0,0,.21.21l.27.21Zm0,0a2.52,2.52,0,0,0,.21.21l.27.21Zm31.68,33.38c0,.45,0,.88.06,1.32a1.21,1.21,0,0,0,0-.24A6.1,6.1,0,0,0,120.57,445.73Zm.06,1.32c0-.45,0-.88-.06-1.32a7.9,7.9,0,0,0-15.76,1.08,45.2,45.2,0,1,1-15.92-34.47l.48.41c3.38,2.7,7.82,2.81,10,.19s1.39-7.15-2-10.06a.09.09,0,0,1-.06,0l-1.26-.91a.38.38,0,0,0-.14-.1,60.25,60.25,0,0,0-35.11-11.17C27.8,390.67,1,416.93,1,449.29s26.8,58.62,59.84,58.62,59.83-26.24,59.83-58.62C120.68,448.54,120.66,447.79,120.63,447.06Zm206.73,0c0-.45,0-.88-.06-1.32a7.9,7.9,0,0,0-15.76,1.08,45.23,45.23,0,1,1-86.64-18.2c10.83,10.72,18.36,13.7,32.11,19.92,16.88,7.64,27.71,3.24,28-7.62.35-14.21-16.64-8.26-37.32-15.68a56.4,56.4,0,0,1-15.12-8.5,45.26,45.26,0,0,1,63.1-4.39l.48.41c3.38,2.7,7.82,2.81,10,.19s1.39-7.15-2-10.06a.09.09,0,0,1-.06,0l-1.26-.91a.38.38,0,0,0-.14-.1,60.72,60.72,0,0,0-78.7,7.31,126.53,126.53,0,0,1-18.39-24.26c-4.5-7.74-3.92-12.12-8.66-10.38s4,26.62,19.28,44.69a57.41,57.41,0,0,0-8.49,30.1c0,32.38,26.8,58.62,59.84,58.62s59.83-26.24,59.83-58.62C327.41,448.54,327.39,447.79,327.36,447.06ZM88.89,412.35a2.52,2.52,0,0,0,.21.21l.27.21Zm44.69,67c7.31,6.51,17.68,4.92,23.66-2.66s36.27-34.41,30.57-58.62c-5.85-24.86-35.44-16.78-38.66-28.52-3.34-12.16,12.21-26.78,66.18-34.35l.8-6.91c-48.12-1.86-85.6,12.49-84.93,38.41s11.83,26.18,23.39,30.7,13.34,4.46,7.31,13.69C148.6,451.42,115.37,463.12,133.58,479.33Zm434.57,19.16c10.67-1.14,11.93-10.2,5.78-21.41-4-7.28-16.95-18.94-30-23.83-19.37-7.24-43.16-10.37-47.09-6.09-2.84,3.09.92,7.19,9.11,7.49s34.11,8.58,43.26,21.93C557.94,489.3,558.87,499.48,568.15,498.49ZM245.36,338c-12.26,0-22.2,5.91-22.2,13.2s9.94,13.2,22.2,13.2,22.2-5.91,22.2-13.2S257.63,338,245.36,338Zm353.56,50.55c-6.25-5.18-18,7-25.12,10.77-6.83,3.65-42.25,13.84-62,6.38,8.41-10.22,13.78-18.63,10.94-20.32-4.42-2.6-9.36,3.91-19.51,15.26-.16.19-.33.38-.53.59-20.54-10.08-53.62-21.74-80.55-11.48-29.64,11.29-34.42,26.84-24.32,32.57s13.83-7.18,34.29-18.73c18.68-10.53,46.41-6,65.87,2.9-15.33,17-52,54.82-94.71,64.8-46.57,10.86-75.87-9.78-75.86,15.15,0,15.93,43.34,15.26,82,2.58,23.72-7.78,40.67-20.74,72-50.85,7.91-7.61,17.67-17.74,25.81-27.1,18.65,8.69,40.88,9.41,63.11,4.45C594.14,410.21,605.59,394.09,598.93,388.55Zm-69.39-34.38c-6.13,10.62-6,22.19.33,25.83s16.4-2,22.54-12.63,6-22.19-.33-25.83S535.67,343.55,529.54,354.17ZM840.62,210.65c74.85-36.45,40.3-143-50.84-143H673.66c-16.29,1.91-23,9.59-23,35.5V328.68c-2.87,21.13,2.88,36.47,17.27,36.47H805.7C911.64,365.15,919.32,227.93,840.62,210.65Zm-132.42-94h55.67c83.49-6.73,62.36,71,24,72H708.2ZM784,324.85H708.2V236.56H784C862.7,242.32,835.84,323.9,784,324.85Zm304.16-252H972.09c-16.32,1.92-23,9.59-23,35.49V347.18s-1.81,27.18,27.49,27.18S1008,347.62,1008,347.62l1.44-94.74,70.84-.46c40.88.49,93.33-28.81,93.3-82.44C1173.54,122.36,1156.32,72.83,1088.19,72.83Zm-9.27,132.07h-69.52V116.72H1058C1130.84,108.49,1127.3,204.89,1078.92,204.89Zm335.36,169.47c-30.48.17-49.6-75.74-49.6-75.74l-121.94-.95c-10.39,35-18.16,74.9-46.06,74.24s-35-24-20.09-62.9,77.81-197.19,77.81-197.19c11.86-26.34,21.22-46.69,47-46.69s38.92,15.26,52.85,53.2,80.11,195.55,80.11,195.55C1449.94,350.84,1444.76,374.22,1414.27,374.36ZM1346.51,250l-43.78-115.78L1260.24,250Zm256.72-136.73c41,0,58.51,21.78,68.37,40.3,9,16.91,13.31,29.87,30.59,28.43s32.78-12.69,22.67-47.86c-11.07-38.5-64.3-69-119.46-69-68,0-140.69,47.77-140.69,144.56,0,113,58.65,162.64,138.17,162.64s125.86-44.62,125.86-105.07c0-28.07-40.22-23.39-49.58-4-10,20.86-16.91,62.25-71.25,62.25s-82.4-38.66-82.4-106.95S1561.13,113.27,1603.23,113.27ZM708,482.12a26.37,26.37,0,0,1-17.45,5.94,30.05,30.05,0,0,1-15.74-4.36,25.66,25.66,0,0,1-10.71-13.18,56.52,56.52,0,0,1-3.44-20.64,55.34,55.34,0,0,1,2.91-17.79,27,27,0,0,1,10.08-13.75q7.17-5.12,17.86-5.12,9.29,0,15.42,4.61t9.36,14.73l12.07-2.84q-3.73-12.83-13.21-19.91t-23.39-7.08a46,46,0,0,0-22.47,5.59,37.9,37.9,0,0,0-15.74,16.37Q648,435.47,648,449.95a63,63,0,0,0,4.9,24.84q4.9,11.57,14.29,17.67t24.37,6.1q14.47,0,24.49-7.93t13.87-23l-12.26-3.1Q715.11,476.18,708,482.12ZM754.67,497V404.31H743.3V497Zm72.72-8.06q-.73-4.19-.73-20.06V453.68a63.2,63.2,0,0,0-.57-10.49,17.93,17.93,0,0,0-3.54-7.75,18.42,18.42,0,0,0-7.9-5.09q-5.36-2-14-2a44.83,44.83,0,0,0-15.24,2.38,21.82,21.82,0,0,0-10,6.76,27.52,27.52,0,0,0-5,11.53l11.13,1.52q1.83-7.14,5.66-10t11.85-2.81q8.59,0,13,3.86,3.22,2.83,3.22,9.79c0,.43,0,1.42-.07,3q-6.5,2.27-20.28,3.92A80.84,80.84,0,0,0,784.76,460a27.49,27.49,0,0,0-8.18,3.73,18.68,18.68,0,0,0-8.12,15.55,17.83,17.83,0,0,0,5.94,13.81q5.94,5.41,17,5.4a35.22,35.22,0,0,0,12.54-2.21,42.52,42.52,0,0,0,12.17-7.58,24.06,24.06,0,0,0,2.28,8.28h11.88A25.32,25.32,0,0,1,827.4,488.91Zm-12.24-21.46q0,7.52-1.83,11.38a17.69,17.69,0,0,1-7.52,7.87,23.51,23.51,0,0,1-11.7,2.87q-6.63,0-10.08-3a10.05,10.05,0,0,1-1.86-13,9.93,9.93,0,0,1,4.49-3.69,42.74,42.74,0,0,1,9.92-2.27q12.39-1.77,18.58-4.3ZM855.56,497V461.83a44.32,44.32,0,0,1,1.9-13.28,12.15,12.15,0,0,1,4.23-6.23,10.83,10.83,0,0,1,6.7-2.24,16.29,16.29,0,0,1,8.34,2.46L880.65,432A22.21,22.21,0,0,0,869,428.33a12.63,12.63,0,0,0-7.3,2.28q-3.32,2.28-7.24,9.42V429.85H844.18V497Zm43.3,0V470.36l8-7.71L929.07,497h14l-28.25-42.22,25.66-24.9H925.78l-26.93,27.31V404.31H887.48V497ZM1046,482.12a26.37,26.37,0,0,1-17.45,5.94,30.05,30.05,0,0,1-15.74-4.36,25.66,25.66,0,0,1-10.71-13.18,56.52,56.52,0,0,1-3.44-20.64,55.34,55.34,0,0,1,2.91-17.79,27,27,0,0,1,10.08-13.75q7.17-5.12,17.86-5.12,9.29,0,15.42,4.61t9.36,14.73l12.07-2.84q-3.73-12.83-13.21-19.91t-23.39-7.08a46,46,0,0,0-22.47,5.59,37.9,37.9,0,0,0-15.74,16.37Q986,435.47,986,449.95a63,63,0,0,0,4.9,24.84q4.9,11.57,14.29,17.67t24.37,6.1q14.47,0,24.49-7.93t13.87-23l-12.26-3.1Q1053.15,476.18,1046,482.12Zm85.46-44.72q-8.79-9.07-22.63-9.07-12.45,0-21.11,7.47-10.36,9-10.36,27.62,0,17,8.69,26t22.79,9a33,33,0,0,0,16.21-4.1,27.5,27.5,0,0,0,11.31-11.54q3.89-7.43,3.89-20.39Q1140.25,446.47,1131.46,437.4Zm-8.53,45.29a18.73,18.73,0,0,1-28.25,0q-5.62-6.41-5.63-19.31t5.63-19.28a18.77,18.77,0,0,1,28.23,0q5.66,6.41,5.65,18.87Q1128.56,476.25,1122.93,482.69ZM1165,497V462.15q0-9.16,1.83-14a14.35,14.35,0,0,1,5.91-7.4,16.54,16.54,0,0,1,8.88-2.53q6.32,0,9.1,3.79t2.78,11.38V497h11.38V458q0-10.37,4.68-15.07a15.9,15.9,0,0,1,11.76-4.71,12.53,12.53,0,0,1,6.82,1.83,9.52,9.52,0,0,1,4,4.83q1.11,3,1.11,9.83V497h11.32V450.9q0-11.5-5.38-17t-15.36-5.53q-12.77,0-20.73,11.76a16.57,16.57,0,0,0-6.73-8.66q-4.77-3.1-12.23-3.1a23.63,23.63,0,0,0-11.95,3,23.92,23.92,0,0,0-8.41,7.93v-9.42h-10.18V497Zm107.83,0V462.15q0-9.16,1.83-14a14.34,14.34,0,0,1,5.91-7.4,16.54,16.54,0,0,1,8.88-2.53q6.32,0,9.1,3.79t2.78,11.38V497h11.38V458q0-10.37,4.68-15.07a15.89,15.89,0,0,1,11.76-4.71,12.54,12.54,0,0,1,6.83,1.83,9.52,9.52,0,0,1,4,4.83q1.11,3,1.11,9.83V497h11.32V450.9q0-11.5-5.37-17t-15.36-5.53q-12.77,0-20.73,11.76a16.58,16.58,0,0,0-6.73-8.66q-4.77-3.1-12.23-3.1a23.62,23.62,0,0,0-11.95,3,23.92,23.92,0,0,0-8.41,7.93v-9.42h-10.18V497Zm150.63,0V429.85h-11.38v36q0,8.6-1.86,13.12a14.58,14.58,0,0,1-6.35,7.14,18.73,18.73,0,0,1-9.61,2.62,14.09,14.09,0,0,1-8.6-2.56,11.86,11.86,0,0,1-4.55-7q-.7-3.1-.69-12V429.85H1369v41.59a57.59,57.59,0,0,0,.7,10.62,21.41,21.41,0,0,0,3.51,8.44,18.27,18.27,0,0,0,7.65,5.72,27.16,27.16,0,0,0,11.09,2.28q13.46,0,21.3-11.38V497Zm29.2,0V460.31q0-12.89,5.28-17.51a18.43,18.43,0,0,1,12.55-4.61,15,15,0,0,1,7.93,2.05,11,11,0,0,1,4.71,5.5q1.33,3.45,1.33,10.4V497h11.38V455.7a65.16,65.16,0,0,0-.63-11.06,22,22,0,0,0-3.54-8.41,17.56,17.56,0,0,0-7.62-5.72,28,28,0,0,0-11.16-2.18q-14,0-21.36,11.06v-9.54h-10.24V497Zm72.06-79.58V404.31h-11.38V417.4Zm0,79.58V429.85h-11.38V497Zm37.17-9.73a7.57,7.57,0,0,1-3.89-.82,4.74,4.74,0,0,1-2-2.21q-.6-1.39-.6-6.26V438.7h11.44v-8.85h-11.44V406.4l-11.32,6.83v16.62h-8.34v8.85h8.34v38.62q0,10.24,1.39,13.43a11,11,0,0,0,4.8,5.15q3.41,2,9.61,2a42.29,42.29,0,0,0,8.6-1l-1.64-10A37.13,37.13,0,0,1,1561.86,487.24Zm27.56-69.85V404.31H1578V417.4Zm0,79.58V429.85H1578V497Zm75.4-33.69q0-16.62-8.53-25.79t-22-9.17q-13.9,0-22.63,9.36t-8.72,26.3q0,16.38,8.63,25.45t23.35,9.06q11.7,0,19.21-5.69t10.3-16l-11.76-1.45q-2.59,7.21-7,10.49a17.43,17.43,0,0,1-10.68,3.28,18.62,18.62,0,0,1-14-5.87q-5.63-5.87-6.26-16.94h50.06C1664.8,465,1664.82,464,1664.82,463.28ZM1615.33,457q.56-8.79,5.91-14a18.07,18.07,0,0,1,13.18-5.25,17.45,17.45,0,0,1,14.09,6.58q3.54,4.23,4.3,12.71Zm67.6,36.09q6.86,5.44,19.94,5.44a34.86,34.86,0,0,0,14.16-2.75,21.44,21.44,0,0,0,9.58-7.78,19.09,19.09,0,0,0,3.32-10.71,16.68,16.68,0,0,0-2.72-9.74,17.11,17.11,0,0,0-7.49-6,140.2,140.2,0,0,0-16.84-5.28q-8.34-2.28-10.05-2.91a10,10,0,0,1-4.36-3,6.27,6.27,0,0,1-1.39-4,7.55,7.55,0,0,1,3.35-6.07q3.35-2.59,11.19-2.59,6.64,0,10.27,2.91a12.17,12.17,0,0,1,4.39,8.09l11.12-1.52a24.09,24.09,0,0,0-3.92-10.4,18.86,18.86,0,0,0-8.82-6.16,38.84,38.84,0,0,0-13.87-2.28,34.41,34.41,0,0,0-9.83,1.36,23.44,23.44,0,0,0-7.24,3.32,18.42,18.42,0,0,0-5.59,6.35,17.29,17.29,0,0,0-2.06,8.31,16.56,16.56,0,0,0,9.83,15.39q4.84,2.31,17.35,5.47,9.29,2.34,11.63,3.86a6.91,6.91,0,0,1,3.35,6.07,9.55,9.55,0,0,1-3.79,7.49q-3.79,3.19-11.63,3.19t-12.1-3.6q-4.33-3.6-5.28-10.37l-11.25,1.77Q1676.08,487.62,1682.93,493.06Z"/></g></g></svg>