<svg xmlns="http://www.w3.org/2000/svg" viewBox="0 0 79.08 51.9"><defs><style>.cls-1{fill:#166c76;}</style></defs><title>Asset 1</title><g id="Layer_2" data-name="Layer 2"><g id="Layer_1-2" data-name="Layer 1"><path class="cls-1" d="M0,26.26H79a7,7,0,0,0-1.69-5.62C75,17.89,57.31.26,57.31.26s-5.12-1.5-5.87,2.69L67.06,20.7s-60.44-.75-63.75.19S0,26.26,0,26.26Z"/><path class="cls-1" d="M0,25.64H79a7,7,0,0,1-1.69,5.63c-2.31,2.75-20,20.37-20,20.37s-5.12,1.5-5.87-2.69L67.06,31.2S6.63,31.95,3.31,31,0,25.64,0,25.64Z"/></g></g></svg>