<svg id="Layer_1" data-name="Layer 1" xmlns="http://www.w3.org/2000/svg" viewBox="0 0 400 400"><defs><style>.cls-1{fill:#406f7c;}</style></defs><title>q1</title><g id="Layer_2" data-name="Layer 2"><g id="Layer_1-2" data-name="Layer 1-2"><path class="cls-1" d="M0,210.17a311.63,311.63,0,0,0,93.78,72.24,305.87,305.87,0,0,0,109.8,30.79c9.45,1,19,1.3,28.48,1.36s19-.28,28.52-1c19-1.38,37.75-4.24,55.14-11A116.06,116.06,0,0,0,340.39,289a176.78,176.78,0,0,0,22.16-19.24c7.05-7.06,13.69-14.78,20.34-22.48,3.32-3.87,6.58-7.83,9.86-11.79l2.48-2.94q1.25-1.41,2.36-3a11.36,11.36,0,0,0,1.65-3.28,4.65,4.65,0,0,0-.33-3.69,5,5,0,0,1,1.06,3.86,12.76,12.76,0,0,1-1.18,4q-.87,1.81-1.9,3.51l-2,3.38q-4,6.72-8.09,13.37A287.4,287.4,0,0,1,369,276.47a168.56,168.56,0,0,1-21.58,23c-2,1.64-4,3.46-6.15,4.93l-3.17,2.38L334.78,309a108.06,108.06,0,0,1-13.71,7.85,147.48,147.48,0,0,1-29.2,10.25,230.33,230.33,0,0,1-29.82,5.06,298.8,298.8,0,0,1-60,.64A272.32,272.32,0,0,1,87.39,296.16,246.32,246.32,0,0,1,61.9,279a248.17,248.17,0,0,1-23.37-20.2A239.72,239.72,0,0,1,0,210.17Z" transform="translate(0 0)"/><path class="cls-1" d="M.56,39.73A10.44,10.44,0,0,1,3,33.62a60.29,60.29,0,0,1,4.09-4.73c2.78-3,5.71-5.88,8.74-8.6s6.21-5.29,9.47-7.7c1.63-1.23,3.29-2.36,5-3.51a59.46,59.46,0,0,1,5.34-3.28A56.38,56.38,0,0,1,41.6,2.9,42.44,42.44,0,0,1,48.24.82,41.44,41.44,0,0,1,62.09.39,85.94,85.94,0,0,1,86,8.22l68.55,31.2L81.11,27a52.34,52.34,0,0,0-18.42.21A54.52,54.52,0,0,0,44.9,34,97.69,97.69,0,0,0,28.3,47c-5.45,5-10.75,10.59-16.61,15.81a131,131,0,0,1,9.92-22A77.88,77.88,0,0,1,36.92,21.45a57.15,57.15,0,0,1,22-12.28,56.55,56.55,0,0,1,25-1.64L79,26.28c-3.47-1.54-6.82-3.07-10.09-4.35a57.55,57.55,0,0,0-9.5-3,31.4,31.4,0,0,0-8.92-.82,38.1,38.1,0,0,0-9.32,2c-3.26,1.12-6.78,2.53-10.25,4s-7,3-10.45,4.52-7,3.17-10.57,4.81c-1.74.84-3.58,1.64-5.22,2.48A9,9,0,0,0,.56,39.73Z" transform="translate(0 0)"/><path class="cls-1" d="M365.21,31.73a52.9,52.9,0,0,0-12.08-5.14,70.21,70.21,0,0,0-12.35-2.17,113.24,113.24,0,0,0-12.5-.31c-2.08,0-4.2.11-6.3.28s-4.15.26-6.21.48a75.24,75.24,0,0,0-22.86,5.58c-6.84,3.05-13.59,7.91-20.87,13.14l-6.61-17.73a94.71,94.71,0,0,1,23.48-1.22c1.95.16,3.9.43,5.83.64l5.72,1,5.69,1.36,5.59,1.64a90.4,90.4,0,0,1,21,10.21,78.34,78.34,0,0,1,17.59,15.63,186.92,186.92,0,0,0-20.72-7.29A143,143,0,0,0,309,43.67c-1.72-.15-3.43-.34-5.12-.54l-5.12-.31-5.16-.11c-1.69,0-3.38.1-5.07.08a114.56,114.56,0,0,0-20,2.4L227,54l35-26.62c3.59-2.73,7.38-5.52,11.48-8.13a65.86,65.86,0,0,1,42-10.62,102,102,0,0,1,13.79,1.82,82.9,82.9,0,0,1,13.5,3.91,56.1,56.1,0,0,1,12.56,6.85A39,39,0,0,1,365.21,31.73Z" transform="translate(0 0)"/><path class="cls-1" d="M178.54,73.75a14.34,14.34,0,0,1,4.11,3.61,20.12,20.12,0,0,1,2.72,5.27,28.81,28.81,0,0,1,1.28,6,38.59,38.59,0,0,1,0,6.14,42.08,42.08,0,0,1-.92,6.08,54,54,0,0,1-1.72,5.75c-1.27,3.65-2.76,7-4.08,10.11a81.19,81.19,0,0,0-3.28,8.8,28.36,28.36,0,0,0-1.19,7.72,30,30,0,0,0,3.64,14.58,24.88,24.88,0,0,0,10,10.26,27.63,27.63,0,0,0,14.54,3.46A29.26,29.26,0,0,0,219,156.12a43.72,43.72,0,0,0,13-14.51,36.12,36.12,0,0,1-6.89,21.54,35.45,35.45,0,0,1-19.05,13.63,36.14,36.14,0,0,1-23.8-1.64,38.57,38.57,0,0,1-10.74-6.93,39.79,39.79,0,0,1-8.08-10.54,45,45,0,0,1-5-26.19A41.48,41.48,0,0,1,162,118.64a65.45,65.45,0,0,1,5.8-10l5.81-8.21c.94-1.33,1.72-2.63,2.46-3.87a34.47,34.47,0,0,0,2.08-4,29.82,29.82,0,0,0,2.31-9,21.53,21.53,0,0,0-.21-4.93A18.26,18.26,0,0,0,178.54,73.75Z" transform="translate(0 0)"/><path class="cls-1" d="M333.68,304.26c-10.48,9.85-20.76,19.57-30.54,29.82-4.92,5.09-9.69,10.29-14.4,15.57s-9.42,10.72-14.39,16.07a177.91,177.91,0,0,1-16,15.42,91.53,91.53,0,0,1-19.16,12.63,62,62,0,0,1-22.65,6.12,79.56,79.56,0,0,1-22.75-2,169.37,169.37,0,0,1-20.73-6.57c-3.32-1.3-6.49-2.56-9.83-3.94a105.72,105.72,0,0,1-10.13-4.73A66.18,66.18,0,0,1,143,376a49.25,49.25,0,0,1-8.8-9.24c-5-6.78-8.14-13.82-11.4-19.95-6.25-12.08-15.1-23-24.16-34.12S80.55,290.2,72.05,278.36c11.26,8.73,22.06,18.06,32.78,27.37,5.34,4.73,10.69,9.61,15.79,15a122.35,122.35,0,0,1,14.22,17.75c4.15,6.37,7.64,12.48,11.57,17a36.36,36.36,0,0,0,6.31,5.8,49.24,49.24,0,0,0,7.73,4.47q4.2,2,8.88,3.71c3,1.17,6.39,2.35,9.54,3.45a160.63,160.63,0,0,0,18.74,5.73,65.21,65.21,0,0,0,18,1.9,48,48,0,0,0,17.12-3.94A85.08,85.08,0,0,0,249.13,367c5.34-3.87,10.57-8.21,15.81-12.84s10.46-9.41,15.9-14.1,11.05-9.24,16.79-13.5A237.37,237.37,0,0,1,333.68,304.26Z" transform="translate(0 0)"/></g></g></svg>