<svg id="Layer_1" data-name="Layer 1" xmlns="http://www.w3.org/2000/svg" xmlns:xlink="http://www.w3.org/1999/xlink" viewBox="0 0 413.65 384.07"><defs><style>.cls-1,.cls-15,.cls-17,.cls-20{fill:none;}.cls-2{clip-path:url(#clip-path);}.cls-3{fill:#17562a;}.cls-4{fill:#4c4c4c;}.cls-13,.cls-5{fill:#c6c6c6;}.cls-6{fill:#3e403b;}.cls-7{fill:#262626;}.cls-8{fill:#f7f7f7;}.cls-10,.cls-9{fill:#ededed;}.cls-9{opacity:0.57;}.cls-13,.cls-19,.cls-9{isolation:isolate;}.cls-11{fill:#9b3d3d;}.cls-12,.cls-19{fill:#d8d8d8;}.cls-13,.cls-19{opacity:0.69;}.cls-14{fill:#c1c1c1;}.cls-15,.cls-17,.cls-20{stroke:#fff;stroke-miterlimit:10;}.cls-15{stroke-width:0.78px;}.cls-16{clip-path:url(#clip-path-2);}.cls-17{stroke-width:0.78px;}.cls-18{clip-path:url(#clip-path-3);}.cls-20{stroke-width:0.78px;}.cls-21{font-size:29px;font-family:MyriadPro-Regular, Myriad Pro;}</style><clipPath id="clip-path" transform="translate(-15 -16.75)"><rect class="cls-1" x="80" y="112" width="320" height="158"/></clipPath><clipPath id="clip-path-2" transform="translate(-15 -16.75)"><rect class="cls-1" x="80" y="-24" width="320" height="158"/></clipPath><clipPath id="clip-path-3" transform="translate(-15 -16.75)"><rect class="cls-1" x="80" y="244" width="320" height="156"/></clipPath></defs><title>q10</title><g class="cls-2"><polygon class="cls-3" points="384.68 136.53 384.68 241.71 379.89 237.22 379.62 236.97 272.43 136.53 384.68 136.53"/><polygon class="cls-3" points="177.5 136.53 165.93 147.31 146.54 165.39 64.68 241.71 64.68 136.53 177.5 136.53"/><polygon class="cls-4" points="384.68 165.39 303.93 165.39 379.62 236.97 379.89 237.22 383.07 240.24 383.53 240.67 384.68 241.76 384.68 254.08 64.68 254.08 64.68 241.74 146.57 165.39 64.68 165.39 64.68 147.31 165.97 147.31 177.5 136.55 206.7 136.55 206.71 136.53 273.41 136.53 284.81 147.31 384.68 147.31 384.68 165.39"/><path class="cls-5" d="M237.33,181.16a5.57,5.57,0,0,1-.63,2,1.12,1.12,0,0,0,.08.52c.13.59-1.72.58-1.86,0v-.25a.24.24,0,0,1-.08-.36v0a.62.62,0,0,0-.3-.55,19.24,19.24,0,0,0-2.06-.29,16.81,16.81,0,0,1-3.33-.94c-1.79-.82-1-2,1.11-2.39,1.59-.32,6-1.1,7,0C237.89,179.53,237.46,180.51,237.33,181.16Z" transform="translate(-15 -16.75)"/><path class="cls-6" d="M241.4,193.63a22.22,22.22,0,0,0-9.38-7.06,2.33,2.33,0,0,0-.83-.14l-.17-.12-.2.15c-1,.75-1.48,1.65-2.36,2.44-.22.6-.49,1.19-.67,1.82a16.64,16.64,0,0,0-.1,4.24,11.71,11.71,0,0,0,.48,4,6.12,6.12,0,0,0,2.51,3.47c1.5.9,4.6.66,6.67.55,2.22-.14,4.57-.25,5.46-1.37C244.71,199.18,243.31,195.94,241.4,193.63Z" transform="translate(-15 -16.75)"/><path class="cls-7" d="M321.77,199.73c-1.44.88-3.94,1-6.07,1.13-2.51.18-5.06.29-7.59.37-5.64.18-11.31.3-17,.39-11.46.16-22.93,0-34.36-.52h-.23a2.49,2.49,0,0,1-1,.09c-4.44-.41-3.68-3.58-1.2-4.77,1.71-.82,4-.9,6.28-1l9.43-.33q16.68-.61,33.42-.31,4.36.1,8.69.3a52.17,52.17,0,0,1,6.58.5C322.14,196.18,324.27,198.21,321.77,199.73Z" transform="translate(-15 -16.75)"/><path class="cls-6" d="M257.82,202.25a3.82,3.82,0,0,1-2.91,3.09,19.69,19.69,0,0,1-6.67.4c-5.42-.72-4.26-4.64-4.22-6.7a48.62,48.62,0,0,0-.88-9.74c-.11-.62,1.31-.77,2.1-.46,0-.34.56-.61,1.24-.63,3-.1,5.56.2,7.42,1.43a9.89,9.89,0,0,1,3.33,4.11A11.14,11.14,0,0,1,257.82,202.25Z" transform="translate(-15 -16.75)"/><path class="cls-6" d="M336.1,197.27c-.27-.58-.58-1.15-.86-1.72a5.28,5.28,0,0,0-1-.27,45.75,45.75,0,0,0-8.48-.33,11,11,0,0,0-6.12,1.54.63.63,0,0,0-.16.17c-.6,0-1,.3-1,.6a3.28,3.28,0,0,0,.77,1.89,6.93,6.93,0,0,1,1,2.32c.33,1.27,1,2.19,3.53,2.67a31.83,31.83,0,0,0,8.21.38c2.32-.12,4.1-1.08,4.14-2.23a11.35,11.35,0,0,1,.31-2.11A6.79,6.79,0,0,0,336.1,197.27Z" transform="translate(-15 -16.75)"/><path class="cls-8" d="M336.91,186.41a19.4,19.4,0,0,0-3.24-4.86,4.53,4.53,0,0,0-2.57-1.62c-.7-.19-2.53-.22-3-.55a1.86,1.86,0,0,0-.52-.27c-1.38-2.27-4.24-4.24-8.12-5.63a23.54,23.54,0,0,0-4.44-1.71,31.73,31.73,0,0,0-8-1.31c-3.56-.07-7.14,0-10.71,0-14.18,0-28.52-.22-42.57.93l-.24,0a.63.63,0,0,0-.27,0,20,20,0,0,0-2.44,1,4.25,4.25,0,0,0-1.19.67,13.61,13.61,0,0,1-2,1.65c-.8.47-1.67.91-2.42,1.39-2.94,1.88-4.26,4.39-7.9,6q-.39.17-.82.32l-.34.19c-.62.36-1.11.79-1.64,1.16a15.11,15.11,0,0,1-1.32.84,18.4,18.4,0,0,1-2.22,1.89,7.49,7.49,0,0,0-1.11,1,2.39,2.39,0,0,0,.43.16c.88,2.78,1.53,5.57,2.22,8.36A3,3,0,0,0,235,198.6a51.73,51.73,0,0,0,7.18,1.27c1,.12,2-.18,2.29-.68a.48.48,0,0,0,0-.45,13.76,13.76,0,0,1-.52-3.47c-.23-1.07,0-2.13-.27-3.19a5.08,5.08,0,0,1,.1-2.9,1.24,1.24,0,0,1,1.13-.29,1.08,1.08,0,0,1,.5.19,3.75,3.75,0,0,1,1.11,2.06l.11.25c.38.91.73,1.82,1.11,2.74l2.1,5.24c.3.75,2.11.8,3.11.41,4.32-1.68,9.83-2.28,15.22-2.49l1.44,0c6.84-.2,13.76-.06,20.61,0,7.33,0,14.67,0,22,0s14.67.19,21.92.73a2.59,2.59,0,0,0,2.38-.65.49.49,0,0,0,0-.45c-.42-.86.23-1.77.5-2.62a14.46,14.46,0,0,0,.6-2.64A10,10,0,0,0,336.91,186.41Zm-92.79-6.67a11.27,11.27,0,0,1-5.27,2h-.08c2.46-1.37,3.79-3.13,5.8-4.69,1.36-1,3.33-1.85,4.63-2.91l.29-.26a.32.32,0,0,0,.17-.07,2.61,2.61,0,0,1,1.53-.43,2.71,2.71,0,0,0-.41.22,3.37,3.37,0,0,0-.84.84,14.63,14.63,0,0,1-1.52,1.5,10.79,10.79,0,0,0-1.11,1.17.27.27,0,0,0-.11.08A11.26,11.26,0,0,1,244.12,179.74Zm2.62.74h0a1.59,1.59,0,0,1-.59-.29.66.66,0,0,1,.24-.93c.8-.88,1.72-1.74,2.59-2.62s1.9-3.43,5-2.87c.41.07.66.28.6.49.1.39-.12.79-.62,1.1a15.47,15.47,0,0,0-2.59,2.74C250.72,178.86,249.36,181.27,246.74,180.48Zm6.67-2.86a26.68,26.68,0,0,1-2.17,2.62l-1.46.25a4,4,0,0,0,.89-.8,36.1,36.1,0,0,0,2.39-3.14,7.27,7.27,0,0,1,2.56-2.16c.11,1-1.72,2.64-2.23,3.23Zm71.2,1.1c-3.81-.24-7.78-.08-11.64-.08h-.08c-3.41.09-6.77.18-10.19.16s-7.06-.07-10.59-.07H292l-7.42.47c-2.52.11-5.06.15-7.59.12-5,0-10.28.2-15.29-.08l-.24,0c-.33,0-.61-.11-.68-.27-.14-.5-.86-.87-1.11-1.37a4.42,4.42,0,0,1-.21-1.27,2.88,2.88,0,0,1,1-2.64c.87-.65,2.66-.7,4.07-.8,2.07-.1,4.15-.14,6.23-.12,9.67,0,19.32-.42,29-.45h9.54c2.32,0,4.9-.18,7,.41,4.1,1.16,6.17,3.34,8.81,5.18a.27.27,0,0,1,.16.26c.38.24.13.63-.64.58Z" transform="translate(-15 -16.75)"/><path class="cls-9" d="M237.19,182.05q-.39.17-.82.32A5.09,5.09,0,0,1,237.19,182.05Z" transform="translate(-15 -16.75)"/><path class="cls-9" d="M236.34,182.38l-.34.19a.24.24,0,0,1,.16-.12Z" transform="translate(-15 -16.75)"/><path class="cls-10" d="M281.9,191.72c-3.46,0-6.92.18-10.38.18-3.18,0-6.74.15-9.87-.16-3.69-.38-4.44-2.27-5.2-3.84a24.74,24.74,0,0,1-.88-2.52c0-.42-.41-.81-1-1.1a4.8,4.8,0,0,0-3.7.37,8.34,8.34,0,0,0-2,1.94l-1.94,2.1a4.7,4.7,0,0,0-1.11-1c-.73-.5-1.31-.69-.56-1.4a5.61,5.61,0,0,1,1.38-.88,5.45,5.45,0,0,1,2.22-.6,5.81,5.81,0,0,0,1.54,0c.33-.1.55-.27.59-.46.3-.72-1-1.25-2.22-1.42a7.11,7.11,0,0,1-2-.32,7.54,7.54,0,0,1-.9-.63,3,3,0,0,0-1-.43l1.73-1c.08,0,.11-.1.1-.16s0-.08-.1-.1l-.48-.19-.28-.11a.68.68,0,0,0-.37,0c.26-.15-.22-.37-.57-.24a35.32,35.32,0,0,0-4,1.91c-.14.08-.13.19,0,.26a.63.63,0,0,0,.24,0l1.48,0c-1,.22-2.13.4-3.22.55-.2,0-.3.14-.23.24a.36.36,0,0,0,.23.11,18.66,18.66,0,0,1,2.88.32q.71,0,.18.38c.1.34-.16.46-.79.36a4,4,0,0,1-2.14-.45.68.68,0,0,0-.53,0,.22.22,0,0,0-.09.08c-.56.82-2.64.46-3.89.55a5.29,5.29,0,0,0-2,.44,13.3,13.3,0,0,1-1.43,1.26,15.54,15.54,0,0,0-.64,1.43l-.61-.42a8.35,8.35,0,0,0-.58.6,2.39,2.39,0,0,0,.43.16c.88,2.78,1.53,5.57,2.22,8.36a3,3,0,0,0,2.56,2.62,51.73,51.73,0,0,0,7.18,1.27c1,.12,2-.18,2.29-.68a.48.48,0,0,0,0-.45,13.76,13.76,0,0,1-.52-3.47c-.23-1.07,0-2.13-.27-3.19a5.08,5.08,0,0,1,.1-2.9,1.24,1.24,0,0,1,1.13-.29,1.08,1.08,0,0,1,.5.19,3.75,3.75,0,0,1,1.11,2.06l.11.25c.38.91.73,1.82,1.11,2.74l2.1,5.24c.3.75,2.11.8,3.11.41,4.32-1.68,9.83-2.28,15.22-2.49l-.76-.3A79.94,79.94,0,0,1,278.78,196l12.08-.55c.2,0,.36-.08.37-.18C291.27,192.77,286.16,191.76,281.9,191.72Z" transform="translate(-15 -16.75)"/><path class="cls-8" d="M295.31,183.52c.69,0,1.39,0,2.08.05h8.89a2.24,2.24,0,0,1,.74.12c.36.13.56.33.56.55,0,1,.46,2.28.09,3.29-.28.78-1.53.8-2.91.8l-14.26,0h-.31a1.77,1.77,0,0,1-1.57-.36.34.34,0,0,1-.07-.24,9,9,0,0,0-.36-3.5.44.44,0,0,1,0-.33.73.73,0,0,1,.43-.37Z" transform="translate(-15 -16.75)"/><path class="cls-5" d="M315.36,183l-4,.55-2.22.08c-8.59.28-17.19.31-25.8.33h0l-1.77-.25h.24a.41.41,0,0,1,.33-.12c8.52,0,17.06,0,25.56-.29Q311.51,183.18,315.36,183Z" transform="translate(-15 -16.75)"/><path class="cls-11" d="M283.28,183.94h-.07a.34.34,0,0,1-.22.11,20.92,20.92,0,0,0-3.33.77c-1,.35-1.82.83-2.83,1.2a15.33,15.33,0,0,1-4.36.55c-2.11.09-4.22.12-6.34.13h-.84c-2.62,0-5.24,0-7.84,0a.43.43,0,0,1-.32-.1l-.11-.06c-1.2-1-5-4.5,0-4.35,3.1.09,6.22.37,9.3.55,1.19.07,2.39.13,3.57.24l.41,0h.12c1.85.08,3.68.23,5.47.47s3.69.23,5.56.24Z" transform="translate(-15 -16.75)"/><path class="cls-11" d="M335.23,185.05a1,1,0,0,1-.79.43,27.78,27.78,0,0,1-4.44.07h-2.44l-2.8,0c-1.57.07-3.16.08-4.73,0a13,13,0,0,1-2.82-.6l-5.09-1.39c-.11,0-.18-.09-.18-.15h-.61l4-.55c1.84-.09,3.69-.19,5.56-.31a62,62,0,0,0,11.82-1.48.63.63,0,0,1,.51.07,5.79,5.79,0,0,1,1.78,2A2,2,0,0,1,335.23,185.05Z" transform="translate(-15 -16.75)"/><path class="cls-5" d="M329.21,185.56c-1,2.51-2.91,4.89-8.77,5.21-3.48.19-7.06.13-10.54.2l-11,.26c-7.46.21-14.94.18-22.39-.11a20.32,20.32,0,0,1-7.09-1.16,10.91,10.91,0,0,1-3.92-3.14.09.09,0,0,1,0-.1h.74a10.36,10.36,0,0,0,3.73,3c2.51,1.1,6.31,1.07,9.49,1.17q9.35.25,18.72,0c6.26-.13,12.5-.32,18.76-.4,3.13,0,6.39,0,8.63-1.29a6.38,6.38,0,0,0,2.94-3.63Z" transform="translate(-15 -16.75)"/><path class="cls-1" d="M324.69,185.61h-.74" transform="translate(-15 -16.75)"/><path class="cls-1" d="M324.69,185.61h-.74" transform="translate(-15 -16.75)"/><path class="cls-12" d="M328.46,185.57a6.2,6.2,0,0,1-2.94,3.63c-2.22,1.26-5.56,1.25-8.63,1.29-6.26.08-12.5.27-18.76.4s-12.49.16-18.72,0c-3.18-.1-7-.05-9.49-1.17a10.37,10.37,0,0,1-3.74-3c2.12,0,4.23,0,6.34-.13a23.18,23.18,0,0,0,3.33-.29,6.84,6.84,0,0,0,.67-.16c2,1.84,6.26,2.5,10.24,2.48,4.57,0,9-.55,13.62-.55s9.2.23,13.8.32c.5,0,1,0,1.6,0a4.92,4.92,0,0,0,1.81-1,9.94,9.94,0,0,0,1.64-1.9,7.2,7.2,0,0,0,.73.09,8.82,8.82,0,0,1-2.22,2.39,4.53,4.53,0,0,1-.79.44,25.9,25.9,0,0,0,4-.12,3.58,3.58,0,0,0,3-2.74h.81Z" transform="translate(-15 -16.75)"/><line class="cls-1" x1="251.4" y1="169.99" x2="251.18" y2="169.99"/><line class="cls-1" x1="250.43" y1="169.98" x2="250.33" y2="169.98"/><line class="cls-1" x1="268.69" y1="167.25" x2="268.28" y2="167.2"/><line class="cls-1" x1="266.51" y1="166.95" x2="265.78" y2="166.85"/><line class="cls-1" x1="296.33" y1="166.79" x2="296.04" y2="166.83"/><path class="cls-5" d="M370.79,157.23a1.31,1.31,0,0,1-1,.3,3.08,3.08,0,0,1-.63.16,2.12,2.12,0,0,1-.79-.07l.12-.08a17.24,17.24,0,0,1,1.48-1.2C370.59,156.52,370.94,156.88,370.79,157.23Z" transform="translate(-15 -16.75)"/><path class="cls-13" d="M408.74,156.44c-.34-.93-2.14-1.4-3.77-1.72-2.06-.41-4.18-.75-6.33-1a107.66,107.66,0,0,0-20.08-.55,62.21,62.21,0,0,0-6.52.69,36.33,36.33,0,0,0-6.37,1.93,61.73,61.73,0,0,0-5.89,2.41c-.18.1-.18.25,0,.35a1.91,1.91,0,0,0,.39.18.71.71,0,0,0,.21.06,6.54,6.54,0,0,0,1.93.11,34.94,34.94,0,0,0,3.56-.43l.5-.09c8.4-.43,16.92-.16,25.36-.25,2.22,0,4.37,0,6.53-.16,0,.1.16.17.36.18a45.49,45.49,0,0,0,7,0,6.26,6.26,0,0,0,2.62-.55C408.75,157.23,408.91,156.83,408.74,156.44Zm-26.34-1.12a10.37,10.37,0,0,1-.84.77,2.09,2.09,0,0,0-1,1.55h-3.91q-4.3,0-8.59.17l.28-.16.12-.08a17.24,17.24,0,0,1,1.48-1.2l.22-.13a17.48,17.48,0,0,1,5.31-1.44q1.72-.26,3.49-.42c.65-.06,1.31-.09,2-.1a4.26,4.26,0,0,1,1.71.19c.32.22-.08.64-.27.84Zm18.79,1.82a12.84,12.84,0,0,1-2.49.32c-2.38.12-4.79.16-7.18.19s-4.58,0-6.87,0a.81.81,0,0,0,.56-.48l.43-1,.41-.91a5.22,5.22,0,0,1,.42-.94c0-.11.23-.2.47-.2h2.7a61.26,61.26,0,0,1,6.89.52q1.7.23,3.33.55c.82.16,2.22.35,2.58.81.19.47-.34.94-1.26,1.11Z" transform="translate(-15 -16.75)"/><path class="cls-7" d="M409.46,160.58a20.73,20.73,0,0,0-3.1-.13,21,21,0,0,0-3.09.27,7.66,7.66,0,0,0-3.39,1.32,2.11,2.11,0,0,0-.66.88,2.46,2.46,0,0,0-.74.44l-.37.42a.93.93,0,0,0,0,.94,5.86,5.86,0,0,0,2.91,2.53,13.36,13.36,0,0,0,4.94,1.56,16.77,16.77,0,0,0,6.67-.52,8,8,0,0,0,2.6-1.26,2.55,2.55,0,0,0,.92-1.76C416.41,163.22,413.6,161.07,409.46,160.58Z" transform="translate(-15 -16.75)"/><path class="cls-7" d="M351.63,163.9a1.94,1.94,0,0,0-.94-.8,6.23,6.23,0,0,0-3.59-2,16.63,16.63,0,0,0-4.31-.46,20.1,20.1,0,0,0-4.38.61c-2.63.53-4.05,1.94-3.33,3.29a1.89,1.89,0,0,0-.08.61,2.41,2.41,0,0,0,.74,1.52,6.59,6.59,0,0,0,2.77,1.48,16.27,16.27,0,0,0,8.34.08,8.47,8.47,0,0,0,1.39-.5,6.26,6.26,0,0,0,3.33-2.1A1.79,1.79,0,0,0,351.63,163.9Z" transform="translate(-15 -16.75)"/><path class="cls-5" d="M412.92,163.88a4.46,4.46,0,0,0-2.47-1.29,14.59,14.59,0,0,0-4.39-.18.19.19,0,0,0-.13.06,11.57,11.57,0,0,0-2.79.84,1.89,1.89,0,0,0-1.17,1.54c-.19,1.26,1.17,2.46,3.46,3a11.18,11.18,0,0,0,3.4.21,8.56,8.56,0,0,0,3-1,2.63,2.63,0,0,0,1.64-1.54A2.23,2.23,0,0,0,412.92,163.88Zm-.66-.22.09.08a28,28,0,0,0-3.23.93.88.88,0,0,0-.36-.35,8.17,8.17,0,0,0,.47-.81,4,4,0,0,1,.4-.86,5.15,5.15,0,0,1,2.63,1Zm-9-.13a10.24,10.24,0,0,1,2.77-.87,10.44,10.44,0,0,0,1.11,1.33.52.52,0,0,0,.17.12,1.78,1.78,0,0,0-1,.37c-1-.37-2.16-.55-3.14-.88Zm.22,3.29a2.84,2.84,0,0,1-1.11-1.53h0a34.6,34.6,0,0,0,4-.08l.14.09c-.44.24-.8.52-1.26.76a11.45,11.45,0,0,1-1.77.72Zm6.19.92a8.51,8.51,0,0,1-3.33.09l-.19,0a7.17,7.17,0,0,0,1.33-2.19h0a.05.05,0,0,0,0,0,18.3,18.3,0,0,1,2.22,2.06h0Zm3.33-1.86a2.66,2.66,0,0,1-.92.8l-.12.08c-.53-.24-1.21-.37-1.73-.62a13.4,13.4,0,0,0-1.49-.69h0a1.07,1.07,0,0,0,.36-.22q2,0,4.07,0A1.08,1.08,0,0,1,413,165.88Z" transform="translate(-15 -16.75)"/><path class="cls-8" d="M427.3,160.85a3.65,3.65,0,0,1-.71-1.23,4,4,0,0,1,.08-1.31,1.47,1.47,0,0,0-.49-1.26,1.1,1.1,0,0,0-.69-.2c-4.63.08-9-.9-13.17-1.76l-6.8-1.4a35.24,35.24,0,0,0-6.67-1c-2.41,0-4.81,0-7.2,0s-4.86,0-7.28,0-4.8.11-7.18.3a55.42,55.42,0,0,0-6.24.92,111.06,111.06,0,0,0-12.66,3.61h0a115.46,115.46,0,0,0-18.89,1q-2.42.34-4.78.78a26.89,26.89,0,0,0-3.84.91,4,4,0,0,0-2.29,1.5,2.08,2.08,0,0,0,.67,2,1.82,1.82,0,0,1,.49,1.1c0,.41-.36.77.27,1.1a6.58,6.58,0,0,0,2.08.49l3,.44a1.06,1.06,0,0,0,1-.28c.08-.15,0-.3-.25-.4-.88-1.81,1-3.68,4.44-4.43,3.61-.73,7.75,0,9.69,1.65a2.25,2.25,0,0,1,.68,2.94c-.12.21.13.43.56.49h43.25c1.63,0,3.47.1,4.7-.55,1.89-1,1.36-2.55,3-3.61a11.88,11.88,0,0,1,7.13-1.29c2.81.37,5,1.44,5.79,2.82.38.66.18,1.61,1.78,1.89a13.62,13.62,0,0,0,2.72,0l2.71-.12a17.12,17.12,0,0,0,4.33-.63c1.36-.46,2.15-1.23,2.11-2A4.69,4.69,0,0,0,427.3,160.85Zm-19.46-3.52a10.38,10.38,0,0,1-4.22.55c-7.19,0-14.39,0-21.58.08-3.54,0-7.11,0-10.66.12s-7,.42-10.54.65c-.54,0-.81-.31-.48-.43l.11-.06,1.73-.73a66.78,66.78,0,0,1,7.39-2.67,41.24,41.24,0,0,1,8.66-1.49c3.39-.16,6.8-.16,10.19,0a99.5,99.5,0,0,1,10.27.66q2.43.32,4.78.78l2.28.47a11.76,11.76,0,0,1,1.86.48c1,.38,1.1,1.07.33,1.54l-.1.06Z" transform="translate(-15 -16.75)"/><path class="cls-5" d="M348.51,164.63a1.17,1.17,0,0,0-.16-.63,1.82,1.82,0,0,0-.82-.6c0-.05-.07-.1-.18-.11h-.06a16.1,16.1,0,0,0-3.74-1,.3.3,0,0,0-.26-.05h0a8,8,0,0,0-3.62.29,6.15,6.15,0,0,0-1.54.55,3.11,3.11,0,0,0-.73.55c-.11,0-.22,0-.24.07s0,.08.08.1a2.33,2.33,0,0,0-.51,1.1v.13h0c-.26,0-.26.2,0,.2h0a1.13,1.13,0,0,0,.13.67,3.24,3.24,0,0,0,1,.9,6.43,6.43,0,0,0,.6.36c-.1.08.1.18.27.14a7.74,7.74,0,0,0,1.91.6l.63.1c0,.08.28.14.37,0h0a13.41,13.41,0,0,0,2.51,0,8.26,8.26,0,0,0,1.84-.35,4.11,4.11,0,0,0,1.22-.69l.38-.3a.33.33,0,0,0,.27,0s0-.09,0-.12h0a3.74,3.74,0,0,0,.43-.44,1.71,1.71,0,0,0,.38-1v-.29c.09,0,.1-.1,0-.15Zm-5-2.12a16.52,16.52,0,0,1,2.81.65l.64.23-1.79.55a5,5,0,0,0-1.27.48,2.38,2.38,0,0,0-.79-.23A14.87,14.87,0,0,0,343.53,162.51ZM341,165.4a6.28,6.28,0,0,1-1.41.86c-.4.22-.62.52-1,.75a2.77,2.77,0,0,1-1.58-1.52v-.29c1.3,0,2.61,0,3.91-.06a.43.43,0,0,0,.07.12l.11.1a.23.23,0,0,0-.11,0Zm-3.33-1.68a2.79,2.79,0,0,1,.28-.24,5.74,5.74,0,0,1,2.32-.85,9.16,9.16,0,0,0,.82,1.1c.16.18.33.36.5.55a.85.85,0,0,0-.33.21c-1.24-.21-2.44-.47-3.59-.78Zm7,4a12.26,12.26,0,0,1-3,.1,2.44,2.44,0,0,0,.58-2.11h.31s0,.07.09.09a3.3,3.3,0,0,1,1.23.91c.37.32.77.63,1.19.93Zm3.33-2.19a2.17,2.17,0,0,1-.64.82c-.49-.14-1-.25-1.53-.36s-1.31-.34-1.92-.55h0a.68.68,0,0,0,.28-.38h0c1.3,0,2.6-.11,3.87-.25a2.15,2.15,0,0,1,0,.73Z" transform="translate(-15 -16.75)"/><path class="cls-10" d="M395.23,164.93a2.46,2.46,0,0,1-1.58.6c-.88.06-1.76.08-2.64.05h-3.09c-8,0-16,0-24,0H354.8a9.79,9.79,0,0,1-2.22-.18,2.28,2.28,0,0,1-1.32-.81,7.81,7.81,0,0,0-1.06-1.1,11,11,0,0,0-3.26-1.77c-.48-.18-.07-.55.41-.45l.23,0h17c1.8,0,3.6,0,5.4,0a16.79,16.79,0,0,1,4.58.41c.24.07.32.22.18.34a.7.7,0,0,1-.44.12h-3c-4,0-7.94,0-11.91,0-1,0-1.93,0-2.89.07-.62,0-2.07.28-1.3.7a7.46,7.46,0,0,0,2.4.48c1,.1,1.94.18,2.91.25a210.92,210.92,0,0,0,23.24.26c1.93-.07,3.87-.18,5.81-.21.94,0,1.88,0,2.82,0a9,9,0,0,1,2.37.31C395.31,164.3,395.48,164.64,395.23,164.93Z" transform="translate(-15 -16.75)"/><path class="cls-5" d="M367.32,157.25a1.24,1.24,0,0,0-.53-.76,2.71,2.71,0,0,0-1.47-.33,3.63,3.63,0,0,0-1.64.38,1.39,1.39,0,0,0-.34.46,2.71,2.71,0,0,0-.27.43,1.06,1.06,0,0,1-.29.09c-.41.1-.58.34-.38.54h0c.34.35,1,.24,1.51.06H364a.91.91,0,0,0,.26,0l.2.07a5,5,0,0,0,1.58.1,2,2,0,0,0,1.29-.35A.64.64,0,0,0,367.32,157.25Z" transform="translate(-15 -16.75)"/><path class="cls-12" d="M426.67,158.32a4,4,0,0,0-.08,1.31v0a.65.65,0,0,1-.18.09c-1,.32-2.22-.32-3-.55a6.36,6.36,0,0,1-1.42-.55c-.21-.2-.05-.44.34-.55a11.57,11.57,0,0,1,1.78-.21l1.9-.19a.75.75,0,0,1,.54.13h0A1.57,1.57,0,0,1,426.67,158.32Z" transform="translate(-15 -16.75)"/><path class="cls-11" d="M426.62,157.77h0a.75.75,0,0,0-.54-.13l-1.9.19a11.57,11.57,0,0,0-1.78.21c-.4.11-.55.35-.34.55a6.36,6.36,0,0,0,1.42.55c.69.25,2,.89,3,.55a.65.65,0,0,0,.18-.09v0a4,4,0,0,1,.08-1.31A1.57,1.57,0,0,0,426.62,157.77Z" transform="translate(-15 -16.75)"/><path class="cls-10" d="M428.31,162.25c-.08.5-.68.93-1.59,1.15a30.93,30.93,0,0,1-4.6.21c-.74,0-1.43.21-2.22.27a4.93,4.93,0,0,1-2.22-.25c-1.11-.42-1.88-1-2.9-1.51a7.77,7.77,0,0,0-3.54-.75c-.44,0-.8-.18-.8-.4h0c0-.1.08-.19.22-.26a.9.9,0,0,1,.77-.3,27.77,27.77,0,0,0,4.59-.47c1-.22,1.74-.61,2.68-.83h-.12c-1.49,0-2.93.14-4.44.18-2.84.06-5.71,0-8.57,0a.38.38,0,0,1-.19.37,4.08,4.08,0,0,1-1.61.39l-.22,0c.52,0,1,0,1.57.07.83.06.68.65,0,.76a10.94,10.94,0,0,0-1.34.3,3.37,3.37,0,0,1-2.41,1,2,2,0,0,1-.37.3,2.47,2.47,0,0,1-1.3.28h-.11a1.6,1.6,0,0,1-.37,0c-.76-.11-1.51-.24-2.22-.41l-.38-.09c-1.51-.09-3-.23-4.53-.3-2.74-.08-5.5-.05-8.23.07s-5.48.08-8.21,0c-5.44-.16-10.83-.45-16.28-.1-1.32.08-2.64.2-3.94.35a26.53,26.53,0,0,1-4,.27A16.89,16.89,0,0,1,348,162a17.61,17.61,0,0,0-3.49-.55c-.74,0-1.48,0-2.22,0l-2.48.16q-1.13.11-2.22.27c-1.62.25-3.33.7-3.81,1.57-.24.49-1.78.29-1.54-.21a.13.13,0,0,1,.08-.14h-.92c-.84,0-1-.55-.4-.74a27.38,27.38,0,0,1,3.92-1.1,37.83,37.83,0,0,1,4.32-.45l.54,0,.4,0c.66,0,1.31-.09,2-.12l6.43-.42,4.2-.27a11.64,11.64,0,0,1,1.9,0,14.46,14.46,0,0,1,1.48.35,5.55,5.55,0,0,0,1.58-.27,11.89,11.89,0,0,1,1.77-.12h4.07l8.46,0c2.77,0,5.55,0,8.3-.2s5.29-.51,8-.66,5.29,0,7.92.14c1.27,0,2.55,0,3.82,0,.68,0,1.36-.07,2-.14s1.11-.17,1.7-.22a4.6,4.6,0,0,1,.63,0h5c1.6,0,3.22,0,4.82,0s3-.2,4.59-.16h.2a.87.87,0,0,1,.28,0c1.45,0,2.91,0,4.36.05a5.09,5.09,0,0,1,2.77.94,2.78,2.78,0,0,1,.64.85,2.72,2.72,0,0,1,.23.47A6.39,6.39,0,0,1,428.31,162.25Z" transform="translate(-15 -16.75)"/><path class="cls-14" d="M335,160.83c-.91.3-1.87.58-2.86.82a5.38,5.38,0,0,0-1.39.65,1.81,1.81,0,0,1-1.11.37c-1.19,0-.74-.78-.61-1.1a2,2,0,0,0,.07-.55.3.3,0,0,1,.16-.25,5,5,0,0,1,1.24-.45h0a1,1,0,0,1,.75,0,.22.22,0,0,1,.13.17c0,.09-.11.18-.27.24l-.26.07s-.57.1-.3.07.67-.15,1-.24a4.55,4.55,0,0,1,.93-.09,18.59,18.59,0,0,1,2.37.18C334.9,160.74,335,160.78,335,160.83Z" transform="translate(-15 -16.75)"/><polyline class="cls-15" points="264.37 156.25 264.64 144.26 258.31 147.93 265.47 143.58 271.26 147.52"/><polyline class="cls-15" points="318.8 149.72 274.46 149.58 281.9 152.71 273.08 149.17 281.07 146.32"/></g><g class="cls-16"><polygon class="cls-3" points="384.68 0.53 384.68 105.71 379.89 101.22 379.62 100.97 272.43 0.53 384.68 0.53"/><polygon class="cls-3" points="177.5 0.53 165.93 11.31 146.54 29.39 64.68 105.71 64.68 0.53 177.5 0.53"/><polygon class="cls-4" points="384.68 29.39 303.93 29.39 379.62 100.97 379.89 101.22 383.07 104.24 383.53 104.67 384.68 105.76 384.68 118.08 64.68 118.08 64.68 105.74 146.57 29.39 64.68 29.39 64.68 11.31 165.97 11.31 177.5 0.55 206.7 0.55 206.71 0.53 273.41 0.53 284.81 11.31 384.68 11.31 384.68 29.39"/><polyline class="cls-17" points="250 18.98 250.28 6.98 243.94 10.65 251.1 6.3 256.89 10.25"/><polyline class="cls-17" points="304.43 12.44 260.09 12.3 267.53 15.43 258.71 11.9 266.7 9.04"/><path class="cls-5" d="M237.32,45.16a5.57,5.57,0,0,1-.63,2,1.12,1.12,0,0,0,.08.52c.13.59-1.72.58-1.86,0v-.25a.24.24,0,0,1-.08-.36v0a.62.62,0,0,0-.3-.55,19.24,19.24,0,0,0-2.06-.29,16.81,16.81,0,0,1-3.33-.94c-1.79-.82-1-2,1.11-2.39,1.59-.32,6-1.1,7,0C237.88,43.53,237.44,44.51,237.32,45.16Z" transform="translate(-15 -16.75)"/><path class="cls-6" d="M241.39,57.63A22.22,22.22,0,0,0,232,50.57a2.33,2.33,0,0,0-.83-.14l-.17-.12-.2.15c-1,.75-1.48,1.65-2.36,2.44-.22.6-.49,1.19-.67,1.82a16.64,16.64,0,0,0-.1,4.24,11.71,11.71,0,0,0,.48,4,6.12,6.12,0,0,0,2.51,3.47c1.5.9,4.6.66,6.67.55,2.22-.14,4.57-.25,5.46-1.37C244.71,63.18,243.31,59.94,241.39,57.63Z" transform="translate(-15 -16.75)"/><path class="cls-7" d="M321.77,63.73c-1.44.88-3.94,1-6.07,1.13-2.51.18-5.06.29-7.59.37-5.64.18-11.31.3-17,.39-11.46.16-22.93,0-34.36-.52h-.23a2.49,2.49,0,0,1-1,.09c-4.44-.41-3.68-3.58-1.2-4.77,1.71-.82,4-.9,6.28-1l9.43-.33q16.68-.61,33.42-.31,4.36.1,8.69.3a52.17,52.17,0,0,1,6.58.5C322.14,60.18,324.26,62.21,321.77,63.73Z" transform="translate(-15 -16.75)"/><path class="cls-6" d="M257.82,66.25a3.82,3.82,0,0,1-2.91,3.09,19.69,19.69,0,0,1-6.67.4C242.82,69,244,65.09,244,63a48.62,48.62,0,0,0-.88-9.74c-.11-.62,1.31-.77,2.1-.46,0-.34.56-.61,1.24-.63,3-.1,5.56.2,7.42,1.43a9.89,9.89,0,0,1,3.33,4.11A11.14,11.14,0,0,1,257.82,66.25Z" transform="translate(-15 -16.75)"/><path class="cls-6" d="M336.1,61.27c-.27-.58-.58-1.15-.86-1.72a5.28,5.28,0,0,0-1-.27,45.75,45.75,0,0,0-8.48-.33,11,11,0,0,0-6.1,1.56.63.63,0,0,0-.16.17c-.6,0-1,.3-1,.6a3.28,3.28,0,0,0,.77,1.89,6.93,6.93,0,0,1,1,2.32c.33,1.27,1,2.19,3.53,2.67a31.83,31.83,0,0,0,8.21.38c2.32-.12,4.1-1.08,4.14-2.23a11.34,11.34,0,0,1,.31-2.11A6.8,6.8,0,0,0,336.1,61.27Z" transform="translate(-15 -16.75)"/><path class="cls-8" d="M336.9,50.41a19.4,19.4,0,0,0-3.24-4.86,4.53,4.53,0,0,0-2.57-1.62c-.7-.19-2.53-.22-3-.55a1.86,1.86,0,0,0-.52-.27c-1.38-2.27-4.24-4.24-8.12-5.63A23.54,23.54,0,0,0,315,35.77a31.73,31.73,0,0,0-8-1.31c-3.56-.07-7.14,0-10.71,0-14.18,0-28.52-.22-42.57.93l-.24,0a.63.63,0,0,0-.27,0,20,20,0,0,0-2.44,1,4.25,4.25,0,0,0-1.19.67,13.61,13.61,0,0,1-2,1.65c-.8.47-1.67.91-2.42,1.39-2.94,1.88-4.26,4.39-7.9,6q-.39.17-.82.32l-.34.19c-.62.36-1.11.79-1.64,1.16a15.11,15.11,0,0,1-1.32.84,18.4,18.4,0,0,1-2.22,1.89,7.49,7.49,0,0,0-1.11,1,2.39,2.39,0,0,0,.43.16c.88,2.78,1.53,5.57,2.22,8.36A3,3,0,0,0,235,62.6a51.73,51.73,0,0,0,7.18,1.27c1,.12,2-.18,2.29-.68a.48.48,0,0,0,0-.45,13.76,13.76,0,0,1-.52-3.47c-.23-1.07,0-2.13-.27-3.19a5.08,5.08,0,0,1,.1-2.9,1.24,1.24,0,0,1,1.13-.29,1.08,1.08,0,0,1,.5.19,3.75,3.75,0,0,1,1.11,2.06l.11.25c.38.91.73,1.82,1.11,2.74l2.1,5.24c.3.75,2.11.8,3.11.41,4.32-1.68,9.83-2.28,15.22-2.49l1.44,0c6.84-.2,13.76-.06,20.61,0,7.33,0,14.67,0,22,0s14.63.2,21.87.73a2.59,2.59,0,0,0,2.38-.65.49.49,0,0,0,0-.45c-.42-.86.23-1.77.5-2.62a14.46,14.46,0,0,0,.6-2.64A10,10,0,0,0,336.9,50.41Zm-92.78-6.67a11.27,11.27,0,0,1-5.27,2h-.08c2.46-1.37,3.79-3.13,5.8-4.69,1.36-1,3.33-1.85,4.63-2.91l.29-.26a.32.32,0,0,0,.17-.07,2.61,2.61,0,0,1,1.53-.43,2.71,2.71,0,0,0-.41.22,3.37,3.37,0,0,0-.84.84,14.63,14.63,0,0,1-1.52,1.5,10.79,10.79,0,0,0-1.11,1.17.27.27,0,0,0-.11.08,11.26,11.26,0,0,1-3.08,2.54Zm2.62.74h0a1.59,1.59,0,0,1-.59-.29.66.66,0,0,1,.24-.93c.8-.88,1.72-1.74,2.59-2.62s1.9-3.43,5-2.87c.41.07.66.28.6.49.1.39-.12.79-.62,1.1a15.46,15.46,0,0,0-2.59,2.74c-.62.76-2,3.17-4.63,2.38Zm6.67-2.86a26.67,26.67,0,0,1-2.17,2.62l-1.46.25a4,4,0,0,0,.89-.8,36.1,36.1,0,0,0,2.39-3.14,7.27,7.27,0,0,1,2.56-2.16c.11,1-1.73,2.64-2.24,3.23Zm71.2,1.1c-3.81-.24-7.78-.08-11.64-.08h-.08c-3.41.09-6.77.18-10.19.16s-7.06-.07-10.59-.07H292l-7.42.47c-2.52.11-5.06.15-7.59.12-5,0-10.28.2-15.29-.08l-.24,0c-.33,0-.59-.15-.61-.31-.14-.5-.86-.87-1.11-1.37a4.42,4.42,0,0,1-.21-1.27,2.88,2.88,0,0,1,1-2.64c.87-.65,2.66-.7,4.07-.8,2.07-.1,4.15-.14,6.23-.12,9.67,0,19.32-.42,29-.45h9.54c2.32,0,4.9-.18,7,.41,4.1,1.16,6.17,3.34,8.81,5.18a.27.27,0,0,1,.16.26c.31.29.07.67-.71.63Z" transform="translate(-15 -16.75)"/><path class="cls-9" d="M237.19,46.05q-.39.17-.82.32A5.08,5.08,0,0,1,237.19,46.05Z" transform="translate(-15 -16.75)"/><path class="cls-9" d="M236.37,46.38l-.34.19a.24.24,0,0,1,.16-.12Z" transform="translate(-15 -16.75)"/><path class="cls-10" d="M281.89,55.72c-3.46,0-6.92.18-10.38.18-3.18,0-6.74.15-9.87-.16-3.69-.38-4.44-2.27-5.2-3.84a24.75,24.75,0,0,1-.88-2.52c0-.42-.41-.81-1-1.1a4.8,4.8,0,0,0-3.7.37,8.23,8.23,0,0,0-2,2l-1.94,2.1a4.7,4.7,0,0,0-1.11-1c-.73-.5-1.31-.69-.56-1.4a5.61,5.61,0,0,1,1.38-.88,5.45,5.45,0,0,1,2.22-.6,5.81,5.81,0,0,0,1.54,0c.33-.1.55-.27.59-.46.3-.72-1-1.25-2.22-1.42a7.11,7.11,0,0,1-2-.32,7.55,7.55,0,0,1-.9-.63,3,3,0,0,0-1-.43l1.73-1c.08,0,.11-.1.1-.16s0-.08-.1-.1l-.48-.19-.28-.11a.68.68,0,0,0-.37,0c.26-.15-.22-.37-.57-.24a35.31,35.31,0,0,0-4,1.91c-.14.08-.13.19,0,.26a.63.63,0,0,0,.24,0l1.48,0c-1,.22-2.13.4-3.22.55-.2,0-.3.14-.23.24a.36.36,0,0,0,.23.11,18.66,18.66,0,0,1,2.88.32q.71,0,.18.38c.1.34-.16.46-.79.36a4,4,0,0,1-2.14-.45.68.68,0,0,0-.53,0,.22.22,0,0,0-.09.08c-.56.82-2.64.46-3.89.55a5.29,5.29,0,0,0-2,.44,13.3,13.3,0,0,1-1.43,1.26,15.54,15.54,0,0,0-.64,1.43l-.61-.42a8.35,8.35,0,0,0-.58.6,2.39,2.39,0,0,0,.43.16c.88,2.78,1.53,5.57,2.22,8.36a3,3,0,0,0,2.56,2.62,51.73,51.73,0,0,0,7.18,1.27c1,.12,2-.18,2.29-.68a.48.48,0,0,0,0-.45,13.76,13.76,0,0,1-.52-3.47c-.23-1.07,0-2.13-.27-3.19a5.08,5.08,0,0,1,.1-2.9,1.24,1.24,0,0,1,1.13-.29,1.08,1.08,0,0,1,.5.19,3.75,3.75,0,0,1,1.11,2.06l.11.25c.38.91.73,1.82,1.11,2.74l2.1,5.24c.3.75,2.11.8,3.11.41,4.32-1.68,9.83-2.28,15.22-2.49l-.76-.3A79.94,79.94,0,0,1,278.78,60l12.08-.55c.2,0,.36-.08.37-.18C291.27,56.77,286.16,55.76,281.89,55.72Z" transform="translate(-15 -16.75)"/><path class="cls-8" d="M295.3,47.52c.69,0,1.39,0,2.08.05h8.89a2.24,2.24,0,0,1,.74.12c.36.13.56.33.56.55,0,1,.46,2.28.09,3.29-.28.78-1.53.8-2.91.8l-14.26,0h-.31a1.77,1.77,0,0,1-1.57-.36.34.34,0,0,1-.07-.24,9,9,0,0,0-.36-3.5.44.44,0,0,1,0-.33.73.73,0,0,1,.43-.37Z" transform="translate(-15 -16.75)"/><path class="cls-5" d="M315.34,47l-4,.55-2.22.08c-8.59.28-17.19.31-25.8.33h0l-1.77-.25h.24a.41.41,0,0,1,.33-.12c8.52,0,17.06,0,25.56-.29Q311.51,47.18,315.34,47Z" transform="translate(-15 -16.75)"/><path class="cls-11" d="M283.28,47.94h-.07a.34.34,0,0,1-.22.11,20.92,20.92,0,0,0-3.33.77c-1,.35-1.82.83-2.83,1.2a15.33,15.33,0,0,1-4.36.55c-2.11.09-4.22.12-6.34.13h-.84c-2.62,0-5.24,0-7.84,0a.43.43,0,0,1-.32-.1L257,50.5c-1.2-1-5-4.5,0-4.35,3.1.09,6.22.37,9.3.55,1.19.07,2.39.13,3.57.24l.41,0h.12c1.85.08,3.68.23,5.47.47s3.69.23,5.56.24Z" transform="translate(-15 -16.75)"/><path class="cls-11" d="M335.26,49.05a1,1,0,0,1-.79.43,27.78,27.78,0,0,1-4.44.07h-2.49l-2.8,0c-1.57.07-3.16.08-4.73,0a13,13,0,0,1-2.82-.6l-5.09-1.39c-.11,0-.18-.09-.18-.15h-.61l4-.55c1.84-.09,3.69-.19,5.56-.31a62,62,0,0,0,11.82-1.48.63.63,0,0,1,.51.07,5.79,5.79,0,0,1,1.78,2A2,2,0,0,1,335.26,49.05Z" transform="translate(-15 -16.75)"/><path class="cls-5" d="M329.2,49.56c-1,2.51-2.91,4.89-8.77,5.21-3.48.19-7.06.13-10.54.2l-11,.26c-7.46.21-14.94.18-22.39-.11A20.32,20.32,0,0,1,269.38,54a10.91,10.91,0,0,1-3.92-3.14.09.09,0,0,1,0-.1h.74a10.36,10.36,0,0,0,3.73,3c2.51,1.1,6.31,1.07,9.49,1.17q9.35.25,18.72,0c6.26-.13,12.5-.32,18.76-.4,3.13,0,6.39,0,8.63-1.29a6.38,6.38,0,0,0,2.94-3.63Z" transform="translate(-15 -16.75)"/><path class="cls-1" d="M324.69,49.61h-.74" transform="translate(-15 -16.75)"/><path class="cls-1" d="M324.69,49.61h-.74" transform="translate(-15 -16.75)"/><path class="cls-12" d="M328.46,49.57a6.2,6.2,0,0,1-2.94,3.63c-2.22,1.26-5.56,1.25-8.63,1.29-6.26.08-12.5.27-18.76.4s-12.49.16-18.72,0c-3.18-.1-7-.05-9.49-1.17a10.37,10.37,0,0,1-3.74-3c2.12,0,4.23,0,6.34-.13a23.18,23.18,0,0,0,3.33-.29,6.84,6.84,0,0,0,.67-.16c2,1.84,6.26,2.5,10.24,2.48,4.57,0,9-.55,13.62-.55s9.2.23,13.8.32c.5,0,1,0,1.6,0a4.92,4.92,0,0,0,1.81-1,9.94,9.94,0,0,0,1.64-1.9,7.2,7.2,0,0,0,.73.09A8.82,8.82,0,0,1,317.74,52a4.53,4.53,0,0,1-.79.44,25.9,25.9,0,0,0,4-.12,3.58,3.58,0,0,0,3-2.74h.81Z" transform="translate(-15 -16.75)"/><line class="cls-1" x1="251.4" y1="33.99" x2="251.18" y2="33.99"/><line class="cls-1" x1="250.42" y1="33.98" x2="250.32" y2="33.98"/><line class="cls-1" x1="268.69" y1="31.25" x2="268.28" y2="31.2"/><line class="cls-1" x1="266.5" y1="30.95" x2="265.78" y2="30.85"/><line class="cls-1" x1="296.33" y1="30.79" x2="296.04" y2="30.83"/><path class="cls-5" d="M342.71,21.34a1.31,1.31,0,0,1-1,.3,3.08,3.08,0,0,1-.63.16,2.12,2.12,0,0,1-.79-.07l.12-.08a16.8,16.8,0,0,1,1.47-1.22C342.53,20.6,342.89,21,342.71,21.34Z" transform="translate(-15 -16.75)"/><path class="cls-13" d="M380.62,20.54c-.34-.93-2.14-1.4-3.77-1.72-2.07-.4-4.19-.73-6.34-1a107.66,107.66,0,0,0-20.1-.55,62.21,62.21,0,0,0-6.52.69,36.27,36.27,0,0,0-6.37,1.93,61.73,61.73,0,0,0-5.89,2.41c-.18.1-.18.25,0,.35a1.91,1.91,0,0,0,.39.18.71.71,0,0,0,.21.06,6.54,6.54,0,0,0,1.93.11,34.94,34.94,0,0,0,3.56-.43l.5-.09c8.4-.43,16.92-.16,25.36-.25,2.22,0,4.37,0,6.53-.16,0,.1.16.17.36.18a45.49,45.49,0,0,0,7,0,6.26,6.26,0,0,0,2.62-.55C380.62,21.36,380.8,20.94,380.62,20.54Zm-26.34-1.12a10.37,10.37,0,0,1-.84.77,2.09,2.09,0,0,0-1,1.55h-3.91q-4.3,0-8.59.17l.28-.16.12-.08a16.93,16.93,0,0,1,1.48-1.22l.22-.13a17.61,17.61,0,0,1,5.31-1.42q1.72-.26,3.49-.42c.65-.06,1.31-.09,2-.1a4.26,4.26,0,0,1,1.71.19c.32.22-.06.64-.27.84Zm18.79,1.82a12.84,12.84,0,0,1-2.49.32c-2.38.12-4.79.16-7.18.19s-4.58,0-6.87,0a.81.81,0,0,0,.56-.48l.43-1,.41-.91a5.22,5.22,0,0,1,.42-.94c0-.11.23-.2.47-.2h2.7a61.26,61.26,0,0,1,6.89.52q1.7.23,3.33.55c.82.16,2.22.35,2.58.81C374.52,20.59,374,21.06,373.07,21.23Z" transform="translate(-15 -16.75)"/><path class="cls-7" d="M381.33,24.68a20.73,20.73,0,0,0-3.1-.13,21,21,0,0,0-3.09.27,7.66,7.66,0,0,0-3.39,1.32,2.11,2.11,0,0,0-.66.88,2.46,2.46,0,0,0-.74.44l-.37.42a.93.93,0,0,0,0,.94,5.86,5.86,0,0,0,2.91,2.53,13.36,13.36,0,0,0,4.94,1.56,16.77,16.77,0,0,0,6.67-.52,8,8,0,0,0,2.6-1.26,2.55,2.55,0,0,0,.92-1.76C388.29,27.33,385.48,25.18,381.33,24.68Z" transform="translate(-15 -16.75)"/><path class="cls-7" d="M323.51,28a1.94,1.94,0,0,0-.94-.8,6.28,6.28,0,0,0-3.63-2,16.63,16.63,0,0,0-4.31-.46,20.12,20.12,0,0,0-4.36.61c-2.63.53-4.05,1.94-3.33,3.29a1.89,1.89,0,0,0-.08.61,2.41,2.41,0,0,0,.74,1.52,6.59,6.59,0,0,0,2.77,1.48,16.27,16.27,0,0,0,8.34.08,8.47,8.47,0,0,0,1.39-.5,6.17,6.17,0,0,0,3.28-2.1A1.8,1.8,0,0,0,323.51,28Z" transform="translate(-15 -16.75)"/><path class="cls-5" d="M384.8,28a4.46,4.46,0,0,0-2.47-1.29,14.59,14.59,0,0,0-4.39-.18.19.19,0,0,0-.13.06,11.57,11.57,0,0,0-2.79.84A1.89,1.89,0,0,0,373.86,29c-.19,1.26,1.17,2.46,3.46,3a11.18,11.18,0,0,0,3.4.21,8.56,8.56,0,0,0,3-1,2.63,2.63,0,0,0,1.64-1.54A2.23,2.23,0,0,0,384.8,28Zm-.66-.22.09.08a28,28,0,0,0-3.23.93.88.88,0,0,0-.36-.35,8.17,8.17,0,0,0,.47-.81,4,4,0,0,1,.4-.86,5.15,5.15,0,0,1,2.62,1Zm-9-.13a10.24,10.24,0,0,1,2.77-.87A10.45,10.45,0,0,0,379,28.09a.52.52,0,0,0,.17.12,1.78,1.78,0,0,0-1,.37c-1-.37-2.16-.55-3.14-.88Zm.22,3.29a2.84,2.84,0,0,1-1.11-1.53h0a34.6,34.6,0,0,0,4-.08l.14.09c-.44.24-.8.52-1.26.76a11.44,11.44,0,0,1-1.77.72Zm6.14.92a8.51,8.51,0,0,1-3.33.09l-.19,0a7.17,7.17,0,0,0,1.33-2.19h0a.05.05,0,0,0,0,0,18.3,18.3,0,0,1,2.22,2.06h0ZM384.84,30a2.66,2.66,0,0,1-.92.8l-.12.08c-.53-.24-1.21-.37-1.73-.62a13.41,13.41,0,0,0-1.49-.69h0a1.07,1.07,0,0,0,.36-.22q2,0,4.07,0a1.07,1.07,0,0,1-.14.63Z" transform="translate(-15 -16.75)"/><path class="cls-8" d="M399.18,25a3.65,3.65,0,0,1-.71-1.23,4,4,0,0,1,.08-1.31,1.47,1.47,0,0,0-.49-1.26,1.1,1.1,0,0,0-.69-.2c-4.63.08-9-.9-13.17-1.76l-6.79-1.4a35.24,35.24,0,0,0-6.67-1c-2.41,0-4.81,0-7.2,0s-4.86,0-7.28,0-4.8.11-7.18.3a55.42,55.42,0,0,0-6.24.92,111.59,111.59,0,0,0-12.71,3.59h0a115.46,115.46,0,0,0-18.89,1q-2.42.34-4.78.78a26.83,26.83,0,0,0-3.8.91,3.85,3.85,0,0,0-2.29,1.55,2.08,2.08,0,0,0,.67,2,1.82,1.82,0,0,1,.49,1.1c0,.41-.36.77.27,1.1a6.58,6.58,0,0,0,2.08.49l3,.44a1.06,1.06,0,0,0,1-.28c.08-.15,0-.3-.25-.4-.88-1.81,1-3.68,4.44-4.43,3.61-.73,7.75,0,9.69,1.65a2.25,2.25,0,0,1,.68,2.94c-.12.21.13.43.56.49h43.25c1.63,0,3.47.1,4.7-.55,1.89-1,1.36-2.55,3-3.61a11.88,11.88,0,0,1,7.13-1.29c2.81.37,5,1.44,5.79,2.82.38.66.18,1.61,1.78,1.89a13.62,13.62,0,0,0,2.72,0l2.71-.12a17.12,17.12,0,0,0,4.33-.63c1.36-.46,2.15-1.23,2.11-2A4.67,4.67,0,0,0,399.18,25Zm-19.46-3.52a10.38,10.38,0,0,1-4.22.55c-7.19,0-14.39,0-21.58.08-3.54,0-7.11,0-10.66.12s-7,.42-10.54.65c-.54,0-.81-.31-.48-.43l.11-.06,1.73-.73A66.78,66.78,0,0,1,341.48,19a41.24,41.24,0,0,1,8.66-1.49c3.39-.16,6.8-.16,10.19,0a99.5,99.5,0,0,1,10.27.66q2.43.33,4.77.81l2.28.47a11.76,11.76,0,0,1,1.86.48c.94.39,1.06,1.08.26,1.55l0,0Z" transform="translate(-15 -16.75)"/><path class="cls-5" d="M320.39,28.74a1.17,1.17,0,0,0-.16-.63,1.82,1.82,0,0,0-.82-.6c0-.05-.07-.1-.18-.11h-.06a16.1,16.1,0,0,0-3.74-1,.3.3,0,0,0-.26-.05h0a8,8,0,0,0-3.62.29,6.15,6.15,0,0,0-1.54.55,3.11,3.11,0,0,0-.73.55c-.11,0-.22,0-.24.07s0,.08.08.1a2.33,2.33,0,0,0-.51,1.1v.13h0c-.26,0-.26.2,0,.2h0a1.13,1.13,0,0,0,.13.67,3.24,3.24,0,0,0,1,.9,6.43,6.43,0,0,0,.6.36c-.1.08.1.18.27.14a7.74,7.74,0,0,0,1.91.6l.63.1c0,.08.28.14.37,0h0a13.41,13.41,0,0,0,2.51,0,8.26,8.26,0,0,0,1.84-.35,4.11,4.11,0,0,0,1.22-.69l.38-.3a.33.33,0,0,0,.27,0s0-.09,0-.12h0a3.74,3.74,0,0,0,.43-.44,1.71,1.71,0,0,0,.38-1v-.29c.09,0,.1-.1,0-.15Zm-5-2.12a16.42,16.42,0,0,1,2.77.65l.64.23L317,28a5,5,0,0,0-1.27.48,2.38,2.38,0,0,0-.79-.23,11.14,11.14,0,0,0,.42-1.68Zm-2.52,2.89a6.28,6.28,0,0,1-1.41.86c-.4.22-.62.52-1,.75a2.71,2.71,0,0,1-1.54-1.53V29.3c1.3,0,2.61,0,3.91-.06a.43.43,0,0,0,.07.12l.11.1a.22.22,0,0,0-.14,0Zm-3.33-1.68a2.79,2.79,0,0,1,.28-.24,5.74,5.74,0,0,1,2.32-.85,9.16,9.16,0,0,0,.82,1.1c.16.18.33.36.5.55a.85.85,0,0,0-.33.21c-1.24-.21-2.44-.47-3.59-.78Zm7,4a12.26,12.26,0,0,1-3,.1,2.44,2.44,0,0,0,.58-2.11h.31s0,.07.09.09a3.3,3.3,0,0,1,1.23.91c.37.32.77.63,1.19.93Zm3.33-2.19a2.17,2.17,0,0,1-.64.82c-.49-.14-1-.25-1.53-.36s-1.31-.34-1.92-.55h0a.68.68,0,0,0,.28-.38h0c1.3,0,2.6-.11,3.87-.25a2.16,2.16,0,0,1-.06.74Z" transform="translate(-15 -16.75)"/><path class="cls-10" d="M367.11,29a2.46,2.46,0,0,1-1.58.6c-.88.06-1.76.08-2.64.05H359.8c-8,0-16,0-24,0h-9a9.79,9.79,0,0,1-2.22-.18,2.28,2.28,0,0,1-1.32-.81,7.81,7.81,0,0,0-1.06-1.1,11,11,0,0,0-3.26-1.77c-.48-.18-.07-.55.41-.45l.23,0h17c1.8,0,3.6,0,5.4,0a16.79,16.79,0,0,1,4.58.41c.24.07.32.22.18.34a.7.7,0,0,1-.44.12h-3c-4,0-7.94,0-11.91,0-1,0-1.93,0-2.89.07-.62,0-2.07.28-1.3.7a7.46,7.46,0,0,0,2.4.48c1,.1,1.94.18,2.91.25a210.91,210.91,0,0,0,23.24.26c1.93-.07,3.87-.18,5.81-.21.94,0,1.88,0,2.82,0a9,9,0,0,1,2.37.31C367.21,28.41,367.37,28.75,367.11,29Z" transform="translate(-15 -16.75)"/><path class="cls-5" d="M339.19,21.36a1.24,1.24,0,0,0-.53-.76,2.71,2.71,0,0,0-1.47-.33,3.63,3.63,0,0,0-1.64.38,1.39,1.39,0,0,0-.34.46,2.71,2.71,0,0,0-.27.43,1.06,1.06,0,0,1-.29.09c-.41.1-.58.34-.38.54h0c.34.35,1,.24,1.51.06h.08a.91.91,0,0,0,.26,0l.2.07a5,5,0,0,0,1.58.1,2,2,0,0,0,1.29-.35A.64.64,0,0,0,339.19,21.36Z" transform="translate(-15 -16.75)"/><path class="cls-12" d="M398.53,22.43a4,4,0,0,0-.08,1.31v0a.65.65,0,0,1-.18.09c-1,.32-2.22-.32-3-.55a6.36,6.36,0,0,1-1.42-.55c-.21-.2-.05-.44.34-.55A11.57,11.57,0,0,1,396,22l1.9-.19a.75.75,0,0,1,.54.13h0A1.57,1.57,0,0,1,398.53,22.43Z" transform="translate(-15 -16.75)"/><path class="cls-11" d="M398.49,21.87h0a.75.75,0,0,0-.54-.13l-1.9.19a11.57,11.57,0,0,0-1.78.21c-.4.11-.55.35-.34.55a6.36,6.36,0,0,0,1.42.55c.69.25,2,.89,3,.55a.65.65,0,0,0,.18-.09v0a4,4,0,0,1,.08-1.31A1.56,1.56,0,0,0,398.49,21.87Z" transform="translate(-15 -16.75)"/><path class="cls-10" d="M400.19,26.36c-.08.5-.68.93-1.59,1.15a30.93,30.93,0,0,1-4.6.21c-.74,0-1.43.21-2.22.27a4.93,4.93,0,0,1-2.22-.25c-1.11-.42-1.88-1-2.9-1.51A7.89,7.89,0,0,0,383,25.5c-.44,0-.8-.18-.8-.4s.08-.19.22-.26a.9.9,0,0,1,.77-.3,27.77,27.77,0,0,0,4.59-.47c1-.22,1.74-.61,2.68-.83h-.16c-1.49,0-2.93.14-4.44.18-2.84.06-5.71,0-8.57,0a.38.38,0,0,1-.19.37,4.08,4.08,0,0,1-1.61.39l-.22,0c.52,0,1,0,1.57.07.83.06.68.65,0,.76a10.94,10.94,0,0,0-1.34.3,3.37,3.37,0,0,1-2.41,1,2,2,0,0,1-.37.3,2.47,2.47,0,0,1-1.3.28h-.11a1.6,1.6,0,0,1-.37,0c-.76-.11-1.51-.24-2.22-.41l-.38-.09c-1.51-.09-3-.23-4.53-.3-2.74-.08-5.5-.05-8.23.07s-5.48.08-8.21,0c-5.44-.16-10.83-.45-16.28-.1-1.32.08-2.64.2-3.94.35a26.53,26.53,0,0,1-4,.27,16.89,16.89,0,0,1-3.46-.58,17.61,17.61,0,0,0-3.49-.55c-.74,0-1.48,0-2.22,0l-2.48.16q-1.13.11-2.22.27c-1.62.25-3.33.7-3.81,1.57-.24.49-1.78.29-1.54-.21a.13.13,0,0,1,.08-.14h-.92c-.84,0-1-.55-.4-.74a27.38,27.38,0,0,1,3.92-1.1,37.83,37.83,0,0,1,4.32-.45l.54,0,.4,0c.66,0,1.31-.09,2-.12l6.43-.42,4.2-.27a11.64,11.64,0,0,1,1.9,0,14.45,14.45,0,0,1,1.48.35,5.55,5.55,0,0,0,1.58-.27A11.89,11.89,0,0,1,331.2,24h4.07l8.46,0c2.77,0,5.55,0,8.3-.2s5.29-.51,8-.66,5.29,0,7.92.14c1.27,0,2.55,0,3.82,0,.68,0,1.36-.07,2-.14s1.11-.17,1.7-.22a4.6,4.6,0,0,1,.63,0h5c1.6,0,3.22,0,4.82,0s3-.2,4.59-.16h.2a.87.87,0,0,1,.28,0c1.45,0,2.91,0,4.36.05a5.4,5.4,0,0,1,3,.91,2.78,2.78,0,0,1,.64.85,2.72,2.72,0,0,1,.23.47A11.65,11.65,0,0,1,400.19,26.36Z" transform="translate(-15 -16.75)"/><path class="cls-14" d="M306.84,24.91c-.91.3-1.87.58-2.86.82a5.38,5.38,0,0,0-1.39.65,1.81,1.81,0,0,1-1.11.37c-1.19,0-.74-.78-.61-1.1a2,2,0,0,0,.07-.55.35.35,0,0,1,.21-.27,5,5,0,0,1,1.24-.45h0a1,1,0,0,1,.75,0,.22.22,0,0,1,.13.17c0,.09-.11.18-.27.24l-.26.07s-.57.1-.3.07.67-.15,1-.24a4.55,4.55,0,0,1,.93-.09,18.59,18.59,0,0,1,2.37.18C306.82,24.82,306.87,24.87,306.84,24.91Z" transform="translate(-15 -16.75)"/></g><g class="cls-18"><polygon class="cls-3" points="384.67 268 384.67 371.86 379.88 367.42 379.61 367.18 272.42 268 384.67 268"/><polygon class="cls-3" points="177.49 268 165.92 278.65 146.53 296.5 64.67 371.86 64.67 268 177.49 268"/><polygon class="cls-4" points="384.67 296.5 303.92 296.5 379.61 367.18 379.88 367.42 383.06 370.4 383.52 370.83 384.67 371.9 384.67 384.07 64.67 384.07 64.67 371.88 146.56 296.5 64.67 296.5 64.67 278.65 165.96 278.65 177.49 268.03 206.69 268.03 206.7 268 273.4 268 284.8 278.65 384.67 278.65 384.67 296.5"/><path class="cls-5" d="M237.32,312.29a5.45,5.45,0,0,1-.63,2,1.1,1.1,0,0,0,.08.51c.13.58-1.72.57-1.86,0v-.24a.24.24,0,0,1-.08-.35v0a.61.61,0,0,0-.3-.54,19.47,19.47,0,0,0-2.06-.29,17,17,0,0,1-3.33-.93c-1.79-.81-1-1.93,1.11-2.36,1.59-.31,6-1.08,7,0C237.88,310.68,237.43,311.64,237.32,312.29Z" transform="translate(-15 -16.75)"/><path class="cls-6" d="M241.39,324.6a22.18,22.18,0,0,0-9.38-7,2.35,2.35,0,0,0-.83-.14l-.17-.12-.2.15c-1,.74-1.48,1.63-2.36,2.41-.22.59-.49,1.18-.67,1.79a16.23,16.23,0,0,0-.1,4.18,11.43,11.43,0,0,0,.48,4,6,6,0,0,0,2.51,3.43c1.5.89,4.6.66,6.67.54,2.22-.14,4.57-.25,5.46-1.35C244.71,330.08,243.3,326.9,241.39,324.6Z" transform="translate(-15 -16.75)"/><path class="cls-7" d="M321.76,330.62c-1.44.87-3.94,1-6.07,1.12-2.51.17-5.06.29-7.59.36-5.64.17-11.31.29-17,.38-11.46.16-22.93,0-34.36-.51h-.23a2.52,2.52,0,0,1-1,.09c-4.44-.4-3.68-3.53-1.2-4.71,1.71-.81,4-.89,6.28-1l9.43-.33q16.68-.6,33.42-.3,4.36.1,8.69.29a52.83,52.83,0,0,1,6.58.5C322.13,327.11,324.2,329.12,321.76,330.62Z" transform="translate(-15 -16.75)"/><path class="cls-6" d="M257.82,333.12a3.79,3.79,0,0,1-2.91,3,19.94,19.94,0,0,1-6.67.39c-5.42-.72-4.26-4.58-4.22-6.61a47.41,47.41,0,0,0-.88-9.61c-.11-.61,1.31-.76,2.1-.45,0-.33.56-.6,1.24-.62,3-.1,5.56.2,7.42,1.41a9.79,9.79,0,0,1,3.33,4.06A10.87,10.87,0,0,1,257.82,333.12Z" transform="translate(-15 -16.75)"/><path class="cls-6" d="M336.09,328.19c-.27-.57-.58-1.13-.86-1.7a5.33,5.33,0,0,0-1-.27,46.33,46.33,0,0,0-8.48-.33,11.06,11.06,0,0,0-6.1,1.54.62.62,0,0,0-.16.17c-.6,0-1,.3-1,.6a3.21,3.21,0,0,0,.77,1.86,6.8,6.8,0,0,1,1,2.29c.33,1.25,1,2.17,3.53,2.64a32.23,32.23,0,0,0,8.21.38c2.32-.12,4.1-1.06,4.14-2.2a11.07,11.07,0,0,1,.31-2.08A6.64,6.64,0,0,0,336.09,328.19Z" transform="translate(-15 -16.75)"/><path class="cls-8" d="M336.9,317.47a19.14,19.14,0,0,0-3.24-4.8,4.54,4.54,0,0,0-2.57-1.6c-.7-.18-2.53-.22-3-.54a1.87,1.87,0,0,0-.52-.27c-1.38-2.24-4.24-4.19-8.12-5.56A23.72,23.72,0,0,0,315,303a32.1,32.1,0,0,0-8-1.29c-3.56-.07-7.14,0-10.71,0-14.18,0-28.52-.22-42.57.92l-.24,0a.64.64,0,0,0-.27,0,20.18,20.18,0,0,0-2.44.95,4.26,4.26,0,0,0-1.19.66,13.58,13.58,0,0,1-2,1.63c-.8.46-1.67.9-2.42,1.38-2.94,1.86-4.26,4.33-7.9,5.88q-.39.17-.82.32l-.34.18c-.62.36-1.11.78-1.64,1.15a15.45,15.45,0,0,1-1.32.82,18.35,18.35,0,0,1-2.22,1.86,7.46,7.46,0,0,0-1.11,1,2.41,2.41,0,0,0,.43.16c.88,2.74,1.53,5.5,2.22,8.25A3,3,0,0,0,235,329.5a52.33,52.33,0,0,0,7.18,1.25c1,.12,2-.18,2.29-.67a.47.47,0,0,0,0-.44,13.43,13.43,0,0,1-.52-3.43c-.23-1.06,0-2.1-.27-3.15a5,5,0,0,1,.1-2.86,1.25,1.25,0,0,1,1.13-.29,1.09,1.09,0,0,1,.5.19,3.69,3.69,0,0,1,1.11,2l.11.25c.38.89.73,1.8,1.11,2.71l2.1,5.18c.3.74,2.11.79,3.11.4,4.32-1.66,9.83-2.25,15.22-2.46l1.44,0c6.84-.2,13.76-.06,20.61,0,7.33,0,14.67,0,22,0s14.63.19,21.87.72a2.61,2.61,0,0,0,2.38-.64.48.48,0,0,0,0-.45c-.42-.84.23-1.75.5-2.59a14.12,14.12,0,0,0,.6-2.61A9.75,9.75,0,0,0,336.9,317.47Zm-92.78-6.58a11.35,11.35,0,0,1-5.27,2h-.08c2.46-1.35,3.79-3.09,5.8-4.63,1.36-1,3.33-1.83,4.63-2.87l.29-.26a.32.32,0,0,0,.17-.07,2.63,2.63,0,0,1,1.53-.43,2.73,2.73,0,0,0-.41.22,3.34,3.34,0,0,0-.84.83,14.54,14.54,0,0,1-1.52,1.48,10.71,10.71,0,0,0-1.11,1.15.27.27,0,0,0-.11.08,11.27,11.27,0,0,1-3.09,2.51Zm2.62.73h0a1.6,1.6,0,0,1-.59-.29.64.64,0,0,1,.24-.92c.8-.87,1.72-1.72,2.59-2.58s1.9-3.39,5-2.83c.41.07.66.27.6.48.1.39-.12.78-.62,1.08a15.35,15.35,0,0,0-2.59,2.71c-.62.75-2,3.12-4.61,2.35Zm6.67-2.83a26.41,26.41,0,0,1-2.17,2.59l-1.46.24a4,4,0,0,0,.89-.79,35.7,35.7,0,0,0,2.39-3.1,7.24,7.24,0,0,1,2.56-2.13c.1,1-1.73,2.61-2.24,3.19Zm71.2,1.08c-3.81-.24-7.78-.08-11.64-.08h-.08c-3.41.09-6.77.17-10.19.16s-7.06-.07-10.59-.07H292l-7.42.47c-2.52.11-5.06.15-7.59.11-5,0-10.28.2-15.29-.08l-.24,0c-.33,0-.59-.15-.61-.31-.14-.49-.86-.86-1.11-1.35a4.31,4.31,0,0,1-.21-1.26,2.83,2.83,0,0,1,1-2.61c.87-.64,2.66-.69,4.07-.79,2.07-.1,4.15-.14,6.23-.11,9.67,0,19.32-.42,29-.44h9.54c2.32,0,4.9-.17,7,.4,4.1,1.14,6.17,3.3,8.81,5.11a.27.27,0,0,1,.16.26c.3.27,0,.67-.71.62Z" transform="translate(-15 -16.75)"/><path class="cls-9" d="M237.18,313.17q-.39.17-.82.32A5.13,5.13,0,0,1,237.18,313.17Z" transform="translate(-15 -16.75)"/><path class="cls-9" d="M236.36,313.47l-.34.18a.24.24,0,0,1,.16-.11Z" transform="translate(-15 -16.75)"/><path class="cls-10" d="M281.89,322.72c-3.46,0-6.92.18-10.38.18-3.18,0-6.74.15-9.87-.16-3.69-.37-4.44-2.24-5.2-3.79a24.21,24.21,0,0,1-.88-2.49c0-.41-.41-.8-1-1.08a4.86,4.86,0,0,0-3.7.37,8.29,8.29,0,0,0-2,1.92l-1.94,2.07a4.68,4.68,0,0,0-1.11-1c-.73-.49-1.31-.68-.56-1.39a5.62,5.62,0,0,1,1.38-.87,5.5,5.5,0,0,1,2.22-.59,5.89,5.89,0,0,0,1.54,0c.33-.1.55-.27.59-.45.3-.72-1-1.23-2.22-1.4a7.19,7.19,0,0,1-2-.31,7.55,7.55,0,0,1-.9-.62,3.06,3.06,0,0,0-1-.42l1.73-1c.08,0,.11-.1.1-.16s0-.08-.1-.1l-.48-.18-.28-.11a.69.69,0,0,0-.37,0c.26-.15-.22-.37-.57-.23a35.52,35.52,0,0,0-4,1.89c-.14.07-.13.19,0,.26a.64.64,0,0,0,.24,0l1.48,0c-1,.21-2.13.39-3.22.54-.2,0-.3.14-.23.24a.36.36,0,0,0,.23.11,18.89,18.89,0,0,1,2.88.31q.71,0,.18.38c.1.34-.16.45-.79.35a4,4,0,0,1-2.14-.44.69.69,0,0,0-.53,0,.22.22,0,0,0-.09.07c-.56.81-2.64.45-3.89.54a5.35,5.35,0,0,0-2,.44,13.24,13.24,0,0,1-1.43,1.24,15.25,15.25,0,0,0-.64,1.41l-.61-.42a8.3,8.3,0,0,0-.58.6,2.41,2.41,0,0,0,.43.16c.88,2.74,1.53,5.5,2.22,8.25a3,3,0,0,0,2.56,2.58,52.33,52.33,0,0,0,7.18,1.25c1,.12,2-.18,2.29-.67a.47.47,0,0,0,0-.44,13.43,13.43,0,0,1-.52-3.43c-.23-1.06,0-2.1-.27-3.15a5,5,0,0,1,.1-2.86,1.25,1.25,0,0,1,1.13-.29,1.09,1.09,0,0,1,.5.19,3.69,3.69,0,0,1,1.11,2l.11.25c.38.89.73,1.8,1.11,2.71l2.1,5.18c.3.74,2.11.79,3.11.4,4.32-1.66,9.83-2.25,15.22-2.46l-.76-.29a80.94,80.94,0,0,1,11.49-1l12.08-.54c.2,0,.36-.08.37-.18C291.27,323.76,286.14,322.76,281.89,322.72Z" transform="translate(-15 -16.75)"/><path class="cls-8" d="M295.31,314.62c.69,0,1.39,0,2.08.05h8.89a2.27,2.27,0,0,1,.74.12c.36.13.56.33.56.54,0,1,.46,2.25.09,3.25-.28.77-1.53.79-2.91.79l-14.26,0h-.31a1.79,1.79,0,0,1-1.57-.35.33.33,0,0,1-.07-.23,8.76,8.76,0,0,0-.36-3.46.43.43,0,0,1,0-.33.73.73,0,0,1,.43-.36Z" transform="translate(-15 -16.75)"/><path class="cls-5" d="M315.31,314.1l-4,.54-2.22.08c-8.59.28-17.19.31-25.8.33h0l-1.77-.24h.24a.41.41,0,0,1,.33-.12c8.52,0,17.06,0,25.56-.28Q311.51,314.28,315.31,314.1Z" transform="translate(-15 -16.75)"/><path class="cls-11" d="M283.27,315h-.07a.34.34,0,0,1-.22.11,21.15,21.15,0,0,0-3.33.76c-1,.35-1.82.82-2.83,1.19a15.51,15.51,0,0,1-4.36.54c-2.11.09-4.22.12-6.34.12h-.8c-2.62,0-5.24,0-7.84,0a.43.43,0,0,1-.32-.1l-.11-.06c-1.2-1-5-4.45,0-4.3,3.1.09,6.22.36,9.3.54,1.19.07,2.39.13,3.57.23l.41,0h.12c1.85.08,3.68.23,5.47.46s3.69.23,5.56.23Z" transform="translate(-15 -16.75)"/><path class="cls-11" d="M335.26,316.13a1,1,0,0,1-.79.42,28.14,28.14,0,0,1-4.44.06h-2.49l-2.8,0c-1.57.07-3.16.08-4.73,0a13.1,13.1,0,0,1-2.82-.59l-5.09-1.38c-.11,0-.18-.09-.18-.15h-.61l4-.54c1.84-.09,3.69-.19,5.56-.31a62.8,62.8,0,0,0,11.82-1.46.64.64,0,0,1,.51.07,5.74,5.74,0,0,1,1.78,2A2,2,0,0,1,335.26,316.13Z" transform="translate(-15 -16.75)"/><path class="cls-5" d="M329.2,316.63c-1,2.48-2.91,4.83-8.77,5.15-3.48.19-7.06.12-10.54.2l-11,.25c-7.47.21-15,.18-22.43-.1a20.55,20.55,0,0,1-7.09-1.15,10.89,10.89,0,0,1-3.92-3.1.09.09,0,0,1,0-.1h.74a10.33,10.33,0,0,0,3.73,2.94c2.51,1.08,6.31,1.06,9.49,1.15q9.35.24,18.72,0c6.26-.12,12.5-.31,18.76-.39,3.13,0,6.39,0,8.63-1.27a6.31,6.31,0,0,0,2.94-3.58Z" transform="translate(-15 -16.75)"/><path class="cls-1" d="M324.69,316.68h-.74" transform="translate(-15 -16.75)"/><path class="cls-1" d="M324.69,316.68h-.74" transform="translate(-15 -16.75)"/><path class="cls-12" d="M328.44,316.64a6.14,6.14,0,0,1-2.94,3.58c-2.22,1.24-5.56,1.23-8.63,1.27-6.26.08-12.5.27-18.76.39s-12.49.16-18.72,0c-3.18-.1-7-.05-9.49-1.15a10.35,10.35,0,0,1-3.74-2.95c2.12,0,4.23,0,6.34-.12a23.47,23.47,0,0,0,3.33-.28c.23,0,.45-.1.67-.16,2,1.82,6.26,2.46,10.24,2.45,4.57,0,9-.54,13.62-.54s9.2.23,13.8.31c.5,0,1,0,1.6,0a4.94,4.94,0,0,0,1.81-1,9.85,9.85,0,0,0,1.64-1.87,7.29,7.29,0,0,0,.73.09,8.75,8.75,0,0,1-2.22,2.36,4.54,4.54,0,0,1-.79.43,26.23,26.23,0,0,0,4-.12,3.57,3.57,0,0,0,3-2.71h.81Z" transform="translate(-15 -16.75)"/><line class="cls-1" x1="251.4" y1="301.04" x2="251.17" y2="301.04"/><line class="cls-1" x1="250.42" y1="301.04" x2="250.32" y2="301.03"/><line class="cls-1" x1="268.68" y1="298.35" x2="268.27" y2="298.29"/><line class="cls-1" x1="266.5" y1="298.05" x2="265.77" y2="297.95"/><line class="cls-1" x1="296.32" y1="297.89" x2="296.03" y2="297.93"/><path class="cls-5" d="M240,282.49a1.63,1.63,0,0,0-.89-.67,5.64,5.64,0,0,0-1.72-.35c-.66-.06-1.34-.09-2-.09-.49,0-1.11.07-1,.35a1.63,1.63,0,0,0,.37.38s.17.18.13.24h-.24a1.42,1.42,0,0,0-.53,0c-.15,0-.22.13-.19.21a.75.75,0,0,0,.58.38.53.53,0,0,0,.19,0h0a38.5,38.5,0,0,0,4.5-.12C239.59,282.82,240.06,282.73,240,282.49Z" transform="translate(-15 -16.75)"/><path class="cls-19" d="M232,282.33l-1.6-1.75-.87-.95a2.23,2.23,0,0,0-.87-.73,4.63,4.63,0,0,0-1.5-.22l-2.22-.05-4.57-.07q-4.61,0-9.21,0c-3,0-6.1.11-9.12.24a2.81,2.81,0,0,0-.81.11,1.68,1.68,0,0,0-.56.37q-.6.5-1.11,1-1.11,1-2.13,2.07c-.05.07,0,.15.17.17a.55.55,0,0,0,.23,0,7.93,7.93,0,0,0,1.11,0c4-.11,8.11,0,12.16,0l13.33,0h7.3c.16.11.58.06.5-.07s-.07-.13-.21-.13Zm-4.71-.85a7.08,7.08,0,0,1-1.22.1H206.18a20.33,20.33,0,0,1-2.84-.09,2,2,0,0,1-.58-.14.19.19,0,0,1,0-.3,3.18,3.18,0,0,1,.33-.54,2.79,2.79,0,0,1,1.91-.88,31.71,31.71,0,0,1,3.22-.22c1.11,0,2.22-.05,3.33,0h.89a6.37,6.37,0,0,1,.76,0,.78.78,0,0,1,.4.23l.1.06c0,.06.07.11.19.12a5.66,5.66,0,0,0,2.28,0,1.61,1.61,0,0,0,.33-.15,1.25,1.25,0,0,1,.6-.17l1.4-.14a53.53,53.53,0,0,1,6.06-.12,11.47,11.47,0,0,1,2.36.22c.86.22.72.63.8,1s.44.86-.5,1.06Z" transform="translate(-15 -16.75)"/><path class="cls-5" d="M196.18,282.91c0,.07-.12.12-.26.12h-.17c-1.3-.15-2.66,0-4-.12a6.46,6.46,0,0,1-1.43-.22c-.37-.12-.28-.32-.13-.5a3.37,3.37,0,0,1,2-.76q.87-.08,1.76-.12a3.3,3.3,0,0,1,1.3.09c.3.14.39.36.21.54,0,.07-.1.14-.13.21s0,.14,0,.2h.54c.13,0,.25,0,.26.11h0a.07.07,0,0,1,0,0A1.23,1.23,0,0,1,196.18,282.91Z" transform="translate(-15 -16.75)"/><path class="cls-6" d="M197.67,293.57c-.06.21-.36.38-.77.45a11,11,0,0,1-1.39,0H192.8a.73.73,0,0,1-.26.06,3.62,3.62,0,0,1-1.33-.14l-.12,0a.72.72,0,0,1-.4-.25.56.56,0,0,1-.16-.23,3.68,3.68,0,0,1-.09-.77l-.08-.8c0-.35-.24-.84.4-1.12a5.81,5.81,0,0,1,2.64,0,22.13,22.13,0,0,1,2.5.68c.74.22,1.66.43,1.92.84A1.23,1.23,0,0,1,197.67,293.57Z" transform="translate(-15 -16.75)"/><path class="cls-6" d="M238.8,292.89a3,3,0,0,1-.2.8c-.08.21-.17.4-.63.48a8.41,8.41,0,0,1-1.67.07c-.51,0-1,0-1.54-.06a7.8,7.8,0,0,1-2.81-.31c-.57-.36-.84-.82-.76-1.27,0-.08.08-.15.23-.19l.06,0a15,15,0,0,0,4-2.44,2.91,2.91,0,0,1,1.87-.82c1.11-.08,1.38.48,1.44.87a7.2,7.2,0,0,1-.19,1.47C238.64,291.94,238.83,292.41,238.8,292.89Z" transform="translate(-15 -16.75)"/><path class="cls-8" d="M239,285.93a.93.93,0,0,0-.58-.77,6.25,6.25,0,0,0-1.17-.42,3.44,3.44,0,0,1-1.06-.41,3.18,3.18,0,0,1-.51-.74,3,3,0,0,0-1.11-.66,1.9,1.9,0,0,1-.43-.27,2,2,0,0,1-.28-.28h0l-.12-.16a13.45,13.45,0,0,0-3.51-3.28l-1.11-.7a3.52,3.52,0,0,0-1.61-.34c-1.51,0-3,0-4.53-.06l-9.16-.11-4.58-.06c-1.48,0-3,0-4.44,0a15.9,15.9,0,0,0-2.7.37,1.19,1.19,0,0,0-.41.07,10.24,10.24,0,0,0-4,2.43,5.69,5.69,0,0,1-.77.79,6.27,6.27,0,0,0-.88.71c-.19.22-.3.44-.51.66a1.68,1.68,0,0,1-.6.36l-.37.14-.13,0a1.46,1.46,0,0,0-.86.68,1.76,1.76,0,0,1-.22.34h0a.31.31,0,0,0-.13.1c-.18.26-.91.37-1.36.54a3.51,3.51,0,0,0-1.11.57v.05h0a.43.43,0,0,0,0,.43,16.56,16.56,0,0,0-.17,5.37,1,1,0,0,0,.62,1.08,3,3,0,0,0,1.11.17h.29a9.71,9.71,0,0,1,1.11.06l.23,0q1.22.21,2.48.35a29.11,29.11,0,0,0,3,.05l12.87-.28,6.49-.14a45.52,45.52,0,0,1,6.24.1c1.09.15,2.21.27,3.33.34a22.24,22.24,0,0,0,3-.11q1-.1,1.9-.23c1.11-.15,2.22-.31,3.33-.43l.93-.08a.68.68,0,0,0,.42-.1c.09-.06.12-.13.1-.2a17.2,17.2,0,0,0,.94-4C238.94,287.29,239,286.6,239,285.93Zm-6.89-3.38h-7.79l-13.33,0c-4,0-8.11-.09-12.16,0a7.93,7.93,0,0,1-1.11,0,.47.47,0,0,1-.38-.05.08.08,0,0,1,0-.11q1-1,2.13-2.07l1.11-1a1.68,1.68,0,0,1,.56-.37,2.81,2.81,0,0,1,.81-.11c3-.14,6.08-.2,9.12-.24s6.14-.05,9.21,0q2.29,0,4.57.07l2.22.05a4.63,4.63,0,0,1,1.5.22,2.23,2.23,0,0,1,.87.73l.87.95,1.72,1.73.1,0v0a.07.07,0,0,1,0,.1,0,0,0,0,1,0,.05Z" transform="translate(-15 -16.75)"/><path class="cls-10" d="M235.71,287.89a59.77,59.77,0,0,1-9.79.75c-3.46,0-6.91,0-10.37,0l-10.39,0a82,82,0,0,1-9.42-.33c-.76-.09-1.5-.2-2.22-.33a5.42,5.42,0,0,1-1.76-.54,1,1,0,0,1-.12-1.62h0a.23.23,0,0,1,.12-.12,5.71,5.71,0,0,1,2.22-.21.93.93,0,0,1,.29,0h0c.78.08,1.56.17,2.34.23a20.69,20.69,0,0,0,2.43,0c1.64-.07,3.24-.27,4.88-.36s3.35-.11,5-.09h5.12q5.13,0,10.24.18,2.54.09,5.08.24c.84,0,1.69.1,2.53.11s1.72,0,2.58,0c1.11,0,2.84,0,3.23.6S236.9,287.67,235.71,287.89Z" transform="translate(-15 -16.75)"/><path class="cls-7" d="M236.36,292.3l-.38,0c-.94.11-1.88.25-2.81.37-.63.09-1.27.17-1.9.23a22.24,22.24,0,0,1-3,.11c-1.13-.07-2.24-.18-3.33-.34a45.52,45.52,0,0,0-6.24-.1l-6.49.14-12.87.28a29.11,29.11,0,0,1-3-.05q-1.26-.14-2.48-.35l-.23,0-.41,0h-.4v0a.25.25,0,0,1-.21,0h0a2.13,2.13,0,0,1-.22-1.13,2.34,2.34,0,0,1,.42-1.12,1.78,1.78,0,0,1,1-.83,8.2,8.2,0,0,1,2.22-.13c.81,0,1.61.05,2.4.12a24.17,24.17,0,0,1,4.53.81,5.82,5.82,0,0,0,2.41.37c.43,0,.83-.13,1.26-.2s.8-.1,1.21-.12c1.82-.09,3.66-.13,5.49-.11h5.82c.86,0,1.73,0,2.59.05s1.58.24,2.33.41a3.43,3.43,0,0,0,2.22-.2,3,3,0,0,1,1.38-.67,20.81,20.81,0,0,1,2.44-.26q1.36-.1,2.72-.14h1.49a7.18,7.18,0,0,1,1.11,0c.68.11.57.54.61.82l.26,1.31A7.4,7.4,0,0,0,236.36,292.3Z" transform="translate(-15 -16.75)"/><path class="cls-12" d="M234.51,284.93a3.69,3.69,0,0,1-1.3.95,6.92,6.92,0,0,1-2.31.09c-.79,0-1.68.09-2.51.12A16.31,16.31,0,0,1,226,286c-.9-.11-1.81-.18-2.72-.22s-1.83,0-2.74,0c-3.63,0-7.28,0-10.91,0s-7.37.1-11,.27l-1.42.07a6.62,6.62,0,0,1-1,0,2.15,2.15,0,0,1-1.32-.6,1.64,1.64,0,0,1-.5-2h0v0h0l.12-.2.13,0,.37-.14a4.89,4.89,0,0,1-.28.48h0a1.37,1.37,0,0,0,0,1.2,2,2,0,0,0,1,1,6.88,6.88,0,0,0,2.62.09l2.87-.11c6.82-.23,13.67-.2,20.5-.15q1.22,0,2.44.07c.8,0,1.56.15,2.34.22a16.38,16.38,0,0,0,2.49,0c.76-.06,1.52-.1,2.29-.1.41,0,.83.08,1.24.06a1.65,1.65,0,0,0,.89-.29,4.6,4.6,0,0,0,1.06-.93.75.75,0,0,0,0-1.05,3.51,3.51,0,0,1-.68-.79h0a0,0,0,0,1,0-.08.91.91,0,0,0,.17-.35,2,2,0,0,0,.28.28v.08h0c.11.41.76.73.87,1.14A1.19,1.19,0,0,1,234.51,284.93Z" transform="translate(-15 -16.75)"/><path class="cls-5" d="M194.3,283.43v0h0Z" transform="translate(-15 -16.75)"/><path class="cls-14" d="M202.82,286.72a8.49,8.49,0,0,0-2.33-.31c-.71-.07-1.62-.19-2.41-.31s-1.86-.28-2.8-.38c-.48-.06-1-.1-1.46-.11s-.74.06-1.11.07h-.11c-.26,0-.42.16-.37.29a.77.77,0,0,1-.08.47.45.45,0,0,0,.21.49,5.71,5.71,0,0,0,2,.51c.83.13,1.67.22,2.53.28a20.05,20.05,0,0,0,2.61,0c.82-.06,1.53-.29,2.34-.38a3.26,3.26,0,0,0,1-.17C203.08,287.06,203.07,286.86,202.82,286.72Z" transform="translate(-15 -16.75)"/><path class="cls-14" d="M236.87,286.84c-.44.54-1.88.62-2.94.75a24.27,24.27,0,0,1-3.91.2,13.12,13.12,0,0,1-1.86-.21l-.79-.17a4.68,4.68,0,0,0-1,0c-.28,0-.52-.11-.53-.24-.08-.49,1.11-.57,1.9-.63q1.48-.12,2.93-.29c1-.11,1.94-.26,2.91-.39a9.17,9.17,0,0,1,2.78,0c.25,0,.41.15.39.27h0A.49.49,0,0,1,236.87,286.84Z" transform="translate(-15 -16.75)"/><path class="cls-12" d="M202.07,289.43l-4.53-.47c-.72-.08-1.46-.16-2.22-.21s-1.54,0-2.3-.1c-.31,0-.72.07-.68.23a1.39,1.39,0,0,0,.27.57.93.93,0,0,0,.78.14.66.66,0,0,0,.24-.1,4.51,4.51,0,0,1,.81-.11l1,.07,2.09.15,4.18.29C202.44,290,202.76,289.51,202.07,289.43Z" transform="translate(-15 -16.75)"/><path class="cls-12" d="M235.63,289.64a7.37,7.37,0,0,1-.9-.14,7.2,7.2,0,0,0-1,0c-.76,0-1.51.09-2.22.14l-4.44.28h0l-.1,0-.1.07c2.23-.22,4.49-.33,6.77-.32.1,0,.18,0,.19.08a0,0,0,0,1,0,0,3.12,3.12,0,0,1-1.58.5c-.71.09-1.43.15-2.16.18l-5.27.32a11.26,11.26,0,0,0,1.11.86c.17.08-.11.21-.27.12a9.05,9.05,0,0,1-1.11-.86,4.44,4.44,0,0,0-2-.5c-1.68-.1-3.37-.15-5.07-.14s-3.48.09-5.21.11-3.47,0-5.19,0a5.74,5.74,0,0,0-2.22.41l-.46.24h0s-.07.07-.16.08a6.3,6.3,0,0,0-.74.57.31.31,0,0,1-.26,0c-.09,0-.13-.08-.08-.12a6.31,6.31,0,0,1,.88-.66.82.82,0,0,1,.13-.21H204a41.14,41.14,0,0,1-4.72-.35c-.77-.08-1.56-.12-2.32-.2a3.2,3.2,0,0,1-.82-.17,1.63,1.63,0,0,1-.74-.3h0c-.21,0,0-.18.17-.16,1.59.07,3.19.11,4.78.21a13.27,13.27,0,0,1,2.09.28,14.51,14.51,0,0,1,1.72.54,0,0,0,0,1,0,0c.68-.6,2.4-.83,3.87-.87,2.22,0,4.44,0,6.67,0h6.46a12.41,12.41,0,0,1,2.42.26c.61.15,1.8.8,2.43.38.36-.24.31-.58,1-.73a7.57,7.57,0,0,1,.88-.13c1.37-.22,2.72-.45,4.12-.61.67-.08,1.34-.14,2-.18.36,0,.71,0,1.11,0a5.83,5.83,0,0,1,.84,0C236.57,288.84,236.48,289.7,235.63,289.64Z" transform="translate(-15 -16.75)"/><path class="cls-20" d="M176.42,296.92l-2.3,2c29.5-.17,57.78,10.45,66.18,19.7M179.11,302l-5.37-3" transform="translate(-15 -16.75)"/><polyline class="cls-20" points="191.91 279.07 191.63 300.68 197.97 297.06 190.81 301.36 185.02 297.46"/></g><text class="cls-21" transform="translate(0 44.25)">A</text><text class="cls-21" transform="translate(0 174.25)">B</text><text class="cls-21" transform="translate(0 305.25)">C</text></svg>