<svg id="Layer_1" data-name="Layer 1" xmlns="http://www.w3.org/2000/svg" viewBox="0 0 363.71 286.69"><defs><style>.cls-1{fill:#17562a;stroke:#fff;stroke-miterlimit:10;stroke-width:0.81px;}.cls-2{font-size:29px;font-family:MyriadPro-Regular, Myriad Pro;}</style></defs><title>q11</title><path class="cls-1" d="M332.68,312.5c2,3.47,4.24,6.21,2.14,10.35-1.71,3.39-5.26,5.1-8.85,5.65-5.62.86-11.46.24-17.14.86a79.37,79.37,0,0,0-17,3.75,70,70,0,0,0-16.1,8.3c-2.72,1.8-6.23,3.64-9.11,1-6.09-5.64-.18-17.13,3.76-23.36,2.12-5.8,5.21-11.33,5.54-17.43a61.28,61.28,0,0,0-2.82-6.11,7.1,7.1,0,0,0-1.61-3.1l-.62-1.17c-.08.13-.14.26-.21.39a7,7,0,0,0-2.88-1.38c-2.85-.62-5.64-.18-8.51-.14a4.89,4.89,0,0,0-1.87.4c-3.68-1-8.38.34-11.78-2.28s-3.92-5.89-4.3-9.88c-.28-3-.9-2-2.82-3.3a3.43,3.43,0,0,1-1.64-2.93c0-1.61,1.15-2,1.77-3.24,1.4-2.7-.92-2.48-2.44-4.33a7.06,7.06,0,0,1-1.41-4.48c-.08-1.36.33-3.68-.25-4.91-.7-1.48-2.64-1.86-3.91-2.51-2.82-1.44-4.86-3.23-4-6.77.56-2.17,2.32-3.91,3.59-5.66,2.66-3.68,3.91-7.18,2.93-11.77-1.19-5.62-2.79-10.8-3.13-16.57a1.79,1.79,0,0,1,1.21-2.69,298.71,298.71,0,0,1,44.21-5.48c11.91-.55,25.33-1.57,36.72,2.77,9.69,3.67,14.31,11.47,19.24,20.07l5.71,9.94c1,1.81,2.74,3.94,3,6.12.48,4.3-4.61,9.15-6.88,12.47l-6.57,9.63c-1.06,1.56-2.15,4-3.89,5-2.64,1.41-3.28-1-3.68,3.39a30.82,30.82,0,0,0,.38,8.36c1.21,6.55,4.83,10.84,7.94,16.45C329.93,302.47,330,308,332.68,312.5Z" transform="translate(-22.41 -57.45)"/><path class="cls-1" d="M366.93,175.79c-3.45-2.52-7.28-4.66-10.2-7.83s-4.7-7.14-7.34-10.5c-4.82-6.13-11.92-9.45-18.88-12.56-15.42-6.88-31.9-12.43-49-11.91-17.33.53-32.36,7.81-44.34,20.17a161.42,161.42,0,0,0-15.64,19.51c-3.08,4.35-6.38,8.73-8.85,13.49-3.08,4.65-5.69,10.39-2.43,15.61,3.5,5.59,12,7.84,17.64,10.25,7.64,3.23,15.49,6.73,23.62,8.5h.15c.64,4.18,2.55,7.93,4,11.89a127.43,127.43,0,0,1,4,14c2.06,8.85,4,18,3.49,27.15-.28,5-1.72,9.2-3.32,13.82-1.08,3.12-1.76,6.49-.7,9.73,2,6,9.68,6.46,10.82-.26.63-3.76.22-7.34,1.55-11.06a20.42,20.42,0,0,1,8.5-10.62c7.36-4.63,16.1-7.18,23.91-10.93a41,41,0,0,0,13.16-10.12l.35-.19a3.6,3.6,0,0,0,1.9-2.55A78,78,0,0,0,328.92,234c9.47,6.28,20.81,10.67,31.29,4.31,5.25-3.19,8.52-8.51,11.42-13.76,1.59-2.88,3.08-5.82,4.89-8.57,2.09-3.17,4.81-5.88,6.87-9.06C391.58,194.15,376.21,182.55,366.93,175.79Zm-54.7,71.87a274.68,274.68,0,0,1-26,12.81c-5.26,2.24-10.78,4-15,7.6A95.8,95.8,0,0,0,270,256.62a176,176,0,0,0-4.29-19.37c-1.5-5.31-4.19-10.5-5.56-15.88a44.32,44.32,0,0,0,13.82-2.67c8-2.78,15.92-6.45,24.56-4.39s15.64,8.24,22.39,13.72l1.38,1.12c-2.54,6.6-5.57,13-10.06,18.51Z" transform="translate(-22.41 -57.45)"/><path class="cls-1" d="M129.72,312.31c2.05,3.5,4.27,6.25,2.16,10.41-1.73,3.41-5.3,5.13-8.91,5.68-5.64.88-11.52.25-17.23.88a80.17,80.17,0,0,0-17.13,3.77,70,70,0,0,0-16.17,8.35c-2.73,1.8-6.27,3.66-9.16,1-6.13-5.68-.18-17.23,3.79-23.5,2.13-5.84,5.23-11.39,5.57-17.54a65.83,65.83,0,0,0-2.84-6.14,7,7,0,0,0-1.63-3.11c-.21-.39-.43-.8-.62-1.18q-.1.18-.21.39a6.83,6.83,0,0,0-2.9-1.41c-2.86-.63-5.68-.18-8.55-.14a5.21,5.21,0,0,0-1.89.41c-3.7-1-8.43.34-11.84-2.3S38.21,282,37.84,278c-.29-3-.91-2-2.84-3.32a3.41,3.41,0,0,1-1.64-2.95c0-1.63,1.14-2.05,1.77-3.27,1.41-2.71-.93-2.48-2.45-4.36a7.09,7.09,0,0,1-1.47-4.5c-.07-1.38.34-3.7-.25-4.93-.7-1.5-2.64-1.88-3.93-2.54-2.84-1.45-4.89-3.25-4-6.8.55-2.18,2.32-3.93,3.61-5.7,2.68-3.7,3.93-7.21,2.95-11.84-1.15-5.63-2.77-10.85-3.15-16.65a2.08,2.08,0,0,1,0-1.75v-1.91c.45-7.54,3.77-15.38,8.32-21.47v0c2.74-5.2,6.58-8.41,12.68-10.46a7,7,0,0,1,4-1.41,81.41,81.41,0,0,1,71,34c4,5.64,7.88,13.07,7.23,19.95,1.52,2.63,3,5.29,4.55,7.93,1.05,1.8,2.75,3.95,3,6.14.48,4.32-4.64,9.21-6.93,12.55s-4.39,6.45-6.61,9.68c-1.05,1.57-2.16,4-3.91,5-2.64,1.41-3.29-1-3.7,3.41a30.89,30.89,0,0,0,.38,8.41c1.23,6.59,4.86,10.89,8,16.54C127,302.22,127.06,307.75,129.72,312.31Z" transform="translate(-22.41 -57.45)"/><path class="cls-1" d="M180,229.82c-2-1.3-3.38-8.82-4.14-11.23-1.48-4.59-2.8-9.23-4-13.93-2.14-8.41-3.66-17-7.52-24.88-7-14.38-20.7-29-34.39-37.16a69.75,69.75,0,0,0-45.81-8.89c-18.2,2.77-34,12.93-49.09,22.89a6.92,6.92,0,0,0-3.19,4.93,7.23,7.23,0,0,0-.09,3.57c1.61,7.46,7.18,11.3,12,16.73s8.25,12,13.43,17.25a4.13,4.13,0,0,0-.21,1.73,348.93,348.93,0,0,1-.18,43.43l-1.18,20.55c-.09,1.75,0,13.07-.27,18.8-1,1.71-2,3.5-3.13,5.38-1.86,3.23,1.27,7.82,5,6.55,4.79-1.59,6.57-4.64,6.84-9.57,2.73-4.66,6-8.77,11.64-10.52,9.2-2.82,18.14-1.77,27.48-2.41,8.54-.61,23.09-7.05,28.18-15.73a20.5,20.5,0,0,0,8.48,5.43c6.61,2,13.84-1.82,19.61-4.77a41.1,41.1,0,0,0,10.3-7.32c2.68-2.66,4.61-6.77,8.5-7.79C184.54,241.25,185,233.11,180,229.82Zm-67.66,25c-6.45,3.09-13.54,4.61-20.54,5.84-7.46,1.34-16.29,1.54-23.48,4.7-.39-11.18.45-22.63-1.61-33.43a4.7,4.7,0,0,0-.48-1.3c.25-8.2.27-16.41-.09-24.66a77.64,77.64,0,0,0,15,6.95c9.52,3.32,20.55,3.68,27.7,11.48,6.21,6.8,10.7,15,15.29,22.91.18.3.36.62.55.93-4.26,2-8.05,4.58-12.34,6.62Z" transform="translate(-22.41 -57.45)"/><text class="cls-2" transform="translate(57.62 24.27)">1</text><text class="cls-2" transform="translate(260.86 24.27)">2</text></svg>