<?xml version="1.0" encoding="utf-8"?>
<!-- Generator: Adobe Illustrator 22.0.0, SVG Export Plug-In . SVG Version: 6.00 Build 0)  -->
<svg version="1.1" id="Layer_1" xmlns="http://www.w3.org/2000/svg" xmlns:xlink="http://www.w3.org/1999/xlink" x="0px" y="0px"
	 viewBox="0 0 373 306.5" style="enable-background:new 0 0 373 306.5;" xml:space="preserve">
<style type="text/css">
	.st0{font-family:'MyriadPro-Regular';}
	.st1{font-size:29px;}
	.st2{fill:#17562A;stroke:#FFFFFF;stroke-width:0.81;stroke-miterlimit:10;}
</style>
<title>q12</title>
<text transform="matrix(1 0 0 1 80.1175 24.27)" class="st0 st1">1</text>
<text transform="matrix(1 0 0 1 269.1 24.27)" class="st0 st1">2</text>
<path class="st2" d="M314.3,260.9c2,3.5,4.2,6.2,2.1,10.4c-1.7,3.4-5.3,5.1-8.9,5.6c-5.6,0.9-11.5,0.2-17.1,0.9
	c-5.8,0.6-11.5,1.9-17,3.8c-5.7,2.1-11.1,4.8-16.1,8.3c-2.7,1.8-6.2,3.6-9.1,1c-6.1-5.7-0.3-17.1,3.8-23.4
	c2.1-5.8,5.2-11.3,5.5-17.4c-0.8-2.1-1.8-4.1-2.8-6.1c-0.3-1.2-0.8-2.2-1.6-3.1l-0.6-1.1c-0.1,0.1-0.1,0.3-0.2,0.4
	c-0.8-0.7-1.8-1.2-2.9-1.4c-2.8-0.6-5.6-0.2-8.5-0.1c-0.6,0-1.3,0.1-1.9,0.4c-3.7-1-8.4,0.3-11.8-2.3c-3.4-2.6-3.9-5.9-4.3-9.9
	c-0.3-3-0.9-2-2.8-3.3c-1-0.6-1.6-1.7-1.6-2.9c0-1.6,1.1-2,1.8-3.2c1.4-2.7-0.9-2.5-2.4-4.3c-1-1.3-1.5-2.9-1.4-4.5
	c-0.1-1.4,0.3-3.7-0.3-4.9c-0.7-1.5-2.6-1.9-3.9-2.5c-2.8-1.4-4.9-3.2-4-6.8c0.6-2.2,2.3-3.9,3.6-5.7c2.7-3.7,3.9-7.2,2.9-11.8
	c-1.2-5.6-2.8-10.8-3.1-16.6c-0.5-0.8-0.3-1.9,0.5-2.5c0.2-0.1,0.4-0.2,0.6-0.2c14.6-2.9,29.4-4.8,44.2-5.5
	c11.9-0.6,25.3-1.6,36.7,2.8c9.7,3.7,14.3,11.5,19.2,20.1l5.7,9.9c1,1.8,2.7,3.9,3,6.1c0.5,4.3-4.6,9.1-6.9,12.5l-6.6,9.6
	c-1.1,1.6-2.1,4-3.9,5c-2.6,1.4-3.3-1-3.7,3.4c-0.3,2.8-0.1,5.6,0.4,8.4c1.2,6.5,4.8,10.8,7.9,16.5
	C311.6,250.9,311.6,256.4,314.3,260.9z"/>
<path class="st2" d="M348.5,123.2c-3.4-2.5-7.3-4.7-10.2-7.8c-2.9-3.2-4.7-7.1-7.3-10.5c-4.8-6.1-11.9-9.4-18.9-12.6
	c-15.4-6.9-31.9-12.4-48.9-11.9c-17.3,0.6-32.3,7.8-44.3,20.2c-5.7,6.1-10.9,12.6-15.6,19.5c-3.1,4.4-6.4,8.7-8.8,13.5
	c-3.1,4.6-5.7,10.4-2.4,15.6c3.5,5.6,12,7.8,17.6,10.3c7.6,3.2,15.4,6.7,23.6,8.5h0.1c0.6,4.2,2.6,7.9,4,11.9c1.6,4.6,2.9,9.3,4,14
	c2.1,8.9,4,18,3.5,27.1c-0.3,5-1.7,9.2-3.3,13.8c-1.1,3.1-1.8,6.5-0.7,9.7c2,6,9.7,6.5,10.8-0.3c0.6-3.8,0.2-7.3,1.6-11.1
	c1.5-4.4,4.5-8.2,8.5-10.6c7.3-4.6,16-7.2,23.8-10.9c5-2.4,9.5-5.9,13.2-10.1l0.3-0.2c1-0.5,1.7-1.5,1.9-2.5
	c3.9-5.4,7.1-11.2,9.6-17.4c9.5,6.3,20.8,10.7,31.3,4.3c5.3-3.2,8.5-8.5,11.4-13.8c1.6-2.9,3.1-5.8,4.9-8.6c2.1-3.2,4.8-5.9,6.9-9.1
	C373.2,141.6,357.8,130,348.5,123.2z M293.8,195.1c-8.4,4.7-17.1,9-26,12.8c-5.3,2.2-10.8,4-15,7.6c-0.2-3.8-0.6-7.7-1.3-11.5
	c-1.1-6.5-2.5-13-4.3-19.4c-1.5-5.3-4.2-10.5-5.6-15.9c4.7-0.1,9.4-1,13.9-2.7c8-2.8,15.9-6.4,24.6-4.4s15.7,8.2,22.4,13.7l1.4,1.1
	C301.3,183.2,298.3,189.6,293.8,195.1z"/>
<path class="st2" d="M129.5,258.9c2,3.5,4.2,6.2,2.1,10.4c-1.7,3.4-5.3,5.1-8.9,5.6c-5.6,0.9-11.5,0.2-17.1,0.9
	c-5.8,0.6-11.5,1.9-17,3.8c-5.7,2.1-11.1,4.8-16.1,8.3c-2.7,1.8-6.2,3.6-9.1,1c-6.1-5.6-0.2-17.1,3.8-23.4
	c2.1-5.8,5.2-11.3,5.5-17.4c-0.8-2.1-1.8-4.1-2.8-6.1c-0.3-1.2-0.8-2.2-1.6-3.1l-0.6-1.2c-0.1,0.1-0.1,0.3-0.2,0.4
	c-0.8-0.7-1.8-1.1-2.9-1.4c-2.9-0.6-5.6-0.2-8.5-0.1c-0.6,0-1.3,0.1-1.9,0.4c-3.7-1-8.4,0.3-11.8-2.3s-3.9-5.9-4.3-9.9
	c-0.3-3-0.9-2-2.8-3.3c-1-0.6-1.6-1.7-1.6-2.9c0-1.6,1.1-2,1.8-3.2c1.4-2.7-0.9-2.5-2.4-4.3c-1-1.3-1.5-2.9-1.4-4.5
	c-0.1-1.4,0.3-3.7-0.3-4.9c-0.7-1.5-2.6-1.9-3.9-2.5c-2.8-1.4-4.9-3.2-4-6.8c0.6-2.2,2.3-3.9,3.6-5.7c2.7-3.7,3.9-7.2,2.9-11.8
	c-1.2-5.6-2.8-10.8-3.1-16.6c-0.5-0.8-0.2-1.9,0.6-2.5c0.2-0.1,0.4-0.2,0.6-0.2c14.6-2.9,29.4-4.8,44.2-5.5
	c11.9-0.6,25.3-1.6,36.7,2.8c9.7,3.6,14.3,11.4,19.2,20l5.7,9.9c1,1.8,2.7,3.9,3,6.1c0.5,4.3-4.6,9.1-6.9,12.5l-6.6,9.6
	c-1.1,1.6-2.1,4-3.9,5c-2.6,1.4-3.3-1-3.7,3.4c-0.3,2.8-0.1,5.6,0.4,8.4c1.2,6.5,4.8,10.8,7.9,16.5
	C126.7,248.8,126.8,254.3,129.5,258.9z"/>
<path class="st2" d="M163.7,122.2c-3.5-2.5-7.3-4.7-10.2-7.8s-4.7-7.1-7.3-10.5c-4.8-6.1-11.9-9.4-18.9-12.6
	c-15.4-6.9-31.9-12.4-48.9-11.9C61,79.9,46,87.2,34,99.5c-5.7,6.1-10.9,12.6-15.6,19.5c-3.1,4.4-6.4,8.7-8.9,13.5
	c-3.1,4.6-5.7,10.4-2.4,15.6c3.5,5.6,12,7.8,17.6,10.3c7.6,3.2,15.5,6.7,23.6,8.5h0.1c0.6,4.2,2.6,7.9,4,11.9c1.6,4.6,2.9,9.3,4,14
	c2.1,8.9,4,18,3.5,27.2c-0.3,5-1.7,9.2-3.3,13.8c-0.1,0.4-0.3,0.8-0.4,1.1c-1.2,1.1-2,2.7-2.1,4.3c0.2-1.6-0.7,0.6-1,1.2
	c-0.8,1.6-1,3.4-0.8,5.1c0.2,1.3,0.7,2.4,0.8,3.7c0.1,1.4,0.1,2.8,0,4.2c-0.3,6.2,9.3,7.5,10.8,1.5c0.5-2,0.8-4.1,1-6.1
	c0.1-0.1,0.1-0.3,0.1-0.4c0.2-0.8,0.4-1.6,0.6-2.3l0,0c0.5-0.8,0.9-1.7,1-2.6c0.6-3.8,0.2-7.3,1.5-11.1c1.5-4.4,4.5-8.1,8.5-10.6
	c7.4-4.6,16.1-7.2,23.9-10.9c5-2.4,9.5-5.9,13.2-10.1l0.4-0.2c1-0.5,1.7-1.4,1.9-2.5c3.9-5.4,7.1-11.2,9.5-17.4
	c9.5,6.3,20.8,10.7,31.3,4.3c5.3-3.2,8.5-8.5,11.4-13.8c1.6-2.9,3.1-5.8,4.9-8.6c2.1-3.2,4.8-5.9,6.9-9.1
	C188.4,140.5,173,128.9,163.7,122.2z M109,194c-8.4,4.7-17.1,9-26,12.8c-5.3,2.2-10.8,4-15,7.6c-0.2-3.8-0.6-7.7-1.3-11.5
	c-1.1-6.5-2.5-13-4.3-19.3c-1.5-5.3-4.2-10.5-5.6-15.9c4.7-0.2,9.4-1.1,13.9-2.7c8-2.8,15.9-6.4,24.6-4.4s15.7,8.2,22.4,13.7
	l1.4,1.1C116.5,182.1,113.5,188.6,109,194z"/>
</svg>
