<svg id="Layer_1" data-name="Layer 1" xmlns="http://www.w3.org/2000/svg" viewBox="0 0 389.85 191.53"><defs><style>.cls-1,.cls-2,.cls-3{fill:none;}.cls-2,.cls-3{stroke:#1a1a1a;stroke-miterlimit:10;}.cls-2{stroke-width:0.72px;}.cls-3{stroke-width:1.44px;}.cls-4{fill:#494949;}.cls-5{fill:#2e2e2e;}.cls-6{fill:#406f7c;}.cls-7{fill:#3c3b3b;}.cls-8{fill:#efefef;}</style></defs><title>q2</title><g id="Layer_2" data-name="Layer 2"><g id="Layer_1-2" data-name="Layer 1-2"><line class="cls-1" x1="39.78" y1="161.38" x2="125.14" y2="103.88"/><line class="cls-2" x1="52.87" y1="165.58" x2="139.08" y2="107.5"/><line class="cls-2" x1="61.09" y1="173.66" x2="123.62" y2="101.35"/><line class="cls-2" x1="78.18" y1="173.23" x2="127.52" y2="98.73"/><line class="cls-2" x1="89.97" y1="176.62" x2="86.23" y2="95.44"/><line class="cls-2" x1="102.85" y1="176.41" x2="84.12" y2="143.76"/><line class="cls-2" x1="117.37" y1="171.43" x2="96.78" y2="126.97"/><line class="cls-2" x1="128.23" y1="170.82" x2="89.97" y2="139.5"/><line class="cls-1" x1="139.93" y1="168" x2="44.53" y2="103.05"/><line class="cls-1" x1="150.85" y1="165.61" x2="12.11" y2="127.97"/><line class="cls-2" x1="156.86" y1="160.48" x2="93.49" y2="128.29"/><line class="cls-1" x1="164.67" y1="153.74" x2="108.75" y2="144.38"/><line class="cls-2" x1="166.36" y1="147.64" x2="22.65" y2="123.03"/><line class="cls-1" x1="164.67" y1="135.34" x2="97.39" y2="128.29"/><line class="cls-2" x1="152.72" y1="122.4" x2="24.29" y2="150.15"/><line class="cls-1" x1="145.8" y1="117.83" x2="109.1" y2="142.36"/><line class="cls-1" x1="114.38" y1="104.71" x2="95.97" y2="139.5"/><line class="cls-1" x1="105.17" y1="98.73" x2="96.96" y2="140.82"/><line class="cls-1" x1="81.48" y1="98.73" x2="85.82" y2="150.15"/><line class="cls-1" x1="62.28" y1="96.55" x2="99.66" y2="133.27"/><line class="cls-1" x1="53.19" y1="98.73" x2="100.23" y2="147.88"/><line class="cls-2" x1="34.4" y1="104.71" x2="85.86" y2="146.79"/><line class="cls-2" x1="26.36" y1="110.6" x2="87.68" y2="126.97"/><line class="cls-2" x1="18.31" y1="114.82" x2="84.91" y2="139.5"/><line class="cls-2" x1="13.15" y1="122.11" x2="87.95" y2="132.6"/><line class="cls-2" x1="13.15" y1="136.54" x2="86.22" y2="130.1"/><line class="cls-2" x1="32.97" y1="155.3" x2="90.98" y2="148.02"/><line class="cls-2" x1="39.78" y1="161.38" x2="89.36" y2="127.97"/><line class="cls-2" x1="18.72" y1="143.15" x2="88.5" y2="141.97"/><line class="cls-2" x1="12.11" y1="127.97" x2="72.8" y2="142.23"/><line class="cls-2" x1="46.58" y1="102.11" x2="89.97" y2="133.98"/><line class="cls-2" x1="57.02" y1="98.73" x2="93.49" y2="146.79"/><line class="cls-2" x1="68.28" y1="98.73" x2="99.02" y2="137.93"/><line class="cls-3" x1="163.13" y1="125.75" x2="108" y2="139.5"/><line class="cls-3" x1="166.8" y1="135.1" x2="109.1" y2="128.29"/><line class="cls-2" x1="145.2" y1="113.57" x2="110.93" y2="138.75"/><path class="cls-4" d="M387.15,247.55c-4,3.17-10.58,5.6-15.6,4.5a.72.72,0,0,1-.34-.2c-4.25.25-8.61-1.45-12.52-3.32a.72.72,0,0,1-.62,0l-4.17-1.86a.59.59,0,0,1-.34-.68.7.7,0,0,1,0-1,.66.66,0,0,1,.31-.17,50.28,50.28,0,0,1,16-.84c4.69-1.13,13.51-3.16,8.51-10.07-2.45-3.38-6-5.22-9.4-7.27a.61.61,0,0,1-.57-.35,14.34,14.34,0,0,0-4.25-4.1c-1.42-1-2.84-2-4.37-2.91a.68.68,0,0,1-.65-.16,25.19,25.19,0,0,0-7.17-5.4c-2-.84-4-1.11-5.5-2.75a.7.7,0,0,1-.17-.32,58.64,58.64,0,0,0-7.74-3.88,44.67,44.67,0,0,1-6.51-4,6.84,6.84,0,0,1-4.25-1.06c-1.08-.54-2.18-1-3.3-1.45a1.65,1.65,0,0,1-1-.71.74.74,0,0,1,0-.73c.71-1,2.3-.7,3.37-.65a26.73,26.73,0,0,1,4.17.49.6.6,0,0,1,.61-.13c2.61.74,5.3,1,7.91,1.73a55.11,55.11,0,0,1,6,2.72.73.73,0,0,1,.61,0c3.76,1.76,7.94,2.1,11.66,3.94a.81.81,0,0,1,.47.19c1.42,1.31,3.56,1.88,5.2,2.91,1.16.77,2.27,1.63,3.36,2.5a.53.53,0,0,1,.68.19,14.23,14.23,0,0,0,3.49,2.74c.77.54,1.42,1.16,2.21,1.72a.53.53,0,0,1,.64,0c2.35,1.67,4.72,3.33,6.91,5.22a.62.62,0,0,1,.52,0,21.29,21.29,0,0,1,6.27,5.73h0a2.28,2.28,0,0,1,1.08,1.24c.43.92.74,1.89,1.15,2.81a12.61,12.61,0,0,1,.89,5.27.61.61,0,0,1,.43.32C393.8,241.27,389.66,245.56,387.15,247.55Z" transform="translate(-5.09 -106.25)"/><path class="cls-5" d="M267.09,216.17v.35h-.16l-.33-.32Z" transform="translate(-5.09 -106.25)"/><line class="cls-2" x1="338.54" y1="137.93" x2="310.71" y2="90.47"/><line class="cls-2" x1="343.11" y1="137.93" x2="309.8" y2="119.39"/><line class="cls-2" x1="361.71" y1="139.85" x2="305.79" y2="120.92"/><line class="cls-2" x1="357.59" y1="141" x2="287.51" y2="84.63"/><line class="cls-2" x1="371.85" y1="140.31" x2="290.22" y2="86.82"/><line class="cls-2" x1="381.54" y1="136.3" x2="260" y2="107.5"/><line class="cls-2" x1="312.14" y1="121.91" x2="383.44" y2="131.23"/><line class="cls-2" x1="311.62" y1="119.74" x2="377.64" y2="119.51"/><line class="cls-2" x1="314.99" y1="103.05" x2="380.3" y2="135.36"/><line class="cls-2" x1="375.2" y1="117.15" x2="314.1" y2="106.02"/><line class="cls-2" x1="383.44" y1="128.29" x2="312.03" y2="102.35"/><line class="cls-2" x1="253.21" y1="103.05" x2="351.79" y2="103.44"/><line class="cls-2" x1="280.95" y1="118.02" x2="329.64" y2="95.57"/><line class="cls-2" x1="318.15" y1="133.33" x2="309.8" y2="89.22"/><line class="cls-2" x1="323.5" y1="134.59" x2="258.88" y2="83.5"/><line class="cls-2" x1="297.44" y1="87.5" x2="311.57" y2="138.59"/><line class="cls-2" x1="276.27" y1="81.1" x2="309.57" y2="117.15"/><line class="cls-2" x1="265.9" y1="92.64" x2="312.99" y2="103.24"/><line class="cls-2" x1="267.8" y1="96.99" x2="312.48" y2="104.71"/><line class="cls-2" x1="251.38" y1="108.28" x2="315.96" y2="107.5"/><line class="cls-2" x1="258.44" y1="94.7" x2="310.71" y2="119.2"/><line class="cls-2" x1="342.56" y1="99.12" x2="311.25" y2="117.15"/><line class="cls-2" x1="328.96" y1="94.13" x2="310.71" y2="114.82"/><line class="cls-2" x1="359.03" y1="106.95" x2="308.68" y2="124.31"/><path class="cls-4" d="M246.47,162a64,64,0,0,1-7.83-14.55c-.34-.86-1.7-.48-1.42.39A57,57,0,0,0,243,159.74c1.12,1.61,2.48,3.07,3.45,4.79a15.19,15.19,0,0,1,1.63,4.8q-4.59-3.07-9.39-5.82l.69-.81c1.08-1.28,3-3.71,1.57-5.38a.71.71,0,0,0-.69-.19,13.21,13.21,0,0,0-3.28,1.35,34.32,34.32,0,0,1-.21-11.83c.11-.93-1.3-.92-1.42,0a35.71,35.71,0,0,0,0,11.74l-5.26-8.47c-.5-.79-1.72,0-1.22.73l5.74,9.21h0l-1.19.64a28.81,28.81,0,0,0-4.25-2,19.71,19.71,0,0,0-2-1.15.74.74,0,0,0-1,.38l0,.07c-.74.1-1,1.28-.17,1.45a14.59,14.59,0,0,1,2.61.64,29.16,29.16,0,0,1,2.52,1.88q-1.87,1-3.7,2.15a.74.74,0,0,0-.16,1,.7.7,0,0,0,.87.24q2.07-1.25,4.17-2.42l2.95,2.58a24.24,24.24,0,0,0-3,4.66,8.79,8.79,0,0,0-4.72,1.72c-.74.54,0,1.8.71,1.25a8,8,0,0,1,3.32-1.45,19.26,19.26,0,0,0-.69,2.11.76.76,0,0,0,.52.92.73.73,0,0,0,.9-.53,16.71,16.71,0,0,1,.94-2.66,17.69,17.69,0,0,1,5.42,1c0,1.24-.09,2.47-.16,3.68a.71.71,0,0,0,1.42,0c0-.93.1-2.17.1-3.23a25.79,25.79,0,0,0,8.61,2.07.69.69,0,0,0,.68-.68.63.63,0,0,0,.81-.42.67.67,0,0,0,0-.25A21.08,21.08,0,0,0,246.47,162Zm1.25,8.85a44.9,44.9,0,0,1-8.34-4.18c-.07-.41-.18-.81-.28-1.22q4.4,2.58,8.62,5.4ZM239.53,159c.78.54-.57,2.14-1.42,3.07-.27-.7-.5-1.45-.69-2.1a9.8,9.8,0,0,1,2.13-1ZM236,160.73c.18.52.38,1,.58,1.56l-1.69-1Zm-1.64,1.89,2.1,1.22-.31.35-.2-.16Zm2,3.65.4.33c.48.39,1,.76,1.42,1.09a25.37,25.37,0,0,1,.24,3.3,20.81,20.81,0,0,0-4.71-1.06,25.35,25.35,0,0,1,2.67-3.65Zm3.49,5.19a15.8,15.8,0,0,0-.17-2.84,53,53,0,0,0,8.51,3.94.65.65,0,0,0,.26,0v.89h-.1a25.58,25.58,0,0,1-8.49-2Z" transform="translate(-5.09 -106.25)"/><path class="cls-4" d="M322.93,205.48c-.31-2-3.52-2.07-4-.19a2.43,2.43,0,0,0-3,1.74,2.56,2.56,0,0,0-.06.29v.54a2,2,0,0,0-1,1.79,61.2,61.2,0,0,0,.11,7.77,23.28,23.28,0,0,1-2.24,5.54l.1.22c-3,6.08-19.94-5.66-23.82-8-1.73-1-4.62-2.26-5.79-4.07-.16-.23.23-.86,0-1.16a25.74,25.74,0,0,0-1.81-2.52,21.11,21.11,0,0,1-2.84-3.55,10.72,10.72,0,0,0-2-3.14c-.17-.15-.35-.28-.54-.41a13.65,13.65,0,0,0-7-4.26c-2.11-.51-4.25-.57-6.27-1.21-1.57-.48-2.84-1-4.45-.07-5.67,3.16-3.12,15.33,1.42,18.29a2,2,0,0,0,2.14,0,5.75,5.75,0,0,0,2.28-3.8c3.86,3.78,10.44,5.91,14.78,8.06,10.54,5.24,22.09,12.53,33.69,14.85-.13.31-.27.6-.43.89a13.05,13.05,0,0,0,1.84.15,2.1,2.1,0,0,0,1.84-1.08,12.91,12.91,0,0,0,.78-2.1h0a2,2,0,0,0,2.56-1.17,2.08,2.08,0,0,0,.13-.84c-.26-5.24,1.32-9.3,2.84-13.84A1.71,1.71,0,0,0,323,213v-.58h0v-.25A23,23,0,0,0,322.93,205.48Z" transform="translate(-5.09 -106.25)"/><path class="cls-5" d="M393.6,238.36a13.47,13.47,0,0,0-.45-1.8,1.47,1.47,0,0,0-.27-.51c-.11-.25-.26-.51-.4-.76v-.22a1.16,1.16,0,0,0,.09-1.6c-1.56-2.08-3-4.23-4.44-6.4a1.35,1.35,0,0,0-.27-1.59,36,36,0,0,0-5.08-4,1.27,1.27,0,0,0-1.79.36,1.34,1.34,0,0,0-.14.28l-.82-.73a1.2,1.2,0,0,0-.37-1.34,65.71,65.71,0,0,0-5.53-4.2,1.26,1.26,0,0,0-.88-.22,1.46,1.46,0,0,0-.64-1.19,30,30,0,0,0-6.71-3.59,1.25,1.25,0,0,0-.38-.1c-.85-.51-1.72-1-2.58-1.45a1.58,1.58,0,0,0-.92-1.73l-13.87-5.91c-5.06-2.17-10.62-4-15-7.45a1.23,1.23,0,0,0-.89-.74l-11.85-2.79a1.3,1.3,0,0,0-1.22.32l-6.76-1.72c-3.77-1-7.83-1.54-11.09-3.83a1.19,1.19,0,0,0-1.69.23l0,.06-1.72-.23c-7.3-5-19.85-3.29-27.75-2.74a66.6,66.6,0,0,0-17,3.17c-3.06,1-8.35,2.23-9.15,6a2.33,2.33,0,0,0,.38,1.89,17.25,17.25,0,0,0-.64,6,1.48,1.48,0,0,0-.2.64,15.5,15.5,0,0,0,1.87,9.12,1.49,1.49,0,0,0,0,.6,16.63,16.63,0,0,0,2.31,5.62c1.11,1.45,2.74,2.55,3.54,4.36a1.12,1.12,0,0,0,1.12.73,12.4,12.4,0,0,0,3,2.79,31.34,31.34,0,0,0,3.4,3.36,4.72,4.72,0,0,0,1.42.81,44.16,44.16,0,0,0,10.34,6.93,46.75,46.75,0,0,0,9.22,4.58c1.52.8,3,1.64,4.48,2.59a4.27,4.27,0,0,0,3.45.6c4.25,2.37,8.21,5.38,13.17,6.23a5,5,0,0,0,2.72-.28c4.86,2.17,9.67,4.25,15,4.86a5.17,5.17,0,0,0,1.84.93c9.81,2.72,20.59,5.51,30.84,5.34a37,37,0,0,0,10.48,1.24,17.08,17.08,0,0,0,2.45.58,13.69,13.69,0,0,0,4.51,0,21.28,21.28,0,0,0,13.64-2.82,1.77,1.77,0,0,0,.55,0,6.82,6.82,0,0,0,3.32-1.79,9.69,9.69,0,0,0,4.11-1.72,5.64,5.64,0,0,0,1.42-4.93c.31-.41.62-.81.92-1.25a1.28,1.28,0,0,0,0-1.45,1.26,1.26,0,0,0,.48-.44,7.11,7.11,0,0,0,.88-2.17C394.85,242.52,395.79,239.7,393.6,238.36Zm-6.13-1.15a8.76,8.76,0,0,0-.5,3.23h0l-.23.1-3.08,2.27a3.93,3.93,0,0,0-1,.63c-.55.33-1.09.71-1.63,1.11H381l-4.82,1a1.57,1.57,0,0,0-.84-.13,49.39,49.39,0,0,1-13.1.12,1.11,1.11,0,0,0-1.09.55c-1.42-.38-2.84-.7-4.25-.95a1.23,1.23,0,0,0-.77-.51,107.42,107.42,0,0,0-17.63-2.24l-5.83-1.13a1.19,1.19,0,0,0-.86-.77c-6.47-1.45-12.39-4.64-18.8-6.31h0l-1.29-.31a8.65,8.65,0,0,1-10.24,3.48,9.48,9.48,0,0,1-5.76-4.2,10.81,10.81,0,0,1-9.84.26,11.69,11.69,0,0,1-6.83-8.15,9.43,9.43,0,0,1-10.2-3.35,9.24,9.24,0,0,1-1.73-5.4h-.16l-.33-.32a39.18,39.18,0,0,1-5.36-6.21,15.29,15.29,0,0,1-2.84-8.64c.37-6.53,4.25-7.13,9.26-7.52,8.42-.67,17.38.93,25.75,1.85q15.91,1.75,31.73,4.28a2.16,2.16,0,0,0,2.18-.87,20.41,20.41,0,0,0,2.52.49,1.34,1.34,0,0,0,1,1.15c3.66,1.11,7.36,2.18,11,3.33.31.15.61.32.91.47a1.39,1.39,0,0,0,.88.1c3.73,1.21,7.43,2.5,11,4a1.3,1.3,0,0,0,.86.74l1.29.35a1.65,1.65,0,0,0,.5.61,104.89,104.89,0,0,0,12.49,7.87,1.39,1.39,0,0,0,1.29,0q2.95,2.34,5.67,4.93a1.31,1.31,0,0,0,1.15.38c1.67,1.53,3.39,3,5.18,4.36l.1.13a1.4,1.4,0,0,0,1.94.53h0a1.63,1.63,0,0,0,.23-.22c.72,1.12,1.5,2.21,2.27,3.32a1.47,1.47,0,0,0-.65,1.63,14.49,14.49,0,0,1,.88,3.23A1.47,1.47,0,0,0,387.48,237.21Z" transform="translate(-5.09 -106.25)"/><path class="cls-5" d="M312.92,234.17l-1.29-.31a8.65,8.65,0,0,1-10.2,3.49,9.48,9.48,0,0,1-5.76-4.2,10.81,10.81,0,0,1-9.84.26,11.69,11.69,0,0,1-6.83-8.15,9.43,9.43,0,0,1-10.2-3.35,9.24,9.24,0,0,1-1.73-5.4C282.72,221,297.93,227.94,312.92,234.17Z" transform="translate(-5.09 -106.25)"/><path class="cls-5" d="M184.76,252.83A21.65,21.65,0,0,1,182.45,265a18.81,18.81,0,0,1-5.39,9.37,1.55,1.55,0,0,1-.58.32,1.16,1.16,0,0,1-.35.45,61.11,61.11,0,0,1-5.42,4.15,1.55,1.55,0,0,1-.91,1.72c-4,1.67-7.63,4-11.46,5.92A72.45,72.45,0,0,1,147.29,292a1.28,1.28,0,0,1-1,1.11,76.8,76.8,0,0,1-8.51,1.93,1.68,1.68,0,0,1-1.22,1c-2.59.35-5.16.55-7.71.65a1.39,1.39,0,0,1-.6.19c-5.25.32-11.57,1.79-16.69.19a61.63,61.63,0,0,1-7.84-.39,1.4,1.4,0,0,1-.85.42,19.38,19.38,0,0,1-7.09-.92h-6a1.3,1.3,0,0,1-.86-.31,1.41,1.41,0,0,1-.94.51,18.93,18.93,0,0,1-6.89-.31c-1.73-.41-3.36-1.35-5.09-1.82a1.15,1.15,0,0,1-.79,0c-.34-.12-.68-.19-1-.28h0a1.28,1.28,0,0,1-.67-.19,46,46,0,0,0-6.18-.73,1.2,1.2,0,0,1-1.42.45c-1-.31-1.94-.64-2.84-1a16.92,16.92,0,0,0-2.54-.55,1.11,1.11,0,0,1-.92,0l-1.87-.8-1.15-.36a1.3,1.3,0,0,1-.6-.41c-1.09-.49-2.16-1-3.22-1.57a1.3,1.3,0,0,1-1.67.26l-5.67-3.16a1.2,1.2,0,0,1-1.89.6L34,279.23c-.79-.41-1.57-.84-2.35-1.31a1.3,1.3,0,0,1-.67-1.15c-.6-.33-1.18-.68-1.77-1.06a1.42,1.42,0,0,1-1.6,1.25,1.4,1.4,0,0,1-.8-.4L24,273.77a1.06,1.06,0,0,1-.86-.2,36.22,36.22,0,0,1-8.32-9,21.89,21.89,0,0,1-1.52-1.76,1.41,1.41,0,0,1-1.18-.67c-1.11-1.7-2.08-3.46-3-5.24a1.44,1.44,0,0,1-.65-.77l-.68-1.89h0l-2.44-7a1.25,1.25,0,0,1,0-1,12.71,12.71,0,0,1,0-4.36v-.38A32.61,32.61,0,0,1,5.53,233a1.13,1.13,0,0,1,.72-.89,18.3,18.3,0,0,1,.57-2.23,1.44,1.44,0,0,1,.74-.86,23.57,23.57,0,0,1,1.19-3.51,1.11,1.11,0,0,1,.82-.67A23.8,23.8,0,0,1,11.33,220a1.19,1.19,0,0,1,.92-.67l.2-.26a1.3,1.3,0,0,1,.38-1c1.52-1.45,3.08-2.91,4.65-4.23a.84.84,0,0,1,0-.12A16.91,16.91,0,0,1,21,210.4a1.47,1.47,0,0,1,.35-.76l.68-.76a1.85,1.85,0,0,1,.31-.57,4.28,4.28,0,0,1,1.29-1.09,1.28,1.28,0,0,1,1.73.31A59,59,0,0,1,32,204.81a1.45,1.45,0,0,1,.69,0,44.31,44.31,0,0,1,5.87-2.68,1.11,1.11,0,0,1,1,.15,40.74,40.74,0,0,1,5-1.29,1.38,1.38,0,0,1,.68,0h.16a1.21,1.21,0,0,1,.55-.47l.34-.15h0a26.06,26.06,0,0,1,9.9-2.44l1.8-.49a1.6,1.6,0,0,1,.64,0,1.59,1.59,0,0,1,.38-.19c3.47-1,8.68-2.91,12.66-2.4a.13.13,0,0,1,0-.07,1.41,1.41,0,0,1,1.74-1h0l1.16.42a1.61,1.61,0,0,1,1,1.45,28.78,28.78,0,0,1,3.53.15c.55-.09,1.11-.17,1.66-.23a1.27,1.27,0,0,1,1.35-1.18h.37a7.72,7.72,0,0,1,1.64.23c2,.28,4,.58,6.05.93a1.21,1.21,0,0,1,.57-.12,43.07,43.07,0,0,1,4.79.29,1.48,1.48,0,0,1,.72,0l2.84.55a1.4,1.4,0,0,1,.51.2l.62.1a1.38,1.38,0,0,1,.67,0l1.26.22a1.07,1.07,0,0,1,.71.45,9.68,9.68,0,0,0,2.51.25,1.4,1.4,0,0,1,1.84.55v.12l1,.15a1.3,1.3,0,0,1,1.08.13l.18.13a1.64,1.64,0,0,1,.37.41,20.91,20.91,0,0,0,4.37.42,1.59,1.59,0,0,1,.75,0l1.29.22a1.13,1.13,0,0,1,.88.7h2.51a1.46,1.46,0,0,1,0,2.91h-2.06a1.44,1.44,0,0,1-1,1.12c-.74.25-3.32.79-3.45,1.79a1.42,1.42,0,0,1-1.42,1.06,50,50,0,0,1-8.51-1.56,1.22,1.22,0,0,1-.71.13,102.47,102.47,0,0,1-13.84-2.24q-8.51.89-17,1.59a1.14,1.14,0,0,1-.82-.23,1.26,1.26,0,0,1-1.23.8c-2.5,0-5.5-.13-8.72-.09C56,207.37,51.31,210.32,46.2,212a1.31,1.31,0,0,1-1.66-.86,1.39,1.39,0,0,1-.07-.48l-.51.16-15.24,9.5L26.35,224a20.88,20.88,0,0,1-2.41,2.91,9.84,9.84,0,0,0-2.57,6.72,1.39,1.39,0,0,1-.16.57.86.86,0,0,1,.13.33l1,6.47c1.09-.15,2.25.95,1.42,2.08-3.06,4.32,4.92,9.27,7.54,11.6l9.6,8.34a1.26,1.26,0,0,1,.16,1.74,1.22,1.22,0,0,1-.16.16c.85.35,1.69.7,2.55,1a1.19,1.19,0,0,1,.34.23l1.3.47a1.44,1.44,0,0,1,.89.93,18.53,18.53,0,0,0,3.08,1.12,1.43,1.43,0,0,1,.91.8l4,1.38a1.25,1.25,0,0,1,.86,0l1.83.63h0c.89.32,1.8.58,2.69.86a1.59,1.59,0,0,1,.68,0l4.81,1.45a1.42,1.42,0,0,1,.68.48q1.16.32,2.38.61a1.22,1.22,0,0,1,1.42-.47c1.72.52,3.42,1,5.15,1.45a1.47,1.47,0,0,1,.43,0l4.34,1a1.21,1.21,0,0,1,.89.67c.64.16,1.29.29,1.94.42s1.21.15,1.81.25l1.55.1a1.08,1.08,0,0,1,.5-.09h9.12a1.26,1.26,0,0,1,1.32,1.15c.78.09,1.55.17,2.33.23a1.23,1.23,0,0,1,1.55-.82l.05,0c5.13,1.69,9.17-.07,14.18-.57s10.08-.67,15.12-1a1.16,1.16,0,0,1,1,.42L150.14,273a1.29,1.29,0,0,1,1.15.23,1.12,1.12,0,0,1,.43-.44q5.19-2.84,10.15-6.07l.57-.51a1.12,1.12,0,0,1,.4-1.12l.41-.33a24.49,24.49,0,0,0,5.79-6.37,1.32,1.32,0,0,1,.44-.45,23.84,23.84,0,0,0,.78-3,1.19,1.19,0,0,1,1.12-1,2.42,2.42,0,0,1,.16-.61,1.73,1.73,0,0,1,0-.61,9.19,9.19,0,0,1,.33-2.18c.16-1.89.17-4,1.35-5.22s6.66-2.58,8.51-2.15C185.42,243.95,185.3,248.85,184.76,252.83Z" transform="translate(-5.09 -106.25)"/><path class="cls-5" d="M161.92,216.94l-.44-.23a1.26,1.26,0,0,0-.69-1.24c-1.64-.93-3.29-1.79-5-2.59a1.38,1.38,0,0,0-1-.07l-17-7.61a1.39,1.39,0,0,0-1.18,0,1.65,1.65,0,0,0-.48-.12,18.21,18.21,0,0,0-5.39.26,1.28,1.28,0,0,0-.94,1.53l0,.08-.67-.2a1.42,1.42,0,0,0-1.74,1,1.46,1.46,0,0,0,1,1.79h0a26.5,26.5,0,0,1,4.95,1.85,1.23,1.23,0,0,0,.67,1.45l5.23,2.66a1.39,1.39,0,0,0,1.16,0l1.56.9a1.39,1.39,0,0,0,1.15.09,13.62,13.62,0,0,0,12.53,3.33,1.22,1.22,0,0,0,1-.95,13.38,13.38,0,0,1,4.25.7,1.42,1.42,0,0,0,1.66-1.15A1.47,1.47,0,0,0,161.92,216.94Z" transform="translate(-5.09 -106.25)"/><path class="cls-5" d="M182.41,237.43l-.43-.12a19.6,19.6,0,0,0-2.58-5.73,1.4,1.4,0,0,0-2-.48,1.42,1.42,0,0,0-.22.17c-.72-1.09-1.42-2.2-2.1-3.33a1.4,1.4,0,0,0-2-.45,1.42,1.42,0,0,0-.21.17,1.27,1.27,0,0,0-1.12-.65,7.4,7.4,0,0,1-4.45-.92,1.4,1.4,0,0,0-1.94.52,1.49,1.49,0,0,0-.15,1.1h0a1.4,1.4,0,0,0-1.91.61,1.48,1.48,0,0,0,.5,1.9c3.66,2.15,6.62,4.16,7.22,8.73a3.72,3.72,0,0,0,2.08,3.45c2,.86,4.88-.29,6.83-.77,1.62-.41,2.84-.64,3.4-2.34a1.46,1.46,0,0,0-.9-1.84Z" transform="translate(-5.09 -106.25)"/><path class="cls-6" d="M314.81,204.23a159.6,159.6,0,0,0-34.31-20.54l-.35-.15a6.77,6.77,0,0,0-1.22-1.67c-2.16-2.18-5.23-3.33-8-4.45-3-1.21-6-2.37-8.95-3.52L259.83,172a1.39,1.39,0,0,0-1.93,0,43.27,43.27,0,0,0-6-2.56,1.19,1.19,0,0,0-1.55.65,1.57,1.57,0,0,0-.34.12c-1.77.92-4.06,4.36-2,5.82a1.92,1.92,0,0,0-.38.12,13.73,13.73,0,0,0-1.93,1.13c-.55.31-1.12.61-1.7.9h-.16a11.81,11.81,0,0,0-2.11-1,1.13,1.13,0,0,0-.69,0,1.36,1.36,0,0,0-.68-1.13l-.54-.29c-2.4-1.29-5.12-1.64-7.59-2.65l-.16-.1a1.41,1.41,0,0,0-.89-.49l-1-.47h0l-.33-.15a1.11,1.11,0,0,0-.74,0h0a1.41,1.41,0,0,0-.71-.41l-1.18-.68a1.39,1.39,0,0,0-1-.15q-2.84-2.08-5.53-4.23a1.4,1.4,0,0,0-.91-.32,1,1,0,0,0-.2-.15l-.27-.12a.47.47,0,0,0-.14-.09l-.21-.07a13.74,13.74,0,0,0-3.06-1.09,1.29,1.29,0,0,0-.62,0L212.43,163a1.26,1.26,0,0,0-1-.13,7.48,7.48,0,0,0-1-.2,1.15,1.15,0,0,0-.69.13,1.4,1.4,0,0,0-2,.4,1.47,1.47,0,0,0-.17.37,1.46,1.46,0,0,0-.94,1.45,1.61,1.61,0,0,0-.71,1.45,1.85,1.85,0,0,0,.19,2.56,1.76,1.76,0,0,0,.59.35c.31.17.62.32,1,.48a6.58,6.58,0,0,0,2.17,1,.68.68,0,0,0,.24,0c.77.26,1.56.51,2.37.73l.75.32a1.38,1.38,0,0,0,.88,0l.89.2,1,.52h.1c.57.35,1.13.74,1.69,1.15a71.92,71.92,0,0,0-10.2,3.86,1.67,1.67,0,0,0-.26.19l-.89.23a1.53,1.53,0,0,0-.74.52c-1,.31-1.9.65-2.84,1a1.13,1.13,0,0,0-1.42-.47c-11.88,4.73-23.94,10.87-36.21,15.48a1.24,1.24,0,0,0-1.56-.68l-2.74.26a1.4,1.4,0,0,0-1.9-.66l0,0a2.48,2.48,0,0,0-1.42,1.79,1.47,1.47,0,0,0,.75,1.69l-2.52.77a1.39,1.39,0,0,0-1.12-.28,8.84,8.84,0,0,0-3.81,1l-.74.17A1.1,1.1,0,0,0,149,198h-.6l-.52.1h0a71.08,71.08,0,0,1-7.35-5.66,1.4,1.4,0,0,0-.91-.36,18.74,18.74,0,0,0-1.59-1.77,15.75,15.75,0,0,0-4.59-2.91h0c-2.61-1.15-5.49-1.86-8.25-2.81a1.44,1.44,0,0,0-.62-.7l-3.8-2.24a1.22,1.22,0,0,0-.61-.17l-.52-.33a1.4,1.4,0,0,0-1.91.62,1.49,1.49,0,0,0-.16.75,1.26,1.26,0,0,0-1,1,3.42,3.42,0,0,0,.43,2.78,1.28,1.28,0,0,0,.69,1.11l.84.35a20.91,20.91,0,0,0,3,1.86h.13a1.23,1.23,0,0,0,.28.13c1.08.55,2.1,1,2.84,1.45,4.95,3.08,9.93,6.07,15.1,8.73l-.52.17a1.56,1.56,0,0,0-.88.09L134.2,202c-5.22,1.89-10.44,3.55-15.68,5a1.31,1.31,0,0,0-.91.93l-2.13.54a1.21,1.21,0,0,0-.64.36h0a15.08,15.08,0,0,0-2.23.35,1,1,0,0,0-.67.44c-1,.2-1.94.41-2.94.58a31.35,31.35,0,0,1-3.18.32,1.38,1.38,0,0,0-.43,0h-.09a23,23,0,0,0-8.51,1.73,1.12,1.12,0,0,0-1.38.79,1.18,1.18,0,0,0,0,.19v.16a2.38,2.38,0,0,0-.31.35,8.51,8.51,0,0,0-1.08,3.9,1.64,1.64,0,0,0,0,.83,35.55,35.55,0,0,0,0,5,1.25,1.25,0,0,0-.2.26,1.49,1.49,0,0,0,0,1.45c1.23,1.79,3,1.64,5,1.77,6.41.39,12.76-.45,19.2-.47h3.25c-.57.2-1.13.41-1.69.64l-.24.09h0l-.35.13a1.09,1.09,0,0,0-.61.65c-2,1-2.74,2.6-.33,5.15,1.83,1.95,4.72,0,6.74-.83,3-1.31,5.4-3.48,8.1-5.22a148,148,0,0,0,23,.49,1.43,1.43,0,0,0,1.29-1.15c3.9-.2,7.78-.33,11.68-.35,1.64.09,3.29.22,5,.42a1.14,1.14,0,0,0,.94-.29,7.58,7.58,0,0,0,3.06-.26,1.14,1.14,0,0,0,.77-.44,4,4,0,0,0,1.29-2.23,15.47,15.47,0,0,0,0-5.82,2.08,2.08,0,0,1,.09-.28,1.18,1.18,0,0,0,1-.42,43.35,43.35,0,0,1,4.25-4.18,1.48,1.48,0,0,0-1-2.49c-1.15,0-2.62,0-4,0a2,2,0,0,0-.43-.22c-3.6-1.19-7.27-1.59-10.25.49l-.17-.15-1.59-1-.64-.63a1.36,1.36,0,0,0-.64-1l-1.83-1.24c-1.11-.93-2.27-1.79-3.46-2.63,6.76-2.31,13.16-5.46,19.7-8.26l1.11-.39a1.48,1.48,0,0,0,.44-.26c2.31-1,4.65-1.89,7.09-2.69a1.43,1.43,0,0,0,.79-.68l1-.41a24.17,24.17,0,0,0,4-1.45l5-1.83a1.07,1.07,0,0,0,.77,0,31,31,0,0,0,4.11-1.8l1.28-.47a1.43,1.43,0,0,0,.84-.77l3.76-1.85a1.21,1.21,0,0,0,.67-.73l3.23-1.09a1.36,1.36,0,0,0,1-1.16l1.15-.45c-2.64,3.07-3.89,7.75-5.46,11.28l-1.28,2.91a4.65,4.65,0,0,0-.74,1,1.38,1.38,0,0,0-.14,1,.88.88,0,0,0,0,.12h0a1.27,1.27,0,0,0-.38,1c-.89,2-1.74,4-2.58,6.07-.21.44-.45.87-.67,1.32L203,208.75a1.32,1.32,0,0,0,.34,1.8l.19.11a.31.31,0,0,1-.1.28,1.46,1.46,0,0,0,1,1.79h0c2.35.44,4.13,1.16,5.67.89a1.23,1.23,0,0,0,1.16-.1,5.47,5.47,0,0,0,1.19-1h.09a7.73,7.73,0,0,0,2.84-2.72,1.32,1.32,0,0,0,.88-.64c.52-.93,1-1.85,1.42-2.76a1.67,1.67,0,0,0,.67-.54,70.86,70.86,0,0,0,6.91-11.64c.81-1.53,1.55-3,2.23-4.63a1.58,1.58,0,0,0,.1-.87l.58-1.29a1.2,1.2,0,0,0,1.25-.71c.38-.83.75-1.66,1.13-2.47a1.44,1.44,0,0,0,.78-.89l.41-1.18a40.56,40.56,0,0,0,6.4,2.43,4.52,4.52,0,0,0,.91.84,33,33,0,0,0,5.3,3.26l.09.19a.33.33,0,0,0,.1.15h0a2.21,2.21,0,0,0,1.63,1.67A216.79,216.79,0,0,1,312.65,208a2.11,2.11,0,0,0,2.93-.79A2.23,2.23,0,0,0,314.81,204.23ZM170.07,219.75l.2-.1,3.79-1.15h.14c.5-.12,1-.22,1.52-.31a2.9,2.9,0,0,1,.54.68,5.33,5.33,0,0,0,0,1.77v.12l-3.56,1.45a1.12,1.12,0,0,0-.68.13c-2.11-.33-4.25-.58-6.37-.76a1.09,1.09,0,0,0-1,.39h-1.21A42,42,0,0,0,170.07,219.75Zm-6.72-4.36.4.23c-3,1.11-6,2.24-9,3.19h-.27l-9.5,2a1.2,1.2,0,0,0-.91.86c-7.25-.28-14.51-.67-21.77-.89-2.84-.09-5.67-.2-8.51-.26a16.53,16.53,0,0,0-1.87-.26,1.29,1.29,0,0,0-.85.23c-2.37,0-4.75.07-7.09.26-1.32-1.45-2.65-2.78-4-4.16a1.47,1.47,0,0,0-.45-.93,5.66,5.66,0,0,1,.84-.57h.23l6.69-.68a1.41,1.41,0,0,0,1.11-.71l8.71-1.75a1.11,1.11,0,0,0,.78-.54l.41-.09c7.77-1.93,15.38-4.36,23.13-6.36a27.42,27.42,0,0,0,3.93-.19,11.75,11.75,0,0,0,2.33-.16c2.84,2.27,5.12,5.27,8.38,7.17A66.57,66.57,0,0,0,163.35,215.39Z" transform="translate(-5.09 -106.25)"/><path class="cls-5" d="M222.71,237.47a1.44,1.44,0,0,0-.48-.55,5.12,5.12,0,0,1-1.15-1.79,1.41,1.41,0,0,0-2.59-.35c.14-.19-1.86-2-2.2-2.3a1.39,1.39,0,0,0-2,0,56.26,56.26,0,0,0-5.12-5.82,1.37,1.37,0,0,0,.54-1.54,5.48,5.48,0,0,0-5.47-3.56,1.08,1.08,0,0,0-.67-.35,5.11,5.11,0,0,0-3.47.26,1.43,1.43,0,0,0-.85.79l-.44.13-.81.23a1.78,1.78,0,0,0-.27,2.45,1.68,1.68,0,0,0,1.51.64c1.53-.25,3-.54,4.52-.9a1.24,1.24,0,0,0,.71-.45h.4a1.48,1.48,0,0,0-.12,2.05l0,0a54,54,0,0,1,9.34,10.75c1.42,2.2,2.23,4.54,4.91,5.18,1.56.38,3.72.36,4.54-1.45C224.28,239.51,223.57,238.46,222.71,237.47Z" transform="translate(-5.09 -106.25)"/><path class="cls-5" d="M203.25,237.62c-.26-1.54-2.2-1.24-2.65,0a1.07,1.07,0,0,0-1,.22,12.3,12.3,0,0,1-3.47,2.2c-1,.35-2.25.17-3.19.77-.55.35-.75.9-1.15,1.37s.21.44-.6.54a1.86,1.86,0,0,1-.72-.15l-1.12-.47-.21-.09c-1.74-.6-2.44,2.17-.75,2.81a8.32,8.32,0,0,1,3.63,2.07c.79,1,.84,2.33,1.5,3.38a3.21,3.21,0,0,0,4.49,1.08l0,0a6.73,6.73,0,0,0,3.16-5.21C201.72,243,203.79,240.77,203.25,237.62Z" transform="translate(-5.09 -106.25)"/><path class="cls-4" d="M215.62,216.26c-6-5-16.48-5.67-23.84-5.14-3.9.28-10.63,1.45-13,5.54-4-1.13-7.4-1.15-8.22,2s1.63,3.3,3.16,5c2.27,2.52,2.84,6.12,4,9.18.88,2.39,2,4.7,3.13,7-18.11,5.82-36.16,10.94-55.41,11.17a2.2,2.2,0,0,0-.58.09c-2-1.45-4.69-2.37-5.67-4.86-2.24-5.92,2.84-14.84-3.57-18.91-1.77-1.13-4.86-.15-5.2,2.17q.11,3.22-1.13.42c-1.72-1.67-5.54-1.27-5.93,1.6-.67,4.93-2.71-.93-4.25-2a7,7,0,0,0-2.18-1,3,3,0,0,0-2.47-2.26,7.64,7.64,0,0,0-6.51.77c-.75.51-2.84,4.36-3.16,4.36-2.84.61-3.57,5.32-.85,6.65,1.55.76,8.69,3.43,7.91,6.47a3.63,3.63,0,0,0-3.09,4.08,3.72,3.72,0,0,0,.42,1.32l.58.26a3.8,3.8,0,0,0-3.33,4.2,3.87,3.87,0,0,0,.93,2.16,7.24,7.24,0,0,1,2.24,4.89c.61,3.43,4.85,3.1,6.48.87s5-.55,7.16-.52a14.65,14.65,0,0,0,6.49-1.56,11.55,11.55,0,0,1,8.51-1.13,14.16,14.16,0,0,0,6,.39A3.53,3.53,0,0,0,126.7,257a7.8,7.8,0,0,0,.2-1.56c19.33-.49,37.41-5.67,55.68-11.54.26.58.52,1.16.75,1.76a2.13,2.13,0,0,0,2.68,1.44,2.19,2.19,0,0,0,1.5-2c.21-2,3.36-1.57,4.76-2.28a6.64,6.64,0,0,0,2.65-2.91C207.21,235.61,228.25,226.73,215.62,216.26ZM103.2,254.52a15.6,15.6,0,0,1-3.8-.58c0-.13.13-.25.21-.38a7.59,7.59,0,0,0,1.86,0c2.47-.38,3-3.48,2.11-5.34l-.13-.26v-.16c1.93-.6,4.18-1.29,5.35-1.63a4.17,4.17,0,0,0,3.09.8,11.63,11.63,0,0,0,.44,3.75C109.17,251.57,106.83,254.41,103.2,254.52Z" transform="translate(-5.09 -106.25)"/><path class="cls-7" d="M233.51,213.77c-1.28-2-4.34-2.91-6.42-3.55a20,20,0,0,0-16.62,2,2.36,2.36,0,0,0-.34.26,1.93,1.93,0,0,0-1.55,1.45c-1,3.84-1.76,8.73-.34,12.56a6.34,6.34,0,0,0,4.25,3.59,2.13,2.13,0,0,0,.43.89c4.08,4.9,9,3.68,14.34,1.95s7.52-4.36,7.64-10.18C235,220.39,234.92,215.94,233.51,213.77Zm-21,2.34h.14a15.18,15.18,0,0,1,7.27-2.37,3,3,0,0,0,0,1.11,33.87,33.87,0,0,1,.4,7.36c-.3.63-.6,1.27-.84,1.92a12.06,12.06,0,0,0-.62,2.81,6.71,6.71,0,0,1-2.44-.19c-2.84-.57-4.25-1.29-4.49-4.48A20.88,20.88,0,0,1,212.49,216.11Zm13.66,12.69a17.93,17.93,0,0,1-3.45,1.24,4.89,4.89,0,0,0,.85-1.45,18.83,18.83,0,0,0,1.11-5.82l.11-.28c1-2.27,2.51-5.5,1.74-8.1a5.47,5.47,0,0,1,4,5.09c.44,4.82.28,7.19-4.4,9.34Z" transform="translate(-5.09 -106.25)"/><path class="cls-7" d="M156.45,194.3A2.36,2.36,0,0,0,155,191.4c-4.24-1.15-9.57-2.2-13.83-.74-3.12,1.08-5.67,3.68-8,6.17a29.62,29.62,0,0,0-10.41,3.62,2,2,0,0,0-.88,2.56,2.36,2.36,0,0,0-.75.22,43.59,43.59,0,0,1-5.27.76c-2.69.29-2.72,4.67,0,4.36,3.08-.33,10,0,11.22-3.9a3.52,3.52,0,0,0,.13-1.35,24.55,24.55,0,0,1,3.45-1.24,2,2,0,0,0,2.34,1l2.55-.79a2.38,2.38,0,0,0,2.5,1.27q9.2-2.18,18.26-4.89a2.19,2.19,0,0,0,1.43-2.72A2.16,2.16,0,0,0,156.45,194.3Z" transform="translate(-5.09 -106.25)"/><path class="cls-7" d="M136.65,172.09c-.72,2.5-1.94,3.11-4.25,4-6.45,2.52-11.16,1-14.83,8.85-1.16,2.49-1.63,7.19-3.9,8.95-.48.38-1.83.54-2.13.92-.58.71.34.7,0,1.66-2,6.18-7.25,5.09-13.07,5.18-6.37.09-13.13.31-18.08-4.51-3.86-3.75-6.83-12.18-2.84-17,2.2-2.65,3.09-1,4.25-5,1-3.35.27-7,3.26-9.24,4.71-3.56,13.12-1.67,17.77,1,5.4,3.11,9.25,2.5,15.38,2a161.73,161.73,0,0,1,16.35-.87,2.14,2.14,0,0,1,2.06,2.22,2.22,2.22,0,0,1,0,.31A1.92,1.92,0,0,1,136.65,172.09Z" transform="translate(-5.09 -106.25)"/><path class="cls-7" d="M242.25,137.32c-.17-1.45-1.76-3-3.2-1.89l-4.25-4.83V128a29.23,29.23,0,0,1,.68-7.58,42.55,42.55,0,0,0,.64-11,2.26,2.26,0,0,0-.43-1.08c0-2.72-4.17-2.71-4.25.07-.21,7.89-3.2,12.92-6.11,19.89-2.1,5,.92,10.33-1.42,15a2.22,2.22,0,0,0-1-2.92,2.1,2.1,0,0,0-2.25.29c-1.74,1.69-4.07,4.36-2.38,6.84.74,1.08,1.42.81,2.34,1.37,2.84,1.63,2.65.48,2.67,4.36,0,3.56-.41,10-6.38,8.55-2.24-.52-3.89,2.82-1.64,4,1.13.58,2.91.89,3.81,1.76s.45,2.18,1.74,3c2.14,1.45,4.25,0,5.77-1.8,2.58-3.26,1-5.59,1-9.38,0-3.24,1.32-5.82,2.14-8.9a31.05,31.05,0,0,1,.67-3.19,6.09,6.09,0,0,0,0-1.27q-.35-4,5.44.44A2.17,2.17,0,0,0,238,148.6a2.13,2.13,0,0,0,1.79-1.06A14.12,14.12,0,0,0,242.25,137.32ZM222.85,165a8.2,8.2,0,0,0,1.06-.86c-.07,3.43-.47,2.05-1.08.87Z" transform="translate(-5.09 -106.25)"/><path class="cls-8" d="M251.9,123.57c-3.37-.54-5.59,2.59-7.77,4.77a11,11,0,0,0-2.94,3.72c-.81,2.15-.21,4.5-1.25,6.61-.41.83.81,1.57,1.22.73,1.16-2.37.41-5.31,1.67-7.55a19.45,19.45,0,0,1,3.37-3.58c1.42-1.45,3.15-3.64,5.29-3.3C252.42,125.18,252.8,123.73,251.9,123.57Z" transform="translate(-5.09 -106.25)"/></g></g></svg>