<svg id="Layer_1" data-name="Layer 1" xmlns="http://www.w3.org/2000/svg" xmlns:xlink="http://www.w3.org/1999/xlink" viewBox="0 0 382.08 382.09"><defs><style>.cls-1{fill:#b01c2e;}.cls-2{fill:url(#linear-gradient);}.cls-3,.cls-4,.cls-5,.cls-6{isolation:isolate;}.cls-4,.cls-5,.cls-6{font-size:141.25px;fill:#fff;font-family:SourceSansPro-Bold, Source Sans Pro;font-weight:700;}.cls-4{letter-spacing:-0.02em;}.cls-5{letter-spacing:-0.03em;}</style><linearGradient id="linear-gradient" x1="9.47" y1="200.31" x2="391.54" y2="200.31" gradientTransform="matrix(1, 0, 0, -1, 0, 402)" gradientUnits="userSpaceOnUse"><stop offset="0" stop-color="#e5e2df"/><stop offset="0" stop-color="#ded9d6"/><stop offset="0.04" stop-color="#cfccc9"/><stop offset="0.11" stop-color="#a8a8a8"/><stop offset="0.21" stop-color="#6a7072"/><stop offset="0.26" stop-color="#465053"/><stop offset="0.37" stop-color="#878d8f"/><stop offset="0.46" stop-color="#b7babb"/><stop offset="0.53" stop-color="#d5d6d6"/><stop offset="0.57" stop-color="#e0e0e0"/><stop offset="0.63" stop-color="#d6d7d8"/><stop offset="0.73" stop-color="#bcbfc2"/><stop offset="0.86" stop-color="#92989e"/><stop offset="0.88" stop-color="#8b9298"/><stop offset="1" stop-color="#d1d3d4"/><stop offset="1" stop-color="#a7a9ac"/></linearGradient></defs><title>q3</title><g id="Layer_2" data-name="Layer 2"><g id="Layer_1-2" data-name="Layer 1-2"><polygon class="cls-1" points="112.58 380.52 269.54 380.52 380.52 269.54 380.52 112.58 269.54 1.59 112.58 1.59 1.59 112.58 1.59 269.54 112.58 380.52"/><path class="cls-2" d="M279,12.23l111,111v157l-111,111H122l-111-111v-157l111-111H279m.65-1.59H121.38l-.46.46-111,111-.46.46V280.83l.46.46,111,111,.46.46H279.64l.46-.46,111-111,.46-.46V122.56l-.46-.46-111-111-.46-.46Z" transform="translate(-9.47 -10.64)"/><g class="cls-3"><text class="cls-4" transform="translate(25.17 222.55)">S</text><text class="cls-5" transform="translate(100.6 222.55)">T</text><text class="cls-6" transform="translate(175.03 222.55)">OP</text></g></g></g></svg>