<svg id="Layer_1" data-name="Layer 1" xmlns="http://www.w3.org/2000/svg" xmlns:xlink="http://www.w3.org/1999/xlink" viewBox="0 0 399.72 423"><defs><style>.cls-1{fill:#fff;}.cls-2{fill:#4c4c4c;}.cls-10,.cls-12,.cls-3,.cls-4,.cls-5,.cls-6,.cls-7,.cls-8,.cls-9{fill:none;}.cls-10,.cls-3,.cls-4,.cls-5,.cls-6,.cls-7,.cls-8,.cls-9{stroke:#efd330;}.cls-10,.cls-11,.cls-3,.cls-4,.cls-5,.cls-6,.cls-7,.cls-8,.cls-9{stroke-miterlimit:10;}.cls-3{stroke-width:4.36px;}.cls-4{stroke-width:3.9px;}.cls-5{stroke-width:3.48px;}.cls-6{stroke-width:3.05px;}.cls-7{stroke-width:2.6px;}.cls-8{stroke-width:2.18px;}.cls-9{stroke-width:1.73px;}.cls-10,.cls-11{stroke-width:1.3px;}.cls-11,.cls-13{fill:#17562a;}.cls-11{stroke:#fff;}.cls-14{opacity:0.75;isolation:isolate;}</style></defs><title>q4</title><g id="Layer_2" data-name="Layer 2"><g id="Layer_1-2" data-name="Layer 1-2"><rect class="cls-1" width="399.44" height="399.48"/><polygon class="cls-2" points="399.72 357.85 399.72 399.85 0 399.85 0 357.85 35.24 268.41 135.68 13.52 141.01 0 259.54 0 262 6.25 366.23 272.35 399.44 357.14 399.72 357.85"/><line class="cls-3" x1="199.44" y1="399.85" x2="199.44" y2="357.1"/><line class="cls-4" x1="199.44" y1="335.44" x2="199.44" y2="289.34"/><line class="cls-5" x1="199.44" y1="259.1" x2="199.44" y2="224.93"/><line class="cls-6" x1="199.44" y1="201.6" x2="199.44" y2="179.95"/><line class="cls-7" x1="199.44" y1="151.57" x2="199.44" y2="136.08"/><line class="cls-8" x1="199.44" y1="113.12" x2="199.44" y2="97.63"/><line class="cls-9" x1="199.44" y1="70.56" x2="199.44" y2="57.12"/><line class="cls-10" x1="199.44" y1="27.25" x2="199.44" y2="17.36"/><path class="cls-11" d="M199.44,240.66a1.14,1.14,0,0,0-.42-.22c0,.21-.07.41-.1.62-.25,1.51-.47,3.14-.6,4.61-.28,2.24-.69,4.67-1,6.91s-.56,4.85-.69,7.28v75.79c0,1.31.69,2.24,1.67,2.24h2.5c1,0,1.67-.93,1.67-2.24v-88.3C201.5,244.67,200.62,241.53,199.44,240.66Zm-4.72,32.63c-.25,2.24-.6,4.54-.83,7.09-.56,4.85-1,9.52-1.25,14.37-.15,2.28-1.57,3.34-2.85,3.19,1.37,1,3.64.07,3.82-2.82.28-4.85.69-9.52,1.25-14.37.28-2.61.69-5.6,1-8.21ZM187.9,135a5.11,5.11,0,0,0-.53,0h-.22s0,0,0,0l.25.06.5.09,2.14.43A4.18,4.18,0,0,0,187.9,135Zm-.76,0v0h-.06Zm2.93.58a1,1,0,0,1,.22.15v-.09ZM207.12,139l-.19,0a.55.55,0,0,0,.18.06.94.94,0,0,0,.25,0Zm5.65-26.82c-2.58-5.47-8.44-9.74-13.32-7.91a6.63,6.63,0,0,0-1.8,1,11.84,11.84,0,0,0-6.18,4.41c-.29.37-.58.77-.83,1.16s-.32.5-.49.77a19.63,19.63,0,0,0-1.11,2.26,30.53,30.53,0,0,0-1.25,6l-.14.19a1.88,1.88,0,0,0-.42,1.12,8.3,8.3,0,0,0-.1,1.57,12.23,12.23,0,0,0,.65,3.66,11,11,0,0,1,1,3.36,5.7,5.7,0,0,0,.56,2.24,4.11,4.11,0,0,0,1,1.68v2l.9.19,2.29,1.77a7.31,7.31,0,0,0,4.86,2.05,7.14,7.14,0,0,0,1.11.26V138a8.22,8.22,0,0,0,1.53.15,11.69,11.69,0,0,0,1.42-.07l.39.07,3,.62,1.14.22a1.72,1.72,0,0,0-.82-.28l.14-.19,0,0a.82.82,0,0,0,.11-.54,10,10,0,0,0,2.76-2.07,13.53,13.53,0,0,0,2.07-2.65l.08-.15c.08-.11.15-.24.22-.35.28,0,.28-.75.28-.93a14.63,14.63,0,0,0,2.91-7.84V123A24.43,24.43,0,0,0,212.77,112.19Zm-16.49,24.64.17,0a14.56,14.56,0,0,0,1.35.63A12.36,12.36,0,0,1,196.28,136.83Zm-14.74,39.29a10.34,10.34,0,0,1-6,1.59,4.31,4.31,0,0,1-3.79-1.44,3.45,3.45,0,0,1-.51-.58,7.47,7.47,0,0,1-1.25-2.84,18.89,18.89,0,0,1,0-5.6c-.07.11-.14.22-.19.34-2.33,3.88-.43,8.89,2.14,11.42a5.35,5.35,0,0,0,4.16,1.68,16.53,16.53,0,0,0,5.41-3.55,3.11,3.11,0,0,0,.14-1.12Zm25.68,43.4a2.92,2.92,0,0,0-1.53-2.24,20.84,20.84,0,0,0-4.94-.6,28.66,28.66,0,0,0-3.39.22,28.39,28.39,0,0,0-8.74,1.31c-.83,0-1.25.75-1.53,1.68a3.58,3.58,0,0,0-.28,1.68c0,.37.28.93.28,1.31l.28.75V224h.14l.28.37.56.37,2.5,1.68v.09l1.11.65h.28c.42,0,1.67,1.87,1.94,2.61a20.69,20.69,0,0,1,2.22,3l1,1.31h.28c.14.37.42.37.69.75a1.79,1.79,0,0,0,.94.5s0,0,0,0a.29.29,0,0,0,.12,0,2.22,2.22,0,0,0,1.25-.86l.35.22a1.22,1.22,0,0,0,.21-.22.35.35,0,0,0,.22-.07l-.22-.11-.56-.37c.28,0,.56-.37.56-.75a8.61,8.61,0,0,1,.69-1.68,18,18,0,0,0,1.67-3.55,14.69,14.69,0,0,1,2.64-3.55,5.23,5.23,0,0,0,1.25-2.24A2.87,2.87,0,0,0,207.22,219.53Zm11,73c.69-11.57,1-23,.69-34.16,0-3.55-.28-7.28-.56-10.83-.56-7.47-.56-15.12-.69-22.59,0-3.92-.28-8.21-.56-12.13a44.75,44.75,0,0,0-1.25-15.49,19.48,19.48,0,0,0-2.64-6,.81.81,0,0,0-.14-.19,6.47,6.47,0,0,0-2.87-2.35.19.19,0,0,0-.12-.06,7.8,7.8,0,0,0-1.3-.39,69,69,0,0,0-9.3-1.92l-1.25-.13a44.72,44.72,0,0,0-10,0,9.57,9.57,0,0,0-6.8,3.36,11,11,0,0,0-1.94,3.92,68.23,68.23,0,0,0-1.67,12.88c-.56,4.85-1,10.08-1.25,15.12v3a13.78,13.78,0,0,0,.28,3.55,5.25,5.25,0,0,0,.28,2.05,24.21,24.21,0,0,1,.69,6.16,61.12,61.12,0,0,1,.56,7.28c.28,7.84-.56,15.49,1,23a4.77,4.77,0,0,0,.24,1v0a1.22,1.22,0,0,1,0,.3,11.94,11.94,0,0,1,.69,2.05,6.39,6.39,0,0,0,.25,1.1,5.55,5.55,0,0,0,1.44,2.46,2.58,2.58,0,0,0,.37.37,4.46,4.46,0,0,0,.43.35,2.58,2.58,0,0,0,1.24.52.6.6,0,0,0,.43-.15,3.54,3.54,0,0,0,1.93-.58,2,2,0,0,0,.39-.28,3.81,3.81,0,0,0,.72-.75,2,2,0,0,0,.28-.35l.08-.13a.91.91,0,0,0,.1-.15l1.24-.88a3.8,3.8,0,0,0,.12-.62v-.75a2.91,2.91,0,0,1,1.25-.37l.14.19v-6.51a3.87,3.87,0,0,0-.47,0l-.62.11a2.5,2.5,0,0,0-.57.22,68.22,68.22,0,0,1,1.53-8.21,50,50,0,0,0,1.53-14.37c-.69-4.82-1-9.84-1.25-14.65l-.14-.09-2.5-1.68-.56-.37-.28-.37H187l-.28-.37-.28-.75c0-.37-.28-.93-.28-1.31a3.58,3.58,0,0,1,.28-1.68c.28-.93.69-1.68,1.53-1.68a28.39,28.39,0,0,1,8.74-1.31,26.78,26.78,0,0,1,4.08-.22,21.08,21.08,0,0,1,5.63.6,2.92,2.92,0,0,1,1.53,2.24,2.87,2.87,0,0,1,.28,2.61h.14v.19a5.23,5.23,0,0,1-1.25,2.24,8.46,8.46,0,0,0-2.46,2.95c0-.24.07-.47.1-.71-.25-.17-.51.91-.54,1.66,0,0,0,0,0,0A18,18,0,0,1,202.5,232a8.6,8.6,0,0,0-.69,1.68.86.86,0,0,1-.33.67l.12.07a.48.48,0,0,1-.35.19l.56.37.69.37a4.47,4.47,0,0,1,.83.78,22.64,22.64,0,0,1,3.05,7.62,77,77,0,0,1,2.64,19.6v6.16c-.29,4.41-.35,8.72-.22,13,.14,4.05.44,8.1.92,12.19l-.11-.07-.44-.3,0,.58.25,4.65V300a1.32,1.32,0,0,0,0,.24c0,.07,0,.17,0,.19a5.61,5.61,0,0,1,.24,1.25c.56,2.24,2.22,3.92,4.16,3.92,1.53,0,2.91-1.31,3.89-3l.08-.15a3.73,3.73,0,0,0,.32-.78,6.79,6.79,0,0,0,.29-2.05v-2.05l-.28-4.67ZM189,268.43a7.38,7.38,0,0,1-1,3.75A8.19,8.19,0,0,0,189,268.43Zm11.66-34.53c.28,0,.56-.37.56-.75a8.61,8.61,0,0,1,.69-1.68,18,18,0,0,0,1.67-3.55,14.69,14.69,0,0,1,2.64-3.55,5.23,5.23,0,0,0,1.25-2.24,2.87,2.87,0,0,0-.28-2.61,2.92,2.92,0,0,0-1.53-2.24,20.84,20.84,0,0,0-4.94-.6,28.66,28.66,0,0,0-3.39.22,28.39,28.39,0,0,0-8.74,1.31c-.83,0-1.25.75-1.53,1.68a3.58,3.58,0,0,0-.28,1.68c0,.37.28.93.28,1.31l.28.75V224h.14l.28.37.56.37,2.5,1.68v.09l1.11.65h.28c.42,0,1.67,1.87,1.94,2.61a20.69,20.69,0,0,1,2.22,3l1,1.31h.28c.14.37.42.37.69.75a1.79,1.79,0,0,0,.94.5s0,0,0,0a.29.29,0,0,0,.12,0,2.22,2.22,0,0,0,1.25-.86l.35.22a1.22,1.22,0,0,0,.21-.22.35.35,0,0,0,.22-.07l-.22-.11Zm8.74,66.27-.28-5.23.56.37c0-.21-.08-.43-.11-.63a69,69,0,0,1-.81-12.11c0-4.14.22-8.33.22-12.45V264a113.56,113.56,0,0,0-2.64-19.6,20.42,20.42,0,0,0-3.19-7.84c-.28-.75-.69-.93-1.25-1.31l-.69-.37-.21-.15a1.89,1.89,0,0,1-1.6.67.29.29,0,0,1-.12,0s0,0,0,0a1.69,1.69,0,0,1-1.5-.5c-.28-.37-.56-.37-.69-.75h-.28c-.28,0-.69.37-1,.37a5.86,5.86,0,0,0-1.94,3.36c-1,4.29-1.53,9.15-2.22,13.44a84,84,0,0,0-1,11.76v6.93c0,.17,0,.32,0,.47a4.33,4.33,0,0,1-.26,1.57c-.28,1.31-.28,2.61-.56,3.55s-.28,2.24-.56,3.55c-.69,5.23-1,10.45-1.53,15.68-.12,2,.87,3.1,2,3.19a3,3,0,0,1-1-2.82,149.82,149.82,0,0,1,1.53-15.68c.28-1.31.28-2.61.56-3.55l3.89-2.61c.06-.37.1-.75.14-1.12a43,43,0,0,0,.28-6,57.49,57.49,0,0,1,.28-6.91c.28-2.24.56-4.85.69-7.28s.69-4.67,1-6.91c.28-1.68.56-3.55.69-5.23a2.41,2.41,0,0,1,1.15,1.18,8.09,8.09,0,0,1,.51,1,26.8,26.8,0,0,1,1.53,5.08c.56,2.05.69,3.55,1,4.29.21,1,.39,2.05.56,3.1a77.63,77.63,0,0,1,1,12v.37c0,10.45-1,21.28,1.25,31.73.28,1.68,1.25,2.61,2.5,2.24l1.94.75a3.58,3.58,0,0,1-.28-1.68c.44.39.57.47.6.43s0-.11,0-.19A.08.08,0,0,1,209.44,300.17Zm-18-36.76v0h.14ZM220.54,151.2l-.14.37c0-.75-.28-1.31-.28-2.05a10.28,10.28,0,0,0-2.64-4.67,2.67,2.67,0,0,0-1-.93,36.27,36.27,0,0,0-3.47-2.24,9.05,9.05,0,0,0-4.86-2.24c-.51,0-.67-.32-1.12-.35a.29.29,0,0,0-.12,0c-.28,0-.28,0-.28.37a3.58,3.58,0,0,0-.28,1.68,24.94,24.94,0,0,1-1,3v.37l-.28.75s-.56.37-.28.37a3.42,3.42,0,0,1-2.64.93,26.88,26.88,0,0,1-2.78.21,16.33,16.33,0,0,1-6.25-1c-1.94-.75-2.64-2.61-3.47-5.23-.28-.75-.28-.93-.56-1.68,0-.37-.28-.75-.28-.93a6.85,6.85,0,0,0-1.25-2.61l-.28-.37h-.07a.29.29,0,0,0-.12,0s0,0,0,0v0a.88.88,0,0,0-.74.35,5.23,5.23,0,0,0-2.22.75,25,25,0,0,0-6.8,3.55h-.28c-3.89,3.55-4.58,8.77-5.41,15.12l-1.25,8.77a19.74,19.74,0,0,0-.56,3.55,3.12,3.12,0,0,0-.06.52,18.4,18.4,0,0,0,.06,5.08,6.82,6.82,0,0,0,1.39,3,3.45,3.45,0,0,0,.51.58,4.35,4.35,0,0,0,3.65,1.25,8.54,8.54,0,0,0,6.11-1.68v1.31a77.7,77.7,0,0,1-.28,7.84,5.73,5.73,0,0,0,.28,2.24,6.74,6.74,0,0,1-.28,2.24,9.83,9.83,0,0,1,6.8-3.36,44.72,44.72,0,0,1,10,0c.46.06.93.09,1.39.17a49.47,49.47,0,0,1,9.16,1.89,4.74,4.74,0,0,1,1.44.58.19.19,0,0,1,.12.06,12.73,12.73,0,0,1,2.87,2.35,26.34,26.34,0,0,0,.28-4.67v-3.36a9.78,9.78,0,0,1,.69-2.24c0-.37.28-.93.28-1.31v-.37a3.48,3.48,0,0,0,3.47-.93c1.67-1.31,2.5-3.55,2.5-6.16v-4.29a74,74,0,0,1,.28-7.84A46.31,46.31,0,0,0,220.54,151.2Zm-7.91-38.83c-2.55-5.41-8.33-9.67-13.19-8a7.06,7.06,0,0,0-1.94,1.06,11.77,11.77,0,0,0-6,4.22c-.29.37-.58.77-.83,1.16s-.32.5-.49.77a17.81,17.81,0,0,0-1.25,2.45,30.54,30.54,0,0,0-1.25,6V121a20.26,20.26,0,0,0,2.64,9.89,14.2,14.2,0,0,0,1.24,1.89,12.74,12.74,0,0,0,1.4,1.66,9.5,9.5,0,0,0,1.53,1.31l.56.37a11.32,11.32,0,0,0,1.28.75l.17,0a14.56,14.56,0,0,0,1.35.63,17.13,17.13,0,0,0,1.65.49,8.22,8.22,0,0,0,1.53.15,11.69,11.69,0,0,0,1.42-.07,8.37,8.37,0,0,0,4-1.61,17.76,17.76,0,0,0,3.19-2.61,8.89,8.89,0,0,0,1.94-2.24,14.63,14.63,0,0,0,2.91-7.84v-.93A22.73,22.73,0,0,0,212.63,112.38ZM209.72,134a12.29,12.29,0,0,1-3.19,2.61,13.13,13.13,0,0,1-3.75,1.49,7.07,7.07,0,0,1-1.67.19q-.85-.14-1.67-.34a17.13,17.13,0,0,1-1.65-.49,12.36,12.36,0,0,1-1.51-.67,11.32,11.32,0,0,1-1.28-.75l-.56-.37a9.5,9.5,0,0,1-1.53-1.31,12.74,12.74,0,0,1-1.4-1.66c-.36-.52-.71-1.1-1.1-1.7a19.73,19.73,0,0,1-2.64-9.89v-.93l-.14.19a1.88,1.88,0,0,0-.42,1.12,8.43,8.43,0,0,0-.1,1.19,11.8,11.8,0,0,0,.65,4,11,11,0,0,1,1,3.36,5.7,5.7,0,0,0,.56,2.24,4.11,4.11,0,0,0,1,1.68v2.05c1,.75,1.94.93,2.64,2.05a16.37,16.37,0,0,0,4.86,2.05,8.94,8.94,0,0,0,1.67.32c.68.06,1.33.06,1.94.06a14.36,14.36,0,0,1,3.19-.93h.69c.22-.3.26-.35.26-.56a.77.77,0,0,0,0-.19l.24-.13c.15-.07.31-.15.46-.24l0,0a11.77,11.77,0,0,0,2.87-2.61,12.9,12.9,0,0,0,1.54-2.22,1.59,1.59,0,0,0,.53-.43l.08-.15a2,2,0,0,0,.08-.73A2.51,2.51,0,0,1,209.72,134ZM206.93,139a3.94,3.94,0,0,1-1.1.09h-.29a.77.77,0,0,0,0-.19l.24-.13-3-.62a7.07,7.07,0,0,1-1.67.19q-.85-.14-1.67-.34v1.9a7.14,7.14,0,0,1-1.11-.26,7.31,7.31,0,0,1-4.86-2.05l-2.29-1.77-.35-.28a2.47,2.47,0,0,0-.56-.32,5.84,5.84,0,0,0-2.64-.43.28.28,0,0,1,.25.21.45.45,0,0,1,0,.15v0a8.51,8.51,0,0,1,1.25,2.61l.28.93a2.78,2.78,0,0,1,.56,1.68c.69,2.61,1.53,4.67,3.47,5.23a20.19,20.19,0,0,0,6,.84c1,0,2.05,0,3.05-.09a4.18,4.18,0,0,0,2.36-.75,1.61,1.61,0,0,0,.28-.19l.28-.37.28-.75v-.37a12.5,12.5,0,0,0,1-3,3.58,3.58,0,0,1,.28-1.68l.28-.37A1.76,1.76,0,0,1,206.93,139Zm12.78,160.63a3.13,3.13,0,0,0-1.25-2.05v0l-.29,4.09-.1,1.49,0,.37C219.15,303.15,220,301.29,219.71,299.61Zm-29-36.2a3.87,3.87,0,0,0-.47,0l-.62.11a2.5,2.5,0,0,0-.57.22l1.67-.24.69-.11v0C191.14,263.39,190.91,263.39,190.7,263.41Zm-8.09,10.08-.08-.15-3-5.77v0l-.37-.71v0l-.14-.26a3.27,3.27,0,0,0-1.39,2.84,4.77,4.77,0,0,0,.14,1.46,1.24,1.24,0,0,0,.56.93,4.42,4.42,0,0,0,4,2.07,3.42,3.42,0,0,0,.43,0Zm5.34-1.14h0l-2.1,1.49a4.34,4.34,0,0,0,.69-.06,1.09,1.09,0,0,0,.24-.06,3,3,0,0,0,2.41-2.26Zm3-2.26h0a1.17,1.17,0,0,0-.11-.17l-.12,0h0v0l-.14-.19a2.91,2.91,0,0,0-1.25.37v.75a3.8,3.8,0,0,1-.12.62l.37-.26,1.12-.8.35-.24.08-.06A.36.36,0,0,1,191,270.09Zm32-96.81a6.59,6.59,0,0,0-.12-.77,6.93,6.93,0,0,0-.78-2.09,4.05,4.05,0,0,0-.83-1.49c-.28-.37-.56-.37-1-.75v4.29c0,2.61-.69,4.85-2.5,6.16a5.57,5.57,0,0,1-3.47.93V180a4.87,4.87,0,0,0,6.8-.75,5.44,5.44,0,0,0,1.18-1.61,7,7,0,0,0,.49-1.29,9.16,9.16,0,0,0,.24-1.38A9.29,9.29,0,0,0,223,173.29ZM182.53,273.34a4.81,4.81,0,0,1-2-2.31,7,7,0,0,1-.53-1.47,11.93,11.93,0,0,1-.69-2.05,2.64,2.64,0,0,0-.14-.65v0a2.35,2.35,0,0,1-.14-.63,3.46,3.46,0,0,0-1.39,3.21,4.14,4.14,0,0,0,.14,1.08,1.24,1.24,0,0,0,.56.93,4.46,4.46,0,0,0,3.64,2.07,3.48,3.48,0,0,0,.62,0l.18,0A1.26,1.26,0,0,1,182.53,273.34Zm36.9,26.08a4.48,4.48,0,0,0-1-1.85,1,1,0,0,0-.28-.21v3a7.62,7.62,0,0,1-.33,2.09,4.24,4.24,0,0,1-.36.9,2.85,2.85,0,0,0,.58-.19A3,3,0,0,0,219.43,299.42Zm-15.25-71a1.12,1.12,0,0,0,0,.21c0,.06,0,.11-.07.17a16.81,16.81,0,0,1-1.6,3.38,8.6,8.6,0,0,0-.69,1.68.9.9,0,0,1-.21.56.48.48,0,0,1-.35.19l.56.37.69.37a4.47,4.47,0,0,1,.83.78c.17.19.31.37.42.52a73.08,73.08,0,0,1,.87-9.18c0-.24.07-.47.1-.71C204.47,226.64,204.21,227.72,204.18,228.47ZM190.7,263.41a3.87,3.87,0,0,0-.47,0l-.62.11a2.5,2.5,0,0,0-.57.22,13.18,13.18,0,0,0,0,4.67,7.38,7.38,0,0,1-1,3.75,1,1,0,0,1-.1.17h0a.64.64,0,0,1-.08.15l-.08.13a2,2,0,0,1-.28.35,3.86,3.86,0,0,1-1,.8,1.61,1.61,0,0,1-.42.24,1.25,1.25,0,0,0,.26,0,3.17,3.17,0,0,0,3.18-2.8c0-.06,0-.11,0-.17v-.75a3,3,0,0,1,1.11-.35h0l.12,0a1.17,1.17,0,0,1,.11.17h0l.07.07c.11.13.17.13.36.13v-6.91C191.14,263.39,190.91,263.39,190.7,263.41Zm13.48-34.94a1.12,1.12,0,0,0,0,.21c0,.06,0,.11-.07.17a16.81,16.81,0,0,1-1.6,3.38,8.6,8.6,0,0,0-.69,1.68.9.9,0,0,1-.21.56.48.48,0,0,1-.35.19l.56.37.69.37a4.47,4.47,0,0,1,.83.78c.17.19.31.37.42.52a73.08,73.08,0,0,1,.87-9.18c0-.24.07-.47.1-.71C204.47,226.64,204.21,227.72,204.18,228.47Zm15.25,71a4.48,4.48,0,0,0-1-1.85,1,1,0,0,0-.28-.21v3a7.62,7.62,0,0,1-.33,2.09,4.24,4.24,0,0,1-.36.9,2.85,2.85,0,0,0,.58-.19A3,3,0,0,0,219.43,299.42ZM223,173.29a6.59,6.59,0,0,0-.12-.77,8,8,0,0,0-.78-2.09c-.14-.56-.42-1.31-.83-1.49-.28-.37-.56-.37-1-.75v4.29c0,2.61-.69,4.85-2.5,6.16a5.57,5.57,0,0,1-3.47.93V180a4.87,4.87,0,0,0,6.8-.75,5.44,5.44,0,0,0,1.18-1.61,7,7,0,0,0,.49-1.29,6.64,6.64,0,0,0,.24-1.38A9.29,9.29,0,0,0,223,173.29Zm0,0a6.59,6.59,0,0,0-.12-.77,8,8,0,0,0-.78-2.09c-.14-.56-.42-1.31-.83-1.49-.28-.37-.56-.37-1-.75v4.29c0,2.61-.69,4.85-2.5,6.16a5.57,5.57,0,0,1-3.47.93V180a4.87,4.87,0,0,0,6.8-.75,5.44,5.44,0,0,0,1.18-1.61,7,7,0,0,0,.49-1.29,6.64,6.64,0,0,0,.24-1.38A9.29,9.29,0,0,0,223,173.29ZM182.53,273.34a4.81,4.81,0,0,1-2-2.31,7,7,0,0,1-.53-1.47,11.93,11.93,0,0,1-.69-2.05,2.64,2.64,0,0,0-.14-.65v0a2.35,2.35,0,0,1-.14-.63,3.46,3.46,0,0,0-1.39,3.21,4.14,4.14,0,0,0,.14,1.08,1.24,1.24,0,0,0,.56.93,4.46,4.46,0,0,0,3.64,2.07,3.48,3.48,0,0,0,.62,0l.18,0A1.26,1.26,0,0,1,182.53,273.34Zm21.65-44.88a1.12,1.12,0,0,0,0,.21c0,.06,0,.11-.07.17a16.81,16.81,0,0,1-1.6,3.38,8.6,8.6,0,0,0-.69,1.68.9.9,0,0,1-.21.56.48.48,0,0,1-.35.19l.56.37.69.37a4.47,4.47,0,0,1,.83.78c.17.19.31.37.42.52a73.08,73.08,0,0,1,.87-9.18c0-.24.07-.47.1-.71C204.47,226.64,204.21,227.72,204.18,228.47ZM190.7,263.41a3.87,3.87,0,0,0-.47,0l-.62.11a2.5,2.5,0,0,0-.57.22,13.18,13.18,0,0,0,0,4.67,7.38,7.38,0,0,1-1,3.75,1,1,0,0,1-.1.17h0a.64.64,0,0,1-.08.15l-.08.13a2,2,0,0,1-.28.35,3.86,3.86,0,0,1-1,.8,1.61,1.61,0,0,1-.42.24,1.25,1.25,0,0,0,.26,0,3.17,3.17,0,0,0,3.18-2.8c0-.06,0-.11,0-.17v-.75a3,3,0,0,1,1.11-.35h0l.12,0a1.17,1.17,0,0,1,.11.17h0l.07.07c.11.13.17.13.36.13v-6.91C191.14,263.39,190.91,263.39,190.7,263.41Zm13.39-34.57a16.81,16.81,0,0,1-1.6,3.38,8.6,8.6,0,0,0-.69,1.68.9.9,0,0,1-.21.56.48.48,0,0,1-.35.19l.56.37.69.37a4.47,4.47,0,0,1,.83.78c.17.19.31.37.42.52A33.33,33.33,0,0,1,204.09,228.84Zm0,0c0-.06,0-.11.07-.17S204.14,228.62,204.09,228.84Zm.08-.37a9,9,0,0,1,.44-1c0-.24.07-.47.1-.71C204.47,226.64,204.21,227.72,204.18,228.47Zm3-8.94a2.92,2.92,0,0,0-1.53-2.24,20.84,20.84,0,0,0-4.94-.6,28.66,28.66,0,0,0-3.39.22,28.39,28.39,0,0,0-8.74,1.31c-.83,0-1.25.75-1.53,1.68a3.58,3.58,0,0,0-.28,1.68c0,.37.28.93.28,1.31l.28.75V224h.14l.28.37.56.37,2.5,1.68v.09l1.11.65h.28c.42,0,1.67,1.87,1.94,2.61a20.69,20.69,0,0,1,2.22,3l1,1.31h.28c.14.37.42.37.69.75a1.79,1.79,0,0,0,.94.5s0,0,0,0a.29.29,0,0,0,.12,0,2.22,2.22,0,0,0,1.25-.86l.35.22a1.22,1.22,0,0,0,.21-.22.35.35,0,0,0,.22-.07l-.22-.11-.56-.37c.28,0,.56-.37.56-.75a8.61,8.61,0,0,1,.69-1.68,18,18,0,0,0,1.67-3.55,14.69,14.69,0,0,1,2.64-3.55,5.23,5.23,0,0,0,1.25-2.24A2.87,2.87,0,0,0,207.22,219.53Z"/><path class="cls-1" d="M280.08,177.34c-1-5.79-2.91-10.08-6.38-11.76v-.37c5.14-2.05,8.33-8.21,8.33-15.12a18.72,18.72,0,0,0-3.47-11.2c-2.78-3.55-6.38-4.85-12.49-4.85a41.88,41.88,0,0,0-10.69,1.31L255,192.83h5.55v-25.2h5.41c5.14.37,7.49,3.36,8.74,11.57a113.07,113.07,0,0,0,2.91,14.19h6A100.88,100.88,0,0,1,280.08,177.34ZM266.76,162h-5.83V140.75a14.27,14.27,0,0,1,5.55-.75c5.83,0,10,3.36,10,10.83C276.47,157.36,272.87,162,266.76,162Z"/><polygon class="cls-12" points="399.72 0 399.72 357.85 399.44 357.14 366.23 272.35 262 6.25 259.54 0 399.72 0"/><polygon class="cls-13" points="399.72 0 399.72 357.85 399.44 357.14 366.23 272.35 262 6.25 259.54 0 399.72 0"/><polygon class="cls-13" points="141.01 0 135.68 13.52 35.24 268.41 0 357.85 0 0 141.01 0"/><image class="cls-14" width="129" height="143" transform="translate(39.9 30.96) scale(1.36 1.82)" xlink:href="D346AD19.png"/><polygon class="cls-1" points="116.03 132.53 121.72 132.53 121.72 184.05 140.04 184.05 140.04 190.21 116.03 190.21 116.03 132.53"/><path class="cls-12" d="M375.16,218.41a214,214,0,0,1-8.92,53.95c-14.78,50.23-46.8,99.25-89,127.12l-.57.37C254.24,414.5,229,423.2,201.94,423a152.44,152.44,0,0,1-80.07-23.15c-.21-.11-.4-.24-.6-.37-41.39-25.89-72.77-71.87-86-131.06A288.92,288.92,0,0,1,28.59,218C24.54,127.42,73,48.14,135.68,13.51A152.26,152.26,0,0,1,168.19,0h75.1A146.8,146.8,0,0,1,262,6.25C329.69,34,378.2,110.85,375.16,218.41Z"/></g></g></svg>