<svg id="Layer_1" data-name="Layer 1" xmlns="http://www.w3.org/2000/svg" xmlns:xlink="http://www.w3.org/1999/xlink" viewBox="0 0 453.48 388.38"><defs><style>.cls-1,.cls-10,.cls-11,.cls-12,.cls-13,.cls-26,.cls-6,.cls-7,.cls-8,.cls-9{fill:none;}.cls-2{clip-path:url(#clip-path);}.cls-3{fill:#fff;}.cls-14,.cls-4{fill:#17562a;}.cls-5{fill:#4c4c4c;}.cls-10,.cls-11,.cls-12,.cls-13,.cls-6,.cls-7,.cls-8,.cls-9{stroke:#efd330;}.cls-10,.cls-11,.cls-12,.cls-13,.cls-14,.cls-26,.cls-6,.cls-7,.cls-8,.cls-9{stroke-miterlimit:10;}.cls-6{stroke-width:4.2px;}.cls-7{stroke-width:3.77px;}.cls-8{stroke-width:3.35px;}.cls-9{stroke-width:2.93px;}.cls-10{stroke-width:2.51px;}.cls-11{stroke-width:2.09px;}.cls-12{stroke-width:1.68px;}.cls-13,.cls-14{stroke-width:1.26px;}.cls-14,.cls-26{stroke:#fff;}.cls-15,.cls-25{fill:#c6c6c6;}.cls-16{fill:#3e403b;}.cls-17{fill:#262626;}.cls-18{fill:#f7f7f7;}.cls-19,.cls-20{fill:#ededed;}.cls-19{opacity:0.57;}.cls-19,.cls-23,.cls-25,.cls-27{isolation:isolate;}.cls-21{fill:#9b3d3d;}.cls-22,.cls-23{fill:#d8d8d8;}.cls-23,.cls-25{opacity:0.69;}.cls-24{fill:#c1c1c1;}.cls-26{stroke-width:1.55px;}.cls-27{font-size:20.79px;font-family:MyriadPro-Regular, Myriad Pro;}</style><clipPath id="clip-path" transform="translate(53.48 -12.25)"><rect class="cls-1" y="-99" width="400" height="499"/></clipPath></defs><title>q5</title><g id="Layer_2" data-name="Layer 2"><g id="Layer_1-2" data-name="Layer 1-2"><g class="cls-2"><polygon class="cls-3" points="214.96 107.57 178.1 316.73 165.38 387.75 53.48 387.75 53.48 107.57 214.96 107.57"/><polygon class="cls-4" points="453.48 16.41 453.48 348.61 447.49 334.42 447.16 333.64 313.17 16.41 453.48 16.41"/><polygon class="cls-4" points="194.5 16.41 180.04 50.46 155.81 107.57 53.48 348.61 53.48 16.41 194.5 16.41"/><polygon class="cls-5" points="453.48 107.57 352.54 107.57 447.16 333.64 447.49 334.42 453.48 348.75 453.48 387.75 165.38 387.75 178.1 316.73 214.96 107.57 53.48 107.57 53.48 50.46 225.02 50.46 231.02 16.41 314.39 16.41 328.64 50.46 453.48 50.46 453.48 107.57"/><line class="cls-6" x1="320.38" y1="388.15" x2="316.14" y2="349.1"/><line class="cls-7" x1="313.96" y1="329.03" x2="309.34" y2="286.44"/><line class="cls-8" x1="306.34" y1="258.81" x2="302.93" y2="227.41"/><line class="cls-9" x1="300.6" y1="205.95" x2="298.42" y2="185.83"/><line class="cls-10" x1="295.56" y1="159.55" x2="294.03" y2="145.41"/><line class="cls-11" x1="291.73" y1="124.22" x2="290.2" y2="110.18"/><line class="cls-12" x1="287.46" y1="84.92" x2="286.13" y2="72.69"/><line class="cls-13" x1="283.16" y1="45.26" x2="282.18" y2="36.25"/><path class="cls-14" d="M94.64,271c-.51,1.56-.87,3.26-1.32,4.82-.6,2.08-1.19,4.14-1.76,6.24s-1,4.3-1.39,6.5l-7.53,69.67A2,2,0,0,0,84,360.51h0l2.53.42a1.71,1.71,0,0,0,1.82-1.71v0l8.72-81.07C96.65,275.09,95.92,271.54,94.64,271ZM88.9,299.84l-.56.23c-.56,2.5-1.24,4.94-1.85,7.45-1,4.3-1.85,8.66-2.67,13-.71,3.79-5.56,3-4.85-.81.89-4.75,1.79-9.51,2.92-14.19.26-1.11.56-2.18.85-3.27m29.94-123a8,8,0,0,0-1.22-.38,4.58,4.58,0,0,0,.4-.66,12.77,12.77,0,0,0,5.67-3.9,1.88,1.88,0,0,0,.39-.87,12.22,12.22,0,0,0,3.75-6.77q.1-.45.17-.9a20.7,20.7,0,0,0-.89-10.12c-2.29-6.36-8.83-11.49-14.28-8.8-3.75.36-7.18,2.77-9.36,6.58a15.82,15.82,0,0,0-1.68,5.2,1.58,1.58,0,0,0-.6,1,8.55,8.55,0,0,0,0,4.83,9.84,9.84,0,0,1,.56,3.19,8.19,8.19,0,0,0,.25,2.2,5,5,0,0,0,.89,1.73,18.63,18.63,0,0,0-.15,1.89,6.7,6.7,0,0,0-3.19-1.2M83.67,209a9.93,9.93,0,0,1-6.13.43,6.16,6.16,0,0,1-5.11-5.49,13.34,13.34,0,0,1,.57-5c-3,3.12-1.67,8.21.85,11.18a5.08,5.08,0,0,0,4,2.1,12.11,12.11,0,0,0,5.72-2.36h0a2.44,2.44,0,0,0,.19-.85Zm24.51,117.65.32-4.4a.59.59,0,0,1,.08-.36,273.27,273.27,0,0,0,4-31.45q.36-5,.54-10.08c.25-6.93.92-13.86,1.61-20.79.39-3.72.61-7.46.64-11.21a38.33,38.33,0,0,0,.32-14.4,17.43,17.43,0,0,0-2.07-5.86,9,9,0,0,0-4.17-3.6A62,62,0,0,0,99.31,221a52.9,52.9,0,0,0-10-1.56,9.48,9.48,0,0,0-7.22,2,8.94,8.94,0,0,0-2.22,3.27,71,71,0,0,0-3,11.44c-1,4.57-2,9.17-2.78,13.86a5.53,5.53,0,0,0,0,.78c-.1.57-.19,1.16-.28,1.73q-.11,1.73-.21,3.38v1.73a19.39,19.39,0,0,1,0,6c0,2.27-.1,4.52-.29,6.77-.61,7.12-2,14.16-1.19,21.33a9.3,9.3,0,0,0,.15,1.23,7.37,7.37,0,0,0,.51,1.73A6.25,6.25,0,0,0,74.86,299h0a3.73,3.73,0,0,0,1.72.76c2.45.33,4.68-1.79,5.07-4.83a20.61,20.61,0,0,1,.51-4.11,57.25,57.25,0,0,1,2.35-7.31,42,42,0,0,0,2.93-13c.15-4.64-.37-9.23.21-13.86l-2.21-1.87a2.16,2.16,0,0,1-.42-.35l-.24-.21-.15-.36a3.32,3.32,0,0,1-.18-.4l-.28-.59a8.29,8.29,0,0,1,0-1.16,3,3,0,0,1,.42-1.37,2.34,2.34,0,0,1,1.65-1.35,24.29,24.29,0,0,1,8.79.38c2.78.42,6.29.24,8.82,1.73a2.89,2.89,0,0,1,1.39,2.27,3.22,3.22,0,0,1,0,2.48,4.27,4.27,0,0,1-1.47,1.92,13.37,13.37,0,0,0-3.22,3.15A18.83,18.83,0,0,1,98.43,264a9.79,9.79,0,0,0-.9,1.42,2.2,2.2,0,0,1-.46.61l.42.31a6.47,6.47,0,0,1,.62.57,7.68,7.68,0,0,1,1.08,1.44,23.21,23.21,0,0,1,2.26,7.69,75.5,75.5,0,0,1,.81,18.5q-.21,2.84-.56,5.68c-.94,7.71-2.36,15.42-1.85,23.23l-.53-.33L99,327.8v.33a7.72,7.72,0,0,0,.11,1.54,5,5,0,0,0,3.78,4.45,4.51,4.51,0,0,0,4.17-2.1h0a5.65,5.65,0,0,0,.9-2.74,16.35,16.35,0,0,0,.33-2.62Zm-9.12,1.16.33-4.71.53.33c-.53-7.81.9-15.59,1.85-23.23q.35-2.84.56-5.68a75.5,75.5,0,0,0-.81-18.5,23.27,23.27,0,0,0-2.21-7.68,7.68,7.68,0,0,0-1.08-1.44,6.47,6.47,0,0,0-.62-.57l-.42-.31a2.18,2.18,0,0,1-3,0,2.72,2.72,0,0,1-.56-.78l-.14-.14a3.32,3.32,0,0,0-.94.28,4.36,4.36,0,0,0-2.25,2.75C89,272,88,276.17,86.89,280.24a79.58,79.58,0,0,0-2.19,10.83c0,.35-.1.69-.12,1-.19,1.73-.36,3.47-.64,5.2-.1.61-.22,1.2-.36,1.73-.26,1.11-.56,2.2-.86,3.31s-.6,2.18-.85,3.27c-1.12,4.68-2,9.44-2.92,14.19-.72,3.81,4.17,4.61,4.85.81.82-4.37,1.62-8.66,2.67-13,.61-2.51,1.29-5,1.85-7.45a49.68,49.68,0,0,0,.89-5.2c.24-2.11.51-4.21.87-6.27s.82-4.37,1.39-6.5,1.18-4.16,1.76-6.24c.44-1.56.81-3.26,1.32-4.82,1.28.52,2,4.07,2.43,7.1.26,1.87.4,3.47.44,4.12a71.87,71.87,0,0,1-.17,14.26v.28c-1,9.77-3.06,19.41-2,29.32a2.53,2.53,0,0,0,2.12,2.53c.58.36,1.19.73,1.79,1.06a7.72,7.72,0,0,1-.11-1.54.91.91,0,0,0,.08-.42Zm25.64-135a16.91,16.91,0,0,0-.15-1.89,8.65,8.65,0,0,0-2.21-4.83,3.9,3.9,0,0,0-.79-.94c-1-.88-2.1-1.91-3.22-2.74a9.68,9.68,0,0,0-4.53-2.77,2.77,2.77,0,0,0-1.19-.36.51.51,0,0,0-.33.17,5.21,5.21,0,0,0-.42,1.37,12.07,12.07,0,0,1-1.28,2.6.46.46,0,0,0-.07.24l-.37.49c0-.1-.43.36-.39.36a4,4,0,0,1-2.69.47,23.08,23.08,0,0,1-9-2.08c-2-1-2.35-2.86-2.85-5.41a8.81,8.81,0,0,0-.44-1.52c-.07-.29-.15-.61-.24-.9a8.43,8.43,0,0,0-.92-2.55.75.75,0,0,0-.29-.23,1.87,1.87,0,0,0-1,0,8.57,8.57,0,0,0-2.12.35h0c-2.18.55-5,.78-7.06,2.13H83c-4.31,2.65-5.46,7.45-6.86,12.8l-2.1,8c-.28,1.07-.64,2.2-.94,3.34a13.34,13.34,0,0,0-.57,5,6.18,6.18,0,0,0,5.11,5.49,9.93,9.93,0,0,0,6.12-.43,2.82,2.82,0,0,1-.08.83h0c-.28,2.48-.64,5-1,7.5a5.88,5.88,0,0,0,0,2c-.15.66-.31,1.32-.47,2a9.48,9.48,0,0,1,7.22-2,52.9,52.9,0,0,1,10,1.56,62,62,0,0,1,10.17,3.47,9,9,0,0,1,4.17,3.6,30,30,0,0,0,.78-4.09,24.52,24.52,0,0,1,.37-3c.18-.68.62-1.37.86-2.06q.18-.53.32-1.09v-.26a4.89,4.89,0,0,0,3.49-.19,6.45,6.45,0,0,0,3-5.2c.1-1.28.21-2.55.32-3.79.24-2.39.53-4.75,1-7.19a42.26,42.26,0,0,0,1-8.23ZM121,155.7c-2.29-6.36-8.83-11.49-14.28-8.8-3.75.36-7.18,2.77-9.36,6.58a15.82,15.82,0,0,0-1.68,5.2,8.14,8.14,0,0,1-.1.81,18.67,18.67,0,0,0,1.64,9.58,15.7,15.7,0,0,0,2.21,3.47,14.64,14.64,0,0,0,1.28,1.35l.36.33a14.7,14.7,0,0,0,5.82,3.24,8.82,8.82,0,0,0,5.56-.57,19.84,19.84,0,0,0,3.39-1.73,15.43,15.43,0,0,0,2.17-1.73,12.22,12.22,0,0,0,3.75-6.77q.1-.45.17-.9A20.7,20.7,0,0,0,121,155.7Zm-5.21,19.46a19.84,19.84,0,0,1-3.39,1.73,8.82,8.82,0,0,1-5.56.57,14.7,14.7,0,0,1-5.82-3.24l-.36-.33a14.64,14.64,0,0,1-1.28-1.35,15.7,15.7,0,0,1-2.21-3.47,18.67,18.67,0,0,1-1.64-9.58,2.34,2.34,0,0,1,.1-.81,1.58,1.58,0,0,0-.6,1,8.55,8.55,0,0,0,0,4.83,9.84,9.84,0,0,1,.56,3.19,8.19,8.19,0,0,0,.25,2.2,5,5,0,0,0,.89,1.73,18.63,18.63,0,0,0-.15,1.89,18.57,18.57,0,0,1,2.54,2.13,10.91,10.91,0,0,0,4.72,2.53,14.3,14.3,0,0,0,3.57.85c1.07,0,2.11-.33,3.19-.24a6.32,6.32,0,0,1,.83.12,4.58,4.58,0,0,0,.4-.66,12.77,12.77,0,0,0,5.67-3.9,1.88,1.88,0,0,0,.39-.87,15.36,15.36,0,0,1-2.11,1.66Zm-4.26,3.74a6.32,6.32,0,0,0-.83-.12c-1.08-.09-2.12.24-3.19.24a14.3,14.3,0,0,1-3.57-.85,10.91,10.91,0,0,1-4.72-2.53,18.57,18.57,0,0,0-2.54-2.13,6.7,6.7,0,0,0-3.19-1.2.75.75,0,0,1,.29.23,8.43,8.43,0,0,1,.92,2.55c.08.29.17.61.24.9a8.81,8.81,0,0,1,.44,1.52c.5,2.55.9,4.4,2.85,5.41a23.08,23.08,0,0,0,9,2.08,4,4,0,0,0,2.69-.47s.44-.47.39-.36l.37-.49a.46.46,0,0,1,.07-.24,12.07,12.07,0,0,0,1.28-2.6,5.21,5.21,0,0,1,.42-1.37.51.51,0,0,1,.33-.17,8.05,8.05,0,0,0-1.22-.43Zm-3.19,147.79a3,3,0,0,1,.92,2,3.07,3.07,0,0,1-2,3.47M82.32,290.84a5.5,5.5,0,0,1,2.43.12m-12.5.66a3.23,3.23,0,0,0-1.62,3.81,3.39,3.39,0,0,0,.37.92A5.34,5.34,0,0,0,75,299m3.35.62c1.58.19,3.22,0,3.79-2.25a4.37,4.37,0,0,0,.11-.61c.65-.14,1.18-.21,1.28,0a3.08,3.08,0,0,0,.44.49M123.81,209a2.37,2.37,0,0,0-.86-.64c-.12,1.25-.22,2.51-.32,3.79a6.45,6.45,0,0,1-3,5.2,4.89,4.89,0,0,1-3.49.19v.26c2.14,1.49,4.54,2.3,6.87.66s3.06-5.18,1.77-8a5.8,5.8,0,0,0-1-1.54ZM72.92,294.64a7.37,7.37,0,0,1-.51-1.73,11.79,11.79,0,0,0-.15-1.23,3.23,3.23,0,0,0-1.62,3.81,3.39,3.39,0,0,0,.37.92,5.34,5.34,0,0,0,4,2.65A6.27,6.27,0,0,1,72.92,294.64Zm36.29,34a3,3,0,0,0-.92-2c0,.88-.12,1.73-.19,2.65a5.65,5.65,0,0,1-.9,2.74,3.06,3.06,0,0,0,2-3.41Zm-8.51-67.69A18.83,18.83,0,0,1,98.57,264a9.79,9.79,0,0,0-.9,1.42,2.2,2.2,0,0,1-.46.61l.42.31a6.47,6.47,0,0,1,.62.57,7.68,7.68,0,0,1,1.08,1.44,60.55,60.55,0,0,1,1.94-9A11.15,11.15,0,0,1,100.69,260.92ZM82.32,290.84a20.61,20.61,0,0,0-.51,4.11,5.08,5.08,0,0,1-3.46,4.7c1.58.19,3.22,0,3.79-2.25a4.37,4.37,0,0,0,.11-.61c.65-.14,1.18-.21,1.28,0a3.08,3.08,0,0,0,.44.49c.29-1.73.44-3.47.64-5.2a8.84,8.84,0,0,1,.12-1A5.51,5.51,0,0,0,82.32,290.84Zm18.38-29.92A18.83,18.83,0,0,1,98.57,264a9.79,9.79,0,0,0-.9,1.42,2.2,2.2,0,0,1-.46.61l.42.31a6.47,6.47,0,0,1,.62.57,7.68,7.68,0,0,1,1.08,1.44,60.55,60.55,0,0,1,1.94-9A11.15,11.15,0,0,1,100.69,260.92Zm8.5,67.71a3,3,0,0,0-.92-2c0,.88-.12,1.73-.19,2.65a5.65,5.65,0,0,1-.9,2.74,3.06,3.06,0,0,0,2-3.43Zm14.58-119.71a2.37,2.37,0,0,0-.86-.64c-.12,1.25-.22,2.51-.32,3.79a6.45,6.45,0,0,1-3,5.2,4.89,4.89,0,0,1-3.49.19v.26c2.14,1.49,4.54,2.3,6.87.66s3-5.2,1.74-8a5.82,5.82,0,0,0-.95-1.46Zm0,0a2.37,2.37,0,0,0-.86-.64c-.12,1.25-.22,2.51-.32,3.79a6.45,6.45,0,0,1-3,5.2,4.89,4.89,0,0,1-3.49.19v.26c2.14,1.49,4.54,2.3,6.87.66s3-5.2,1.74-8a5.82,5.82,0,0,0-.95-1.46ZM72.92,294.64a7.37,7.37,0,0,1-.51-1.73,11.79,11.79,0,0,0-.15-1.23,3.23,3.23,0,0,0-1.62,3.81,3.39,3.39,0,0,0,.37.92,5.34,5.34,0,0,0,4,2.65A6.27,6.27,0,0,1,72.92,294.64Zm27.78-33.73A18.83,18.83,0,0,1,98.57,264a9.79,9.79,0,0,0-.9,1.42,2.2,2.2,0,0,1-.46.61l.42.31a6.47,6.47,0,0,1,.62.57,7.68,7.68,0,0,1,1.08,1.44,60.55,60.55,0,0,1,1.94-9,10.19,10.19,0,0,1-.58,1.58ZM82.32,290.84a20.61,20.61,0,0,0-.51,4.11,5.08,5.08,0,0,1-3.46,4.7c1.58.19,3.22,0,3.79-2.25a4.37,4.37,0,0,0,.11-.61c.65-.14,1.18-.21,1.28,0a3.08,3.08,0,0,0,.44.49c.29-1.73.44-3.47.64-5.2a8.84,8.84,0,0,1,.12-1A5.51,5.51,0,0,0,82.32,290.84Zm18.38-29.92A18.83,18.83,0,0,1,98.57,264a9.79,9.79,0,0,0-.9,1.42,2.2,2.2,0,0,1-.46.61l.42.31a6.47,6.47,0,0,1,.62.57,7.68,7.68,0,0,1,1.08,1.44C99.72,265.3,101,260.33,100.69,260.92Zm4.69-5.08a4.27,4.27,0,0,1-1.47,1.92,13.37,13.37,0,0,0-3.22,3.15A18.83,18.83,0,0,1,98.57,264a9.79,9.79,0,0,0-.9,1.42,2.18,2.18,0,0,1-3.43.61,2.72,2.72,0,0,1-.56-.78l-.14-.14a3.22,3.22,0,0,1-.58-1l-.17-.43c-.53-1.23-1.31-2.08-1.93-3.24-.35-.66-1.28-2.48-1.72-2.62l-.32-.19-1-.85-2.21-1.87a2.16,2.16,0,0,1-.42-.35l-.24-.21-.15-.36a3.32,3.32,0,0,1-.18-.4l-.28-.59a8.29,8.29,0,0,1,0-1.16,3,3,0,0,1,.42-1.37,2.34,2.34,0,0,1,1.65-1.35,24.29,24.29,0,0,1,8.79.38c2.78.42,6.29.24,8.82,1.73a2.89,2.89,0,0,1,1.39,2.27,3.22,3.22,0,0,1,0,2.37Z" transform="translate(53.48 -12.25)"/><polygon class="cls-1" points="453.48 16.41 453.48 348.61 313.17 16.41 453.48 16.41"/><path class="cls-15" d="M237.4,104.08a27.21,27.21,0,0,1-.6,4.44v1.14c.11,1.28-1.51,1.25-1.62,0v-.54a1.1,1.1,0,0,1,0-.78v-.1a2.38,2.38,0,0,0-.25-1.14c-.29-.33-1.39-.45-1.78-.68a9.72,9.72,0,0,1-2.88-2.11,3.32,3.32,0,0,1,1.07-5.2c1.39-.68,5.26-2.34,6.1.1A14,14,0,0,1,237.4,104.08Z" transform="translate(53.48 -12.25)"/><path class="cls-16" d="M240.68,131.53c-1.79-5.68-4.17-11.71-8-15.59a1,1,0,0,0-.72-.33,1.47,1.47,0,0,0-.14-.26l-.18.33c-.88,1.65-1.39,3.6-2.1,5.32-.21,1.3-.46,2.62-.62,4a92,92,0,0,0-.18,9.3,63.54,63.54,0,0,0,.33,8.85,19.8,19.8,0,0,0,2.11,7.68c1.28,2,4,1.52,5.76,1.26s4-.49,4.78-2.95C243.44,143.76,242.36,136.64,240.68,131.53Z" transform="translate(53.48 -12.25)"/><path class="cls-17" d="M310.42,146c-1.28,1.92-3.46,2.1-5.29,2.41a65.57,65.57,0,0,1-6.6.71c-4.92.31-9.83.5-14.75.62a204.3,204.3,0,0,1-29.86-1.59h-.21a1,1,0,0,1-.83.17c-3.89-1-3.12-7.9-.94-10.48,1.51-1.73,3.51-1.92,5.49-2.08q4.17-.33,8.21-.59a211.63,211.63,0,0,1,29.07-.24q3.78.28,7.56.76a19,19,0,0,1,5.71,1.2A6.45,6.45,0,0,1,310.42,146Z" transform="translate(53.48 -12.25)"/><path class="cls-16" d="M254.79,150.69c-.33,2.44-.67,5.42-2.6,6.76a7.21,7.21,0,0,1-5.85.78c-4.69-1.73-3.6-10.26-3.54-14.78q.15-10.72-.56-21.42c-.08-1.35,1.15-1.73,1.83-1a1.32,1.32,0,0,1,1.1-1.37,6.2,6.2,0,0,1,6.42,3.22,29.79,29.79,0,0,1,2.78,9.08A59.53,59.53,0,0,1,254.79,150.69Z" transform="translate(53.48 -12.25)"/><path class="cls-16" d="M322.92,140.76c-.22-1.28-.49-2.53-.71-3.79a3.07,3.07,0,0,0-.83-.62,16.15,16.15,0,0,0-7.37-.85,6.08,6.08,0,0,0-5.33,3.34,1.69,1.69,0,0,0-.14.38,1.26,1.26,0,0,0-.9,1.32,14.82,14.82,0,0,0,.63,4.16,30.86,30.86,0,0,1,.83,5.2c.26,2.79.79,4.83,3,5.91a11.42,11.42,0,0,0,7.14,1c2-.23,3.58-2.31,3.65-4.83.17-1.54,0-3.1.32-4.63A36.65,36.65,0,0,0,322.92,140.76Z" transform="translate(53.48 -12.25)"/><path class="cls-18" d="M323.89,116.9a68.47,68.47,0,0,0-2.78-10.73,6.42,6.42,0,0,0-2.19-3.59c-.61-.42-2.21-.54-2.57-1.25a2,2,0,0,0-.44-.59A24.39,24.39,0,0,0,309,88.28a18,18,0,0,0-3.88-3.83,13.61,13.61,0,0,0-6.94-3c-3.1-.21-6.21-.12-9.31-.16-12.33-.19-24.81-.85-37,1.49h-.21a.23.23,0,0,0-.24,0,15.38,15.38,0,0,0-2.15,2.08,5,5,0,0,0-1,1.46,25.76,25.76,0,0,1-1.79,3.55c-.71,1-1.47,2-2.14,3-2.6,4.09-3.79,9.53-6.94,13a8.69,8.69,0,0,1-.72.71l-.31.4a21.36,21.36,0,0,0-1.39,2.53,21.16,21.16,0,0,1-1.17,1.84,36.9,36.9,0,0,1-2,4.11,16.69,16.69,0,0,0-.94,2.24,1.76,1.76,0,0,0,.38.36c.71,6.12,1.22,12.27,1.79,18.38.22,2.34.39,4.47,2.17,5.79a22.83,22.83,0,0,0,6.15,3,1.64,1.64,0,0,0,2-1.45,2.54,2.54,0,0,0,0-1,74.08,74.08,0,0,1-.39-7.64c-.18-2.36,0-4.68-.17-6.93a27.64,27.64,0,0,1,.15-6.36.75.75,0,0,1,1-.6.83.83,0,0,1,.4.39,15,15,0,0,1,.93,4.56l.1.55c.32,2,.6,4,.89,6l1.72,11.56a1.62,1.62,0,0,0,2,1.41,1.59,1.59,0,0,0,.67-.47c3.79-3.64,8.6-4.89,13.29-5.2l1.25-.09c6-.35,12,0,17.92.17,6.37.14,12.75.24,19.14.4a95.06,95.06,0,0,1,19,1.89,1.63,1.63,0,0,0,2.1-1.35,2.58,2.58,0,0,0,0-1.06,18.87,18.87,0,0,1,.49-5.75c.26-1.92.47-3.86.58-5.8A53.56,53.56,0,0,0,323.89,116.9Zm-80.56-15.85a8.43,8.43,0,0,1-4.63,4.35h-.07c2.17-3,3.36-6.83,5.15-10.22,1.19-2.27,3-4,4.1-6.32q.14-.28.26-.57a.27.27,0,0,0,.15-.16,1.56,1.56,0,0,1,1.39-.94,3,3,0,0,0-.36.47,8.12,8.12,0,0,0-.75,1.84,34.9,34.9,0,0,1-1.39,3.29q-.54,1.25-1,2.56a.46.46,0,0,0-.1.17,21.77,21.77,0,0,1-2.78,5.53Zm2.26,1.73h0a1.77,1.77,0,0,1-.46-.8,2.88,2.88,0,0,1,.24-2c.72-1.94,1.54-3.81,2.31-5.72s1.72-7.52,4.37-6.24a1.05,1.05,0,0,1,.51,1.07A3.81,3.81,0,0,1,252,91.5a39.89,39.89,0,0,0-2.32,6c-.58,1.7-1.78,7-4.08,5.22Zm5.83-6.2c-.57,1.63-1.12,3.88-1.94,5.74l-1.26.52a8.56,8.56,0,0,0,.79-1.73c.81-2.24,1.46-4.56,2.14-6.93a14.48,14.48,0,0,1,2.28-4.7c0,2.24-1.53,5.74-2,7Zm61.89,3.36a64.21,64.21,0,0,0-10.13-.31h0c-3,.14-5.89.31-8.86.23s-6.14-.23-9.21-.29H285l-6.47,1a43.46,43.46,0,0,1-6.6.16,96.77,96.77,0,0,1-13.29-.36h-.21a.69.69,0,0,1-.53-.69c-.12-1.11-.72-1.94-.9-3a23.69,23.69,0,0,1-.17-2.79,12.92,12.92,0,0,1,.92-5.79c.76-1.42,2.32-1.51,3.56-1.73a35.25,35.25,0,0,1,5.42-.17c8.4,0,16.81-.68,25.22-.61a.65.65,0,0,1,.26,0l8,.12c2,0,4.26-.33,6,1,3.54,2.6,5.29,7.42,7.56,11.49a1,1,0,0,1,.12.59c.21.42,0,1.28-.68,1.16Z" transform="translate(53.48 -12.25)"/><path class="cls-19" d="M237.26,106a8.69,8.69,0,0,1-.72.71A4,4,0,0,1,237.26,106Z" transform="translate(53.48 -12.25)"/><path class="cls-19" d="M236.54,106.75l-.31.4a.41.41,0,0,1,.14-.24Z" transform="translate(53.48 -12.25)"/><path class="cls-20" d="M275.94,127.87c-3-.12-6,.31-9,.28a34.7,34.7,0,0,1-8.57-.5c-3.19-.88-3.82-5-4.44-8.51-.33-1.85-.46-3.71-.71-5.56a4.11,4.11,0,0,0-.85-2.43,2.11,2.11,0,0,0-3.22.76,19.06,19.06,0,0,0-1.82,4.24l-1.74,4.59a10.12,10.12,0,0,0-.9-2.17c-.62-1.11-1.12-1.52-.46-3.1a7.9,7.9,0,0,1,1.22-1.92,3.05,3.05,0,0,1,2-1.28c.29,0,1,.31,1.39,0a1.41,1.41,0,0,0,.51-1,2.85,2.85,0,0,0-1.89-3.14c-.67-.24-1.22-.09-1.76-.73a11.91,11.91,0,0,1-.78-1.39,2.66,2.66,0,0,0-.86-1l1.53-2.11a.54.54,0,0,0,.1-.35.35.35,0,0,0-.08-.23l-.4-.4-.24-.24a.27.27,0,0,0-.32,0c.24-.33-.18-.83-.49-.52a34,34,0,0,0-3.54,4.16.47.47,0,0,0,0,.56.29.29,0,0,0,.24.13l1.29.1a20.35,20.35,0,0,1-2.78,1.11.41.41,0,0,0-.25.47.37.37,0,0,0,.25.31,7.13,7.13,0,0,1,2.49.73q.61,0,.15.85c.08.75-.14,1-.69.78a2,2,0,0,1-1.85-1,.29.29,0,0,0-.47,0,.45.45,0,0,0-.07.15c-.5,1.73-2.31,1-3.39,1.09a2.55,2.55,0,0,0-1.76,1,27.79,27.79,0,0,1-1.26,2.74c-.25,1-.39,2.11-.58,3.14l-.51-.94c-.18.43-.35.87-.51,1.32a1.76,1.76,0,0,0,.38.36c.71,6.12,1.22,12.27,1.79,18.38.22,2.34.39,4.47,2.17,5.79a22.63,22.63,0,0,0,6.1,2.88,1.64,1.64,0,0,0,2-1.45,2.54,2.54,0,0,0,0-1,74.08,74.08,0,0,1-.39-7.64c-.18-2.36,0-4.68-.17-6.93a27.64,27.64,0,0,1,.15-6.36.75.75,0,0,1,1-.6.83.83,0,0,1,.4.39,15,15,0,0,1,.93,4.56l.1.55c.32,2,.6,4,.89,6l1.72,11.56a1.62,1.62,0,0,0,2,1.41,1.59,1.59,0,0,0,.67-.47c3.79-3.64,8.6-4.89,13.29-5.2l-.65-.66a29.3,29.3,0,0,1,10-2.17l10.51-1.06a.38.38,0,0,0,.33-.4C284,130.28,279.64,128,275.94,127.87Z" transform="translate(53.48 -12.25)"/><path class="cls-18" d="M287.78,110c.6,0,1.21.12,1.81.16,2.57.09,5.14,0,7.71,0a1,1,0,0,1,.64.28,1.6,1.6,0,0,1,.47,1.16,51.84,51.84,0,0,1,0,7.26c-.25,1.73-1.39,1.73-2.56,1.73H283.17a1,1,0,0,1-1.34-.87,1.64,1.64,0,0,1,0-.44,48.83,48.83,0,0,0-.24-7.69,2.35,2.35,0,0,1,0-.71,1.46,1.46,0,0,1,.39-.8Z" transform="translate(53.48 -12.25)"/><path class="cls-15" d="M305.22,109.12l-3.5,1.13-1.93.16c-7.47.5-15,.45-22.44.38h0l-1.54-.57H276a.32.32,0,0,1,.29-.26c7.42,0,14.83.14,22.22-.29Q301.87,109.47,305.22,109.12Z" transform="translate(53.48 -12.25)"/><path class="cls-21" d="M277.31,110.79h0a.37.37,0,0,1-.19.24,10.49,10.49,0,0,0-2.88,1.73c-.92.76-1.6,1.73-2.49,2.6a6.1,6.1,0,0,1-3.79,1.2,53.71,53.71,0,0,1-5.56.19h-.72c-2.28,0-4.56-.14-6.82-.19a.3.3,0,0,1-.28-.23.37.37,0,0,1-.1-.14c-1-2.18-4.25-10,.1-9.56,2.69.24,5.4.9,8.07,1.35,1,.17,2.07.31,3.1.57l.35.09h.11a22.84,22.84,0,0,1,4.74,1.09,23.51,23.51,0,0,0,4.85.59Z" transform="translate(53.48 -12.25)"/><path class="cls-21" d="M322.49,113.91a1.21,1.21,0,0,1-.69.94,9.78,9.78,0,0,1-3.86.09h-4.6a25,25,0,0,1-4.17,0,6.24,6.24,0,0,1-2.43-1.35l-4.4-3.12a.39.39,0,0,1-.15-.33h-.53l3.5-1.13c1.6-.17,3.21-.38,4.81-.62,3.5-.54,7.15-1,10.31-3.08a.3.3,0,0,1,.44.16,16.17,16.17,0,0,1,1.51,4.47A10.54,10.54,0,0,1,322.49,113.91Z" transform="translate(53.48 -12.25)"/><path class="cls-15" d="M317.21,114.95c-.94,5.51-2.64,10.71-7.74,11.33-3,.38-6.14.19-9.18.31s-6.4.29-9.6.42a115.71,115.71,0,0,1-19.44-.54,8.84,8.84,0,0,1-6.14-2.65,20.69,20.69,0,0,1-3.35-6.93.47.47,0,0,1,0-.23h.65a19.52,19.52,0,0,0,3.18,6.58c2.17,2.48,5.47,2.43,8.24,2.7a123.09,123.09,0,0,0,16.28.28c5.44-.19,10.88-.54,16.32-.62,2.78,0,5.56,0,7.54-2.72a18.72,18.72,0,0,0,2.64-7.94Z" transform="translate(53.48 -12.25)"/><path class="cls-1" d="M313.29,115h-.64" transform="translate(53.48 -12.25)"/><path class="cls-1" d="M313.29,115h-.64" transform="translate(53.48 -12.25)"/><path class="cls-22" d="M316.56,114.95a18.72,18.72,0,0,1-2.64,7.94c-2,2.74-4.81,2.69-7.54,2.72-5.44.09-10.88.43-16.32.62a123.09,123.09,0,0,1-16.28-.28c-2.78-.26-6.07-.21-8.24-2.7a19.54,19.54,0,0,1-3.19-6.6,54.38,54.38,0,0,0,5.56-.19,8.48,8.48,0,0,0,2.88-.57,3.44,3.44,0,0,0,.58-.35c1.65,4.07,5.39,5.56,8.85,5.58,4,0,7.87-1.11,11.86-1.07s8,.62,12,.88l1.39.12a5.61,5.61,0,0,0,1.6-2.13,28,28,0,0,0,1.47-4.16,2.8,2.8,0,0,0,.64.21,23,23,0,0,1-2,5.2,5.31,5.31,0,0,1-.69,1,9,9,0,0,0,3.49-.23c1.68-.55,2.35-3.47,2.68-6h.69Z" transform="translate(53.48 -12.25)"/><line class="cls-1" x1="316.04" y1="104.45" x2="315.85" y2="104.45"/><line class="cls-1" x1="315.2" y1="104.41" x2="315.11" y2="104.41"/><line class="cls-1" x1="331.14" y1="98.68" x2="330.78" y2="98.54"/><line class="cls-1" x1="329.24" y1="97.97" x2="328.61" y2="97.74"/><line class="cls-1" x1="355.18" y1="98" x2="354.93" y2="98.09"/><path class="cls-15" d="M227.83,24.55a3.31,3.31,0,0,0-.88-1.73,3,3,0,0,0-1.69-.87,8.27,8.27,0,0,0-2-.23c-.49,0-1.1.16-1,.88a4.78,4.78,0,0,0,.36,1c0,.12.17.47.12.61h-.25a.57.57,0,0,0-.53,0,.58.58,0,0,0-.19.54,1.29,1.29,0,0,0,.57,1,.22.22,0,0,0,.19,0h0a15,15,0,0,0,4.44-.31A.7.7,0,0,0,227.83,24.55Z" transform="translate(53.48 -12.25)"/><path class="cls-23" d="M219.89,24.16l-1.58-4.4-.86-2.39a5.13,5.13,0,0,0-.85-1.84,2.16,2.16,0,0,0-1.49-.54l-2.24-.14q-2.25-.12-4.5-.17-4.54-.1-9.08,0c-3,.12-6,.28-9,.62a1.3,1.3,0,0,0-.79.29,2.89,2.89,0,0,0-.54.94q-.58,1.26-1.14,2.56-1.11,2.58-2.11,5.2a.37.37,0,0,0,.18.44.23.23,0,0,0,.21,0,3.12,3.12,0,0,0,1.06-.1c4-.28,8-.09,12,0l13.19.1h7.19a.27.27,0,0,0,.5-.17A.34.34,0,0,0,219.89,24.16ZM215.24,22a2.92,2.92,0,0,1-1.19.26H194.43a7.91,7.91,0,0,1-2.78-.24,1.18,1.18,0,0,1-.57-.36,1,1,0,0,1,0-.76,13.8,13.8,0,0,1,.33-1.4,3.14,3.14,0,0,1,1.89-2.22,12.74,12.74,0,0,1,3.18-.55,25.17,25.17,0,0,1,3.24-.09h.88a2.48,2.48,0,0,1,.75,0c.21.09.28.38.39.57l.1.16a.27.27,0,0,0,.18.29,2.28,2.28,0,0,0,2.25-.09,1.69,1.69,0,0,0,.33-.38.85.85,0,0,1,.6-.43c.46-.14.92-.24,1.39-.35a20.78,20.78,0,0,1,6-.31,4.81,4.81,0,0,1,2.32.55c.85.57.71,1.58.79,2.55s.5,2.3-.43,2.82Z" transform="translate(53.48 -12.25)"/><path class="cls-15" d="M184.64,25.65a.28.28,0,0,1-.26.3h0a.22.22,0,0,1-.15,0c-1.29-.36-2.62,0-3.92-.31a3,3,0,0,1-1.39-.57c-.36-.31-.26-.81-.12-1.25a3,3,0,0,1,2-1.92,13.65,13.65,0,0,1,1.72-.31,1.4,1.4,0,0,1,1.29.23,1.41,1.41,0,0,1,.21,1.42,2.4,2.4,0,0,1-.14.52,2,2,0,0,0,0,.5h.54a.26.26,0,0,1,.25.28s0,0,0,0a.47.47,0,0,1,0,.1A7.9,7.9,0,0,1,184.64,25.65Z" transform="translate(53.48 -12.25)"/><path class="cls-16" d="M186.1,52.52a1.43,1.43,0,0,1-.75,1.16,4.24,4.24,0,0,1-1.39,0h-2.71a.42.42,0,0,1-.25.16,1.58,1.58,0,0,1-1.32-.33h-.12a1.14,1.14,0,0,1-.4-.64,2.23,2.23,0,0,1-.15-.57q-.09-1-.1-2V48.27c0-.88-.24-2.13.39-2.82a2.4,2.4,0,0,1,2.61-.09,13.94,13.94,0,0,1,2.47,1.73,4.15,4.15,0,0,1,1.9,2.13A7.26,7.26,0,0,1,186.1,52.52Z" transform="translate(53.48 -12.25)"/><path class="cls-16" d="M226.65,50.8a17.64,17.64,0,0,1-.19,2c-.08.54-.17,1-.62,1.23a3.38,3.38,0,0,1-1.65.17c-.51,0-1-.12-1.53-.16a3.44,3.44,0,0,1-2.78-.78,5.37,5.37,0,0,1-.75-3.22.53.53,0,0,1,.24-.49h0a22.7,22.7,0,0,0,4-6.15c.39-.87.92-1.92,1.83-2.08,1.12-.19,1.39,1.21,1.39,2.2q0,1.86-.18,3.71A33.26,33.26,0,0,1,226.65,50.8Z" transform="translate(53.48 -12.25)"/><path class="cls-18" d="M226.82,33.25a3.39,3.39,0,0,0-.57-2,5,5,0,0,0-1.15-1.06,3,3,0,0,1-1-1,12.7,12.7,0,0,1-.5-1.87,4.65,4.65,0,0,0-1-1.73,3,3,0,0,1-.43-.69,5.82,5.82,0,0,1-.28-.71h0l-.12-.4a35.13,35.13,0,0,0-3.46-8.26,15.26,15.26,0,0,0-1.14-1.73,2,2,0,0,0-1.58-.85c-1.49-.09-3-.1-4.47-.16l-9-.29-4.51-.16a25.84,25.84,0,0,0-4.35,0,7.12,7.12,0,0,0-2.65.94.59.59,0,0,0-.4.17,15.58,15.58,0,0,0-4,6.12,16.77,16.77,0,0,1-.69,2,13.74,13.74,0,0,0-.88,1.73c-.19.55-.31,1.13-.5,1.73a2.55,2.55,0,0,1-.6.92l-.36.35-.14.12a3.16,3.16,0,0,0-.83,1.73,7.24,7.24,0,0,1-.22.85h0a.63.63,0,0,0-.14.26c-.18.66-.9,1-1.39,1.33a4.26,4.26,0,0,0-1.12,1.44v.14h0a2.62,2.62,0,0,0,0,1.09,106.18,106.18,0,0,0-.17,13.55,4,4,0,0,0,.61,2.69,1.45,1.45,0,0,0,1.1.42h.28a3.86,3.86,0,0,1,1.08.16h.24a20.57,20.57,0,0,0,2.44.88,11.29,11.29,0,0,0,2.94.14l12.69-.71,6.39-.36a17.69,17.69,0,0,1,6.15.24,18.16,18.16,0,0,0,3.28.85,8.72,8.72,0,0,0,3-.28c.64-.16,1.26-.36,1.88-.57,1.08-.38,2.15-.8,3.25-1.07l.93-.21a.41.41,0,0,0,.42-.24.79.79,0,0,0,.1-.49q.71-5,.93-10C226.81,36.68,226.88,35,226.82,33.25ZM220,24.73h-7.68l-13.19-.1c-4,0-8-.23-12,0a3.12,3.12,0,0,1-1.06.1.25.25,0,0,1-.37-.15.43.43,0,0,1,0-.26q1-2.63,2.11-5.2.56-1.28,1.14-2.56a2.89,2.89,0,0,1,.54-.94,1.3,1.3,0,0,1,.79-.29c3-.35,6-.5,9-.62s6.06-.14,9.08,0q2.25,0,4.5.17l2.24.14a2.16,2.16,0,0,1,1.49.54,5.13,5.13,0,0,1,.85,1.84l.86,2.39,1.58,4.4h.1v.09a.4.4,0,0,1,0,.26.27.27,0,0,1,0,.21Z" transform="translate(53.48 -12.25)"/><path class="cls-20" d="M223.61,38.19A24.38,24.38,0,0,1,214,40.08c-3.4.1-6.82,0-10.22.1H193.49a32.06,32.06,0,0,1-9.29-.83,14.33,14.33,0,0,1-2.18-.83,3.79,3.79,0,0,1-1.72-1.3,5.37,5.37,0,0,1-.11-4.12h0a.63.63,0,0,1,.12-.29c.51-.71,1.49-.52,2.19-.52a.42.42,0,0,1,.29.1h0c.78.19,1.53.43,2.31.59a8,8,0,0,0,2.4,0c1.62-.17,3.19-.68,4.81-.9a33.89,33.89,0,0,1,4.94-.23h5.06q5.06,0,10.1.47,2.51.23,5,.62a24.57,24.57,0,0,0,2.5.29,13.94,13.94,0,0,0,2.54-.12c1.15,0,2.78,0,3.19,1.52S224.78,37.65,223.61,38.19Z" transform="translate(53.48 -12.25)"/><path class="cls-17" d="M224.31,49.31l-.38.1c-.93.28-1.85.62-2.78,1a19.33,19.33,0,0,1-1.88.57,8.72,8.72,0,0,1-3,.28,18.16,18.16,0,0,1-3.28-.85,17.69,17.69,0,0,0-6.15-.24l-6.39.36-12.69.71a11.29,11.29,0,0,1-2.94-.14,20.57,20.57,0,0,1-2.44-.88h-.24l-.4-.09-.49-.09h0a.16.16,0,0,1-.21-.12v0a12.88,12.88,0,0,1-.22-2.84,12.59,12.59,0,0,1,.42-2.82,4,4,0,0,1,1-2.11,3.33,3.33,0,0,1,2.17-.33,12.88,12.88,0,0,1,2.36.31,11.93,11.93,0,0,1,4.47,2,2.8,2.8,0,0,0,2.38.92c.43-.12.82-.33,1.24-.49a6.92,6.92,0,0,1,1.19-.31,34.06,34.06,0,0,1,5.4-.26h5.74a12.46,12.46,0,0,1,2.56.14,13.3,13.3,0,0,1,2.31,1,1.59,1.59,0,0,0,2.15-.49,4,4,0,0,1,1.39-1.73,8.81,8.81,0,0,1,2.4-.66q1.39-.24,2.68-.35h1.47a2.8,2.8,0,0,1,1.08,0c.67.28.56,1.44.6,2.08l.25,3.31A14.64,14.64,0,0,1,224.31,49.31Z" transform="translate(53.48 -12.25)"/><path class="cls-22" d="M222.43,30.74a7.08,7.08,0,0,1-1.28,2.39c-.67.66-1.5.21-2.28.21s-1.65.23-2.49.31a6.38,6.38,0,0,1-2.4-.19,16,16,0,0,0-2.68-.55H208.6c-3.58,0-7.17-.09-10.75,0s-7.26.26-10.88.68l-1.39.17a2.57,2.57,0,0,1-1,0,2.34,2.34,0,0,1-1.31-1.52,8.91,8.91,0,0,1-.49-5h0V27.1h0l.12-.5.14-.12.36-.35q-.12.61-.28,1.21h0a8.46,8.46,0,0,0,0,3,5.66,5.66,0,0,0,1,2.62c.64.73,1.79.33,2.58.23l2.78-.29a191.79,191.79,0,0,1,20.21-.38,17.66,17.66,0,0,1,2.42.17c.78.12,1.54.38,2.31.55a6.37,6.37,0,0,0,2.46,0,11.21,11.21,0,0,1,2.25-.24c.4,0,.82.19,1.22.16a1.25,1.25,0,0,0,.88-.73,11.35,11.35,0,0,0,1-2.34,4.26,4.26,0,0,0,0-2.65,11.62,11.62,0,0,1-.67-2h0a.19.19,0,0,1,0-.19,4.51,4.51,0,0,0,.17-.88,5.82,5.82,0,0,0,.28.71v.21h0c.11,1,.74,1.84.86,2.86A5.69,5.69,0,0,1,222.43,30.74Z" transform="translate(53.48 -12.25)"/><path class="cls-15" d="M182.79,26.95v0Z" transform="translate(53.48 -12.25)"/><path class="cls-24" d="M191.18,35.24c-.51-.68-1.6-.61-2.31-.78a22.26,22.26,0,0,1-2.38-.78,27.83,27.83,0,0,0-2.78-1,7,7,0,0,0-1.39-.29,5.52,5.52,0,0,1-1.08.24h-.11a.64.64,0,0,0-.36.73,4.71,4.71,0,0,1-.07,1.18,2.2,2.2,0,0,0,.21,1.25,3.51,3.51,0,0,0,2,1.28,11.83,11.83,0,0,0,2.5.69,7.82,7.82,0,0,0,2.57.1,24.49,24.49,0,0,0,2.31-1,1.61,1.61,0,0,0,1-.45A1.09,1.09,0,0,0,191.18,35.24Z" transform="translate(53.48 -12.25)"/><path class="cls-24" d="M224.75,35.54c-.44,1.33-1.85,1.56-2.9,1.89a9.65,9.65,0,0,1-3.85.52,5.61,5.61,0,0,1-1.83-.52c-.26-.14-.51-.31-.78-.43a1.84,1.84,0,0,0-.94,0,.58.58,0,0,1-.53-.61c-.08-1.25,1.1-1.44,1.88-1.61s1.94-.45,2.89-.75,1.92-.66,2.88-1a3.65,3.65,0,0,1,2.78-.09.65.65,0,0,1,.39.69h0A2.63,2.63,0,0,1,224.75,35.54Z" transform="translate(53.48 -12.25)"/><path class="cls-22" d="M190.44,42.09,186,40.91c-.72-.19-1.39-.4-2.15-.54a16.27,16.27,0,0,1-2.26-.24c-.31,0-.71.16-.67.59a7,7,0,0,0,.26,1.44.54.54,0,0,0,.77.36.64.64,0,0,0,.24-.25A2,2,0,0,1,183,42l1,.17,2.06.36,4.17.75C190.82,43.41,191.11,42.28,190.44,42.09Z" transform="translate(53.48 -12.25)"/><path class="cls-22" d="M223.53,42.61c-.29,0-.6-.26-.89-.33a2.83,2.83,0,0,0-1-.1,13.85,13.85,0,0,0-2.22.35l-4.42.71h0l-.1.12-.1.17a27.42,27.42,0,0,1,6.67-.83.2.2,0,0,1,.19.22.28.28,0,0,1,0,.06,2.31,2.31,0,0,1-1.56,1.26,10.65,10.65,0,0,1-2.12.45l-5.19.8a23.42,23.42,0,0,0,1.11,2.18c.17.21-.11.52-.26.31a18.73,18.73,0,0,1-1.12-2.17,2.64,2.64,0,0,0-2-1.26,29.43,29.43,0,0,0-5-.35c-1.72,0-3.43.23-5.14.28s-3.42-.1-5.13,0a2.92,2.92,0,0,0-2.19,1,6.79,6.79,0,0,0-.44.62h0a.22.22,0,0,1-.15.19,13,13,0,0,0-.74,1.44.17.17,0,0,1-.26.1.27.27,0,0,1-.08-.32,12.93,12.93,0,0,1,.86-1.73,3.47,3.47,0,0,1,.14-.54h-.07a16.66,16.66,0,0,1-4.65-.88c-.76-.21-1.53-.31-2.29-.49a1.68,1.68,0,0,1-.81-.42,1.51,1.51,0,0,1-.74-.76h0c-.21-.12,0-.47.15-.4,1.57.17,3.15.28,4.71.54a5.9,5.9,0,0,1,2.06.69,10.26,10.26,0,0,1,1.69,1.35h0a4.24,4.24,0,0,1,3.82-2.18c2.18-.12,4.39,0,6.58,0h6.4a5.31,5.31,0,0,1,2.39.66c.6.36,1.78,2,2.4,1,.36-.61.31-1.46.94-1.84a3.47,3.47,0,0,1,.86-.33c1.39-.55,2.68-1.13,4.07-1.56a13.38,13.38,0,0,1,2-.45,4.4,4.4,0,0,0,1.06-.09,2.23,2.23,0,0,1,.83,0C224.46,40.58,224.38,42.75,223.53,42.61Z" transform="translate(53.48 -12.25)"/><path class="cls-15" d="M33.86,70.49a1.46,1.46,0,0,0,1.57,1.14,2.86,2.86,0,0,0,1,.62A1.34,1.34,0,0,0,37.58,72l-.18-.31q-1-2.36-2.22-4.57A3.3,3.3,0,0,0,33.86,70.49Z" transform="translate(53.48 -12.25)"/><path class="cls-25" d="M-22.69,71.77a5.32,5.32,0,0,0,3.94,2.15,27.41,27.41,0,0,0,10.64,0,.68.68,0,0,0,.54-.68c3.26.43,6.6.5,9.88.61,12.75.36,25.61-.66,38.31,1l.75.36a23.41,23.41,0,0,0,5.38,1.63,4.15,4.15,0,0,0,2.93-.42.72.72,0,0,0,.33-.24,3.14,3.14,0,0,0,.6-.69,1.15,1.15,0,0,0,0-1.33,87.09,87.09,0,0,0-8.9-9.2,38.13,38.13,0,0,0-9.63-7.35A40.66,40.66,0,0,0,22.22,55a65.5,65.5,0,0,0-30.36,2.1,65.44,65.44,0,0,0-9.57,3.78c-2.43,1.3-5.21,3-5.69,6.6A6.63,6.63,0,0,0-22.69,71.77ZM16,60c.49-.83,1.87-.71,2.58-.71a14,14,0,0,1,3,.36,40.33,40.33,0,0,1,5.28,1.59,17,17,0,0,1,8,5.42l.33.47q1.2,2.22,2.22,4.57l.18.31a6.55,6.55,0,0,0,.42.64C33.65,72.2,29.33,72,25,72H19.1a13.07,13.07,0,0,0-1.46-5.91c-.43-1-.9-1.94-1.28-3S15.5,60.77,16,60Zm-29.81,5.82c.53-1.73,2.65-2.48,3.9-3.08a41.71,41.71,0,0,1,5-2,38.44,38.44,0,0,1,10.4-2H8.22a8.64,8.64,0,0,1,1.39,0,.81.81,0,0,1,.71.76q.4,1.77.64,3.59l.61,3.47c.22,1.21.43,2.44.65,3.66A2.88,2.88,0,0,0,13.07,72H2.69a86.46,86.46,0,0,1-10.85-.71A8.79,8.79,0,0,1-11.92,70,3.94,3.94,0,0,1-13.83,65.79Z" transform="translate(53.48 -12.25)"/><path class="cls-17" d="M-24.47,83.27a12.68,12.68,0,0,1,4.68-.52,13.42,13.42,0,0,1,4.67,1,10.41,10.41,0,0,1,5.13,5,11.8,11.8,0,0,1,1,3.34,5.58,5.58,0,0,1,1.13,1.73l.54,1.61a8.44,8.44,0,0,1,0,3.6c-.4,3.71-2.47,6.93-4.4,9.67a14.82,14.82,0,0,1-7.47,6,11,11,0,0,1-10-2A14,14,0,0,1-33.19,108a17.74,17.74,0,0,1-1.39-6.72C-35,93.32-30.74,85.14-24.47,83.27Z" transform="translate(53.48 -12.25)"/><path class="cls-17" d="M62.86,96a6.84,6.84,0,0,1,1.39-3,12.93,12.93,0,0,1,5.43-7.59,11.07,11.07,0,0,1,6.51-1.73A14.13,14.13,0,0,1,82.81,86c4,2,6.16,7.39,5.08,12.58a17.72,17.72,0,0,1,.11,2.36,17.41,17.41,0,0,1-1.12,5.8,13,13,0,0,1-4.17,5.67,10.62,10.62,0,0,1-12.6.33,10.92,10.92,0,0,1-2.06-2.06,15.29,15.29,0,0,1-5-8A16.32,16.32,0,0,1,62.86,96Z" transform="translate(53.48 -12.25)"/><path class="cls-15" d="M-30.56,102.23a10.3,10.3,0,0,0,2.49,5.87,10,10,0,0,0,4.54,3.85,7.11,7.11,0,0,0,5.13-.81c3.45-2.19,5.5-6.76,5.21-11.57A10.2,10.2,0,0,0-15,93.69a12.26,12.26,0,0,0-4.17-3.22.33.33,0,0,0-.19-.23,9.07,9.07,0,0,0-6.63.69,8.66,8.66,0,0,0-3.72,4.94A18.2,18.2,0,0,0-30.56,102.23Zm5.82-11a30.57,30.57,0,0,1,.61,3.27c.19,1,.43,2.08.69,3.1A3.63,3.63,0,0,0-24,98.9a28.2,28.2,0,0,0-4.89-3.57l.14-.29a7,7,0,0,1,4-3.85ZM-15,94.78c-1.51,1.33-3.29,2-4.76,3.36a2.49,2.49,0,0,0-1.39-1.42,1.49,1.49,0,0,0,.25-.45c.61-1.63,1.08-3.38,1.6-5.06a11.17,11.17,0,0,1,4.17,3.33Zm-.61,12.13a16.18,16.18,0,0,1-2.68-2.75c-.69-.9-1.21-2-1.89-2.89l.22-.35a20.84,20.84,0,0,0,6.1.29h0a16.3,16.3,0,0,1-1.6,6,.42.42,0,0,0-.08-.19Zm-9.4,3.47v-.1a70.43,70.43,0,0,1,3.5-7.8.5.5,0,0,0,0-.12h0c.68,2.86.83,5.84,2,8.47l-.29.1a5.38,5.38,0,0,1-5-.35ZM-30,101q3.07-.19,6.14-.12a2.62,2.62,0,0,0,.53.87h0a22,22,0,0,0-2.24,2.63c-.79,1-1.82,1.46-2.62,2.37l-.19-.28a9.52,9.52,0,0,1-1.39-3A9.52,9.52,0,0,1-30,101Z" transform="translate(53.48 -12.25)"/><path class="cls-18" d="M-53.47,93.86a10.05,10.05,0,0,0,3.18,7.81,12.21,12.21,0,0,0,6.54,2.41c1.39.19,2.78.31,4.17.45a8.25,8.25,0,0,0,4.17,0c2.42-1.06,2.11-4.7,2.68-7.21,1.18-5.27,4.5-9.36,8.74-10.76,4-1,8.16,1,10.67,5s1.65,10,4.51,13.77c1.86,2.44,4.63,2.06,7.1,2.08H63.35a1.41,1.41,0,0,0,1.21-1.55,1.88,1.88,0,0,0,0-.36,18.22,18.22,0,0,1,1-11.23c2.94-6.31,9.16-9,14.57-6.19,5.22,2.87,8.05,10,6.74,16.91a1.8,1.8,0,0,0,0,2.16,1.08,1.08,0,0,0,1.15.44l4.57-1.73A5.88,5.88,0,0,0,95.62,104c.94-1.33.44-2.7.42-4.26a13.73,13.73,0,0,1,.75-4.12,16.66,16.66,0,0,0,1-7.76,10.22,10.22,0,0,0-3.46-5.75,23.58,23.58,0,0,0-5.75-3.47,64.47,64.47,0,0,0-7.22-3,71.34,71.34,0,0,0-28.56-4h0A110.49,110.49,0,0,0,33.6,58a39,39,0,0,0-9.43-3.47,57.16,57.16,0,0,0-10.83-1.14c-3.67-.1-7.33-.14-11-.17s-7.26-.26-10.88,0-6.75,2.29-10,4L-28.79,62.5c-6.33,3.1-12.89,6.9-19.89,6.57a1.17,1.17,0,0,0-1,.75,11.4,11.4,0,0,0-.75,4.82,37.7,37.7,0,0,1,.11,5,24.52,24.52,0,0,1-1.07,4.68A32.6,32.6,0,0,0-53.47,93.86Zm31.75-29.09a10.91,10.91,0,0,1,2.78-1.82c1.14-.61,2.29-1.21,3.44-1.73a55.31,55.31,0,0,1,7.21-3.08,61.66,61.66,0,0,1,15.51-2.5,66.8,66.8,0,0,1,15.39,0,31,31,0,0,1,13.08,5.68A82.52,82.52,0,0,1,46.81,71.51l2.71,2.75a.92.92,0,0,1,.17.23A1.09,1.09,0,0,1,49,76.22c-5.29-.92-10.6-2-15.93-2.5s-10.74-.4-16.1-.47C6.07,73.12-4.79,73-15.67,73c-2.18,0-4.76.17-6.38-2a4.81,4.81,0,0,1-.05-5.76A3.62,3.62,0,0,1-21.72,64.77Z" transform="translate(53.48 -12.25)"/><path class="cls-15" d="M67.58,99.2v1.07a13.8,13.8,0,0,0,.57,3.93,16.11,16.11,0,0,0,.67,1.73h0a.45.45,0,0,0,0,.54.26.26,0,0,0,.32.05l.58,1.14a8.77,8.77,0,0,0,1.76,2.65,6.47,6.47,0,0,0,2.78,1.33,8.11,8.11,0,0,0,3.79,0h0c.12.36.5.17.54-.16a8,8,0,0,0,1-.38,8.22,8.22,0,0,0,2.94-2.2c.26.16.57-.23.4-.52a14.67,14.67,0,0,0,.9-1.39,12.34,12.34,0,0,0,1.49-3.47,10.17,10.17,0,0,0,.19-2.56h0c.39,0,.39-.73,0-.75h-.08v-.49a17.4,17.4,0,0,0-.76-4.12.45.45,0,0,0,.06-.53.28.28,0,0,0-.31-.14,9.3,9.3,0,0,0-1.11-2,7.48,7.48,0,0,0-2.33-2,5.37,5.37,0,0,0-5.47-1.09.27.27,0,0,0-.43.05l0,.09a15.26,15.26,0,0,0-5.65,3.78A.31.31,0,0,0,69,94a.47.47,0,0,0,0,.12,5.42,5.42,0,0,0-1.24,2.3,10.37,10.37,0,0,0-.22,2.41A.48.48,0,0,0,67.58,99.2Zm8.11-2.11a2.46,2.46,0,0,0-1.18.87,6.42,6.42,0,0,0-1.92-1.73L69.89,94.1c.32-.31.65-.61,1-.88A14.37,14.37,0,0,1,75,90.72Q75.32,93.88,75.69,97.08Zm3,4.42a2.74,2.74,0,0,0,.17-.4,2.89,2.89,0,0,0,.1-.43,37.48,37.48,0,0,0,5.9.23V102a11.23,11.23,0,0,1-2.37,5.8c-.57-.87-.92-2-1.51-2.84a14.46,14.46,0,0,1-2.12-3.27.36.36,0,0,0-.08-.19Zm-.25-3.33a2,2,0,0,0-.5-.81c.25-.68.51-1.35.75-2q.7-2.06,1.24-4.21a7.3,7.3,0,0,1,3.5,3.24,9.88,9.88,0,0,1,.42.92A34.44,34.44,0,0,1,78.47,98.17ZM72.75,110.3c.64-1.14,1.24-2.32,1.79-3.47a9.72,9.72,0,0,1,1.86-3.47.39.39,0,0,0,.14-.33H77a20.49,20.49,0,0,0,.86,8,7.55,7.55,0,0,1-4.54-.36,5.29,5.29,0,0,1-.53-.45Zm-4.6-10.83a25,25,0,0,0,5.83,1h0a3.85,3.85,0,0,0,.43,1.46h0a23.29,23.29,0,0,1-2.9,2.1,18,18,0,0,0-2.32,1.37,11.67,11.67,0,0,1-1-3.14,20.52,20.52,0,0,1,0-2.77Z" transform="translate(53.48 -12.25)"/><path class="cls-20" d="M-3,99.87a3.35,3.35,0,0,0,2.39,2.29,16.59,16.59,0,0,0,4,.21H8.06c12.1.1,24.21.19,36.31.17H58.07a6.27,6.27,0,0,0,3.36-.69,5.39,5.39,0,0,0,2-3.1A34.63,34.63,0,0,1,65,94.52a22.06,22.06,0,0,1,4.92-6.77c.72-.68.1-2.15-.62-1.73a.63.63,0,0,0-.36-.1H43.29c-2.78,0-5.44,0-8.17.12-2.29.09-4.9,0-6.94,1.56A1.11,1.11,0,0,0,28,88.91a.75.75,0,0,0,.57.41H33c6-.1,12-.14,18.06.12a37.53,37.53,0,0,1,4.36.26c.94.1,3.13,1.07,2,2.67a6,6,0,0,1-3.64,1.85c-1.46.36-2.93.68-4.4,1a126.68,126.68,0,0,1-35.1,1c-2.92-.26-5.85-.68-8.76-.81a23.23,23.23,0,0,0-4.26.16,6.22,6.22,0,0,0-3.58,1.16A3.15,3.15,0,0,0-3,99.87Z" transform="translate(53.48 -12.25)"/><path class="cls-15" d="M39.17,70.59A7.16,7.16,0,0,1,40,67.7a2.46,2.46,0,0,1,2.22-1.28,3.24,3.24,0,0,1,2.49,1.44,7.76,7.76,0,0,1,.51,1.73q.24.8.4,1.63c.12.19.25.21.44.33a1.73,1.73,0,0,1,.57,2c-.51,1.32-1.49.92-2.28.23h-.12a.56.56,0,0,1-.39,0,2,2,0,0,1-.29.26,3.19,3.19,0,0,1-2.39.38,2.08,2.08,0,0,1-2-1.35A5.75,5.75,0,0,1,39.17,70.59Z" transform="translate(53.48 -12.25)"/><path class="cls-22" d="M-50.47,74.66a37.7,37.7,0,0,1,.11,5v.12a1.16,1.16,0,0,0,.26.35c1.39,1.23,3.42-1.21,4.46-2.17a8.5,8.5,0,0,0,2.15-2.13A1.78,1.78,0,0,0-44,73.7l0,0a7.78,7.78,0,0,0-2.68-.81l-2.86-.75a.71.71,0,0,0-.83.47h0A14.69,14.69,0,0,0-50.47,74.66Z" transform="translate(53.48 -12.25)"/><path class="cls-21" d="M-50.47,74.66a37.7,37.7,0,0,1,.11,5v.12a1.16,1.16,0,0,0,.26.35c1.39,1.23,3.42-1.21,4.46-2.17a8.5,8.5,0,0,0,2.15-2.13A1.78,1.78,0,0,0-44,73.7l0,0a7.78,7.78,0,0,0-2.68-.81l-2.86-.75a.71.71,0,0,0-.83.47h0A14.69,14.69,0,0,0-50.47,74.66Z" transform="translate(53.48 -12.25)"/><path class="cls-20" d="M-53,89.65a5.52,5.52,0,0,0,2.4,4.4c2.11,1.21,4.69.47,6.94.81,1.12.17,2.17.78,3.29,1a3.45,3.45,0,0,0,3.28-1c1.67-1.59,2.78-4,4.38-5.75a6.59,6.59,0,0,1,5.56-2.81,1.38,1.38,0,0,0,1.21-1.51h0a1.6,1.6,0,0,0-.33-1,1.33,1.33,0,0,0-1.17-1.14A18.09,18.09,0,0,1-34.35,81c-1.49-.83-2.64-2.34-4-3.17h.19c2.24,0,4.43.54,6.65.66,4.29.24,8.63,0,12.93,0a2.63,2.63,0,0,0,.29,1.42c.53,1,1.6,1.18,2.43,1.49l.33.12a14.56,14.56,0,0,0-2.36.24c-1.26.23-1,2.5,0,2.89a9.29,9.29,0,0,1,2,1.14,4.84,4.84,0,0,0,3.65,3.64,6.53,6.53,0,0,0,.56,1.13,2.15,2.15,0,0,0,2,1.06h.17a1,1,0,0,0,.54,0A18.32,18.32,0,0,0-5.68,90l.57-.35c2.28-.33,4.56-.88,6.85-1.13a67.37,67.37,0,0,1,12.5.28,83,83,0,0,0,12.4,0c8.22-.61,16.36-1.73,24.58-.4a51.15,51.15,0,0,1,6,1.32,16.59,16.59,0,0,0,6,1.06,12.55,12.55,0,0,0,5.22-2.22,12.8,12.8,0,0,1,5.28-2.13,17.4,17.4,0,0,1,3.35,0l3.74.62a26.6,26.6,0,0,1,3.28,1.06c2.44,1,5.11,2.65,5.75,6,.36,1.89,2.69,1.07,2.32-.8a2.32,2.32,0,0,0-.11-.52H93.4c1.28,0,1.53-2,.61-2.81a26.94,26.94,0,0,0-5.92-4.18,24.71,24.71,0,0,0-6.53-1.73L80.75,84l-.61-.12c-1-.19-2-.36-3-.47l-9.72-1.59-6.35-1a7,7,0,0,0-2.87,0A12.66,12.66,0,0,0,56,82.11c-.68.33-1.72-.78-2.37-1a7.41,7.41,0,0,0-2.67-.45H44.79L32,80.76A60.48,60.48,0,0,1,19.51,80a96.82,96.82,0,0,0-12-2.51,92.84,92.84,0,0,0-12,.54,37.46,37.46,0,0,1-5.78,0,19,19,0,0,1-3-.52c-.86-.23-1.69-.64-2.57-.83a2.77,2.77,0,0,0-1,0h-7.61c-2.43,0-4.86.12-7.28,0s-4.58-.76-6.94-.62H-39a.57.57,0,0,0-.42-.1,44.31,44.31,0,0,0-6.57.21,6.15,6.15,0,0,0-4.17,3.57,15.35,15.35,0,0,0-1,3.24q-.21.85-.35,1.73A41.2,41.2,0,0,0-53,89.65Z" transform="translate(53.48 -12.25)"/><path class="cls-24" d="M88,84.16a36.47,36.47,0,0,0,4.32,3.12,8.85,8.85,0,0,1,2.11,2.46c.39.62.89,1.47,1.61,1.4,1.79-.14,1.12-3,.93-4.28a18.68,18.68,0,0,1-.1-2.17,1.9,1.9,0,0,0-.24-1A6.23,6.23,0,0,0,94.78,82l-.07-.1a.7.7,0,0,0-1.14,0,1.15,1.15,0,0,0-.25.8,1.28,1.28,0,0,0,.4.88,2,2,0,0,0,.39.28c.08,0,.85.42.46.28a9.87,9.87,0,0,1-1.49-.92,3,3,0,0,0-1.39-.36,11.69,11.69,0,0,0-3.58.69.41.41,0,0,0-.2.48A.39.39,0,0,0,88,84.16Z" transform="translate(53.48 -12.25)"/><path class="cls-26" d="M83.25,96.93c36.42-1.51,113.14-8.23,119.29,86.35l-9.39-4.19M209,174.41l-6.5,8.89" transform="translate(53.48 -12.25)"/><path class="cls-26" d="M205.46,44.22c0,20.36-73.78,34-97.44,30.06l3.18-6.83m3.18,18L108,74.26" transform="translate(53.48 -12.25)"/><path class="cls-26" d="M166.87,74.14,164,80.57c36.88-.54,72.22,33.42,82.72,63M170.24,90.48l-6.71-9.75" transform="translate(53.48 -12.25)"/><text class="cls-27" transform="translate(251.27 27.74) scale(0.8 1)">1</text><text class="cls-27" transform="translate(336.71 105.31) scale(0.8 1)">2</text><text class="cls-27" transform="translate(104.28 77.16) scale(0.8 1)">3</text></g></g></g></svg>