<svg id="Layer_1" data-name="Layer 1" xmlns="http://www.w3.org/2000/svg" xmlns:xlink="http://www.w3.org/1999/xlink" viewBox="0 0 501.04 372.83"><defs><style>.cls-1,.cls-10,.cls-11,.cls-12,.cls-13,.cls-5,.cls-6,.cls-7,.cls-8,.cls-9{fill:none;}.cls-2{clip-path:url(#clip-path);}.cls-3,.cls-31{fill:#17562a;}.cls-4{fill:#4c4c4c;}.cls-10,.cls-11,.cls-12,.cls-5,.cls-6,.cls-7,.cls-8,.cls-9{stroke:#efd330;}.cls-10,.cls-11,.cls-12,.cls-13,.cls-31,.cls-5,.cls-6,.cls-7,.cls-8,.cls-9{stroke-miterlimit:10;}.cls-5{stroke-width:4.21px;}.cls-6{stroke-width:3.78px;}.cls-7{stroke-width:3.36px;}.cls-8{stroke-width:2.94px;}.cls-9{stroke-width:2.52px;}.cls-10{stroke-width:2.1px;}.cls-11{stroke-width:1.68px;}.cls-12,.cls-31{stroke-width:1.26px;}.cls-13{stroke:#f7f7f7;stroke-width:1.55px;}.cls-14,.cls-15{fill:#c6c6c6;}.cls-15{opacity:0.69;}.cls-15,.cls-22,.cls-23,.cls-24,.cls-25,.cls-26,.cls-27,.cls-28,.cls-29,.cls-30{isolation:isolate;}.cls-16{fill:#262626;}.cls-17,.cls-23,.cls-24,.cls-25,.cls-26,.cls-27,.cls-28,.cls-29,.cls-30{fill:#f7f7f7;}.cls-18{fill:#ededed;}.cls-19{fill:#d8d8d8;}.cls-20{fill:#9b3d3d;}.cls-21{fill:#c1c1c1;}.cls-23,.cls-24,.cls-25{font-size:14.6px;}.cls-23,.cls-24,.cls-25,.cls-26,.cls-27,.cls-28,.cls-29,.cls-30{font-family:MyriadPro-Regular, Myriad Pro;}.cls-23{letter-spacing:-0.01em;}.cls-25{letter-spacing:0.01em;}.cls-26,.cls-27{font-size:15.95px;}.cls-26{letter-spacing:0.01em;}.cls-28,.cls-29,.cls-30{font-size:18px;}.cls-28{letter-spacing:-0.01em;}.cls-30{letter-spacing:0.01em;}.cls-31{stroke:#fff;}</style><clipPath id="clip-path" transform="translate(101.04 -27.17)"><rect class="cls-1" y="-101" width="400" height="501"/></clipPath></defs><title>q6</title><g id="Layer_2" data-name="Layer 2"><g id="Layer_1-2" data-name="Layer 1-2"><g class="cls-2"><polygon class="cls-3" points="501.04 0 501.04 333.53 495.06 319.28 494.73 318.5 360.74 0 501.04 0"/><polygon class="cls-3" points="242.07 0 227.61 34.18 203.38 91.52 101.04 333.53 101.04 0 242.07 0"/><polygon class="cls-4" points="501.04 91.52 400.11 91.52 494.73 318.5 495.06 319.28 499.03 328.85 499.61 330.23 501.04 333.67 501.04 372.76 101.04 372.76 101.04 333.62 203.41 91.52 101.04 91.52 101.04 34.18 227.66 34.18 242.07 0.07 278.57 0.07 278.59 0 361.96 0 376.21 34.18 501.04 34.18 501.04 91.52"/><polygon class="cls-4" points="501.04 372.76 501.04 372.83 212.95 372.83 212.96 372.76 501.04 372.76"/><line class="cls-5" x1="296.48" y1="365.7" x2="296.48" y2="326.14"/><line class="cls-6" x1="296.48" y1="305.84" x2="296.48" y2="262.69"/><line class="cls-7" x1="296.48" y1="234.7" x2="296.48" y2="202.92"/><line class="cls-8" x1="296.48" y1="181.16" x2="296.48" y2="160.81"/><line class="cls-9" x1="296.48" y1="134.17" x2="296.48" y2="119.87"/><line class="cls-10" x1="296.48" y1="98.41" x2="296.48" y2="84.2"/><line class="cls-11" x1="296.48" y1="58.62" x2="296.48" y2="46.22"/><line class="cls-12" x1="296.48" y1="18.46" x2="296.48" y2="9.32"/><path class="cls-13" d="M223.25,135.06c-4.37-7.39-48.21-5.22-55.65,0" transform="translate(101.04 -27.17)"/><polygon class="cls-4" points="501.04 333.62 501.04 333.67 499.61 330.23 501.04 333.62"/><path class="cls-14" d="M-13.71,70.11a1.46,1.46,0,0,0,1.56,1.11,2.86,2.86,0,0,0,1,.63A1.34,1.34,0,0,0-10,71.6l-.18-.31q-1-2.36-2.22-4.59A3.33,3.33,0,0,0-13.71,70.11Z" transform="translate(101.04 -27.17)"/><path class="cls-15" d="M-70.26,71.39a5.31,5.31,0,0,0,3.94,2.16,27.31,27.31,0,0,0,10.64,0,.69.69,0,0,0,.54-.68,98.71,98.71,0,0,0,9.88.61c12.75.37,25.61-.66,38.31,1l.75.37A23.34,23.34,0,0,0-.83,76.45,4.14,4.14,0,0,0,2.1,76a.72.72,0,0,0,.33-.24,3.15,3.15,0,0,0,.6-.7,1.16,1.16,0,0,0,0-1.34,87.28,87.28,0,0,0-8.9-9.24,38.15,38.15,0,0,0-9.63-7.38,40.53,40.53,0,0,0-9.85-2.63,65.25,65.25,0,0,0-30.36,2.1,65.29,65.29,0,0,0-9.57,3.79c-2.44,1.22-5.17,3-5.68,6.61A6.69,6.69,0,0,0-70.26,71.39ZM-31.6,59.55c.49-.84,1.87-.71,2.58-.71a13.94,13.94,0,0,1,3,.38,40.21,40.21,0,0,1,5.28,1.6,17,17,0,0,1,8,5.44l.33.47q1.2,2.22,2.22,4.59l.18.31a6.58,6.58,0,0,0,.42.64c-4.32-.43-8.64-.61-13-.64h-5.9a13.16,13.16,0,0,0-1.46-5.93c-.43-1-.9-1.95-1.28-3S-32.07,60.35-31.6,59.55ZM-61.4,65.39c.53-1.74,2.65-2.49,3.9-3.1a41.62,41.62,0,0,1,5-2.05,38.29,38.29,0,0,1,10.4-2h2.78a8.61,8.61,0,0,1,1.39,0,.81.81,0,0,1,.71.77q.4,1.78.64,3.6L-36,66.1c.22,1.22.43,2.45.65,3.67a2.89,2.89,0,0,0,.85,1.83H-44.88a86.12,86.12,0,0,1-10.85-.71,8.76,8.76,0,0,1-3.76-1.22A4,4,0,0,1-61.4,65.39Z" transform="translate(101.04 -27.17)"/><path class="cls-16" d="M-72,82.94a12.63,12.63,0,0,1,4.68-.52,13.38,13.38,0,0,1,4.67,1,10.43,10.43,0,0,1,5.13,5,11.88,11.88,0,0,1,1,3.36,5.6,5.6,0,0,1,1.13,1.74l.54,1.62a8.51,8.51,0,0,1,0,3.62c-.4,3.72-2.47,7-4.4,9.71a14.83,14.83,0,0,1-7.47,6,11,11,0,0,1-10-2,14,14,0,0,1-3.94-4.82A17.87,17.87,0,0,1-82.17,101C-82.56,93.07-78.31,84.82-72,82.94Z" transform="translate(101.04 -27.17)"/><path class="cls-16" d="M15.29,95.68a6.88,6.88,0,0,1,1.39-3A13,13,0,0,1,22.11,85a11,11,0,0,1,6.51-1.74,14.1,14.1,0,0,1,6.61,2.37c4,2,6.16,7.42,5.08,12.63a17.87,17.87,0,0,1,.11,2.37,17.54,17.54,0,0,1-1.12,5.83,13.07,13.07,0,0,1-4.17,5.69,10.57,10.57,0,0,1-14.69-1.62,15.38,15.38,0,0,1-4.94-8A16.44,16.44,0,0,1,15.29,95.68Z" transform="translate(101.04 -27.17)"/><path class="cls-14" d="M-78.12,102a10.36,10.36,0,0,0,2.49,5.9,10,10,0,0,0,4.54,3.86,7.09,7.09,0,0,0,5.13-.82c3.45-2.2,5.5-6.79,5.21-11.62a10.27,10.27,0,0,0-1.76-5.9,12.27,12.27,0,0,0-4.17-3.24.33.33,0,0,0-.19-.23,9,9,0,0,0-6.63.7,8.65,8.65,0,0,0-3.76,4.94A18.37,18.37,0,0,0-78.12,102Zm5.82-11.08a30.81,30.81,0,0,1,.61,3.29c.19,1,.43,2.09.69,3.11a3.65,3.65,0,0,0-.53,1.34,28.21,28.21,0,0,0-4.89-3.58l.14-.3a7,7,0,0,1,4-3.88Zm9.72,3.6c-1.51,1.34-3.29,2-4.76,3.37a2.49,2.49,0,0,0-1.39-1.43,1.5,1.5,0,0,0,.25-.45c.61-1.64,1.08-3.39,1.6-5.08a11.17,11.17,0,0,1,4.17,3.34Zm-.61,12.18a16.21,16.21,0,0,1-2.68-2.77c-.69-.9-1.21-2-1.89-2.91l.22-.35a20.76,20.76,0,0,0,6.1.3h0a16.32,16.32,0,0,1-1.65,5.85l0-.05Zm-9.4,3.48V110a70.85,70.85,0,0,1,3.5-7.83.5.5,0,0,0,0-.12h0c.68,2.87.83,5.86,2,8.51l-.29.1a5.36,5.36,0,0,1-5-.35Zm-4.93-9.36q3.07-.19,6.14-.12a2.63,2.63,0,0,0,.53.87h0a22,22,0,0,0-2.31,2.73c-.79,1-1.82,1.46-2.62,2.38l-.19-.28a9.58,9.58,0,0,1-1.39-3A9.6,9.6,0,0,1-77.53,100.79Z" transform="translate(101.04 -27.17)"/><path class="cls-17" d="M-101,93.57a10.11,10.11,0,0,0,3.18,7.85,12.18,12.18,0,0,0,6.54,2.42c1.39.19,2.78.31,4.17.45a8.22,8.22,0,0,0,4.17,0c2.42-1.06,2.11-4.71,2.68-7.24,1.18-5.29,4.5-9.4,8.74-10.8,4.05-1.06,8.24.86,10.78,5s1.65,10.05,4.51,13.83c1.86,2.45,4.63,2.07,7.1,2.09h65A1.41,1.41,0,0,0,17,105.57a1.9,1.9,0,0,0,0-.36,18.36,18.36,0,0,1,1-11.27c2.9-6.44,9.18-9.17,14.64-6.37,5.22,2.89,8.05,10,6.74,17a1.81,1.81,0,0,0,0,2.16,1.08,1.08,0,0,0,1.15.45L45,105.42a5.87,5.87,0,0,0,3.13-1.9c.94-1.34.44-2.71.42-4.28a13.83,13.83,0,0,1,.75-4.14,16.79,16.79,0,0,0,1-7.79,10.27,10.27,0,0,0-3.46-5.78,23.56,23.56,0,0,0-5.75-3.48,64.32,64.32,0,0,0-7.22-3A71.08,71.08,0,0,0,5.31,71h0A110.59,110.59,0,0,0-13.89,57.27a39,39,0,0,0-9.43-3.48,56.94,56.94,0,0,0-10.83-1.15c-3.67-.1-7.33-.14-11-.17s-7.26-.26-10.88,0-6.75,2.3-10,4l-10.26,5.36c-6.32,3.31-12.88,7-19.89,6.75a1.22,1.22,0,0,0-1.13.92A11.48,11.48,0,0,0-98,74.32a38,38,0,0,1,.11,5A24.7,24.7,0,0,1-99,84,32.84,32.84,0,0,0-101,93.57Zm31.75-29.21a10.91,10.91,0,0,1,2.78-1.83c1.14-.61,2.29-1.22,3.44-1.74a55.19,55.19,0,0,1,7.21-3.1A61.43,61.43,0,0,1-40.35,55.2,66.54,66.54,0,0,1-25,55.2,30.94,30.94,0,0,1-11.88,60.9,82.65,82.65,0,0,1-.76,71.13l2.62,2.8a.93.93,0,0,1,.17.23,1.1,1.1,0,0,1-.72,1.74c-5.29-.92-10.6-2-15.93-2.51s-10.74-.4-16.1-.47c-10.86-.14-21.72-.26-32.6-.3-2.18,0-4.76.17-6.38-2a4.85,4.85,0,0,1,0-5.78A3.59,3.59,0,0,1-69.29,64.36Z" transform="translate(101.04 -27.17)"/><path class="cls-14" d="M20,98.93V100a13.9,13.9,0,0,0,.57,3.95,16.21,16.21,0,0,0,.67,1.74h0a.45.45,0,0,0,0,.54.26.26,0,0,0,.32.05l.58,1.15A8.81,8.81,0,0,0,24,110.1a6.46,6.46,0,0,0,2.78,1.34,8.08,8.08,0,0,0,3.79,0h0c.12.37.5.17.54-.16a8,8,0,0,0,1-.38,8.36,8.36,0,0,0,2.89-2.3c.26.16.57-.23.4-.52a14.73,14.73,0,0,0,.9-1.39,12.42,12.42,0,0,0,1.49-3.48,10.25,10.25,0,0,0,.19-2.57h0c.39,0,.39-.73,0-.75h-.08V99.4a17.53,17.53,0,0,0-.76-4.14.45.45,0,0,0,.06-.54.28.28,0,0,0-.31-.14,9.34,9.34,0,0,0-1.11-2.05,7.48,7.48,0,0,0-2.33-2.05,5.35,5.35,0,0,0-5.47-1.1.27.27,0,0,0-.43.05l0,.09a15.26,15.26,0,0,0-5.65,3.79.31.31,0,0,0-.37.28.48.48,0,0,0,0,.12A5.45,5.45,0,0,0,20.15,96a10.45,10.45,0,0,0-.22,2.42A.47.47,0,0,0,20,98.93Zm8.11-2.12a2.46,2.46,0,0,0-1.18.87A6.43,6.43,0,0,0,25,95.94l-2.71-2.12c.32-.31.65-.61,1-.89a14.36,14.36,0,0,1,4.17-2.51Q27.75,93.59,28.13,96.81Zm3,4.44a2.76,2.76,0,0,0,.17-.4,2.91,2.91,0,0,0,.1-.43,37.33,37.33,0,0,0,5.9.23v1.11a11.3,11.3,0,0,1-2.37,5.83c-.57-.87-.92-2-1.51-2.85a14.53,14.53,0,0,1-2.12-3.29.36.36,0,0,0-.08-.19Zm-.28-3.34a2,2,0,0,0-.5-.82c.25-.68.51-1.36.75-2.05q.7-2.07,1.24-4.23a7.31,7.31,0,0,1,3.5,3.25,9.94,9.94,0,0,1,.42.92A34.44,34.44,0,0,1,30.9,97.9Zm-5.72,12.18c.64-1.15,1.24-2.33,1.79-3.48a9.78,9.78,0,0,1,1.86-3.48.4.4,0,0,0,.14-.33h.46a20.65,20.65,0,0,0,.86,8.07,7.52,7.52,0,0,1-4.54-.37,5.39,5.39,0,0,1-.5-.45Zm-4.6-10.87a24.88,24.88,0,0,0,5.83,1h0a3.88,3.88,0,0,0,.43,1.46h0a23.29,23.29,0,0,1-2.9,2.1,18,18,0,0,0-2.32,1.37,11.75,11.75,0,0,1-1-3.15,21.8,21.8,0,0,1,0-2.78Z" transform="translate(101.04 -27.17)"/><path class="cls-18" d="M-50.57,99.61a3.36,3.36,0,0,0,2.39,2.3,16.52,16.52,0,0,0,4,.21h4.67c12.1.1,24.21.19,36.31.17H10.5a6.24,6.24,0,0,0,3.36-.7,5.41,5.41,0,0,0,2-3.11,34.86,34.86,0,0,1,1.58-4.24,22.15,22.15,0,0,1,4.92-6.8c.72-.68.1-2.16-.62-1.74a.63.63,0,0,0-.36-.1H-4.28c-2.78,0-5.44,0-8.17.12-2.29.09-4.9,0-6.94,1.57a1.12,1.12,0,0,0-.19,1.33A.75.75,0,0,0-19,89h4.46c6-.1,12-.14,18.06.12a37.38,37.38,0,0,1,4.36.26c.94.1,3.12,1.08,2,2.68a5.93,5.93,0,0,1-3.64,1.76c-1.46.37-2.93.68-4.4,1a126.18,126.18,0,0,1-35.1,1c-2.92-.26-5.85-.68-8.76-.82a23.13,23.13,0,0,0-4.26.16,6.21,6.21,0,0,0-3.58,1.17A3.17,3.17,0,0,0-50.57,99.61Z" transform="translate(101.04 -27.17)"/><path class="cls-14" d="M-8.4,70.21A7.21,7.21,0,0,1-7.6,67.3,2.46,2.46,0,0,1-5.38,66a3.23,3.23,0,0,1,2.49,1.44,7.81,7.81,0,0,1,.51,1.74q.24.8.4,1.64c.12.19.25.21.44.33a1.74,1.74,0,0,1,.57,2c-.51,1.32-1.49.92-2.28.23h-.12a.56.56,0,0,1-.39,0,2,2,0,0,1-.29.26,3.18,3.18,0,0,1-2.39.38,2.08,2.08,0,0,1-2-1.36A5.8,5.8,0,0,1-8.4,70.21Z" transform="translate(101.04 -27.17)"/><path class="cls-19" d="M-98,74.28a38,38,0,0,1,.11,5v.12a1.16,1.16,0,0,0,.26.35c1.39,1.24,3.42-1.22,4.46-2.17a8.52,8.52,0,0,0,2.15-2.14,1.79,1.79,0,0,0-.49-2.13l0,0a7.76,7.76,0,0,0-2.68-.82l-2.86-.75a.71.71,0,0,0-.83.47h0A14.81,14.81,0,0,0-98,74.28Z" transform="translate(101.04 -27.17)"/><path class="cls-20" d="M-98,74.28a38,38,0,0,1,.11,5v.12a1.16,1.16,0,0,0,.26.35c1.39,1.24,3.42-1.22,4.46-2.17a8.52,8.52,0,0,0,2.15-2.14,1.79,1.79,0,0,0-.49-2.13l0,0a7.76,7.76,0,0,0-2.68-.82l-2.86-.75a.71.71,0,0,0-.83.47h0A14.81,14.81,0,0,0-98,74.28Z" transform="translate(101.04 -27.17)"/><path class="cls-18" d="M-100.53,89.35a5.56,5.56,0,0,0,2.4,4.49c2.11,1.22,4.69.47,6.94.82,1.12.17,2.17.78,3.29,1a3.44,3.44,0,0,0,3.28-1c1.67-1.6,2.78-4,4.38-5.78a6.58,6.58,0,0,1,5.56-2.82,1.39,1.39,0,0,0,1.21-1.51h0a1.61,1.61,0,0,0-.33-1A1.33,1.33,0,0,0-75,82.46a18,18,0,0,1-6.94-1.74c-1.49-.84-2.64-2.35-4-3.18h.19c2.24,0,4.43.54,6.65.66,4.29.24,8.63,0,12.93,0a2.65,2.65,0,0,0,.29,1.43c.53,1,1.6,1.18,2.43,1.5l.33.12a14.51,14.51,0,0,0-2.36.24c-1.26.23-1,2.51,0,2.91a9.28,9.28,0,0,1,2,1.15,4.85,4.85,0,0,0,3.65,3.65,6.57,6.57,0,0,0,.56,1.13,2.15,2.15,0,0,0,2,1.06h.17a1,1,0,0,0,.54,0,18.29,18.29,0,0,0,3.31-1.57l.57-.35c2.28-.33,4.56-.89,6.85-1.13a67.1,67.1,0,0,1,12.5.28,82.68,82.68,0,0,0,12.4,0c8.22-.61,16.36-1.74,24.58-.4a51,51,0,0,1,6,1.32,16.53,16.53,0,0,0,6,1.06,12.53,12.53,0,0,0,5.22-2.23,12.77,12.77,0,0,1,5.28-2.14,17.34,17.34,0,0,1,3.35,0l3.74.63a26.53,26.53,0,0,1,3.28,1.06c2.44,1,5.11,2.66,5.75,6,.36,1.9,2.69,1.08,2.32-.8a2.34,2.34,0,0,0-.11-.52h1.39c1.28,0,1.53-2,.61-2.82a26.94,26.94,0,0,0-5.92-4.19A24.63,24.63,0,0,0,34,83.88l-.82-.14-.61-.12c-1-.19-2-.37-3-.47l-9.72-1.6-6.35-1a7,7,0,0,0-2.87,0,12.65,12.65,0,0,0-2.22,1.34c-.68.33-1.72-.78-2.37-1a7.39,7.39,0,0,0-2.67-.45H-2.78l-12.78.14a60.24,60.24,0,0,1-12.5-.77,96.49,96.49,0,0,0-12-2.52,92.48,92.48,0,0,0-12,.54,37.31,37.31,0,0,1-5.78,0,18.93,18.93,0,0,1-3-.52c-.86-.23-1.69-.64-2.57-.84a2.76,2.76,0,0,0-1,0H-72c-2.43,0-4.86.12-7.28,0s-4.58-.77-6.94-.63h-.36a.57.57,0,0,0-.42-.1,44.13,44.13,0,0,0-6.57.21,6.15,6.15,0,0,0-4.17,3.58,15.46,15.46,0,0,0-1,3.25q-.21.86-.35,1.74A37,37,0,0,0-100.53,89.35Z" transform="translate(101.04 -27.17)"/><path class="cls-21" d="M40.44,83.81a36.18,36.18,0,0,0,4.35,3.06,8.88,8.88,0,0,1,2.11,2.47c.39.63.89,1.48,1.61,1.41,1.79-.14,1.12-3,.93-4.3a18.83,18.83,0,0,1-.1-2.17,1.92,1.92,0,0,0-.24-1,6.24,6.24,0,0,0-1.87-1.74l-.07-.1a.7.7,0,0,0-1.14,0,1.16,1.16,0,0,0-.25.81,1.29,1.29,0,0,0,.4.89,2,2,0,0,0,.39.28c.08,0,.85.42.46.28a9.86,9.86,0,0,1-1.49-.92,3,3,0,0,0-1.39-.37,11.65,11.65,0,0,0-3.58.7.35.35,0,0,0-.3.39A.4.4,0,0,0,40.44,83.81Z" transform="translate(101.04 -27.17)"/><path class="cls-14" d="M300.79,46.62a1.22,1.22,0,0,1-1.29,1,2.38,2.38,0,0,1-.79.52,1.15,1.15,0,0,1-1-.21l.15-.26q.85-2,1.85-3.79A2.76,2.76,0,0,1,300.79,46.62Z" transform="translate(101.04 -27.17)"/><path class="cls-15" d="M348.18,44.08c-.43-2.94-2.68-4.45-4.71-5.46a55,55,0,0,0-33.06-4.89,33.54,33.54,0,0,0-8.15,2.17,31.59,31.59,0,0,0-8,6.11,72.24,72.24,0,0,0-7.36,7.64,1,1,0,0,0,0,1.1,2.61,2.61,0,0,0,.49.57.6.6,0,0,0,.26.19,3.4,3.4,0,0,0,2.42.35,19.32,19.32,0,0,0,4.44-1.36l.63-.3c10.5-1.36,21.15-.5,31.69-.8a60.56,60.56,0,0,0,8.17-.5.56.56,0,0,0,.44.57,22.6,22.6,0,0,0,8.81,0,4.37,4.37,0,0,0,3.28-1.74A5.52,5.52,0,0,0,348.18,44.08Zm-32.93-3.57c-.31.85-.69,1.65-1.06,2.45A10.89,10.89,0,0,0,313,47.87H308.1a105.44,105.44,0,0,0-10.74.54,5.4,5.4,0,0,0,.35-.52l.15-.26q.85-2,1.85-3.79l.28-.4a14,14,0,0,1,6.64-4.51A33.28,33.28,0,0,1,311,37.61a11.53,11.53,0,0,1,2.46-.31c.58,0,1.74-.1,2.14.59s-.08,2-.32,2.63Zm23.49,5.76a7.25,7.25,0,0,1-3.11,1c-3,.38-6,.5-9,.59s-5.72,0-8.58,0a2.4,2.4,0,0,0,.69-1.51l.54-3,.51-2.89q.2-1.5.53-3a.68.68,0,0,1,.58-.64,7.12,7.12,0,0,1,1.1,0h2.28a31.7,31.7,0,0,1,8.61,1.64,34.49,34.49,0,0,1,4.17,1.74c1,.5,2.78,1.1,3.22,2.56a3.29,3.29,0,0,1-1.56,3.53Z" transform="translate(101.04 -27.17)"/><path class="cls-16" d="M349.07,57.3a10.44,10.44,0,0,0-3.88-.42,11.07,11.07,0,0,0-3.86.87,8.66,8.66,0,0,0-4.24,4.18,9.82,9.82,0,0,0-.82,2.78,4.61,4.61,0,0,0-.93,1.41l-.46,1.34a7,7,0,0,0,0,3,17.62,17.62,0,0,0,3.64,8,12.2,12.2,0,0,0,6.26,4.91,9.11,9.11,0,0,0,8.33-1.64,11.61,11.61,0,0,0,3.25-4,14.79,14.79,0,0,0,1.15-5.58C357.76,65.63,354.26,58.8,349.07,57.3Z" transform="translate(101.04 -27.17)"/><path class="cls-16" d="M276.74,67.74a5.62,5.62,0,0,0-1.18-2.52A10.75,10.75,0,0,0,271.18,59a9.14,9.14,0,0,0-5.39-1.46,11.66,11.66,0,0,0-5.47,1.95c-3.28,1.68-5.06,6.14-4.17,10.44a14.8,14.8,0,0,0-.1,1.95,14.51,14.51,0,0,0,.93,4.82,10.8,10.8,0,0,0,3.46,4.7,8.79,8.79,0,0,0,12.17-1.34,12.67,12.67,0,0,0,4.17-6.66A13.62,13.62,0,0,0,276.74,67.74Z" transform="translate(101.04 -27.17)"/><path class="cls-14" d="M353.4,67.74a7.24,7.24,0,0,0-3.06-4.14,7.51,7.51,0,0,0-5.49-.57.27.27,0,0,0-.17.19,10.12,10.12,0,0,0-3.49,2.68,8.5,8.5,0,0,0-1.46,4.89c-.24,4,1.46,7.8,4.32,9.62a5.86,5.86,0,0,0,4.25.68,8.3,8.3,0,0,0,3.75-3.2A8.57,8.57,0,0,0,354.13,73,15.19,15.19,0,0,0,353.4,67.74Zm-.82-.7.11.24a23.33,23.33,0,0,0-4,3,3,3,0,0,0-.44-1.1c.22-.85.42-1.74.58-2.57a25.42,25.42,0,0,1,.5-2.73A5.78,5.78,0,0,1,352.58,67Zm-11.25-.42a9.33,9.33,0,0,1,3.46-2.8A44.21,44.21,0,0,0,346.18,68a1.25,1.25,0,0,0,.21.38,2,2,0,0,0-1.19,1.18c-1.21-1.17-2.69-1.74-3.93-2.8Zm.28,10.44a13.4,13.4,0,0,1-1.39-4.84h0a17.18,17.18,0,0,0,5-.24l.18.28c-.56.77-1,1.65-1.57,2.4a13.45,13.45,0,0,1-2.21,2.3ZM349.29,80a4.44,4.44,0,0,1-4.17.3l-.24-.09a39,39,0,0,0,1.67-7h0a.41.41,0,0,0,0,.1,59.25,59.25,0,0,1,2.78,6.52h0Zm4.17-5.9a7.91,7.91,0,0,1-1.15,2.52l-.15.24c-.67-.77-1.51-1.18-2.17-2a18.2,18.2,0,0,0-1.86-2.19h0a2.16,2.16,0,0,0,.44-.71q2.54,0,5.08.1a7.93,7.93,0,0,1-.17,2Z" transform="translate(101.04 -27.17)"/><path class="cls-17" d="M371.38,58.12a20.44,20.44,0,0,1-.89-3.9,31.45,31.45,0,0,1,.1-4.14,9.49,9.49,0,0,0-.61-4,1,1,0,0,0-.86-.63c-5.79.24-11.22-2.85-16.46-5.58l-8.49-4.44c-2.68-1.41-5.32-3.15-8.33-3.31s-6,0-9,0-6.07,0-9.1.16a47.17,47.17,0,0,0-9,1A32.3,32.3,0,0,0,301,36.17a91.66,91.66,0,0,0-15.89,11.46h0A58.84,58.84,0,0,0,261.46,51a62.12,62.12,0,0,0-6,2.49,19.49,19.49,0,0,0-4.75,2.87,8.49,8.49,0,0,0-2.86,4.77,13.9,13.9,0,0,0,.83,6.45,11.46,11.46,0,0,1,.61,3.48c0,1.3-.44,2.44.33,3.48a4.85,4.85,0,0,0,2.6,1.57L256,77.45a1,1,0,0,0,1.23-.88,1.46,1.46,0,0,0-.31-1.28c-1.09-5.75,1.24-11.66,5.56-14.06,4.51-2.31,9.69-.08,12.11,5.22a15.2,15.2,0,0,1,.85,9.32,1.31,1.31,0,0,0,.7,1.54.81.81,0,0,0,.26,0h53.81c2,0,4.33.31,5.88-1.74,2.36-3.11,1.69-8.07,3.74-11.45s5.56-5,8.92-4.11C352.26,61.23,355,64.63,356,69c.47,2.09.22,5.1,2.22,6a6.8,6.8,0,0,0,3.4,0c1.12-.12,2.26-.23,3.39-.38a10.08,10.08,0,0,0,5.42-2,8.37,8.37,0,0,0,2.64-6.49A27.26,27.26,0,0,0,371.38,58.12ZM347.06,47c-1.39,1.74-3.47,1.74-5.28,1.74-9,0-18,.12-27,.24-4.43,0-8.89,0-13.32.38s-8.81,1.32-13.18,2.07c-.68.12-1-1-.6-1.37a.78.78,0,0,1,.14-.19L290,47.53a68.35,68.35,0,0,1,9.24-8.45,25.61,25.61,0,0,1,10.82-4.78,55.07,55.07,0,0,1,12.74,0,50.85,50.85,0,0,1,12.83,2.09,45.72,45.72,0,0,1,6,2.57l2.85,1.48a9,9,0,0,1,2.32,1.51,4.11,4.11,0,0,1,.4,4.9l-.09.13Z" transform="translate(101.04 -27.17)"/><path class="cls-14" d="M272.89,70.09a8.63,8.63,0,0,0-.19-2,4.46,4.46,0,0,0-1-1.91.3.3,0,0,0-.23-.34h-.08a12.62,12.62,0,0,0-4.68-3.13.24.24,0,0,0-.33-.17l-.06,0a4.44,4.44,0,0,0-4.53.9,6.24,6.24,0,0,0-1.93,1.74,7.78,7.78,0,0,0-.92,1.74.25.25,0,0,0-.3.23.36.36,0,0,0,.1.33,14.51,14.51,0,0,0-.64,3.48v.4h0c-.32,0-.32.64,0,.63h0a8.48,8.48,0,0,0,.17,2.14A10.26,10.26,0,0,0,259.47,77a12.17,12.17,0,0,0,.75,1.15c-.12.24.12.56.33.43a7,7,0,0,0,2.39,1.9,6.59,6.59,0,0,0,.79.31c0,.26.35.43.46.12h0a6.69,6.69,0,0,0,3.14,0,5.35,5.35,0,0,0,2.31-1.11,7.18,7.18,0,0,0,1.53-2.19l.47-.94a.23.23,0,0,0,.34-.12.38.38,0,0,0,0-.37h0a13.39,13.39,0,0,0,.54-1.39,11.49,11.49,0,0,0,.47-3.27v-.9a.39.39,0,0,0,0-.47A.28.28,0,0,0,272.89,70.09Zm-6.22-6.73a11.88,11.88,0,0,1,3.46,2.07c.26.23.54.47.81.73l-2.24,1.74a5.4,5.4,0,0,0-1.58,1.51,2,2,0,0,0-1-.73Q266.49,66,266.67,63.36Zm-3.15,9.17a12.08,12.08,0,0,1-1.76,2.73c-.5.71-.78,1.65-1.25,2.37a9.32,9.32,0,0,1-2-4.82v-.92a30.9,30.9,0,0,0,4.89-.19,2.4,2.4,0,0,0,.08.37,2.27,2.27,0,0,0,.14.33A.25.25,0,0,0,263.51,72.52Zm-4.17-5.34a8.17,8.17,0,0,1,.35-.75,6.08,6.08,0,0,1,2.9-2.7q.44,1.77,1,3.48c.19.57.42,1.13.63,1.74a1.75,1.75,0,0,0-.42.68,28.55,28.55,0,0,1-4.47-2.45Zm8.74,12.75a6.22,6.22,0,0,1-3.75.31,17.17,17.17,0,0,0,.72-6.68h.39a.32.32,0,0,0,.11.28,8.08,8.08,0,0,1,1.54,2.87c.46,1,1,2,1.49,2.94Zm4.17-7a9.71,9.71,0,0,1-.81,2.61,14.87,14.87,0,0,0-1.92-1.13,19.27,19.27,0,0,1-2.4-1.74h0a3.22,3.22,0,0,0,.35-1.22h0a20.59,20.59,0,0,0,4.83-.8,17.13,17.13,0,0,1-.06,2.26Z" transform="translate(101.04 -27.17)"/><path class="cls-18" d="M331.29,71a2.78,2.78,0,0,1-2,1.9,13.68,13.68,0,0,1-3.31.17h-3.86c-10,0-20,.16-30.06.14H280.75a5.17,5.17,0,0,1-2.78-.57,4.47,4.47,0,0,1-1.65-2.57A28.74,28.74,0,0,0,275,66.63,18.31,18.31,0,0,0,270.93,61c-.6-.56-.08-1.74.51-1.43a.53.53,0,0,1,.29-.09H293c2.25,0,4.5,0,6.75.09,1.9,0,4.06,0,5.72,1.29a.9.9,0,0,1,.23,1.07.61.61,0,0,1-.55.39h-3.69c-5,0-9.93-.12-14.89.09a21,21,0,0,0-3.61.21c-.78.09-2.58.89-1.63,2.23a5,5,0,0,0,3,1.53c1.21.31,2.43.56,3.64.8A104.46,104.46,0,0,0,317,68c2.42-.23,4.83-.57,7.26-.68a19.15,19.15,0,0,1,3.53.12,5.14,5.14,0,0,1,3,1A2.63,2.63,0,0,1,331.29,71Z" transform="translate(101.04 -27.17)"/><path class="cls-14" d="M296.4,46.71a6,6,0,0,0-.67-2.4,2,2,0,0,0-1.83-1.06,2.68,2.68,0,0,0-2.06,1.2,6.47,6.47,0,0,0-.43,1.46q-.2.67-.33,1.36c-.1.16-.21.17-.36.28a1.45,1.45,0,0,0-.48,1.72v0c.43,1.1,1.24.77,1.89.19h.1a.46.46,0,0,0,.32,0l.25.21a2.63,2.63,0,0,0,2,.31,1.72,1.72,0,0,0,1.61-1.11A4.8,4.8,0,0,0,296.4,46.71Z" transform="translate(101.04 -27.17)"/><path class="cls-19" d="M370.58,50.08a31.45,31.45,0,0,0-.1,4.14v.1a1,1,0,0,1-.22.28c-1.19,1-2.78-1-3.69-1.74a7,7,0,0,1-1.78-1.74,1.48,1.48,0,0,1,.43-1.74,6.42,6.42,0,0,1,2.22-.68l2.37-.61a.59.59,0,0,1,.68.4h0A12.25,12.25,0,0,1,370.58,50.08Z" transform="translate(101.04 -27.17)"/><path class="cls-20" d="M370.53,48.34h0a.59.59,0,0,0-.68-.4l-2.37.61a6.42,6.42,0,0,0-2.22.68,1.48,1.48,0,0,0-.43,1.74,7,7,0,0,0,1.78,1.74c.86.8,2.5,2.82,3.69,1.74a1,1,0,0,0,.22-.28v-.1a31.45,31.45,0,0,1,.1-4.14A12.25,12.25,0,0,0,370.53,48.34Z" transform="translate(101.04 -27.17)"/><path class="cls-18" d="M372.64,62.52a4.58,4.58,0,0,1-2,3.65c-1.75,1-3.89.38-5.75.68-.93.16-1.79.66-2.78.85a2.85,2.85,0,0,1-2.78-.8c-1.39-1.32-2.35-3.31-3.62-4.78a5.45,5.45,0,0,0-4.57-2.33,1.15,1.15,0,0,1-1-1.25h0a1.33,1.33,0,0,1,.28-.84,1.09,1.09,0,0,1,1-1,15,15,0,0,0,5.74-1.48c1.22-.7,2.18-1.95,3.35-2.63h-.19c-1.86,0-3.67.45-5.56.56-3.56.19-7.14,0-10.71,0a2.19,2.19,0,0,1-.24,1.18,3.08,3.08,0,0,1-2,1.24l-.28.1a12,12,0,0,1,2,.21c1,.19.85,2.07,0,2.4a7.65,7.65,0,0,0-1.68,1,4,4,0,0,1-3,3,5.46,5.46,0,0,1-.46.94,1.78,1.78,0,0,1-1.63.89h-.14a.8.8,0,0,1-.46,0,15.12,15.12,0,0,1-2.78-1.3l-.47-.3c-1.89-.28-3.78-.73-5.67-.94a55.5,55.5,0,0,0-10.29.23,68.43,68.43,0,0,1-10.26,0c-6.81-.5-13.54-1.43-20.35-.33a44.14,44.14,0,0,0-4.93,1.1,13.68,13.68,0,0,1-5,.87A10.37,10.37,0,0,1,272,61.62a10.55,10.55,0,0,0-4.36-1.74,14.35,14.35,0,0,0-2.78,0l-3.1.52a21.88,21.88,0,0,0-2.78.87c-2,.8-4.17,2.21-4.76,5-.31,1.57-2.22.9-1.93-.66a.69.69,0,0,1,.1-.43h-1.15c-1.06,0-1.26-1.74-.5-2.33a22.3,22.3,0,0,1,4.9-3.48,20.37,20.37,0,0,1,5.4-1.43l.68-.1.5-.1c.82-.16,1.64-.3,2.47-.38l8-1.32,5.25-.85a5.79,5.79,0,0,1,2.37,0,10.47,10.47,0,0,1,1.85,1.11c.57.28,1.39-.64,2-.87A6.11,6.11,0,0,1,286.4,55h5.08l10.57.1a49.85,49.85,0,0,0,10.38-.64,79.82,79.82,0,0,1,10-2.09,76.54,76.54,0,0,1,9.9.45,30.88,30.88,0,0,0,4.78,0,15.67,15.67,0,0,0,2.53-.43c.71-.19,1.39-.54,2.12-.7a2.28,2.28,0,0,1,.79,0h6.31c2,0,4,.09,6,0s3.81-.63,5.74-.52h.25a.48.48,0,0,1,.35-.09,36.52,36.52,0,0,1,5.44.17,5.09,5.09,0,0,1,3.46,3,12.8,12.8,0,0,1,.81,2.7q.18.74.29,1.5A15.49,15.49,0,0,1,372.64,62.52Z" transform="translate(101.04 -27.17)"/><path class="cls-21" d="M256,58a30.2,30.2,0,0,1-3.57,2.59,7.37,7.37,0,0,0-1.74,2.05c-.32.52-.74,1.22-1.39,1.17-1.49-.12-.93-2.49-.76-3.48a15.58,15.58,0,0,0,.08-1.74,1.59,1.59,0,0,1,.19-.8,5.14,5.14,0,0,1,1.56-1.43h0a.58.58,0,0,1,.94.1,1,1,0,0,1,.16.53,1.07,1.07,0,0,1-.33.75,1.64,1.64,0,0,1-.32.23s-.71.33-.38.23a8.17,8.17,0,0,0,1.22-.77,2.45,2.45,0,0,1,1.17-.3,9.65,9.65,0,0,1,3,.57A.3.3,0,0,1,256,58Z" transform="translate(101.04 -27.17)"/><path class="cls-14" d="M231,71.91a1.46,1.46,0,0,0,1.57,1.15,2.86,2.86,0,0,0,1,.63,1.34,1.34,0,0,0,1.19-.24l-.18-.31q-1-2.36-2.22-4.59A3.32,3.32,0,0,0,231,71.91Z" transform="translate(101.04 -27.17)"/><path class="cls-15" d="M174.47,73.2a5.31,5.31,0,0,0,4,2.16,27.31,27.31,0,0,0,10.64,0,.69.69,0,0,0,.54-.68,98.71,98.71,0,0,0,9.88.61c12.75.37,25.61-.66,38.31,1l.75.37a23.34,23.34,0,0,0,5.37,1.64,4.14,4.14,0,0,0,2.93-.42.72.72,0,0,0,.33-.24,3.15,3.15,0,0,0,.6-.7,1.16,1.16,0,0,0,0-1.34,87.28,87.28,0,0,0-8.9-9.24A38,38,0,0,0,229.24,59a40.53,40.53,0,0,0-9.85-2.63,66.55,66.55,0,0,0-39.93,5.9c-2.44,1.22-5.17,3-5.68,6.61A6.68,6.68,0,0,0,174.47,73.2Zm38.67-11.85c.49-.84,1.88-.71,2.58-.71a13.93,13.93,0,0,1,3,.37,40.21,40.21,0,0,1,5.28,1.6,17,17,0,0,1,8,5.44l.33.47q1.2,2.22,2.22,4.59l.18.31a6.57,6.57,0,0,0,.42.64c-4.32-.43-8.64-.61-13-.64h-5.9a13.16,13.16,0,0,0-1.46-5.93c-.43-1-.9-1.95-1.28-3s-.86-2.37-.39-3.17Zm-29.81,5.83c.53-1.74,2.65-2.49,3.9-3.1a41.62,41.62,0,0,1,5-2.05,38.29,38.29,0,0,1,10.4-2h2.78a8.61,8.61,0,0,1,1.39,0,.81.81,0,0,1,.71.77q.4,1.78.64,3.6l.61,3.48c.22,1.22.43,2.45.65,3.67a2.89,2.89,0,0,0,.85,1.83H199.86A86.12,86.12,0,0,1,189,72.68a8.76,8.76,0,0,1-3.76-1.22,4,4,0,0,1-1.92-4.26Z" transform="translate(101.04 -27.17)"/><path class="cls-16" d="M172.68,84.75a12.63,12.63,0,0,1,4.68-.52,13.38,13.38,0,0,1,4.67,1,10.43,10.43,0,0,1,5.13,5,11.88,11.88,0,0,1,1,3.36,5.6,5.6,0,0,1,1.12,1.74l.54,1.62a8.51,8.51,0,0,1,0,3.62c-.4,3.72-2.47,7-4.4,9.71a14.83,14.83,0,0,1-7.47,6,11,11,0,0,1-10-2,14.07,14.07,0,0,1-3.93-4.89,17.87,17.87,0,0,1-1.39-6.75C162.18,94.89,166.42,86.63,172.68,84.75Z" transform="translate(101.04 -27.17)"/><path class="cls-16" d="M260.07,97.5a6.88,6.88,0,0,1,1.39-3,13,13,0,0,1,5.42-7.58,11,11,0,0,1,6.51-1.74A14.1,14.1,0,0,1,280,87.5c4,2,6.16,7.42,5.08,12.63a17.87,17.87,0,0,1,.11,2.37,17.54,17.54,0,0,1-1.12,5.83A13.07,13.07,0,0,1,279.9,114a10.57,10.57,0,0,1-14.69-1.62,15.36,15.36,0,0,1-5-8A16.45,16.45,0,0,1,260.07,97.5Z" transform="translate(101.04 -27.17)"/><path class="cls-14" d="M166.6,103.78a10.36,10.36,0,0,0,2.49,5.9,10,10,0,0,0,4.54,3.86,7.09,7.09,0,0,0,5.13-.82c3.46-2.2,5.52-6.79,5.22-11.64a10.27,10.27,0,0,0-1.76-5.9A12.27,12.27,0,0,0,178,92a.33.33,0,0,0-.19-.23,9,9,0,0,0-6.63.7,8.69,8.69,0,0,0-3.72,5A18.33,18.33,0,0,0,166.6,103.78Zm5.82-11.08A30.81,30.81,0,0,1,173,96c.19,1,.43,2.09.69,3.11a3.65,3.65,0,0,0-.53,1.34,28.21,28.21,0,0,0-4.89-3.58l.14-.3A7,7,0,0,1,172.42,92.7Zm9.72,3.6c-1.51,1.34-3.29,2-4.76,3.37A2.49,2.49,0,0,0,176,98.25a1.5,1.5,0,0,0,.25-.45c.61-1.64,1.08-3.39,1.6-5.08A11.17,11.17,0,0,1,182,96.06Zm-.61,12.18a16.21,16.21,0,0,1-2.68-2.77c-.69-.9-1.21-2-1.89-2.91l.22-.35a20.76,20.76,0,0,0,6.1.3h0a16.32,16.32,0,0,1-1.65,5.85l0,0Zm-9.4,3.48v-.1a71.62,71.62,0,0,1,3.35-7.88.5.5,0,0,0,0-.12h0c.68,2.87.83,5.86,2,8.51l-.29.1a5.36,5.36,0,0,1-5-.35Zm-4.92-9.43q3.07-.19,6.14-.12a2.63,2.63,0,0,0,.53.87h0a22,22,0,0,0-2.24,2.64c-.79,1-1.82,1.46-2.62,2.38l-.19-.28a8.65,8.65,0,0,1-1.61-5.5Z" transform="translate(101.04 -27.17)"/><path class="cls-17" d="M143.69,95.38a10.11,10.11,0,0,0,3.18,7.85,12.18,12.18,0,0,0,6.54,2.42c1.39.19,2.78.31,4.17.45a8.22,8.22,0,0,0,4.17,0c2.42-1.06,2.11-4.71,2.68-7.24,1.18-5.29,4.5-9.4,8.74-10.8,4.05-1.06,8.24.86,10.78,5s1.65,10.05,4.51,13.83c1.86,2.45,4.63,2.07,7.1,2.09h65a1.41,1.41,0,0,0,1.21-1.55,1.9,1.9,0,0,0,0-.36,18.36,18.36,0,0,1,1-11.27c2.9-6.44,9.18-9.17,14.64-6.37,5.22,2.89,8.05,10,6.74,17a1.81,1.81,0,0,0,0,2.16,1.08,1.08,0,0,0,1.15.45l4.57-1.74a5.87,5.87,0,0,0,3.13-1.9c.94-1.34.44-2.71.42-4.28a13.83,13.83,0,0,1,.75-4.14,16.79,16.79,0,0,0,1-7.79,10.27,10.27,0,0,0-3.46-5.78,23.56,23.56,0,0,0-5.75-3.48,64.32,64.32,0,0,0-7.22-3,71.08,71.08,0,0,0-28.56-4h0A110.59,110.59,0,0,0,230.9,59.08a39,39,0,0,0-9.43-3.48,56.94,56.94,0,0,0-10.83-1.15c-3.67-.1-7.33-.14-11-.17s-7.26-.26-10.88,0-6.75,2.3-10,4l-10.38,5.5c-6.32,3.31-12.88,7-19.89,6.75a1.17,1.17,0,0,0-1,.75,11.48,11.48,0,0,0-.75,4.84,38,38,0,0,1,.11,5,24.7,24.7,0,0,1-1.07,4.7A32.81,32.81,0,0,0,143.69,95.38Zm31.74-29.21a10.91,10.91,0,0,1,2.78-1.83c1.14-.61,2.29-1.22,3.44-1.74a55.19,55.19,0,0,1,7.21-3.1A61.43,61.43,0,0,1,204.37,57a66.54,66.54,0,0,1,15.39,0,30.94,30.94,0,0,1,13.08,5.71A82.65,82.65,0,0,1,244,72.94l2.62,2.8a.93.93,0,0,1,.17.23,1.1,1.1,0,0,1-.72,1.74c-5.29-.92-10.6-2-15.93-2.51s-10.74-.4-16.1-.47c-10.86-.14-21.72-.26-32.6-.3-2.18,0-4.76.17-6.37-2a4.85,4.85,0,0,1,0-5.78A3.59,3.59,0,0,1,175.43,66.17Z" transform="translate(101.04 -27.17)"/><path class="cls-14" d="M264.74,100.79v1.08a13.9,13.9,0,0,0,.57,3.95,16.22,16.22,0,0,0,.67,1.74h0a.45.45,0,0,0,0,.54.26.26,0,0,0,.32.05l.58,1.15a8.69,8.69,0,0,0,1.85,2.66,6.46,6.46,0,0,0,2.78,1.34,8.08,8.08,0,0,0,3.79,0h0c.12.37.5.17.54-.16a8,8,0,0,0,1-.38,8.36,8.36,0,0,0,2.89-2.3c.26.16.57-.23.4-.52a14.73,14.73,0,0,0,.9-1.39,12.42,12.42,0,0,0,1.49-3.48,10.25,10.25,0,0,0,.19-2.57h0c.39,0,.39-.73,0-.75h-.08v-.49a17.53,17.53,0,0,0-.76-4.14.45.45,0,0,0,.06-.54.28.28,0,0,0-.31-.14,9.35,9.35,0,0,0-1.11-2.05,7.48,7.48,0,0,0-2.33-2.05,5.35,5.35,0,0,0-5.47-1.1.27.27,0,0,0-.43.05l0,.09a15.26,15.26,0,0,0-5.65,3.79.31.31,0,0,0-.37.28.48.48,0,0,0,0,.12A5.45,5.45,0,0,0,265,97.89a10.45,10.45,0,0,0-.22,2.42A.48.48,0,0,0,264.74,100.79Zm8.18-2.12a2.46,2.46,0,0,0-1.18.87,6.43,6.43,0,0,0-1.92-1.74l-2.71-2.23c.32-.31.65-.61,1-.89a14.36,14.36,0,0,1,4.17-2.51q.22,3.22.67,6.44Zm3,4.44a2.76,2.76,0,0,0,.17-.4,2.9,2.9,0,0,0,.1-.43,37.33,37.33,0,0,0,5.9.23v1.11a11.3,11.3,0,0,1-2.37,5.83c-.57-.87-.92-2-1.51-2.85a14.53,14.53,0,0,1-2.12-3.29.33.33,0,0,0-.15-.24Zm-.28-3.34a2,2,0,0,0-.5-.82c.25-.68.51-1.36.75-2.05q.7-2.07,1.24-4.23a7.31,7.31,0,0,1,3.5,3.25,9.93,9.93,0,0,1,.42.92,34.29,34.29,0,0,1-5.39,2.87Zm-5.72,12.18c.64-1.15,1.24-2.33,1.79-3.48A9.78,9.78,0,0,1,273.6,105a.4.4,0,0,0,.14-.33h.44a20.65,20.65,0,0,0,.86,8.07,7.52,7.52,0,0,1-4.54-.37,5.4,5.4,0,0,1-.56-.5Zm-4.6-10.87a24.88,24.88,0,0,0,5.83,1h0a3.88,3.88,0,0,0,.43,1.46h0a23.29,23.29,0,0,1-2.9,2.1,18,18,0,0,0-2.32,1.37,11.75,11.75,0,0,1-1-3.15,20.67,20.67,0,0,1-.07-2.84Z" transform="translate(101.04 -27.17)"/><path class="cls-18" d="M194.17,101.42a3.36,3.36,0,0,0,2.39,2.3,16.52,16.52,0,0,0,4,.21h4.67c12.1.1,24.21.19,36.31.17h13.71a6.24,6.24,0,0,0,3.36-.7,5.41,5.41,0,0,0,2-3.11A34.86,34.86,0,0,1,262.17,96a22.15,22.15,0,0,1,4.92-6.8c.72-.68.1-2.16-.63-1.74a.63.63,0,0,0-.36-.1H240.43c-2.78,0-5.44,0-8.17.12-2.29.09-4.9,0-6.94,1.57a1.12,1.12,0,0,0-.19,1.33.75.75,0,0,0,.57.41h4.46c6-.1,12-.14,18.06.12a37.38,37.38,0,0,1,4.36.26c.94.1,3.13,1.08,2,2.68a6,6,0,0,1-3.64,1.86c-1.46.37-2.93.68-4.4,1a126.18,126.18,0,0,1-35.1,1c-2.92-.26-5.85-.68-8.76-.82a23.13,23.13,0,0,0-4.26.16,6.21,6.21,0,0,0-3.58,1.17A3.18,3.18,0,0,0,194.17,101.42Z" transform="translate(101.04 -27.17)"/><path class="cls-14" d="M236.33,72a7.21,7.21,0,0,1,.81-2.91,2.46,2.46,0,0,1,2.22-1.29,3.23,3.23,0,0,1,2.49,1.44,7.81,7.81,0,0,1,.51,1.74q.24.8.4,1.64c.12.19.25.21.44.33a1.74,1.74,0,0,1,.57,2c-.51,1.32-1.49.92-2.28.23h-.12a.56.56,0,0,1-.39,0,2,2,0,0,1-.29.26,3.18,3.18,0,0,1-2.39.38,2.08,2.08,0,0,1-2-1.36A5.8,5.8,0,0,1,236.33,72Z" transform="translate(101.04 -27.17)"/><path class="cls-19" d="M146.69,76.11a38,38,0,0,1,.11,5v.12a1.16,1.16,0,0,0,.26.35c1.39,1.24,3.42-1.22,4.46-2.17a8.52,8.52,0,0,0,2.15-2.14,1.79,1.79,0,0,0-.49-2.13l0,0a7.76,7.76,0,0,0-2.68-.82l-2.86-.75a.71.71,0,0,0-.83.47h0A14.8,14.8,0,0,0,146.69,76.11Z" transform="translate(101.04 -27.17)"/><path class="cls-20" d="M146.69,76.11a38,38,0,0,1,.11,5v.12a1.16,1.16,0,0,0,.26.35c1.39,1.24,3.42-1.22,4.46-2.17a8.52,8.52,0,0,0,2.15-2.14,1.79,1.79,0,0,0-.49-2.13l0,0a7.76,7.76,0,0,0-2.68-.82l-2.86-.75a.71.71,0,0,0-.83.47h0A14.8,14.8,0,0,0,146.69,76.11Z" transform="translate(101.04 -27.17)"/><path class="cls-18" d="M144.19,91.15a5.54,5.54,0,0,0,2.4,4.42c2.11,1.22,4.69.47,6.94.82,1.12.17,2.17.78,3.29,1a3.44,3.44,0,0,0,3.28-1c1.67-1.6,2.78-4,4.37-5.78A6.58,6.58,0,0,1,170,87.87a1.39,1.39,0,0,0,1.21-1.51,1.61,1.61,0,0,0-.33-1,1.33,1.33,0,0,0-1.17-1.15,18,18,0,0,1-6.94-1.74c-1.49-.84-2.64-2.35-4-3.18H159c2.24,0,4.43.54,6.65.66,4.29.24,8.63,0,12.93,0a2.65,2.65,0,0,0,.29,1.43c.53,1,1.6,1.18,2.43,1.5l.33.12a14.51,14.51,0,0,0-2.36.24c-1.26.23-1,2.51,0,2.91a9.28,9.28,0,0,1,2,1.15A4.85,4.85,0,0,0,185,90.93a6.57,6.57,0,0,0,.56,1.13,2.15,2.15,0,0,0,2,1.06h.17a1,1,0,0,0,.54,0,18.29,18.29,0,0,0,3.31-1.57l.57-.35c2.28-.33,4.56-.89,6.85-1.13a67.1,67.1,0,0,1,12.5.28,82.68,82.68,0,0,0,12.4,0c8.22-.61,16.36-1.74,24.58-.4a51,51,0,0,1,6,1.32,16.53,16.53,0,0,0,6,1.06,12.53,12.53,0,0,0,5.22-2.23A12.77,12.77,0,0,1,270.89,88a17.34,17.34,0,0,1,3.35,0l3.74.63a26.53,26.53,0,0,1,3.28,1.06c2.44,1,5.11,2.66,5.75,6,.36,1.9,2.69,1.08,2.32-.8a2.34,2.34,0,0,0-.11-.52h1.39c1.28,0,1.53-2,.61-2.82a26.94,26.94,0,0,0-5.92-4.19,24.63,24.63,0,0,0-6.53-1.74l-.82-.14-.61-.12c-1-.19-2-.37-3-.47l-9.72-1.6-6.35-1a7,7,0,0,0-2.88,0,12.65,12.65,0,0,0-2.22,1.34c-.68.33-1.72-.78-2.38-1a7.39,7.39,0,0,0-2.67-.45H242l-12.78.14a60.24,60.24,0,0,1-12.5-.77,96.49,96.49,0,0,0-12-2.52,92.48,92.48,0,0,0-12,.54,37.31,37.31,0,0,1-5.78,0,18.93,18.93,0,0,1-3-.52c-.86-.23-1.69-.64-2.57-.84a2.76,2.76,0,0,0-1,0h-7.61c-2.43,0-4.86.12-7.28,0s-4.58-.77-6.94-.63h-.31a.57.57,0,0,0-.42-.1,44.13,44.13,0,0,0-6.57.21,6.15,6.15,0,0,0-4.17,3.58,15.46,15.46,0,0,0-1,3.25q-.21.86-.35,1.74A37.25,37.25,0,0,0,144.19,91.15Z" transform="translate(101.04 -27.17)"/><path class="cls-21" d="M285.18,85.62a36.47,36.47,0,0,0,4.32,3.13,8.88,8.88,0,0,1,2.11,2.47c.39.63.89,1.48,1.61,1.41,1.79-.14,1.12-3,.93-4.3a18.82,18.82,0,0,1-.1-2.17,1.92,1.92,0,0,0-.24-1,6.24,6.24,0,0,0-1.88-1.74l-.07-.1a.7.7,0,0,0-1.14,0,1.16,1.16,0,0,0-.25.81,1.29,1.29,0,0,0,.4.89,2,2,0,0,0,.39.28c.08,0,.85.42.46.28a9.86,9.86,0,0,1-1.49-.92,3,3,0,0,0-1.39-.37,11.65,11.65,0,0,0-3.58.7.41.41,0,0,0-.2.48A.4.4,0,0,0,285.18,85.62Z" transform="translate(101.04 -27.17)"/><g class="cls-22"><text class="cls-23" transform="translate(231.66 142.6) scale(0.8 1)">L</text><text class="cls-24" transform="translate(236.99 142.6) scale(0.8 1)">e</text><text class="cls-25" transform="translate(242.84 142.6) scale(0.8 1)">f</text><text class="cls-24" transform="translate(246.36 142.6) scale(0.8 1)">t</text></g><g class="cls-22"><text class="cls-26" transform="translate(324.3 124.3) scale(0.8 1)">R</text><text class="cls-27" transform="translate(331.27 124.3) scale(0.8 1)">ig</text><text class="cls-27" transform="translate(341.36 124.3) scale(0.8 1)">h</text><text class="cls-27" transform="translate(348.38 124.3) scale(0.8 1)">t</text></g><g class="cls-22"><text class="cls-28" transform="translate(242.36 120.59) scale(0.8 1)">L</text><text class="cls-29" transform="translate(248.95 120.59) scale(0.8 1)">e</text><text class="cls-30" transform="translate(256.16 120.59) scale(0.8 1)">f</text><text class="cls-29" transform="translate(260.5 120.59) scale(0.8 1)">t</text></g><polyline class="cls-17" points="323.45 100.15 325.18 109.07 318.06 109.07"/><path class="cls-13" d="M152.85,175.18c7.29,7.5,67.71-10.07,76-19.26" transform="translate(101.04 -27.17)"/><line class="cls-1" x1="272.46" y1="143.78" x2="270.73" y2="134.87"/><polyline class="cls-17" points="251.72 152.94 250.34 143.93 257.45 144.37"/><path class="cls-31" d="M195,244.31c-.35,1.64-.51,3.48-.79,5-.36,2.16-.74,4.33-1.08,6.49s-.6,4.46-.74,6.71V333.1a1.85,1.85,0,0,0,1.61,2h2.54a1.85,1.85,0,0,0,1.61-2h0V251C197.46,248,196.35,244.62,195,244.31Zm-2.61,29.57-.53.31c-.28,2.57-.69,5.11-1,7.72-.57,4.45-.9,8.94-1.25,13.43-.31,3.9-5.19,3.91-4.89,0,.38-4.89.76-9.76,1.39-14.61.14-1.13.32-2.28.5-3.48M203.13,150a7.64,7.64,0,0,0-1.25-.19,5,5,0,0,0,.32-.71,13.93,13.93,0,0,0,5.19-4.82,2,2,0,0,0,.29-.92,13.14,13.14,0,0,0,3-7.36v-.92a20.41,20.41,0,0,0-1.86-9.92c-2.94-5.95-10-10-15.08-6.38-3.67,1-6.81,3.95-8.57,8.11a16.65,16.65,0,0,0-1.11,5.5,1.7,1.7,0,0,0-.49,1.06,8.53,8.53,0,0,0,.53,4.8,9.53,9.53,0,0,1,.89,3.08,8,8,0,0,0,.49,2.14,4.63,4.63,0,0,0,1.06,1.58,18.89,18.89,0,0,0,0,1.9,6.38,6.38,0,0,0-3.29-.66m-5.65,38.17a10.16,10.16,0,0,1-6,1.44,5.65,5.65,0,0,1-5.65-4.61,13.59,13.59,0,0,1,0-5.06c-2.68,3.62-.78,8.44,2,11a4.78,4.78,0,0,0,4.17,1.41,13,13,0,0,0,5.43-3.31h0a2.14,2.14,0,0,0,.1-.87ZM214.43,297.5l-.15-4.44v-.38a279.06,279.06,0,0,0,.62-32q-.18-5.06-.54-10.12c-.5-7-.57-13.92-.62-21,0-3.77-.19-7.53-.56-11.27A38.42,38.42,0,0,0,212,204a16.45,16.45,0,0,0-2.68-5.48,8.33,8.33,0,0,0-4.49-2.91,59.25,59.25,0,0,0-10.44-1.74,52,52,0,0,0-10.06.1,10,10,0,0,0-6.94,3.15,9.72,9.72,0,0,0-1.85,3.64,74.13,74.13,0,0,0-1.78,11.88c-.54,4.71-1,9.46-1.25,14.21a5.57,5.57,0,0,0,0,.8,11.92,11.92,0,0,1-.08,1.74q0,1.74.15,3.48a16.16,16.16,0,0,0,.19,1.74,19.34,19.34,0,0,1,.67,5.93c.22,2.26.39,4.51.43,6.78.15,7.18-.49,14.42,1.08,21.41q.12.6.29,1.2a7.06,7.06,0,0,0,.71,1.74,5.84,5.84,0,0,0,2.53,3.95h0a3.52,3.52,0,0,0,1.79.47c2.47-.07,4.46-2.56,4.51-5.65a21,21,0,0,1,0-4.16,60.22,60.22,0,0,1,1.56-7.67,43.55,43.55,0,0,0,1.51-13.43c-.35-4.66-1.39-9.12-1.26-13.79l-2.39-1.48a2,2,0,0,1-.44-.28l-.25-.16-.19-.35a3.09,3.09,0,0,1-.22-.37l-.35-.54a8.26,8.26,0,0,1-.14-1.15,3.09,3.09,0,0,1,.26-1.43,2.55,2.55,0,0,1,1.5-1.64,24.36,24.36,0,0,1,8.75-1.08c2.78,0,6.26-.8,8.93.26a2.69,2.69,0,0,1,1.6,2,3.2,3.2,0,0,1,.29,2.45,4.64,4.64,0,0,1-1.26,2.16,14.63,14.63,0,0,0-2.86,3.67A20.6,20.6,0,0,1,198,237a10.59,10.59,0,0,0-.75,1.57,2.39,2.39,0,0,1-.39.68l.44.24a6,6,0,0,1,.68.47,7.06,7.06,0,0,1,1.22,1.25,22.09,22.09,0,0,1,3.06,7.27A74.79,74.79,0,0,1,205,266.73q.1,2.87,0,5.76c-.11,7.83-.71,15.66.65,23.43l-.56-.24.17,4.75v.33a7.6,7.6,0,0,0,.28,1.51c.59,2.26,2.27,3.8,4.17,3.81a4.84,4.84,0,0,0,3.9-2.77h0a5.94,5.94,0,0,0,.61-2.87,10.9,10.9,0,0,0,.22-3.08Zm-8.93,2.66-.17-4.75.56.24c-1.39-7.69-.76-15.66-.65-23.43v-5.76a74.79,74.79,0,0,0-2.78-18.28,22.09,22.09,0,0,0-3.06-7.27,7.06,7.06,0,0,0-1.22-1.25,6,6,0,0,0-.68-.47l-.44-.24a2.19,2.19,0,0,1-3,.42,2.49,2.49,0,0,1-.64-.68l-.15-.12a3.52,3.52,0,0,0-.9.43,4.74,4.74,0,0,0-1.94,3.11c-.89,4.11-1.39,8.4-2.11,12.58a82.3,82.3,0,0,0-1,11.15v1.06c0,1.74,0,3.48-.08,5.22a13.78,13.78,0,0,1-.17,1.84c-.14,1.15-.32,2.28-.5,3.48s-.35,2.26-.5,3.48c-.61,4.85-1,9.72-1.39,14.61-.31,3.91,4.58,3.9,4.89,0,.35-4.49.68-9,1.25-13.43.33-2.59.75-5.22,1-7.72a51.1,51.1,0,0,0,.33-5.34c0-2.16,0-4.28.19-6.38s.38-4.5.74-6.71.72-4.33,1.08-6.49c.26-1.62.44-3.37.79-5,1.32.3,2.43,3.72,3.17,6.66.46,1.74.76,3.48.89,4a71.87,71.87,0,0,1,1.39,14.23v.3c0,9.88-1,19.83,1.15,29.57A2.35,2.35,0,0,0,204,301.4c.62.26,1.25.52,1.89.75a7.6,7.6,0,0,1-.28-1.51c0-.35,0-.45,0-.56Zm11-138.64a16.62,16.62,0,0,0-.36-1.84,8.11,8.11,0,0,0-2.69-4.45,3.59,3.59,0,0,0-.88-.8c-1.11-.71-2.29-1.55-3.49-2.17a9,9,0,0,0-4.79-2,2.66,2.66,0,0,0-1.22-.16.56.56,0,0,0-.31.24,4.83,4.83,0,0,0-.26,1.43,13,13,0,0,1-1,2.8.5.5,0,0,0,0,.26l-.32.54c0-.1-.39.43-.35.43a4.2,4.2,0,0,1-2.62.92,22.42,22.42,0,0,1-9.14-.57c-2-.68-2.64-2.45-3.4-4.91a8.4,8.4,0,0,0-.6-1.44c-.11-.3-.21-.57-.33-.85a8,8,0,0,0-1.18-2.38.71.71,0,0,0-.31-.19,1.89,1.89,0,0,0-1,.16,8.9,8.9,0,0,0-2.07.7h0c-2.1.9-4.83,1.6-6.76,3.31h0l-.12.1c-4,3.36-4.61,8.33-5.43,13.92l-1.21,8.21c-.17,1.11-.4,2.3-.58,3.48a13.59,13.59,0,0,0,0,5.06,5.7,5.7,0,0,0,5.65,4.61,10.16,10.16,0,0,0,6-1.44v.85h0c0,2.51-.1,5.06-.22,7.64a5.84,5.84,0,0,0,.26,2q-.1,1-.25,2a10,10,0,0,1,6.94-3.15,52,52,0,0,1,10.06-.1A59.25,59.25,0,0,1,205,195.48a8.33,8.33,0,0,1,4.49,2.91,30.91,30.91,0,0,0,.33-4.19,25,25,0,0,1,0-3.1c.11-.7.47-1.46.64-2.19q.13-.57.21-1.15v-.28a5,5,0,0,0,3.43-.77,7,7,0,0,0,2.4-5.76c0-1.29-.07-2.56-.08-3.83,0-2.42,0-4.82.18-7.31a43.12,43.12,0,0,0-.06-8.38Zm-7.71-36.37c-2.94-5.95-10-10-15.08-6.38-3.67,1-6.81,3.95-8.57,8.11a16.65,16.65,0,0,0-1.11,5.5v.83a18.1,18.1,0,0,0,2.64,9.25,14.53,14.53,0,0,0,2.56,3.11,13.47,13.47,0,0,0,1.39,1.13l.4.28a13.72,13.72,0,0,0,6.11,2.24,9.07,9.07,0,0,0,5.4-1.48,21.69,21.69,0,0,0,3.17-2.37,16.68,16.68,0,0,0,2-2,13.14,13.14,0,0,0,3-7.36q0-.45,0-.92A20.41,20.41,0,0,0,208.82,125.15Zm-3.08,20.23a21.69,21.69,0,0,1-3.17,2.37,9.07,9.07,0,0,1-5.4,1.48,13.72,13.72,0,0,1-6.11-2.24l-.4-.28a13.47,13.47,0,0,1-1.39-1.13,14.53,14.53,0,0,1-2.56-3.11,18.1,18.1,0,0,1-2.64-9.25v-.83a1.7,1.7,0,0,0-.49,1.06,8.53,8.53,0,0,0,.53,4.8,9.53,9.53,0,0,1,.89,3.08,8,8,0,0,0,.49,2.14,4.63,4.63,0,0,0,1.06,1.58,18.89,18.89,0,0,0,0,1.9,17.12,17.12,0,0,1,2.78,1.74,10.21,10.21,0,0,0,5,1.74,13.87,13.87,0,0,0,3.63.24c1.06-.17,2.06-.68,3.14-.77a6.23,6.23,0,0,1,.83,0,5,5,0,0,0,.32-.71,13.93,13.93,0,0,0,5.19-4.82,2,2,0,0,0,.29-.92,16.52,16.52,0,0,1-1.94,1.93Zm-3.83,4.44a6.23,6.23,0,0,0-.83,0c-1.08.09-2.08.59-3.14.77a13.87,13.87,0,0,1-3.63-.24,10.21,10.21,0,0,1-5-1.74,17.12,17.12,0,0,0-2.78-1.74,6.38,6.38,0,0,0-3.29-.66.71.71,0,0,1,.31.19,8,8,0,0,1,1.18,2.38l.33.85a8.4,8.4,0,0,1,.6,1.44c.76,2.45,1.39,4.23,3.4,4.91a22.42,22.42,0,0,0,9.14.57,4.2,4.2,0,0,0,2.62-.92s.39-.54.35-.43l.32-.54a.5.5,0,0,1,0-.26,13,13,0,0,0,1-2.8c.08-.38,0-1.11.26-1.43a.56.56,0,0,1,.31-.24,7.59,7.59,0,0,0-1.18-.12Zm12.58,147.55a2.74,2.74,0,0,1,1.12,1.74,3.28,3.28,0,0,1-1.64,3.74m-29-36.79a5.51,5.51,0,0,1,2.42-.28M175,268.52a3.42,3.42,0,0,0-1.2,4.06,3.19,3.19,0,0,0,.46.84,5,5,0,0,0,4.26,2m3.37,0c1.6,0,3.18-.56,3.51-2.87a4.53,4.53,0,0,0,0-.63c.64-.26,1.14-.4,1.26-.26a2.85,2.85,0,0,0,.49.42m30.06-94.44a2.18,2.18,0,0,0-.92-.49c0,1.27,0,2.54.08,3.83a7,7,0,0,1-2.4,5.76,5,5,0,0,1-3.43.77v.28c2.28,1.13,4.75,1.53,6.94-.49a6.93,6.93,0,0,0,.93-8.26,5.36,5.36,0,0,0-1.15-1.36ZM176,271.39a7.06,7.06,0,0,1-.71-1.74q-.17-.6-.29-1.2a3.42,3.42,0,0,0-1.2,4.06,3.19,3.19,0,0,0,.46.84,5,5,0,0,0,4.26,2,5.86,5.86,0,0,1-2.47-3.9Zm39.58,27.83a2.74,2.74,0,0,0-1.12-1.74,24.67,24.67,0,0,0,.1,2.66,5.94,5.94,0,0,1-.61,2.87,3.26,3.26,0,0,0,1.71-3.81Zm-15.64-66a20.6,20.6,0,0,1-1.78,3.48,10.59,10.59,0,0,0-.75,1.57,2.39,2.39,0,0,1-.39.68l.44.24a6,6,0,0,1,.68.47,7.06,7.06,0,0,1,1.22,1.25,62.75,62.75,0,0,1,1-9.25,6.72,6.72,0,0,1-.35,1.55Zm-15,32.79a21,21,0,0,0,0,4.16,5.49,5.49,0,0,1-2.92,5.22c1.6,0,3.18-.56,3.51-2.87a4.53,4.53,0,0,0,0-.63c.64-.26,1.14-.4,1.26-.26a2.85,2.85,0,0,0,.49.42c.11-1.74.08-3.48.08-5.22v-1.06A5.5,5.5,0,0,0,184.93,266.05Zm15-32.81a20.6,20.6,0,0,1-1.78,3.48,10.59,10.59,0,0,0-.75,1.57,2.39,2.39,0,0,1-.39.68l.44.24a6,6,0,0,1,.68.47,7.06,7.06,0,0,1,1.22,1.25,62.75,62.75,0,0,1,1-9.25C200.42,231.42,200.18,232.62,200,233.24Zm15.65,66a2.74,2.74,0,0,0-1.12-1.74,24.67,24.67,0,0,0,.1,2.66A5.94,5.94,0,0,1,214,303,3.28,3.28,0,0,0,215.63,299.21Zm1.69-121.56a2.18,2.18,0,0,0-.92-.49c0,1.27,0,2.54.08,3.83a7,7,0,0,1-2.4,5.76,5,5,0,0,1-3.43.77v.28c2.28,1.13,4.75,1.53,6.94-.49a6.93,6.93,0,0,0,.91-8.26,5.33,5.33,0,0,0-1.2-1.39Zm0,0a2.18,2.18,0,0,0-.92-.49c0,1.27,0,2.54.08,3.83a7,7,0,0,1-2.4,5.76,5,5,0,0,1-3.43.77v.28c2.28,1.13,4.75,1.53,6.94-.49a6.93,6.93,0,0,0,.91-8.26,5.33,5.33,0,0,0-1.2-1.39ZM176,271.43a7.06,7.06,0,0,1-.71-1.74q-.17-.6-.29-1.2a3.42,3.42,0,0,0-1.2,4.06,3.19,3.19,0,0,0,.46.84,5,5,0,0,0,4.26,2,5.82,5.82,0,0,1-2.54-3.93ZM200,233.16a20.6,20.6,0,0,1-1.78,3.48,10.59,10.59,0,0,0-.75,1.57,2.39,2.39,0,0,1-.39.68l.44.24a6,6,0,0,1,.68.47,7.06,7.06,0,0,1,1.22,1.25,62.75,62.75,0,0,1,1-9.25c0-.17-.21,1-.42,1.65Zm-15.06,32.9a21,21,0,0,0,0,4.16,5.49,5.49,0,0,1-2.92,5.22c1.6,0,3.18-.56,3.51-2.87a4.53,4.53,0,0,0,0-.63c.64-.26,1.14-.4,1.26-.26a2.85,2.85,0,0,0,.49.42c.11-1.74.08-3.48.08-5.22v-1.06A5.5,5.5,0,0,0,184.93,266.05Zm15-32.81a20.6,20.6,0,0,1-1.78,3.48,10.59,10.59,0,0,0-.75,1.57,2.39,2.39,0,0,1-.39.68l.44.24a6,6,0,0,1,.68.47,7.06,7.06,0,0,1,1.22,1.25C199.46,237.77,200.18,232.62,200,233.24Zm4.17-5.83a4.64,4.64,0,0,1-1.26,2.16,14.63,14.63,0,0,0-2.86,3.67,20.6,20.6,0,0,1-1.78,3.48,10.59,10.59,0,0,0-.75,1.57,2.39,2.39,0,0,1-.39.68,2.19,2.19,0,0,1-3,.42,2.49,2.49,0,0,1-.64-.68l-.15-.12a3,3,0,0,1-.69-.92l-.21-.4c-.65-1.13-1.53-1.84-2.25-2.91-.42-.59-1.53-2.24-2-2.33l-.35-.14-1.11-.68-2.39-1.48a2,2,0,0,1-.44-.28l-.25-.16-.19-.35a3.09,3.09,0,0,1-.22-.37l-.35-.54a8.26,8.26,0,0,1-.14-1.15,3.09,3.09,0,0,1,.26-1.43,2.55,2.55,0,0,1,1.5-1.64,24.36,24.36,0,0,1,8.75-1.08c2.78,0,6.26-.8,8.93.26a2.69,2.69,0,0,1,1.6,2,3.21,3.21,0,0,1,.28,2.37Z" transform="translate(101.04 -27.17)"/></g></g></g></svg>