<svg xmlns="http://www.w3.org/2000/svg" viewBox="0 0 288.24 288"><defs><style>.cls-1,.cls-12{fill:#17562a;}.cls-2{fill:#4c4c4c;}.cls-10,.cls-13,.cls-3,.cls-4,.cls-5,.cls-6,.cls-7,.cls-8,.cls-9{fill:none;}.cls-10,.cls-3,.cls-4,.cls-5,.cls-6,.cls-7,.cls-8,.cls-9{stroke:#efd330;}.cls-10,.cls-12,.cls-3,.cls-4,.cls-5,.cls-6,.cls-7,.cls-8,.cls-9{stroke-miterlimit:10;}.cls-3{stroke-width:2.71px;}.cls-4{stroke-width:2.43px;}.cls-5{stroke-width:2.16px;}.cls-6{stroke-width:1.89px;}.cls-7{stroke-width:1.62px;}.cls-8{stroke-width:1.35px;}.cls-9{stroke-width:1.08px;}.cls-10,.cls-12{stroke-width:0.81px;}.cls-11{fill:#f7f7f7;}.cls-12{stroke:#fff;}</style></defs><title>q7.2</title><g id="Layer_2" data-name="Layer 2"><g id="Layer_1-2" data-name="Layer 1"><polygon class="cls-1" points="288.24 73.68 288.24 265.41 283.93 257.22 283.69 256.77 187.22 73.68 288.24 73.68"/><polygon class="cls-1" points="101.78 73.68 91.37 93.33 73.92 126.29 0.24 265.41 0.24 73.68 101.78 73.68"/><polygon class="cls-2" points="288.24 126.29 215.57 126.29 283.69 256.77 283.93 257.22 286.79 262.72 287.21 263.51 288.24 265.49 288.24 287.96 0.24 287.96 0.24 265.46 73.94 126.29 0.24 126.29 0.24 93.33 91.4 93.33 101.78 73.72 128.06 73.72 128.07 73.68 188.1 73.68 198.36 93.33 288.24 93.33 288.24 126.29"/><polygon class="cls-2" points="288.24 287.96 288.24 288 80.81 288 80.82 287.96 288.24 287.96"/><line class="cls-3" x1="140.95" y1="283.9" x2="140.95" y2="261.16"/><line class="cls-4" x1="140.95" y1="249.49" x2="140.95" y2="224.69"/><line class="cls-5" x1="140.95" y1="205.42" x2="140.95" y2="187.14"/><line class="cls-6" x1="140.95" y1="177.82" x2="140.95" y2="166.12"/><line class="cls-7" x1="140.95" y1="150.81" x2="140.95" y2="142.59"/><line class="cls-8" x1="140.95" y1="130.25" x2="140.95" y2="122.08"/><line class="cls-9" x1="140.95" y1="107.38" x2="140.95" y2="100.25"/><line class="cls-10" x1="140.95" y1="84.29" x2="140.95" y2="79.04"/><polygon class="cls-2" points="288.24 265.46 288.24 265.49 287.21 263.51 288.24 265.46"/><line class="cls-11" x1="123.66" y1="156.33" x2="122.41" y2="151.21"/><path class="cls-12" d="M142.24,123c-.15.57-.22,1.18-.34,1.74-.16.75-.32,1.5-.47,2.26a20,20,0,0,0-.32,2.33v24.51a.7.7,0,0,0,.7.7h1.1a.7.7,0,0,0,.7-.7V125.34C143.3,124.31,142.81,123.13,142.24,123Zm-1.37,10.4h0l.23-.11ZM137.13,89l1.34.2A3.15,3.15,0,0,0,137.13,89Zm11.1-7.34c-1.28-2.06-4.34-3.46-6.56-2.22a5.52,5.52,0,0,0-3.73,2.82,4.74,4.74,0,0,0-.48,1.91.52.52,0,0,0-.21.37,2.45,2.45,0,0,0,.22,1.67,2.85,2.85,0,0,1,.39,1.07,2.2,2.2,0,0,0,.21.74,1.64,1.64,0,0,0,.46.55,5.53,5.53,0,0,0,0,.64h-.09l.09,0a7.58,7.58,0,0,1,1.2.59,5.29,5.29,0,0,0,2.16.6,7.43,7.43,0,0,0,1.58.09c.46-.06.89-.24,1.37-.27h.37a4,4,0,0,1,.54.06l-.53-.08h0l.06-.1.07-.13a5.78,5.78,0,0,0,2.26-1.68.59.59,0,0,0,.12-.32,4.16,4.16,0,0,0,1.3-2.56c0-.11,0-.21,0-.32A5.88,5.88,0,0,0,148.24,81.62Zm-15.6,21.09c-.2,0-.4,0-.59,0a2.43,2.43,0,0,1-2.46-1.6,3.82,3.82,0,0,1,0-1.72s0,0,0,0a2,2,0,0,0-.56,1.55h0a3.36,3.36,0,0,0,1.44,2.26,2.39,2.39,0,0,0,1.82.49l.26,0a6.86,6.86,0,0,0,2.1-1.09v-.31A4.59,4.59,0,0,1,132.64,102.7Zm13.41,13.59a1,1,0,0,0-.7-.7,13.28,13.28,0,0,0-3.89-.09,13.23,13.23,0,0,0-3.81.38,1,1,0,0,0-.66.56.94.94,0,0,0-.11.5,2.13,2.13,0,0,0,.06.4l.15.19a.63.63,0,0,0,.09.13l.09.12.11.06a1.13,1.13,0,0,0,.19.1l1,.51.48.24.15,0c.19,0,.68.61.86.81.32.37.69.61,1,1l.09.14a1.16,1.16,0,0,0,.3.32l.06,0a1.18,1.18,0,0,0,.28.24,1.14,1.14,0,0,0,1.29-.15l.2.09a1.93,1.93,0,0,1,.29.16,3,3,0,0,1,.54.43c0-.12,0-.26,0-.4s0-.19,0-.29c0-.29,0-.59.09-.89,0-.06,0-.12,0-.19,0-.33.11-.67.17-1a5.78,5.78,0,0,1,1.15-1.14,1.57,1.57,0,0,0,.55-.75A.94.94,0,0,0,146.05,116.3ZM137.81,132a1.78,1.78,0,0,1-.94,1.65l1.12-.56a1.31,1.31,0,0,0,.07-.26,1.35,1.35,0,0,0,0-.22c.27-.09.5-.14.55-.09l.21.14c0-.61,0-1.22,0-1.83,0-.12,0-.25,0-.37a3.07,3.07,0,0,0-1.05.09A5.61,5.61,0,0,0,137.81,132Zm-4.15-.17a2.1,2.1,0,0,0,.31.6,2,2,0,0,0,1.1,1.37l-1.53-2.38C133.57,131.57,133.61,131.71,133.66,131.84Zm13.16,10.55-.07-1.65.24.09c-.59-2.67-.33-5.42-.28-8.14,0-.67,0-1.34,0-2a21.16,21.16,0,0,0-1.2-6.35,7.07,7.07,0,0,0-1.33-2.53,3,3,0,0,0-.54-.43,1.93,1.93,0,0,0-.29-.16l-.2-.09a1.14,1.14,0,0,1-1.29.15,1.18,1.18,0,0,1-.28-.24l-.06,0a1.5,1.5,0,0,0-.39.15,1.64,1.64,0,0,0-.84,1.09c-.39,1.42-.63,2.92-.92,4.37a22.47,22.47,0,0,0-.44,3.87c0,.12,0,.24,0,.37,0,.61,0,1.22,0,1.83,0,.21,0,.42-.07.64-.06.4-.14.79-.22,1.19l2.31-1.09h0a14,14,0,0,0,.14-1.85c0-.75,0-1.48.09-2.21a20,20,0,0,1,.32-2.33c.15-.75.32-1.5.47-2.26.12-.56.19-1.17.34-1.74.57.11,1.06,1.29,1.38,2.31.2.63.34,1.2.39,1.4a20.28,20.28,0,0,1,.59,4.94v.1c0,3.44-.42,6.89.5,10.26a1,1,0,0,0,1,.75l.82.26a2.21,2.21,0,0,1-.12-.52S146.82,142.44,146.82,142.39ZM132.64,102.7c0,.3,0,.61-.07.9a6.86,6.86,0,0,0,2.1-1.09v-.31A4.59,4.59,0,0,1,132.64,102.7Zm12.59-12.51h-.37c-.47,0-.9.21-1.37.27a7.43,7.43,0,0,1-1.58-.09,5.29,5.29,0,0,1-2.16-.6,7.58,7.58,0,0,0-1.2-.59l-.09,0-1.34-.2a.31.31,0,0,1,.13.06,2.57,2.57,0,0,1,.51.83,3.26,3.26,0,0,1,.14.3,2.54,2.54,0,0,1,.26.5c.34.85.59,1.47,1.48,1.7a12.13,12.13,0,0,0,4,.2,2.16,2.16,0,0,0,1.14-.32.59.59,0,0,1,.15-.16l.14-.18a.13.13,0,0,1,0-.09,4.2,4.2,0,0,0,.43-1c0-.13,0-.39.12-.5a.22.22,0,0,1,.13-.08A4,4,0,0,0,145.23,90.19Zm3-8.57c-1.28-2.06-4.34-3.46-6.56-2.22a5.52,5.52,0,0,0-3.73,2.82,4.74,4.74,0,0,0-.48,1.91c0,.09,0,.19,0,.29a5.37,5.37,0,0,0,1.15,3.21,5.55,5.55,0,0,0,1.12,1.08,5.44,5.44,0,0,0,.61.4l.17.09a7.23,7.23,0,0,0,.93.41,6.36,6.36,0,0,0,1.73.37,3.34,3.34,0,0,0,.66,0,5.07,5.07,0,0,0,1.69-.49,9.82,9.82,0,0,0,1.38-.82,6.89,6.89,0,0,0,.86-.7,4.16,4.16,0,0,0,1.3-2.56c0-.11,0-.21,0-.32A5.88,5.88,0,0,0,148.24,81.62Zm-1.34,7a9.82,9.82,0,0,1-1.38.82,5.07,5.07,0,0,1-1.69.49,3.34,3.34,0,0,1-.66,0,6.36,6.36,0,0,1-1.73-.37,7.23,7.23,0,0,1-.93-.41l-.17-.09a5.44,5.44,0,0,1-.61-.4,5.55,5.55,0,0,1-1.12-1.08,5.37,5.37,0,0,1-1.15-3.21c0-.1,0-.19,0-.29a.52.52,0,0,0-.21.37,2.45,2.45,0,0,0,.22,1.67,2.85,2.85,0,0,1,.39,1.07,2.2,2.2,0,0,0,.21.74,1.64,1.64,0,0,0,.46.55,5.53,5.53,0,0,0,0,.64v0a7.58,7.58,0,0,1,1.2.59,5.29,5.29,0,0,0,2.16.6,7.43,7.43,0,0,0,1.58.09c.46-.06.89-.24,1.37-.27h.37a0,0,0,0,0,0,0h0l.06-.1.07-.13a5.78,5.78,0,0,0,2.26-1.68.59.59,0,0,0,.12-.32A6.89,6.89,0,0,1,146.9,88.64Zm-1.67,1.55h-.37c-.47,0-.9.21-1.37.27a7.43,7.43,0,0,1-1.58-.09,5.29,5.29,0,0,1-2.16-.6,7.58,7.58,0,0,0-1.2-.59l-.09,0a3.15,3.15,0,0,0-1.34-.2.31.31,0,0,1,.13.06,2.57,2.57,0,0,1,.51.83,3.26,3.26,0,0,1,.14.3,2.54,2.54,0,0,1,.26.5c.34.85.59,1.47,1.48,1.7a12.13,12.13,0,0,0,4,.2,2.16,2.16,0,0,0,1.14-.32.59.59,0,0,1,.15-.16l.14-.18a.13.13,0,0,1,0-.09,4.2,4.2,0,0,0,.43-1c0-.13,0-.39.12-.5a.22.22,0,0,1,.13-.08A4,4,0,0,0,145.23,90.19Zm6,51.9a1,1,0,0,0-.49-.62l0,.92a1.73,1.73,0,0,1-.26,1A1.08,1.08,0,0,0,151.2,142.09Zm-13.35-11.52,1.05-.09A3.07,3.07,0,0,0,137.84,130.57Zm-4.31.86a1.06,1.06,0,0,0-.32,1.7,2.43,2.43,0,0,0,1.85.68Zm3.34,2.24-.33.17c.61,0,1.22-.15,1.45-.73Zm1.77-1.14s-.27,0-.55.09a1.35,1.35,0,0,1,0,.22,1.31,1.31,0,0,1-.07.26l.85-.43Zm13.29-32.67a1.06,1.06,0,0,0-.4-.17c0,.44,0,.88,0,1.34a2.21,2.21,0,0,1-1,2,2.63,2.63,0,0,1-1.49.27l0,.09a3,3,0,0,0,3-.17A2,2,0,0,0,151.93,99.87Zm-18,32.58a2.1,2.1,0,0,1-.31-.6c0-.14-.09-.27-.12-.41a1.06,1.06,0,0,0-.32,1.7,2.43,2.43,0,0,0,1.85.68A2,2,0,0,1,134,132.44Zm17.22,9.65a1,1,0,0,0-.49-.62l0,.92a1.73,1.73,0,0,1-.26,1A1.08,1.08,0,0,0,151.2,142.09Zm-6.81-22.91a7.38,7.38,0,0,1-.77,1.18,3,3,0,0,0-.32.54.79.79,0,0,1-.17.23l.2.09a1.93,1.93,0,0,1,.29.16,3,3,0,0,1,.54.43c0-.12,0-.26,0-.4s0-.19,0-.29c0-.29,0-.59.09-.89,0-.06,0-.12,0-.19,0-.33.11-.67.17-1,0-.14.06-.29.09-.44A5.33,5.33,0,0,1,144.39,119.18Zm-6.54,11.39a5.61,5.61,0,0,0,0,1.45,1.78,1.78,0,0,1-.94,1.65,1.83,1.83,0,0,1-.33.17c.61,0,1.22-.15,1.45-.73a1.31,1.31,0,0,0,.07-.26,1.35,1.35,0,0,0,0-.22c.27-.09.5-.14.55-.09l.21.14c0-.61,0-1.22,0-1.83,0-.12,0-.25,0-.37A3.07,3.07,0,0,0,137.84,130.57Zm6.54-11.39a7.38,7.38,0,0,1-.77,1.18,3,3,0,0,0-.32.54.79.79,0,0,1-.17.23l.2.09a1.93,1.93,0,0,1,.29.16,3,3,0,0,1,.54.43c0-.12,0-.26,0-.4s0-.19,0-.29c0-.29,0-.59.09-.89,0-.06,0-.12,0-.19,0-.33.11-.67.17-1,0-.14.06-.29.09-.44A5.33,5.33,0,0,1,144.39,119.18Zm6.81,22.91a1,1,0,0,0-.49-.62l0,.92a1.73,1.73,0,0,1-.26,1A1.08,1.08,0,0,0,151.2,142.09Zm.74-42.23a1.06,1.06,0,0,0-.4-.17c0,.44,0,.88,0,1.34a2.21,2.21,0,0,1-1,2,2.63,2.63,0,0,1-1.49.27l0,.09a3,3,0,0,0,3-.17A2,2,0,0,0,151.93,99.87Zm0,0a1.06,1.06,0,0,0-.4-.17c0,.44,0,.88,0,1.34a2.21,2.21,0,0,1-1,2,2.63,2.63,0,0,1-1.49.27l0,.09a3,3,0,0,0,3-.17A2,2,0,0,0,151.93,99.87Zm-18,32.58a2.1,2.1,0,0,1-.31-.6c0-.14-.09-.27-.12-.41a1.06,1.06,0,0,0-.32,1.7,2.43,2.43,0,0,0,1.85.68A2,2,0,0,1,134,132.44Zm10.42-13.26a7.38,7.38,0,0,1-.77,1.18,3,3,0,0,0-.32.54.79.79,0,0,1-.17.23l.2.09a1.93,1.93,0,0,1,.29.16,3,3,0,0,1,.54.43c0-.12,0-.26,0-.4s0-.19,0-.29c0-.29,0-.59.09-.89,0-.06,0-.12,0-.19,0-.33.11-.67.17-1,0-.14.06-.29.09-.44A5.33,5.33,0,0,1,144.39,119.18Zm-6.54,11.39a5.61,5.61,0,0,0,0,1.45,1.78,1.78,0,0,1-.94,1.65,1.83,1.83,0,0,1-.33.17c.61,0,1.22-.15,1.45-.73a1.31,1.31,0,0,0,.07-.26,1.35,1.35,0,0,0,0-.22c.27-.09.5-.14.55-.09l.21.14c0-.61,0-1.22,0-1.83,0-.12,0-.25,0-.37A3.07,3.07,0,0,0,137.84,130.57Zm6.56-11.41v0a7.38,7.38,0,0,1-.77,1.18,3,3,0,0,0-.32.54.79.79,0,0,1-.17.23l.2.09a1.93,1.93,0,0,1,.29.16,3,3,0,0,1,.54.43c0-.12,0-.26,0-.4s0-.19,0-.29c0-.29,0-.59.09-.89,0-.06,0-.12,0-.19A6.38,6.38,0,0,0,144.4,119.16Zm1.65-2.86a1,1,0,0,0-.7-.7,13.28,13.28,0,0,0-3.89-.09,13.23,13.23,0,0,0-3.81.38,1,1,0,0,0-.66.56.94.94,0,0,0-.11.5,2.13,2.13,0,0,0,.06.4l.15.19a.63.63,0,0,0,.09.13l.09.12.11.06a1.13,1.13,0,0,0,.19.1l1,.51.48.24.15,0c.19,0,.68.61.86.81.32.37.69.61,1,1l.09.14a1.16,1.16,0,0,0,.3.32l.06,0a1.18,1.18,0,0,0,.28.24,1.14,1.14,0,0,0,1.29-.15.79.79,0,0,0,.17-.23,3,3,0,0,1,.32-.54,7.38,7.38,0,0,0,.77-1.18v0a.68.68,0,0,1,.08-.12,5.78,5.78,0,0,1,1.15-1.14,1.57,1.57,0,0,0,.55-.75A.94.94,0,0,0,146.05,116.3Z"/><path class="cls-12" d="M150.63,139.93l.07,1.54-.22,1.92h0a2.15,2.15,0,0,1-1.69,1A1.91,1.91,0,0,1,147,143a2.21,2.21,0,0,1-.12-.52s0-.07,0-.12l-.07-1.65.24.09c-.59-2.67-.33-5.42-.28-8.14,0-.67,0-1.34,0-2a21.16,21.16,0,0,0-1.2-6.35,7.07,7.07,0,0,0-1.33-2.53c0-.12,0-.26,0-.4s0-.19,0-.29c0-.3.06-.61.09-.89,0-.06,0-.12,0-.19,0-.33.11-.67.17-1a5.78,5.78,0,0,1,1.15-1.14,1.57,1.57,0,0,0,.55-.75.94.94,0,0,0-.12-.85,1,1,0,0,0-.7-.7,13.28,13.28,0,0,0-3.89-.09,13.23,13.23,0,0,0-3.81.38,1,1,0,0,0-.66.56.94.94,0,0,0-.11.5,2.13,2.13,0,0,0,.06.4l.15.19a.63.63,0,0,0,.09.13l.09.12.11.06a1.13,1.13,0,0,0,.19.1l1,.51a40.2,40.2,0,0,0,.55,4.8,12.26,12.26,0,0,1-.66,4.67,17.36,17.36,0,0,0-.67,2.66,5.61,5.61,0,0,0,0,1.45,1.78,1.78,0,0,1-.94,1.65l-.33.17a1.81,1.81,0,0,1-.69.14,1.86,1.86,0,0,1-.78-.17l-1.53-2.38c-.69-2.43-.41-4.95-.47-7.44,0-.26,0-.52,0-.77,0-.53-.09-1.06-.15-1.58a5.39,5.39,0,0,0-.29-2.06c0-.2-.06-.39-.09-.59,0-.39,0-.79-.07-1.18l0-.62a2.11,2.11,0,0,1,0-.28c.09-1.17.21-2.34.36-3.51q.08-.71.19-1.42a21.44,21.44,0,0,1,.77-4.13,3.21,3.21,0,0,1,.8-1.26,4.88,4.88,0,0,1,3-1.1,28.5,28.5,0,0,1,4.38,0,31,31,0,0,1,4.54.63,3.82,3.82,0,0,1,2,1,5.35,5.35,0,0,1,1.17,1.91,10.87,10.87,0,0,1,.53,5,34.39,34.39,0,0,1,.24,3.92c0,2.44.06,4.85.27,7.29.11,1.17.18,2.34.24,3.51a78.58,78.58,0,0,1-.27,11.1A1,1,0,0,1,150.63,139.93Z"/><path class="cls-12" d="M151.61,97.15a24.87,24.87,0,0,0-.08,2.54c0,.44,0,.88,0,1.34a2.21,2.21,0,0,1-1,2,2.63,2.63,0,0,1-1.49.27l0,.09a3,3,0,0,1-.09.4c-.07.26-.23.52-.28.76a6.91,6.91,0,0,0,0,1.08,8.83,8.83,0,0,1-.14,1.45,3.82,3.82,0,0,0-2-1,31,31,0,0,0-4.54-.63,28.5,28.5,0,0,0-4.38,0,4.88,4.88,0,0,0-3,1.1q.07-.36.11-.71a1.56,1.56,0,0,1-.11-.7c0-.89.09-1.78.09-2.65l0,0,0,0v-.3a4.59,4.59,0,0,1-2,.49c-.2,0-.4,0-.59,0a2.43,2.43,0,0,1-2.46-1.6,3.82,3.82,0,0,1,0-1.72s0,0,0,0c.08-.41.18-.82.26-1.21.17-.95.34-1.9.52-2.85.35-1.93.62-3.66,2.36-4.83l.06,0,0,0a11.76,11.76,0,0,1,2.94-1.14h0l0,0a4.83,4.83,0,0,1,.9-.24,1,1,0,0,1,.42,0,.31.31,0,0,1,.13.06,2.57,2.57,0,0,1,.51.83,3.26,3.26,0,0,1,.14.3,2.54,2.54,0,0,1,.26.5c.34.85.59,1.47,1.48,1.7a12.13,12.13,0,0,0,4,.2,2.16,2.16,0,0,0,1.14-.32.59.59,0,0,1,.15-.16l.14-.18a.13.13,0,0,1,0-.09,4.2,4.2,0,0,0,.43-1c0-.13,0-.39.12-.5a.22.22,0,0,1,.13-.08,1.36,1.36,0,0,1,.53.06,4.46,4.46,0,0,1,2.08.7c.52.22,1,.51,1.52.75a1.67,1.67,0,0,1,.38.28,2.82,2.82,0,0,1,1.17,1.55,4.38,4.38,0,0,1,.16.64A12,12,0,0,1,151.61,97.15Z"/><rect class="cls-13" x="0.24" width="288" height="288"/><rect class="cls-13" y="0.09" width="288" height="287.81"/><path class="cls-12" d="M118.93,181.88a172,172,0,0,0,3.68,17.63c1.34,5.09,9.23,2.93,7.88-2.16a172,172,0,0,1-3.68-17.63C126,174.53,118.13,176.73,118.93,181.88Z"/><path class="cls-12" d="M162.41,186a172,172,0,0,1-9,15.61c-2.86,4.41-9.68-.09-6.82-4.51a172,172,0,0,0,9-15.61C158,176.79,164.77,181.34,162.41,186Z"/><path class="cls-12" d="M135.31,223.72V224a7,7,0,0,0-.56-.54Z"/><path class="cls-12" d="M139.52,219.7h-.34a17.84,17.84,0,0,0-5.18.52l-.1,0a1.33,1.33,0,0,1,.67-.44C136,219.37,138,219.66,139.52,219.7Z"/><path class="cls-12" d="M143.73,224a30.46,30.46,0,0,1-.54,4.71,5.27,5.27,0,0,0-.35-.42c0-.16,0-.35,0-.54a3.85,3.85,0,0,1,0-.4c0-.41.08-.83.12-1.21l0-.25c.07-.45.15-.91.23-1.38A6,6,0,0,1,143.73,224Z"/><path class="cls-12" d="M146.1,221.67a2.4,2.4,0,0,1-.1.54l-.2.26a.69.69,0,0,1-.12.18,1.7,1.7,0,0,0-.12.16l-.14.07a1.28,1.28,0,0,1-.27.14l-.86.42a2.72,2.72,0,0,1,.56-.46,2.18,2.18,0,0,0,.75-1,1.27,1.27,0,0,0-.16-1.16,1.19,1.19,0,0,0-.3-.54,1.35,1.35,0,0,1,.8.74A1.23,1.23,0,0,1,146.1,221.67Z"/><path class="cls-12" d="M153,194.72a33.88,33.88,0,0,0-.11,3.46c0,.6,0,1.2.05,1.82a3,3,0,0,1-1.43,2.72,3.58,3.58,0,0,1-2,.37l0,.13a4.14,4.14,0,0,1-.12.54c-.1.35-.31.71-.38,1a9.42,9.42,0,0,0,0,1.47,12,12,0,0,1-.2,2c-.67-.66-2.4-.13-3.54-.38-2-.44-3.83,1.27-5.91,1.13a22.32,22.32,0,0,1-6.64-1.55c-1.46-.61-1.8-.89-2.85.12q.09-.48.15-1a2.12,2.12,0,0,1-.15-1c.07-1.22.12-2.42.13-3.61l0,0,0,0v-.41a6.26,6.26,0,0,1-2.77.67c-.27,0-.54,0-.8,0a3.31,3.31,0,0,1-3.35-2.18,5.21,5.21,0,0,1,0-2.35s0,0,0-.05c.11-.56.25-1.12.35-1.65.24-1.29.47-2.59.71-3.88.48-2.63.85-5,3.21-6.58l.08,0,0,0a16,16,0,0,1,4-1.56h0l0,0a6.58,6.58,0,0,1,1.23-.33,1.38,1.38,0,0,1,.58-.07.43.43,0,0,1,.18.08,3.5,3.5,0,0,1,.7,1.13,4.45,4.45,0,0,1,.2.41,3.46,3.46,0,0,1,.36.68c.46,1.16.81,2,2,2.32a16.52,16.52,0,0,0,5.41.27,2.94,2.94,0,0,0,1.56-.43.81.81,0,0,1,.2-.21l.2-.25a.17.17,0,0,1,0-.13,5.72,5.72,0,0,0,.59-1.32c0-.18,0-.53.16-.68a.31.31,0,0,1,.18-.11,1.86,1.86,0,0,1,.72.08,6.07,6.07,0,0,1,2.84,1c.71.3,1.41.7,2.07,1a2.27,2.27,0,0,1,.52.38,3.85,3.85,0,0,1,1.6,2.11,6,6,0,0,1,.21.88A16.39,16.39,0,0,1,153,194.72Z"/><path class="cls-12" d="M134.75,223.45l-.86-.42a.94.94,0,0,1-.26-.14.5.5,0,0,0-.15-.07.73.73,0,0,0-.12-.16l-.12-.18-.2-.26a2.39,2.39,0,0,1-.08-.54,1.36,1.36,0,0,1,.15-.68,1.33,1.33,0,0,1,.8-.72,1.35,1.35,0,0,0-.29.53,1.31,1.31,0,0,0-.18,1.16,2.18,2.18,0,0,0,.75,1A2.72,2.72,0,0,1,134.75,223.45Z"/><path class="cls-12" d="M140.3,228.31a5.29,5.29,0,0,0-.35.42c-.23-1.58-4.63-3.13-4.63-4.73.19.2.34.4.45.53.08.46.18.93.25,1.38a1.51,1.51,0,0,0,0,.25c0,.38,4.18.8,4.21,1.21a3.86,3.86,0,0,1,0,.4C140.28,228,140.3,228.15,140.3,228.31Z"/><path class="cls-12" d="M144.29,223.45a7.37,7.37,0,0,0-.56.57v-.3Z"/><path class="cls-12" d="M145.13,220.26l-.08,0a18,18,0,0,0-5.19-.52h-.34c1.58,0,3.49-.33,5,.14A1.6,1.6,0,0,1,145.13,220.26Z"/><path class="cls-12" d="M151.67,253c0,.71.07,1.4.1,2.1l-.3,2.62h0c-.49.76-6.84,1.27-7.75,1.31a2.62,2.62,0,0,1-2.51-1.8,3.26,3.26,0,0,1-.16-.72c0-.05,0-.1,0-.16,0-.75-.07-1.5-.1-2.23l.33.11a106.7,106.7,0,0,1-1.85-12,7.36,7.36,0,0,0,0-2,23.59,23.59,0,0,0-.93-3.62,16.88,16.88,0,0,1-.9-6.36c0-.27-.54,7.21-.68,10.15,0,.91-.05,1.81,0,2.72,0,.48,0,1,0,1.42a38.91,38.91,0,0,1-.41,9.67l.34-.11c0,.74-.07,1.48-.11,2.23,0,.07,0,.11,0,.16a2.64,2.64,0,0,1-.16.72c-.38,1-5.41,1.85-6.58,1.8a2.91,2.91,0,0,1-2.3-1.31h0l-.31-2.62c0-.69.07-1.39.11-2.1l0-.18a108,108,0,0,1-.35-15.14c.07-1.59.18-3.19.31-4.78.12-1.38.2-2.74.25-4.1.08-1.93.11-3.88.12-5.83a19.65,19.65,0,0,1,.33-3.33,14.78,14.78,0,0,1,.72-6.8c.42-1.06.48-5.09,1.16-5.76s7.33,2,9.41,1.91a1.31,1.31,0,0,1,.23,0c1.87-.12,8.23-2.15,9.28-1.14a16.15,16.15,0,0,1,1.55,3.42,28.87,28.87,0,0,1,1,5.63c.1.64.18,1.29.26,1.93.2,1.59.35,1.19.48,2.78a3.56,3.56,0,0,1,0,.38l0,.84c0,.53-.05,1.08-.1,1.61,0,.27-.07.53-.11.8a7.27,7.27,0,0,0-.4,2.81l-.08.68c.05,1.39.12,2.77.25,4.16.15,1.59.25,3.19.33,4.78a105.93,105.93,0,0,1-.37,15.14C151.69,252.87,151.69,252.93,151.67,253Z"/><path class="cls-12" d="M146.28,175.64c-1.74-2.81-5.92-4.72-8.94-3a7.52,7.52,0,0,0-5.08,3.84,6.46,6.46,0,0,0-.65,2.6c0,.13,0,.26,0,.39a7.32,7.32,0,0,0,1.56,4.38,7.57,7.57,0,0,0,1.52,1.47,7.41,7.41,0,0,0,.83.54l.24.13a9.85,9.85,0,0,0,1.27.55,8.66,8.66,0,0,0,2.35.51,4.54,4.54,0,0,0,.9,0,6.9,6.9,0,0,0,2.3-.67,13.38,13.38,0,0,0,1.88-1.12,9.38,9.38,0,0,0,1.17-1,5.66,5.66,0,0,0,1.78-3.48c0-.14,0-.29,0-.43A8,8,0,0,0,146.28,175.64Z"/></g></g></svg>