<svg id="Layer_1" data-name="Layer 1" xmlns="http://www.w3.org/2000/svg" xmlns:xlink="http://www.w3.org/1999/xlink" viewBox="0 0 400.25 402.19"><defs><style>.cls-1{fill:none;}.cls-2{clip-path:url(#clip-path);}.cls-3{fill:#4c4c4c;}.cls-4,.cls-5{fill:#17562a;}.cls-4{stroke:#fff;stroke-miterlimit:10;stroke-width:1.31px;}</style><clipPath id="clip-path" transform="translate(0.13 0.24)"><rect class="cls-1" y="-137.56" width="400" height="540"/></clipPath></defs><title>q8</title><g id="Layer_2" data-name="Layer 2"><g id="Layer_1-2" data-name="Layer 1-2"><g class="cls-2"><polygon class="cls-3" points="400.25 359.96 400.25 402.19 0 402.19 0 359.96 141.11 0 259.85 0 400.25 359.96"/><path class="cls-4" d="M193.74,83.59l.15.26a1.9,1.9,0,0,0,.94,1.05.64.64,0,0,0,.38,0c.61.9-.35,1.37-.32,2.59,0,.17.61,1.76.35,1.88a1.17,1.17,0,0,0-.43,1.29c.78,3.49-1.14,8.09,2.57,8.39.93,0,1.85-.41,2.78-.34,1.39.11,1.28.81,1.88,1.88q.58.87,1.22,1.65c.38.58,1.69.49,0,.39-1,0-4.44-.15-3.18,2.76.51,1.2,2.62,1.54,3.57,1.88a13.57,13.57,0,0,0,5.56.94,43.83,43.83,0,0,0,6.22-.79c1.56-.23,3.76,0,5.18-1,2.25-1.67,1.29-6.55.89-9.14a9.41,9.41,0,0,0-.35-1.33c-.36-2.46.68-4.2,1.51-6.19a8.68,8.68,0,0,0,.83-2.16,2.78,2.78,0,0,0,0-.77.62.62,0,0,0,.39.23c1.78.41,1.78-1.5,1.29-2.87.43-.41.88-.49,1.19-1.46a1.14,1.14,0,0,0-.36-1.29l-.07,0a.9.9,0,0,0-.18-.24c-3.81-3.75-7.25-7.81-12-9-2.64-.66-5.28-1-7.89-1.88a18,18,0,0,0-7.25-1.43A1,1,0,0,0,198,70c0,.66-.78.77-1,1.26a4.85,4.85,0,0,0-.25,1.35c-.33,2.89,0,5.12-1.71,7.5a7.06,7.06,0,0,0-1.11,2.27A1.19,1.19,0,0,0,193.74,83.59Z" transform="translate(0.13 0.24)"/><path class="cls-4" d="M194.46,68.71c-.29,4.52,3.63,3.21,5.43,4.2a11.42,11.42,0,0,0,4.28,2,29.68,29.68,0,0,1,5.69.15c1.94.51,4.17.58,5.86,2.23a42,42,0,0,1,3.82,5.33c1.86,2.55,4.67,3.36,7.14,2a5.7,5.7,0,0,0,2.58-3.28c.74-1.88,1.53-3.87,2.29-5.82,1.32-3.38,0-8.35-1-11.6v-.13a2.48,2.48,0,0,0-.83-1.58A38.24,38.24,0,0,0,218.4,55a20.66,20.66,0,0,0-11.85-.54,12.21,12.21,0,0,0-5.93,3.26l-.19.15a18.15,18.15,0,0,0-2.93,4.24A28.12,28.12,0,0,0,195,67,3.52,3.52,0,0,0,194.46,68.71Z" transform="translate(0.13 0.24)"/><path class="cls-4" d="M211.71,240.33c-.46,2.35-.68,4.88-1.06,7.19-.47,3.11-1,6.21-1.39,9.38s-.79,6.41-1,9.64V367.86c0,1.6.94,2.9,2.12,2.91h3.35c1.18,0,2.15-1.27,2.15-2.87t0,0v-118C215,245.68,213.47,240.78,211.71,240.33Zm-4.17,43h0l.71-.47ZM196.11,99.45l4.17.83a7.36,7.36,0,0,0-4.18-.77ZM182.36,156.3h-1.79a7.76,7.76,0,0,1-7.53-6.62,21.22,21.22,0,0,1,0-7.11v-.15a10,10,0,0,0-1.69,6.4h0a15,15,0,0,0,4.42,9.38,6,6,0,0,0,5.56,2,4.4,4.4,0,0,0,.78-.21,19.84,19.84,0,0,0,6.43-4.52v-1.26a11.28,11.28,0,0,1-6.18,2.12Zm41,56.29a3.89,3.89,0,0,0-2.14-3c-3.56-1.52-8.21-.43-11.89-.39a30.45,30.45,0,0,0-11.64,1.58,3.6,3.6,0,0,0-2,2.33,5,5,0,0,0-.35,2.06,11.7,11.7,0,0,0,.19,1.65l.46.77a2.71,2.71,0,0,0,.29.54c.1.15.17.34.26.49l.32.23a3.26,3.26,0,0,0,.6.41l3.19,2.12c.47.34,1,.68,1.47,1l.46.19c.6.13,2.08,2.5,2.64,3.36,1,1.52,2.12,2.53,3,4.15l.29.56a4.55,4.55,0,0,0,.92,1.33,1.22,1.22,0,0,1,.19.19,4.15,4.15,0,0,0,.86,1,2.79,2.79,0,0,0,3.93-.62l.61.36a5.71,5.71,0,0,1,.9.68,10.39,10.39,0,0,1,1.64,1.78V233.6a6.35,6.35,0,0,1,.07-1.22,36.39,36.39,0,0,1,.29-3.75,2.89,2.89,0,0,1,.07-.77c.15-1.37.35-2.76.53-4.18A21.84,21.84,0,0,1,222.1,219a6.73,6.73,0,0,0,1.68-3.1,5.07,5.07,0,0,0-.39-3.36Zm-25.22,65a8.1,8.1,0,0,1-2.89,6.83l3.43-2.33a7,7,0,0,0,.22-1.09,7.6,7.6,0,0,0,0-.9c.83-.36,1.53-.6,1.68-.39a4.55,4.55,0,0,0,.65.6c.15-2.53.11-5,.11-7.5v-1.52a7.06,7.06,0,0,0-3.22.39,31.25,31.25,0,0,0,0,5.85Zm-12.71-.71a10,10,0,0,0,1,2.48,8.35,8.35,0,0,0,3.36,5.63l-4.69-9.85c.1.54.24,1.13.36,1.69Zm40.28,43.6-.22-6.81.75.36c-1.79-11-1-22.4-.86-33.66,0-2.76,0-5.52-.07-8.27a115.1,115.1,0,0,0-3.68-26.27,33.68,33.68,0,0,0-4.07-10.45,10.39,10.39,0,0,0-1.64-1.78,5.71,5.71,0,0,0-.9-.68,5.15,5.15,0,0,0-.61-.36,2.79,2.79,0,0,1-3.93.62,4.15,4.15,0,0,1-.86-1,1.22,1.22,0,0,0-.19-.19,4,4,0,0,0-1.21.62,6.85,6.85,0,0,0-2.58,4.48c-1.18,5.87-1.93,12.06-2.78,18a124.24,124.24,0,0,0-1.39,16v1.52c0,2.53,0,5-.11,7.5a25.34,25.34,0,0,1-.21,2.66c-.19,1.65-.42,3.28-.67,4.93l7.07-4.48h0c.27-2.54.42-5.09.44-7.66,0-3.1.1-6.14.26-9.16q.28-4.86,1-9.64c.46-3.11,1-6.21,1.39-9.38.36-2.33.6-4.84,1.06-7.19,1.75.43,3.25,5.35,4.17,9.57.61,2.61,1,5,1.18,5.78a112,112,0,0,1,1.82,20.43v.41c0,14.2-1.28,28.48,1.53,42.4.35,1.94,1.69,3.25,3.17,3.1.82.36,1.67.71,2.51,1.05a11.89,11.89,0,0,1-.38-2.16,1.23,1.23,0,0,0,0-.47ZM182.36,156.39c0,1.24-.14,2.5-.21,3.75a19.84,19.84,0,0,0,6.43-4.52v-1.26a11.17,11.17,0,0,1-6.24,2Zm38.53-51.73h0a7.93,7.93,0,0,0-1.11,0c-1.39.13-2.78.84-4.17,1.11a16.93,16.93,0,0,1-4.83-.36,13.15,13.15,0,0,1-6.61-2.48,21.45,21.45,0,0,0-3.67-2.42,1.27,1.27,0,0,0-.26-.13l-4.17-.83a.89.89,0,0,1,.4.26,11.73,11.73,0,0,1,1.57,3.43q.25.6.44,1.24a12.14,12.14,0,0,1,.81,2.06c1,3.51,1.82,6.06,4.54,7a27.72,27.72,0,0,0,12.17.83,5.38,5.38,0,0,0,3.5-1.31,2.29,2.29,0,0,1,.46-.64l.44-.75a.7.7,0,0,1,0-.39,20.83,20.83,0,0,0,1.32-4,7.19,7.19,0,0,1,.36-2.06.69.69,0,0,1,.4-.34,9.35,9.35,0,0,0-1.61-.32Zm0,0h0a7.93,7.93,0,0,0-1.11,0c-1.39.13-2.78.84-4.17,1.11a16.93,16.93,0,0,1-4.83-.36,13.15,13.15,0,0,1-6.61-2.48,21.45,21.45,0,0,0-3.67-2.42,1.27,1.27,0,0,0-.26-.13,7.39,7.39,0,0,0-4.17-.83.89.89,0,0,1,.4.26,11.73,11.73,0,0,1,1.57,3.43q.25.6.44,1.24a12.14,12.14,0,0,1,.81,2.06c1,3.51,1.82,6.06,4.54,7a27.72,27.72,0,0,0,12.17.83,5.38,5.38,0,0,0,3.5-1.31,2.29,2.29,0,0,1,.46-.64l.44-.75a.7.7,0,0,1,0-.39,20.83,20.83,0,0,0,1.32-4,7.19,7.19,0,0,1,.36-2.06.69.69,0,0,1,.4-.34,9.35,9.35,0,0,0-1.61-.32Zm18.25,214.57a4,4,0,0,0-1.49-2.57l.11,3.75a9.17,9.17,0,0,1-.81,4.13c1.66-.73,2.61-3.08,2.17-5.37Zm-40.86-47.77,3.22-.39A7.06,7.06,0,0,0,198.28,271.46ZM185.08,275c-1.63,1-2.34,3.59-1.6,5.79a4.66,4.66,0,0,0,.63,1.25,6.46,6.46,0,0,0,5.67,2.81Zm10.21,9.25-1,.69c1.85-.09,3.72-.62,4.44-3Zm5.4-4.69c-.15-.21-.83,0-1.68.39a7.6,7.6,0,0,1,0,.9,7,7,0,0,1-.22,1.09l2.61-1.78a4.17,4.17,0,0,1-.71-.53Zm40.68-135.09a2.78,2.78,0,0,0-1.22-.62c0,1.88,0,3.64.11,5.52a10.33,10.33,0,0,1-3.21,8.26,6.28,6.28,0,0,1-4.57,1.11v.39c3,1.63,6.32,2.2,9.17-.69S245,150.4,243,146.65a7.57,7.57,0,0,0-1.59-2Zm-55,134.68a10,10,0,0,1-1-2.48c-.14-.56-.26-1.13-.38-1.71-1.63,1-2.34,3.59-1.6,5.79a4.66,4.66,0,0,0,.63,1.25,6.46,6.46,0,0,0,5.67,2.81,8.31,8.31,0,0,1-3.36-5.55Zm52.78,39.89a4,4,0,0,0-1.49-2.57l.11,3.75a9.17,9.17,0,0,1-.81,4.13c1.58-.75,2.49-3,2.11-5.2Zm-20.83-94.73a33.13,33.13,0,0,1-2.36,4.88,13.78,13.78,0,0,0-1,2.25,3.39,3.39,0,0,1-.51,1l.61.36a5.71,5.71,0,0,1,.9.68,10.39,10.39,0,0,1,1.64,1.78v-1.65a6.35,6.35,0,0,1,.07-1.22,36.39,36.39,0,0,1,.29-3.75,2.89,2.89,0,0,1,.07-.77c.15-1.37.35-2.76.53-4.18.1-.6.17-1.18.26-1.88q-.23,1.36-.58,2.66Zm-20.08,47.13a31.23,31.23,0,0,0-.1,6,8.1,8.1,0,0,1-2.89,6.83,5.2,5.2,0,0,1-1,.69c1.85-.09,3.72-.62,4.44-3a7,7,0,0,0,.22-1.09,7.6,7.6,0,0,0,0-.9c.83-.36,1.53-.6,1.68-.39a4.55,4.55,0,0,0,.65.6c.15-2.53.11-5,.11-7.5v-1.52A7,7,0,0,0,198.28,271.46Zm20-47.09a33.13,33.13,0,0,1-2.36,4.88,13.78,13.78,0,0,0-1,2.25,3.39,3.39,0,0,1-.51,1l.61.36a5.71,5.71,0,0,1,.9.68,10.39,10.39,0,0,1,1.64,1.78v-1.65a6.35,6.35,0,0,1,.07-1.22,36.39,36.39,0,0,1,.29-3.75,2.89,2.89,0,0,1,.07-.77c.15-1.37.35-2.76.53-4.18.1-.6.17-1.18.26-1.88q-.2,1.33-.53,2.63Zm20.83,94.73a4,4,0,0,0-1.49-2.57l.11,3.75a9.17,9.17,0,0,1-.81,4.13c1.62-.73,2.56-3,2.17-5.23Zm2.25-174.49a2.9,2.9,0,0,0-1.24-.73c0,1.88,0,3.64.11,5.52a10.33,10.33,0,0,1-3.21,8.26,6.28,6.28,0,0,1-4.57,1.11v.39c3,1.63,6.32,2.2,9.17-.69S245,150.4,243,146.65a7.57,7.57,0,0,0-1.59-2Zm0,0a2.9,2.9,0,0,0-1.24-.73c0,1.88,0,3.64.11,5.52a10.33,10.33,0,0,1-3.21,8.26,6.28,6.28,0,0,1-4.57,1.11v.39c3,1.63,6.32,2.2,9.17-.69S245,150.4,243,146.65a7.57,7.57,0,0,0-1.59-2Zm-55,134.68a10,10,0,0,1-1-2.48c-.14-.56-.26-1.13-.38-1.71-1.63,1-2.34,3.59-1.6,5.79a4.66,4.66,0,0,0,.63,1.25,6.46,6.46,0,0,0,5.67,2.81,8.36,8.36,0,0,1-3.38-5.67Zm31.94-54.82a33.13,33.13,0,0,1-2.36,4.88,13.78,13.78,0,0,0-1,2.25,3.39,3.39,0,0,1-.51,1l.61.36a5.71,5.71,0,0,1,.9.68,10.39,10.39,0,0,1,1.64,1.78v-1.65a6.35,6.35,0,0,1,.07-1.22,36.39,36.39,0,0,1,.29-3.75,2.89,2.89,0,0,1,.07-.77c.15-1.37.35-2.76.53-4.18.1-.6.17-1.18.26-1.88q-.24,1.29-.6,2.53Zm-20.1,47a31.23,31.23,0,0,0-.1,6,8.1,8.1,0,0,1-2.89,6.83,5.2,5.2,0,0,1-1,.69c1.85-.09,3.72-.62,4.44-3a7,7,0,0,0,.22-1.09,7.6,7.6,0,0,0,0-.9c.83-.36,1.53-.6,1.68-.39a4.55,4.55,0,0,0,.65.6c.15-2.53.11-5,.11-7.5v-1.52A7,7,0,0,0,198.28,271.46Zm20.07-47.17h0a33.13,33.13,0,0,1-2.36,4.88,13.78,13.78,0,0,0-1,2.25,3.39,3.39,0,0,1-.51,1l.61.36a5.71,5.71,0,0,1,.9.68,10.39,10.39,0,0,1,1.64,1.78v-1.65a6.35,6.35,0,0,1,.07-1.22,36.39,36.39,0,0,1,.29-3.75,2.89,2.89,0,0,1,.07-.77c.14-1.14.23-2.28.26-3.43Zm5.06-11.84a3.82,3.82,0,0,0-2.14-2.91c-3.56-1.52-8.21-.43-11.89-.39a30.45,30.45,0,0,0-11.64,1.58,3.6,3.6,0,0,0-2,2.33,5,5,0,0,0-.35,2.06,11.7,11.7,0,0,0,.19,1.65l.46.77a2.71,2.71,0,0,0,.29.54c.1.15.17.34.26.49l.32.23a3.26,3.26,0,0,0,.6.41l3.19,2.12c.47.34,1,.68,1.47,1l.46.19c.6.13,2.08,2.5,2.64,3.36,1,1.52,2.12,2.53,3,4.15l.29.56a4.55,4.55,0,0,0,.92,1.33,1.22,1.22,0,0,1,.19.19,4.15,4.15,0,0,0,.86,1,2.79,2.79,0,0,0,3.93-.62,3.39,3.39,0,0,0,.51-1,13.78,13.78,0,0,1,1-2.25,33.13,33.13,0,0,0,2.36-4.88h0a3,3,0,0,1,.25-.51,21.84,21.84,0,0,1,3.51-4.69,6.73,6.73,0,0,0,1.68-3.1,5.07,5.07,0,0,0-.39-3.53Z" transform="translate(0.13 0.24)"/><path class="cls-4" d="M237.38,310.22l.22,6.38-.68,7.94h0a6.5,6.5,0,0,1-5.18,4c-2.53,0-4.77-2.21-5.56-5.46a11.89,11.89,0,0,1-.38-2.16v-.49l-.22-6.81.75.36c-1.79-11-1-22.4-.86-33.66,0-2.76,0-5.52-.07-8.27a115.1,115.1,0,0,0-3.68-26.27,33.68,33.68,0,0,0-4.07-10.45v-1.65a6.35,6.35,0,0,1,.07-1.22c.07-1.24.19-2.5.29-3.75a2.89,2.89,0,0,1,.07-.77c.15-1.37.35-2.76.53-4.18a21.84,21.84,0,0,1,3.51-4.69,6.73,6.73,0,0,0,1.68-3.1,5.07,5.07,0,0,0-.38-3.53,3.78,3.78,0,0,0-2.17-2.87c-3.56-1.52-8.21-.43-11.89-.39a30.45,30.45,0,0,0-11.64,1.58,3.6,3.6,0,0,0-2,2.33,5,5,0,0,0-.35,2.06,11.7,11.7,0,0,0,.19,1.65l.46.77a2.71,2.71,0,0,0,.29.54c.1.15.17.34.26.49l.32.23a3.26,3.26,0,0,0,.6.41l3.19,2.12c-.14,6.74,1.22,13.13,1.68,19.83a67.24,67.24,0,0,1-2,19.29,93,93,0,0,0-2.06,11,31.23,31.23,0,0,0-.1,6,8.1,8.1,0,0,1-2.89,6.83l-1,.69a4.36,4.36,0,0,1-2.12.6,4.47,4.47,0,0,1-2.39-.69L185.1,275c-2.1-10.06-1.24-20.45-1.39-30.77a30.6,30.6,0,0,0-.11-3.19c-.1-2.2-.26-4.39-.46-6.55a29.58,29.58,0,0,0-.88-8.52c-.1-.83-.19-1.63-.26-2.46-.08-1.63-.15-3.25-.21-4.88l.11-2.55c0-.39,0-.78,0-1.16.26-4.84.62-9.66,1.08-14.52q.26-2.95.57-5.87c.6-5.63,1-11.76,2.36-17.07a14.45,14.45,0,0,1,2.46-5.22c2.35-3,5.71-4.11,9.26-4.54a64.65,64.65,0,0,1,13.4-.15,71.82,71.82,0,0,1,13.89,2.61,11,11,0,0,1,6,4.15,24.46,24.46,0,0,1,3.57,7.9,60,60,0,0,1,1.62,20.64q.72,8.06.75,16.19c.07,10.08.17,20,.82,30.11.32,4.84.56,9.66.72,14.52a438.42,438.42,0,0,1-.82,45.91A4.87,4.87,0,0,1,237.38,310.22Z" transform="translate(0.13 0.24)"/><path class="cls-4" d="M240.4,133.39q-.32,5.23-.25,10.49c0,1.88,0,3.64.11,5.52a10.33,10.33,0,0,1-3.21,8.26,6.28,6.28,0,0,1-4.57,1.11v.39a16.46,16.46,0,0,1-.26,1.65c-.22,1.05-.71,2.14-.86,3.15a38.57,38.57,0,0,0,0,4.47,49,49,0,0,1-.44,6,11,11,0,0,0-6-4.15,71.82,71.82,0,0,0-13.89-2.61,64.65,64.65,0,0,0-13.4.15c-3.56.43-6.94,1.5-9.26,4.54q.19-1.46.35-2.95a8.49,8.49,0,0,1-.35-2.89c.15-3.75.26-7.35.29-11l.1-.11h-.1v-1.24a11.23,11.23,0,0,1-6.22,2h-1.79a7.76,7.76,0,0,1-7.53-6.62,21.22,21.22,0,0,1,0-7.11v-.15c.25-1.71.56-3.4.78-5,.53-3.92,1.06-7.86,1.6-11.78,1.07-8,1.9-15.14,7.22-20l.17-.13H183c2.56-2.42,6.21-3.43,9-4.73H192a11.9,11.9,0,0,1,2.78-1,2.36,2.36,0,0,1,1.29-.21.89.89,0,0,1,.4.26,11.73,11.73,0,0,1,1.57,3.43q.25.6.44,1.24a12.14,12.14,0,0,1,.81,2.06c1,3.51,1.82,6.06,4.54,7a27.72,27.72,0,0,0,12.17.83,5.38,5.38,0,0,0,3.5-1.31,2.29,2.29,0,0,1,.46-.64l.44-.75a.7.7,0,0,1,0-.39,20.83,20.83,0,0,0,1.32-4,7.19,7.19,0,0,1,.36-2.06.69.69,0,0,1,.4-.34,3.15,3.15,0,0,1,1.62.23c1.75.36,4.79,1,6.37,2.89,1.6.9,3.17,2.12,4.65,3.11a5.53,5.53,0,0,1,1.17,1.16,11.94,11.94,0,0,1,3.58,6.4,23.58,23.58,0,0,1,.47,2.66A67.06,67.06,0,0,1,240.4,133.39Z" transform="translate(0.13 0.24)"/><polygon class="cls-5" points="400.13 0.07 400.13 359.81 259.82 0.07 400.13 0.07"/><polygon class="cls-5" points="141.15 0.07 0.13 359.81 0.13 0.07 141.15 0.07"/></g></g></g></svg>