<svg id="Layer_1" data-name="Layer 1" xmlns="http://www.w3.org/2000/svg" xmlns:xlink="http://www.w3.org/1999/xlink" viewBox="0 0 400 420.67"><defs><style>.cls-1,.cls-10,.cls-11,.cls-12,.cls-14,.cls-16,.cls-17,.cls-18,.cls-19,.cls-20,.cls-21,.cls-22,.cls-23,.cls-25,.cls-5,.cls-6,.cls-7,.cls-8,.cls-9{fill:none;}.cls-2{clip-path:url(#clip-path);}.cls-13,.cls-24,.cls-3{fill:#17562a;}.cls-4{fill:#4c4c4c;}.cls-10,.cls-11,.cls-12,.cls-16,.cls-17,.cls-18,.cls-19,.cls-20,.cls-21,.cls-22,.cls-23,.cls-5,.cls-6,.cls-7,.cls-8,.cls-9{stroke:#efd330;}.cls-10,.cls-11,.cls-12,.cls-13,.cls-14,.cls-16,.cls-17,.cls-18,.cls-19,.cls-20,.cls-21,.cls-22,.cls-23,.cls-24,.cls-25,.cls-5,.cls-6,.cls-7,.cls-8,.cls-9{stroke-miterlimit:10;}.cls-5{stroke-width:3.19px;}.cls-6{stroke-width:2.86px;}.cls-7{stroke-width:2.55px;}.cls-8{stroke-width:2.23px;}.cls-9{stroke-width:1.91px;}.cls-10{stroke-width:1.59px;}.cls-11{stroke-width:1.27px;}.cls-12,.cls-13,.cls-14{stroke-width:0.95px;}.cls-13,.cls-14,.cls-24,.cls-25{stroke:#fff;}.cls-15{clip-path:url(#clip-path-2);}.cls-16{stroke-width:2.99px;}.cls-17{stroke-width:2.68px;}.cls-18{stroke-width:2.38px;}.cls-19{stroke-width:2.09px;}.cls-20{stroke-width:1.79px;}.cls-21{stroke-width:1.49px;}.cls-22{stroke-width:1.19px;}.cls-23,.cls-24{stroke-width:0.89px;}.cls-25{stroke-width:1.1px;}</style><clipPath id="clip-path" transform="translate(0 -0.04)"><rect class="cls-1" y="132.71" width="400" height="288"/></clipPath><clipPath id="clip-path-2" transform="translate(0 -0.04)"><rect class="cls-1" y="-64.6" width="400" height="252.68"/></clipPath></defs><title>q9</title><g class="cls-2"><polygon class="cls-3" points="400 206.35 400 398.08 394.01 389.89 393.68 389.44 259.69 206.35 400 206.35"/><polygon class="cls-3" points="141.03 206.35 126.57 226 102.33 258.96 0 398.08 0 206.35 141.03 206.35"/><polygon class="cls-4" points="400 258.96 299.07 258.96 393.68 389.44 394.01 389.89 397.99 395.39 398.57 396.18 400 398.16 400 420.63 0 420.63 0 398.13 102.36 258.96 0 258.96 0 226 126.61 226 141.03 206.39 177.53 206.39 177.54 206.35 260.92 206.35 275.17 226 400 226 400 258.96"/><polygon class="cls-4" points="400 420.63 400 420.67 111.9 420.67 111.92 420.63 400 420.63"/><line class="cls-5" x1="195.43" y1="416.57" x2="195.43" y2="393.83"/><line class="cls-6" x1="195.43" y1="382.16" x2="195.43" y2="357.36"/><line class="cls-7" x1="195.43" y1="341.27" x2="195.43" y2="323"/><line class="cls-8" x1="195.43" y1="310.49" x2="195.43" y2="298.79"/><line class="cls-9" x1="195.43" y1="283.48" x2="195.43" y2="275.26"/><line class="cls-10" x1="195.43" y1="262.92" x2="195.43" y2="254.75"/><line class="cls-11" x1="195.43" y1="240.05" x2="195.43" y2="232.92"/><line class="cls-12" x1="195.43" y1="216.96" x2="195.43" y2="211.71"/><polygon class="cls-4" points="400 398.13 400 398.16 398.57 396.18 400 398.13"/><line class="cls-1" x1="171.42" y1="289" x2="169.68" y2="283.88"/><path class="cls-13" d="M345.44,344.86c0,1,.11,2,.14,2.93,0,1.27,0,2.54.11,3.81a23.79,23.79,0,0,0,.5,3.88L359,395a1.7,1.7,0,0,0,1.93.87h0l2.49-.42c.87-.14,1.41-.76,1.21-1.39h0l-14.89-46C348.49,346.55,346.78,344.81,345.44,344.86Zm2.78,17-.46.26c.19,1.49.25,3,.39,4.49.25,2.58.74,5.15,1.21,7.72.42,2.23-4.35,3-4.76.8-.51-2.79-1-5.59-1.31-8.4,0-.66-.1-1.32-.14-2m-6.94-74c-.42,0-.84,0-1.25.1a2.1,2.1,0,0,0,.18-.45,11.19,11.19,0,0,0,4.17-3.55.75.75,0,0,0,.11-.56,5.44,5.44,0,0,0,1.58-4.61,1.48,1.48,0,0,0-.1-.52,9.16,9.16,0,0,0-3.71-5.24c-3.94-2.85-11.53-3.95-15.85-1.11-3.43,1.14-6,3.32-6.94,5.94a5.77,5.77,0,0,0-.08,3.26.75.75,0,0,0-.28.68,3.46,3.46,0,0,0,1.39,2.6,4.8,4.8,0,0,1,1.39,1.58,3.72,3.72,0,0,0,.86,1.12,3.92,3.92,0,0,0,1.32.71,6.83,6.83,0,0,0,.39,1.05,10.7,10.7,0,0,0-3.32.17m1.39,22.29A14.91,14.91,0,0,1,311.9,316c-2.39.36-5.06,0-6.33-1.66a4.87,4.87,0,0,1-.89-2.84c-2,2.46.78,4.85,4,5.81a7.56,7.56,0,0,0,4.33.11,14,14,0,0,0,4.68-2.73h0Zm56.38,57.23-1-2.45v-.22a97.76,97.76,0,0,0-5.19-18q-1.1-2.8-2.36-5.58a122.65,122.65,0,0,1-4.42-11.64,43.63,43.63,0,0,0-2.58-6.22,14.92,14.92,0,0,0-3.79-7.85,11.19,11.19,0,0,0-3.6-2.63,11.53,11.53,0,0,0-4.89-.89,100.82,100.82,0,0,0-10.5.69,86.7,86.7,0,0,0-9.72,1.71,12.28,12.28,0,0,0-6.21,2.9,4.43,4.43,0,0,0-1.14,2.34,25.1,25.1,0,0,0,.42,6.95,82.44,82.44,0,0,0,1.39,8.16,2,2,0,0,0,.17.44c.07.34.15.68.24,1q.38.94.76,1.87l.5.92a7.72,7.72,0,0,1,1.72,3.21,32.94,32.94,0,0,1,1.65,3.73c1.39,4,2.14,8.16,4.94,11.81a7.58,7.58,0,0,0,.5.62,4.3,4.3,0,0,0,1,.85,4.77,4.77,0,0,0,3.18,1.8h0a5.85,5.85,0,0,0,1.83,0c2.38-.45,3.86-2.16,3.36-3.9a7.41,7.41,0,0,1-.69-2.34,20.63,20.63,0,0,1,.12-4.55,14.88,14.88,0,0,0-1-7.77c-1.18-2.55-3-4.88-3.74-7.52l-2.6-.44a2.84,2.84,0,0,1-.49-.08h-.28l-.25-.16L331,338l-.43-.25a3.32,3.32,0,0,1-.35-.62,1.08,1.08,0,0,1,0-.84,1.81,1.81,0,0,1,1.17-1.16,38.83,38.83,0,0,1,8.33-2c2.69-.47,5.94-1.47,8.75-1.31a2.53,2.53,0,0,1,1.93.87,1.34,1.34,0,0,1,.74,1.33,2.32,2.32,0,0,1-.83,1.42,9.07,9.07,0,0,0-2.12,2.52,9.42,9.42,0,0,1-1.11,2.19,4.62,4.62,0,0,0-.44,1,1.17,1.17,0,0,1-.25.44l.49.06c.25,0,.5.09.75.15a7.74,7.74,0,0,1,1.39.5,13.69,13.69,0,0,1,4.31,3.57,31.29,31.29,0,0,1,6,9.78q.63,1.59,1.1,3.21c1.31,4.4,2.17,8.93,4.89,13h-.58l1,2.63.08.18a3.3,3.3,0,0,0,.54.81,5.25,5.25,0,0,0,4.79,1.44,4.66,4.66,0,0,0,3.29-2.19h0a2.1,2.1,0,0,0,.07-1.71Zm-8.21,3-1-2.63h.58c-2.78-4.08-3.58-8.61-4.89-13q-.49-1.62-1.1-3.21a31.29,31.29,0,0,0-6-9.78,13.69,13.69,0,0,0-4.31-3.57,7.74,7.74,0,0,0-1.39-.5c-.25-.06-.5-.11-.75-.15l-.49-.06a3.16,3.16,0,0,1-2.78.72,2.67,2.67,0,0,1-.75-.28h-.17a4.3,4.3,0,0,0-.81.39,2.56,2.56,0,0,0-1.39,2.06c-.11,2.44.11,4.94.22,7.39a28,28,0,0,0,1,6.41,2,2,0,0,0,.18.6c.31,1,.65,2,.88,3,.07.35.14.71.18,1.06,0,.67.1,1.33.14,2a13.83,13.83,0,0,0,.14,2c.28,2.81.79,5.61,1.31,8.4.42,2.24,5.17,1.43,4.76-.8-.47-2.57-1-5.14-1.21-7.72-.14-1.51-.19-3-.39-4.49a17.53,17.53,0,0,0-.65-3,34.67,34.67,0,0,1-1-3.61,23.79,23.79,0,0,1-.5-3.88c0-1.27-.08-2.54-.11-3.81,0-1-.18-2-.14-2.93,1.39,0,3,1.69,4.29,3.21.78.94,1.39,1.81,1.6,2.11a28,28,0,0,1,3.9,7.74v.16c1.81,5.53,2.67,11.25,6.47,16.33a2.63,2.63,0,0,0,2.69.82c.65,0,1.32.08,2,.11a3.3,3.3,0,0,1-.54-.81Zm-14.24-79.48a7.27,7.27,0,0,0-.68-1,6.45,6.45,0,0,0-3.43-2,4.22,4.22,0,0,0-1-.31c-1.21-.21-2.51-.49-3.79-.65a14.14,14.14,0,0,0-5-.34,4.5,4.5,0,0,0-1.22.11.52.52,0,0,0-.26.18c-.14.21,0,.62,0,.85a4.94,4.94,0,0,1-.46,1.73.17.17,0,0,0,0,.15l-.22.36c0-.07-.29.31-.26.3a5.67,5.67,0,0,1-2.39.94,37.77,37.77,0,0,1-9,1.17c-2.11,0-3-.94-4.17-2.19a5.16,5.16,0,0,0-.85-.71l-.47-.43a5.46,5.46,0,0,0-1.58-1.14,1,1,0,0,0-.33-.05,3,3,0,0,0-.93.24,12.31,12.31,0,0,0-1.89.73h0c-1.88.85-4.42,1.69-6,3h0l-.1.08c-3.28,2.53-3,5.42-2.78,8.66q.15,2.4.32,4.79v2a4.87,4.87,0,0,0,.89,2.84c1.29,1.66,3.94,2,6.33,1.66a14.91,14.91,0,0,0,5.56-1.79l.15.47h0c.44,1.41.82,2.85,1.17,4.31a2.4,2.4,0,0,0,.62,1.08c0,.39.1.79.12,1.19a12.28,12.28,0,0,1,6.21-2.9,86.7,86.7,0,0,1,9.72-1.71,100.82,100.82,0,0,1,10.5-.69,11.53,11.53,0,0,1,4.89.89,10.54,10.54,0,0,0-.44-2.4,8.79,8.79,0,0,1-.51-1.74c0-.41.19-.9.22-1.33a4.6,4.6,0,0,0,0-.67v-.16a7.35,7.35,0,0,0,3.21-1,3,3,0,0,0,1.29-3.61c-.28-.72-.54-1.42-.78-2.13a34,34,0,0,1-1.15-4.12A15.32,15.32,0,0,0,351.39,294.94Zm-14.15-19.05c-3.94-2.85-11.53-3.95-15.85-1.11-3.43,1.14-6,3.32-6.94,5.94a5.77,5.77,0,0,0-.08,3.26,1.51,1.51,0,0,0,.14.47,9.24,9.24,0,0,0,4.25,4.75,14.26,14.26,0,0,0,3.06,1.32q.77.24,1.58.4l.43.09a22.08,22.08,0,0,0,6.36.26,13,13,0,0,0,5-1.71,20.9,20.9,0,0,0,2.75-1.85,12.45,12.45,0,0,0,1.56-1.45,5.44,5.44,0,0,0,1.58-4.61,1.48,1.48,0,0,0-.1-.52,9.14,9.14,0,0,0-3.69-5.25Zm.68,11.82a20.65,20.65,0,0,1-2.67,1.84,13,13,0,0,1-5,1.71,22.08,22.08,0,0,1-6.36-.26l-.43-.09q-.81-.16-1.58-.4a14.26,14.26,0,0,1-3.06-1.32,9.24,9.24,0,0,1-4.25-4.75,2.16,2.16,0,0,0-.14-.47.75.75,0,0,0-.28.68,3.46,3.46,0,0,0,1.39,2.6,4.8,4.8,0,0,1,1.39,1.58,3.72,3.72,0,0,0,.86,1.12,3.92,3.92,0,0,0,1.32.71,6.83,6.83,0,0,0,.39,1.05,24.37,24.37,0,0,1,3,.5,16.51,16.51,0,0,0,5.14.16,23.49,23.49,0,0,0,3.58-.45c1-.27,1.88-.72,2.92-.94q.4-.09.82-.14a2.1,2.1,0,0,0,.18-.45,11.19,11.19,0,0,0,4.17-3.55.75.75,0,0,0,.11-.56A12.32,12.32,0,0,1,337.92,287.71ZM335,290.82q-.41.05-.82.14c-1,.23-1.92.68-2.92.94a23.49,23.49,0,0,1-3.58.45,16.51,16.51,0,0,1-5.14-.16,24.37,24.37,0,0,0-3-.5,10.7,10.7,0,0,0-3.32.17,1,1,0,0,1,.33.05,5.46,5.46,0,0,1,1.58,1.14l.47.43a5.16,5.16,0,0,1,.85.71c1.19,1.24,2.1,2.14,4.17,2.19a37.77,37.77,0,0,0,9-1.17,5.67,5.67,0,0,0,2.39-.94s.29-.37.26-.3l.22-.36a.17.17,0,0,1,0-.15,4.94,4.94,0,0,0,.46-1.73c0-.22-.14-.63,0-.85a.52.52,0,0,1,.26-.18c-.41,0-.82.07-1.22.13Zm39,80.58a2.21,2.21,0,0,1,1.39.82c.61.84.21,1.87-.92,2.36m-34.93-15.87a8.77,8.77,0,0,1,2.31-.55m-11.5,3.55a1.46,1.46,0,0,0-.44,2.47,2.33,2.33,0,0,0,.61.4,7.47,7.47,0,0,0,4.5.4m3.31-.51c1.54-.3,3-.83,2.9-2.18a1.54,1.54,0,0,0-.07-.36,2.89,2.89,0,0,1,1.18-.36,3.51,3.51,0,0,0,.56.15M355,303.93a3.25,3.25,0,0,0-1-.12c.24.7.5,1.41.78,2.13a3,3,0,0,1-1.29,3.61,7.35,7.35,0,0,1-3.21,1v.16c2.42.26,4.9.08,6.61-1.4s1.51-3.55-.44-4.78a5.33,5.33,0,0,0-1.46-.63Zm-23.19,59.25a4.3,4.3,0,0,1-1-.85c-.18-.21-.35-.41-.5-.62a1.46,1.46,0,0,0-.44,2.47,2.33,2.33,0,0,0,.61.4,7.47,7.47,0,0,0,4.5.4,4.72,4.72,0,0,1-3.15-1.83Zm43.58,9.07a2.21,2.21,0,0,0-1.39-.82l.57,1.48a2.1,2.1,0,0,1-.07,1.71c1.16-.49,1.56-1.56.9-2.4Zm-27.19-34.37a9.42,9.42,0,0,1-1.11,2.19,4.62,4.62,0,0,0-.44,1,1.17,1.17,0,0,1-.25.44l.49.06c.25,0,.5.09.75.15a7.74,7.74,0,0,1,1.39.5,21.27,21.27,0,0,1-.74-5.34,2.62,2.62,0,0,1-.07,1Zm-8.68,20.83a7.41,7.41,0,0,0,.69,2.34c.47,1.31-.3,2.69-1.9,3.41,1.54-.3,3-.83,2.9-2.18a1.54,1.54,0,0,0-.07-.36,2.89,2.89,0,0,1,1.18-.36,3.51,3.51,0,0,0,.56.15,30.53,30.53,0,0,0-.88-3,2.47,2.47,0,0,0-.18-.6A8.66,8.66,0,0,0,339.56,358.71Zm8.69-20.82a9.42,9.42,0,0,1-1.11,2.19,4.62,4.62,0,0,0-.44,1,1.17,1.17,0,0,1-.25.44l.49.06c.25,0,.5.09.75.15a7.74,7.74,0,0,1,1.39.5,21.27,21.27,0,0,1-.74-5.34,3.24,3.24,0,0,1-.08,1Zm27.19,34.37a2.21,2.21,0,0,0-1.39-.82l.57,1.48a2.1,2.1,0,0,1-.07,1.71c1.16-.49,1.55-1.57.89-2.41ZM355,303.93a3.25,3.25,0,0,0-1-.12c.24.7.5,1.41.78,2.13a3,3,0,0,1-1.29,3.61,7.35,7.35,0,0,1-3.21,1v.16c2.42.26,4.9.08,6.61-1.4s1.51-3.55-.44-4.78a5.33,5.33,0,0,0-1.46-.63Zm0,0a3.25,3.25,0,0,0-1-.12c.24.7.5,1.41.78,2.13a3,3,0,0,1-1.29,3.61,7.35,7.35,0,0,1-3.21,1v.16c2.42.26,4.9.08,6.61-1.4s1.51-3.55-.44-4.78a5.33,5.33,0,0,0-1.46-.63Zm-23.19,59.25a4.3,4.3,0,0,1-1-.85c-.18-.21-.35-.41-.5-.62a1.46,1.46,0,0,0-.44,2.47,2.33,2.33,0,0,0,.61.4,7.47,7.47,0,0,0,4.5.4,4.72,4.72,0,0,1-3.15-1.83Zm16.39-25.3a9.42,9.42,0,0,1-1.11,2.19,4.62,4.62,0,0,0-.44,1,1.17,1.17,0,0,1-.25.44l.49.06c.25,0,.5.09.75.15a7.74,7.74,0,0,1,1.39.5,21.27,21.27,0,0,1-.74-5.34,2.62,2.62,0,0,1-.07,1Zm-8.68,20.83a7.41,7.41,0,0,0,.69,2.34c.47,1.31-.3,2.69-1.9,3.41,1.54-.3,3-.83,2.9-2.18a1.54,1.54,0,0,0-.07-.36,2.89,2.89,0,0,1,1.18-.36,3.51,3.51,0,0,0,.56.15,30.53,30.53,0,0,0-.88-3,2.47,2.47,0,0,0-.18-.6A8.66,8.66,0,0,0,339.56,358.71Zm8.69-20.82a9.42,9.42,0,0,1-1.11,2.19,4.62,4.62,0,0,0-.44,1,1.17,1.17,0,0,1-.25.44l.49.06c.25,0,.5.09.75.15a7.74,7.74,0,0,1,1.39.5c-.46-1.76-.72-4.76-.82-4.38Zm3-3.94a2.32,2.32,0,0,1-.83,1.42,9.07,9.07,0,0,0-2.12,2.52,9.42,9.42,0,0,1-1.11,2.19,4.62,4.62,0,0,0-.44,1,1.17,1.17,0,0,1-.25.44,3.16,3.16,0,0,1-2.78.72,2.67,2.67,0,0,1-.75-.28h-.17a2.74,2.74,0,0,1-.83-.4l-.28-.19c-.85-.52-1.82-.78-2.78-1.25a9.6,9.6,0,0,0-2.35-1h-.36l-1.19-.2-2.6-.44a2.84,2.84,0,0,1-.49-.08h-.28l-.25-.16-.28-.17-.43-.25a3.32,3.32,0,0,1-.35-.62,1.08,1.08,0,0,1,0-.84,1.81,1.81,0,0,1,1.17-1.16,38.83,38.83,0,0,1,8.33-2c2.69-.47,5.94-1.47,8.75-1.31a2.53,2.53,0,0,1,1.93.87,1.39,1.39,0,0,1,.74,1.16Z" transform="translate(0 -0.04)"/><path class="cls-14" d="M319,330.52c-22.07-13.31-106.79-26.24-114.43-71" transform="translate(0 -0.04)"/><path class="cls-14" d="M106,229.21l-6.94,6,8.33,3-12.5-3s-9,.48,7.64,0,72.22-4.25,86.81,8.38" transform="translate(0 -0.04)"/></g><g class="cls-15"><polygon class="cls-3" points="400 0 400 168.22 394.01 161.03 393.68 160.64 259.69 0 400 0"/><polygon class="cls-3" points="141.03 0 126.57 17.24 102.33 46.16 0 168.22 0 0 141.03 0"/><polygon class="cls-4" points="400 46.16 299.07 46.16 393.68 160.64 394.01 161.03 397.99 165.86 398.57 166.55 400 168.29 400 188 0 188 0 168.26 102.36 46.16 0 46.16 0 17.24 126.61 17.24 141.03 0.04 177.53 0.04 177.54 0 260.92 0 275.17 17.24 400 17.24 400 46.16"/><polygon class="cls-4" points="400 188 400 188.04 111.9 188.04 111.92 188 400 188"/><line class="cls-16" x1="195.43" y1="184.44" x2="195.43" y2="164.49"/><line class="cls-17" x1="195.43" y1="154.25" x2="195.43" y2="132.49"/><line class="cls-18" x1="195.43" y1="118.37" x2="195.43" y2="102.34"/><line class="cls-19" x1="195.43" y1="91.37" x2="195.43" y2="81.1"/><line class="cls-20" x1="195.43" y1="67.67" x2="195.43" y2="60.46"/><line class="cls-21" x1="195.43" y1="49.63" x2="195.43" y2="42.46"/><line class="cls-22" x1="195.43" y1="29.57" x2="195.43" y2="23.31"/><line class="cls-23" x1="195.43" y1="9.31" x2="195.43" y2="4.7"/><polygon class="cls-4" points="400 168.26 400 168.29 398.57 166.55 400 168.26"/><line class="cls-1" x1="171.42" y1="72.51" x2="169.68" y2="68.02"/><path class="cls-24" d="M345.43,121.53c0,.88.11,1.75.14,2.57,0,1.11,0,2.23.11,3.34a18.45,18.45,0,0,0,.5,3.4L359,165.51a1.79,1.79,0,0,0,1.93.77h0l2.49-.37c.87-.13,1.41-.67,1.21-1.22h0l-14.89-40.36C348.5,123,346.82,121.49,345.43,121.53Zm2.78,14.92-.46.23c.19,1.31.25,2.63.39,3.94.25,2.26.74,4.52,1.21,6.77.42,2-4.35,2.63-4.76.7-.51-2.45-1-4.9-1.31-7.37,0-.58-.1-1.16-.14-1.75M336.19,74c-.42,0-.84,0-1.25.09a1.71,1.71,0,0,0,.18-.39,10.92,10.92,0,0,0,4.17-3.11.6.6,0,0,0,.11-.49,4.43,4.43,0,0,0,1.58-4,1.16,1.16,0,0,0-.1-.46,8.13,8.13,0,0,0-3.71-4.6c-3.94-2.5-11.53-3.47-15.85-1-3.43,1-6,2.91-6.94,5.21a4.47,4.47,0,0,0-.08,2.86.62.62,0,0,0-.28.6A3,3,0,0,0,315.42,71a4.44,4.44,0,0,1,1.39,1.39,3.35,3.35,0,0,0,.86,1A4.12,4.12,0,0,0,319,74a5.54,5.54,0,0,0,.39.92,12.17,12.17,0,0,0-3.32.15m1.39,19.56a16.4,16.4,0,0,1-5.56,1.57c-2.39.32-5.06,0-6.33-1.46a3.92,3.92,0,0,1-.89-2.49c-2,2.16.78,4.26,4,5.1a8.58,8.58,0,0,0,4.33.1,14.54,14.54,0,0,0,4.68-2.4h0Zm56.38,50.21-1-2.15v-.19a77.9,77.9,0,0,0-5.19-15.79q-1.1-2.46-2.36-4.9a99.81,99.81,0,0,1-4.42-10.21,35.83,35.83,0,0,0-2.58-5.46,12.51,12.51,0,0,0-3.79-6.89,11.23,11.23,0,0,0-3.6-2.31,13,13,0,0,0-4.89-.78c-3.52,0-7,.24-10.5.61a97.78,97.78,0,0,0-9.72,1.5,13.08,13.08,0,0,0-6.21,2.54,3.71,3.71,0,0,0-1.14,2.05,19.38,19.38,0,0,0,.42,6.1,64.27,64.27,0,0,0,1.39,7.16,1.65,1.65,0,0,0,.17.39c.07.3.15.6.24.88q.37.82.76,1.64l.5.81a6.55,6.55,0,0,1,1.72,2.82,27.25,27.25,0,0,1,1.65,3.27c1.39,3.51,2.14,7.16,4.94,10.36a6.89,6.89,0,0,0,.5.54,4.2,4.2,0,0,0,1,.75,4.94,4.94,0,0,0,3.18,1.58h0a6.66,6.66,0,0,0,1.83,0c2.38-.39,3.86-1.9,3.36-3.42a5.92,5.92,0,0,1-.69-2.05,15.9,15.9,0,0,1,.13-4,11.59,11.59,0,0,0-1-6.82c-1.18-2.24-3-4.28-3.74-6.6l-2.6-.39a3.21,3.21,0,0,1-.49-.07h-.28l-.25-.14-.28-.15-.43-.22a2.84,2.84,0,0,1-.35-.54.84.84,0,0,1,0-.74,1.71,1.71,0,0,1,1.17-1,43.4,43.4,0,0,1,8.33-1.75c2.69-.41,5.94-1.29,8.75-1.15a2.69,2.69,0,0,1,1.93.76,1.15,1.15,0,0,1,.74,1.17,2,2,0,0,1-.83,1.25,8.32,8.32,0,0,0-2.13,2.21,7.93,7.93,0,0,1-1.11,1.92,3.82,3.82,0,0,0-.44.88,1,1,0,0,1-.25.39l.49.05c.25,0,.5.08.75.13a8.47,8.47,0,0,1,1.39.44,13.44,13.44,0,0,1,4.31,3.13,27.12,27.12,0,0,1,6,8.58,30.07,30.07,0,0,1,1.1,2.82c1.31,3.86,2.17,7.83,4.89,11.41h-.58l1,2.31.08.16a2.9,2.9,0,0,0,.54.71,5.73,5.73,0,0,0,4.79,1.26,4.71,4.71,0,0,0,3.29-1.92h0a1.64,1.64,0,0,0,.07-1.5Zm-8.21,2.63-1-2.31h.58c-2.78-3.58-3.58-7.55-4.89-11.41q-.49-1.42-1.1-2.82a27.12,27.12,0,0,0-6-8.58,13.44,13.44,0,0,0-4.31-3.13,8.47,8.47,0,0,0-1.39-.44c-.25-.05-.5-.1-.75-.13l-.49-.05a3.48,3.48,0,0,1-2.78.63,2.91,2.91,0,0,1-.75-.25h-.17a4.58,4.58,0,0,0-.81.34,2.25,2.25,0,0,0-1.39,1.81,63.31,63.31,0,0,0,.22,6.48,21.78,21.78,0,0,0,1,5.62,1.58,1.58,0,0,0,.18.53c.31.88.65,1.75.88,2.63.07.31.14.62.18.93,0,.59.1,1.17.14,1.75a10.67,10.67,0,0,0,.14,1.75c.28,2.47.79,4.92,1.31,7.37.42,2,5.17,1.25,4.76-.7a67.46,67.46,0,0,1-1.21-6.77c-.14-1.32-.19-2.63-.39-3.94a13.78,13.78,0,0,0-.65-2.63,27.47,27.47,0,0,1-1-3.17,18.45,18.45,0,0,1-.5-3.4c0-1.11-.08-2.23-.11-3.34,0-.88-.18-1.75-.14-2.57,1.39,0,3,1.48,4.29,2.82.78.82,1.39,1.59,1.6,1.85a23.58,23.58,0,0,1,3.9,6.79v.14c1.81,4.85,2.67,9.87,6.47,14.33a2.86,2.86,0,0,0,2.69.72c.65,0,1.32.07,2,.1a2.9,2.9,0,0,1-.54-.71Zm-14.4-69.68a6.4,6.4,0,0,0-.68-.88,6.68,6.68,0,0,0-3.43-1.75,4.67,4.67,0,0,0-1-.27c-1.21-.18-2.51-.43-3.79-.57a16.06,16.06,0,0,0-5-.3,5.11,5.11,0,0,0-1.22.1.53.53,0,0,0-.26.16c-.14.18,0,.54,0,.75a3.93,3.93,0,0,1-.46,1.52.13.13,0,0,0,0,.13l-.22.32c0-.06-.29.27-.26.26a6.14,6.14,0,0,1-2.39.82,42.77,42.77,0,0,1-9,1,5.26,5.26,0,0,1-4.17-1.92,5.06,5.06,0,0,0-.85-.62l-.47-.38a5.5,5.5,0,0,0-1.58-1,1.13,1.13,0,0,0-.33,0,3.28,3.28,0,0,0-.93.21,13.4,13.4,0,0,0-1.89.64h0c-1.87.75-4.42,1.48-6,2.63h0l-.1.07c-3.28,2.22-3,4.76-2.78,7.6q.15,2.11.32,4.2v1.75a3.92,3.92,0,0,0,.89,2.49c1.29,1.46,3.94,1.75,6.33,1.46a16.4,16.4,0,0,0,5.56-1.57l.15.41h0c.44,1.24.82,2.5,1.17,3.78a2.06,2.06,0,0,0,.63.95c0,.34.1.69.13,1a13.08,13.08,0,0,1,6.21-2.54,97.78,97.78,0,0,1,9.72-1.5c3.47-.36,7-.56,10.5-.61a13,13,0,0,1,4.89.78,8.25,8.25,0,0,0-.44-2.11,7,7,0,0,1-.51-1.53c0-.36.19-.79.22-1.17a3.54,3.54,0,0,0,0-.59V91.4a8.1,8.1,0,0,0,3.21-.88c1.31-.83,1.81-2,1.29-3.17-.28-.63-.54-1.25-.78-1.87a27.08,27.08,0,0,1-1.15-3.61,12,12,0,0,0-1.28-4.14ZM337.06,61.07c-3.94-2.5-11.53-3.47-15.85-1-3.43,1-6,2.91-6.94,5.21a4.47,4.47,0,0,0-.08,2.86,1.21,1.21,0,0,0,.14.41,8.56,8.56,0,0,0,4.25,4.17,15.37,15.37,0,0,0,3.06,1.16c.52.14,1,.26,1.58.35l.43.08a25.13,25.13,0,0,0,6.36.23,14.26,14.26,0,0,0,5-1.5,21.78,21.78,0,0,0,2.94-1.68,12,12,0,0,0,1.56-1.27,4.43,4.43,0,0,0,1.58-4,1.16,1.16,0,0,0-.1-.46A8.12,8.12,0,0,0,337.26,61Zm.87,10.32A21,21,0,0,1,335.26,73a14.26,14.26,0,0,1-5,1.5,25.13,25.13,0,0,1-6.36-.23l-.43-.08c-.54-.1-1.07-.21-1.58-.35a15.37,15.37,0,0,1-3.06-1.16,8.56,8.56,0,0,1-4.25-4.17,1.73,1.73,0,0,0-.14-.41.62.62,0,0,0-.28.6A3,3,0,0,0,315.57,71,4.44,4.44,0,0,1,317,72.37a3.35,3.35,0,0,0,.86,1,4.12,4.12,0,0,0,1.32.62,5.54,5.54,0,0,0,.39.92,27.51,27.51,0,0,1,3,.44,18.79,18.79,0,0,0,5.14.14,26.62,26.62,0,0,0,3.58-.39c1-.24,1.87-.63,2.92-.82l.82-.12a1.71,1.71,0,0,0,.18-.39,10.92,10.92,0,0,0,4.17-3.11.6.6,0,0,0,.11-.49A11.79,11.79,0,0,1,337.93,71.39ZM335,74.12l-.82.12c-1,.2-1.92.6-2.92.82a26.62,26.62,0,0,1-3.58.39,18.79,18.79,0,0,1-5.14-.14,27.51,27.51,0,0,0-3-.44,12.17,12.17,0,0,0-3.32.15,1.13,1.13,0,0,1,.33,0,5.5,5.5,0,0,1,1.58,1l.47.38a5.06,5.06,0,0,1,.85.62A5.57,5.57,0,0,0,323.64,79a42.77,42.77,0,0,0,9-1,6.14,6.14,0,0,0,2.39-.82s.29-.32.26-.26l.22-.32a.13.13,0,0,1,0-.13,3.93,3.93,0,0,0,.46-1.52c0-.19-.14-.55,0-.75a.53.53,0,0,1,.26-.16c-.42,0-.83.06-1.24.11Zm39,70.7a2.28,2.28,0,0,1,1.39.72c.61.73.21,1.64-.92,2.07m-34.94-13.92a9.8,9.8,0,0,1,2.31-.48m-11.5,3.11c-1.07.52-1.26,1.49-.44,2.17a2.38,2.38,0,0,0,.61.35,8.45,8.45,0,0,0,4.5.35m3.31-.45c1.54-.26,3-.73,2.9-1.91a1.2,1.2,0,0,0-.07-.32,3.21,3.21,0,0,1,1.18-.32,3.91,3.91,0,0,0,.56.13M355,85.62a3.68,3.68,0,0,0-1-.11c.24.61.5,1.24.78,1.87.51,1.13,0,2.34-1.29,3.17a8.1,8.1,0,0,1-3.21.88v.14c2.42.23,4.9.07,6.61-1.23s1.52-3.11-.44-4.2a5.73,5.73,0,0,0-1.45-.55Zm-23.19,52a4.2,4.2,0,0,1-1-.75c-.18-.18-.35-.36-.5-.54-1.07.52-1.26,1.49-.44,2.17a2.38,2.38,0,0,0,.61.35,8.45,8.45,0,0,0,4.5.35,4.88,4.88,0,0,1-3.15-1.61Zm43.58,8a2.28,2.28,0,0,0-1.39-.72l.57,1.3a1.64,1.64,0,0,1-.07,1.5c1.16-.43,1.56-1.37.9-2.11Zm-27.22-30.18a7.93,7.93,0,0,1-1.11,1.92,3.82,3.82,0,0,0-.44.88,1,1,0,0,1-.25.39l.49.05c.25,0,.5.08.75.13a8.47,8.47,0,0,1,1.39.44,16.53,16.53,0,0,1-.74-4.69C348.36,114.43,348.35,115,348.21,115.38Zm-8.65,18.3a5.92,5.92,0,0,0,.69,2.05c.47,1.15-.3,2.36-1.9,3,1.54-.26,3-.73,2.9-1.91a1.2,1.2,0,0,0-.07-.32,3.21,3.21,0,0,1,1.18-.32,3.91,3.91,0,0,0,.56.13,24.35,24.35,0,0,0-.88-2.63,2,2,0,0,0-.18-.53A9.65,9.65,0,0,0,339.56,133.68Zm8.65-18.3a7.93,7.93,0,0,1-1.11,1.92,3.82,3.82,0,0,0-.44.88,1,1,0,0,1-.25.39l.49.05c.25,0,.5.08.75.13a8.47,8.47,0,0,1,1.39.44,16.53,16.53,0,0,1-.74-4.69C348.36,114.43,348.35,115,348.21,115.38Zm27.19,30.15a2.28,2.28,0,0,0-1.39-.72l.57,1.3a1.64,1.64,0,0,1-.07,1.5c1.14-.42,1.55-1.34.93-2.08Zm-20.4-60a3.68,3.68,0,0,0-1-.11c.24.61.5,1.24.78,1.87.51,1.13,0,2.34-1.29,3.17a8.1,8.1,0,0,1-3.21.88v.14c2.42.23,4.9.07,6.61-1.23s1.48-3.12-.49-4.19a5.72,5.72,0,0,0-1.36-.52Zm0,0a3.68,3.68,0,0,0-1-.11c.24.61.5,1.24.78,1.87.51,1.13,0,2.34-1.29,3.17a8.1,8.1,0,0,1-3.21.88v.14c2.42.23,4.9.07,6.61-1.23s1.48-3.12-.49-4.19a5.72,5.72,0,0,0-1.36-.52Zm-23.19,52a4.2,4.2,0,0,1-1-.75c-.18-.18-.35-.36-.5-.54-1.07.52-1.26,1.49-.44,2.17a2.38,2.38,0,0,0,.61.35,8.45,8.45,0,0,0,4.5.35,4.9,4.9,0,0,1-3.11-1.57Zm16.39-22.2a7.93,7.93,0,0,1-1.11,1.92,3.82,3.82,0,0,0-.44.88,1,1,0,0,1-.25.39l.49.05c.25,0,.5.08.75.13a8.47,8.47,0,0,1,1.39.44,16.53,16.53,0,0,1-.74-4.69c.08-.07.07.55-.07.89Zm-8.64,18.31a5.92,5.92,0,0,0,.69,2.05c.47,1.15-.3,2.36-1.9,3,1.54-.26,3-.73,2.9-1.91a1.2,1.2,0,0,0-.07-.32,3.21,3.21,0,0,1,1.18-.32,3.91,3.91,0,0,0,.56.13,24.35,24.35,0,0,0-.88-2.63,2,2,0,0,0-.18-.53A9.65,9.65,0,0,0,339.56,133.68Zm8.65-18.3a7.93,7.93,0,0,1-1.11,1.92,3.82,3.82,0,0,0-.44.88,1,1,0,0,1-.25.39l.49.05c.25,0,.5.08.75.13a8.47,8.47,0,0,1,1.39.44C348.58,117.68,348.35,115,348.21,115.38Zm3-3.46a2,2,0,0,1-.83,1.25,8.32,8.32,0,0,0-2.13,2.21,7.93,7.93,0,0,1-1.11,1.92,3.82,3.82,0,0,0-.44.88,1,1,0,0,1-.25.39,3.48,3.48,0,0,1-2.78.63,2.91,2.91,0,0,1-.75-.25h-.17a2.91,2.91,0,0,1-.83-.35l-.28-.17c-.85-.46-1.82-.68-2.78-1.1a10.36,10.36,0,0,0-2.35-.88h-.36l-1.19-.18-2.6-.39a3.21,3.21,0,0,1-.49-.07h-.28l-.25-.14-.28-.15-.43-.22a2.84,2.84,0,0,1-.35-.54.84.84,0,0,1,0-.74,1.71,1.71,0,0,1,1.17-1,43.4,43.4,0,0,1,8.33-1.75c2.69-.41,5.94-1.29,8.75-1.15a2.69,2.69,0,0,1,1.93.76,1.23,1.23,0,0,1,.78,1.05Z" transform="translate(0 -0.04)"/><polyline class="cls-25" points="326.39 107.32 283.33 20.46 120.83 20.46 129.86 25.29 110.42 19.14 132.64 15.63 120.46 19.67"/></g></svg>