<svg id="Layer_1" data-name="Layer 1" xmlns="http://www.w3.org/2000/svg" viewBox="0 0 587.3 268.99"><defs><style>.cls-1{fill:#dfe1d4;stroke:#58595b;stroke-miterlimit:10;stroke-width:0.98px;}.cls-2{opacity:0.21;}.cls-10,.cls-11,.cls-2,.cls-3,.cls-4,.cls-5,.cls-6,.cls-7,.cls-8,.cls-9{isolation:isolate;}.cls-3,.cls-4,.cls-5{font-size:105.58px;font-family:ACaslonPro-Italic, Adobe Caslon Pro;font-style:italic;}.cls-4{letter-spacing:-0.01em;}.cls-5{letter-spacing:0.01em;}.cls-10,.cls-11,.cls-7,.cls-8,.cls-9{font-size:58.96px;fill:#231f20;font-family:ACaslonPro-Regular, Adobe Caslon Pro;}.cls-7{letter-spacing:0.01em;}.cls-9{letter-spacing:-0.01em;}.cls-10{letter-spacing:-0.01em;}.cls-11{letter-spacing:0.01em;}</style></defs><title>asset12</title><g id="Layer_2" data-name="Layer 2"><g id="Layer_1-2" data-name="Layer 1-2"><g id="Strenghts_Opportunities" data-name="Strenghts Opportunities"><path class="cls-1" d="M22,.5H565.32c11.87,0,21.5,9.3,21.5,20.78v216c0,11.48-9.63,20.78-21.5,20.78H22C10.13,258,.5,248.73.5,237.26v-216C.5,9.8,10.13.5,22,.5Z" transform="translate(-0.01 -0.01)"/><g class="cls-2"><text class="cls-3" transform="translate(86 195.08) scale(1.03 1)">e</text><text class="cls-3" transform="translate(124.67 195.08) scale(1.03 1)">x</text><text class="cls-4" transform="translate(176.12 195.08) scale(1.03 1)">p</text><text class="cls-3" transform="translate(225.38 195.08) scale(1.03 1)">e</text><text class="cls-5" transform="translate(264.05 195.08) scale(1.03 1)">r</text><text class="cls-3" transform="translate(304.03 195.08) scale(1.03 1)">ience</text></g><g class="cls-6"><text class="cls-7" transform="translate(43.09 108.2) scale(1.03 1)">P</text><text class="cls-8" transform="translate(80.73 108.2) scale(1.03 1)">H</text><text class="cls-8" transform="translate(132.76 108.2) scale(1.03 1)">O</text><text class="cls-9" transform="translate(182.54 108.2) scale(1.03 1)">T</text><text class="cls-7" transform="translate(224.75 108.2) scale(1.03 1)">O</text><text class="cls-8" transform="translate(275.44 108.2) scale(1.03 1)">G</text><text class="cls-10" transform="translate(325.34 108.2) scale(1.03 1)">R</text><text class="cls-8" transform="translate(367.25 108.2) scale(1.03 1)">A</text><text class="cls-11" transform="translate(412.57 108.2) scale(1.03 1)">P</text><text class="cls-8" transform="translate(450.21 108.2) scale(1.03 1)">HY</text></g></g></g></g></svg>