<svg id="Layer_1" data-name="Layer 1" xmlns="http://www.w3.org/2000/svg" viewBox="0 0 697.1 461.13"><defs><style>.cls-1{fill:#dfe1d4;stroke:#58595b;stroke-miterlimit:10;stroke-width:0.94px;}.cls-2{opacity:0.21;font-size:273.43px;}.cls-11,.cls-12,.cls-13,.cls-15,.cls-16,.cls-17,.cls-18,.cls-19,.cls-2,.cls-3,.cls-4,.cls-5,.cls-7,.cls-8,.cls-9{isolation:isolate;}.cls-11,.cls-12,.cls-15,.cls-16,.cls-17,.cls-18,.cls-19,.cls-2,.cls-7,.cls-8,.cls-9{font-family:ACaslonPro-Regular, Adobe Caslon Pro;}.cls-13,.cls-4,.cls-5{font-size:64.76px;}.cls-11,.cls-12,.cls-13,.cls-15,.cls-16,.cls-17,.cls-18,.cls-19,.cls-4,.cls-5,.cls-7,.cls-8,.cls-9{fill:#231f20;}.cls-4,.cls-5{font-family:ACaslonPro-Italic, Adobe Caslon Pro;font-style:italic;}.cls-5{letter-spacing:-0.02em;}.cls-6{letter-spacing:-0.01em;}.cls-11,.cls-12,.cls-7,.cls-8,.cls-9{font-size:54.64px;}.cls-8{letter-spacing:-0.02em;}.cls-9{letter-spacing:0.02em;}.cls-10{letter-spacing:0.01em;}.cls-11{letter-spacing:0.01em;}.cls-12{letter-spacing:-0.03em;}.cls-13{font-family:ACaslonPro-Bold, Adobe Caslon Pro;font-weight:700;}.cls-14{letter-spacing:0.02em;}.cls-15,.cls-16,.cls-17,.cls-18,.cls-19{font-size:70.21px;}.cls-16{letter-spacing:-0.02em;}.cls-17{letter-spacing:0.01em;}.cls-18{letter-spacing:-0.01em;}.cls-19{letter-spacing:-0.02em;}</style></defs><title>asset2</title><g id="Layer_2" data-name="Layer 2"><g id="Layer_1-2" data-name="Layer 1-2"><g id="Strenghts_Opportunities" data-name="Strenghts Opportunities"><path class="cls-1" d="M19.43.5H677.74c10.45,0,18.93,9.63,18.93,21.5V338.38c0,11.87-8.47,21.5-18.93,21.5H19.43C9,359.88.5,350.25.5,338.38V22C.5,10.13,9,.5,19.43.5Z" transform="translate(-0.03 -0.03)"/><text class="cls-2" transform="translate(226.59 269.73) scale(0.88 1)">&amp;</text><g class="cls-3"><text class="cls-4" transform="translate(46.23 117.09) scale(0.88 1)">G</text><text class="cls-5" transform="translate(86.65 117.09) scale(0.88 1)">o<tspan class="cls-6" x="24.48" y="0">o</tspan></text><text class="cls-4" transform="translate(130.77 117.09) scale(0.88 1)">d</text></g><g class="cls-3"><text class="cls-7" transform="translate(174.91 117.09) scale(0.88 1)">A</text><text class="cls-8" transform="translate(210.65 117.09) scale(0.88 1)">E</text><text class="cls-7" transform="translate(243.12 117.09) scale(0.88 1)">S</text><text class="cls-9" transform="translate(269.47 117.09) scale(0.88 1)">T<tspan class="cls-10" x="39.45" y="0">H</tspan></text><text class="cls-7" transform="translate(345.23 117.09) scale(0.88 1)">E</text><text class="cls-11" transform="translate(378.18 117.09) scale(0.88 1)">T</text><text class="cls-7" transform="translate(412.43 117.09) scale(0.88 1)">IC S</text><text class="cls-12" transform="translate(504.73 117.09) scale(0.88 1)">E</text><text class="cls-7" transform="translate(536.72 117.09) scale(0.88 1)">NSE</text></g><g class="cls-3"><text class="cls-13" transform="translate(414.79 177.81) scale(0.88 1)">f</text><text class="cls-13" transform="translate(433.03 177.81) scale(0.88 1)">or desi<tspan class="cls-14" x="178.6" y="0">g</tspan><tspan x="212.41" y="0">n</tspan></text></g><g class="cls-3"><text class="cls-15" transform="translate(44.08 292.54) scale(0.88 1)">US</text><text class="cls-16" transform="translate(124.04 292.54) scale(0.88 1)">E</text><text class="cls-15" transform="translate(165.14 292.54) scale(0.88 1)">R </text><text class="cls-16" transform="translate(223.91 292.54) scale(0.88 1)">E</text><text class="cls-15" transform="translate(265.63 292.54) scale(0.88 1)">X</text><text class="cls-17" transform="translate(308.71 292.54) scale(0.88 1)">P</text><text class="cls-16" transform="translate(346.83 292.54) scale(0.88 1)">E</text><text class="cls-18" transform="translate(387.93 292.54) scale(0.88 1)">R</text><text class="cls-17" transform="translate(430.39 292.54) scale(0.88 1)">I</text><text class="cls-19" transform="translate(453.93 292.54) scale(0.88 1)">E</text><text class="cls-15" transform="translate(495.03 292.54) scale(0.88 1)">NCE</text></g></g></g></g></svg>