<svg id="Layer_1" data-name="Layer 1" xmlns="http://www.w3.org/2000/svg" viewBox="0 0 369.36 207.11"><defs><style>.cls-1{fill:#dfe1d4;stroke:#58595b;stroke-miterlimit:10;stroke-width:0.98px;}.cls-2,.cls-3,.cls-4,.cls-5,.cls-6,.cls-7,.cls-8,.cls-9{isolation:isolate;}.cls-3{opacity:0.21;}.cls-3,.cls-4,.cls-5{font-size:98.2px;font-family:ACaslonPro-Italic, Adobe Caslon Pro;font-style:italic;}.cls-4{opacity:0.33;}.cls-5{opacity:0.25;}.cls-6,.cls-7,.cls-8,.cls-9{font-size:43.03px;fill:#231f20;font-family:ACaslonPro-Regular, Adobe Caslon Pro;}.cls-6{letter-spacing:-0.02em;}.cls-8{letter-spacing:0.01em;}.cls-9{letter-spacing:-0.03em;}</style></defs><title>asset5</title><g id="Layer_2" data-name="Layer 2"><g id="Layer_1-2" data-name="Layer 1-2"><g id="Strenghts_Opportunities" data-name="Strenghts Opportunities"><path class="cls-1" d="M21.24.5H348.13c11.46,0,20.74,9.63,20.74,21.5V152.5c0,11.87-9.29,21.5-20.74,21.5H21.24C9.79,174,.5,164.37.5,152.5V22C.5,10.13,9.79.5,21.24.5Z" transform="translate(-0.01 -0.01)"/><g class="cls-2"><text class="cls-3" transform="translate(43.32 138.37) scale(0.96 1)">c</text><text class="cls-4" transform="translate(71.93 138.37) scale(0.96 1)">r</text><text class="cls-5" transform="translate(106.13 138.37) scale(0.96 1)">eation</text></g><g class="cls-2"><text class="cls-6" transform="translate(75.79 68.63) scale(0.96 1)">C</text><text class="cls-7" transform="translate(105.93 68.63) scale(0.96 1)">ON</text><text class="cls-8" transform="translate(173.02 68.63) scale(0.96 1)">T</text><text class="cls-9" transform="translate(202.59 68.63) scale(0.96 1)">E</text><text class="cls-7" transform="translate(230.2 68.63) scale(0.96 1)">NT</text></g></g></g></g></svg>