<svg id="Layer_1" data-name="Layer 1" xmlns="http://www.w3.org/2000/svg" viewBox="0 0 369.23 174.48"><defs><style>.cls-1{fill:#dfe1d4;stroke:#58595b;stroke-miterlimit:10;stroke-width:0.98px;}.cls-10,.cls-11,.cls-12,.cls-13,.cls-2,.cls-3,.cls-4,.cls-5,.cls-6,.cls-7,.cls-8,.cls-9{isolation:isolate;}.cls-3,.cls-4,.cls-5{font-size:31.81px;font-family:ACaslonPro-Italic, Adobe Caslon Pro;font-style:italic;}.cls-10,.cls-11,.cls-12,.cls-13,.cls-3,.cls-4,.cls-5,.cls-6,.cls-7,.cls-8,.cls-9{fill:#231f20;}.cls-4{letter-spacing:-0.01em;}.cls-5{letter-spacing:0.01em;}.cls-10,.cls-6,.cls-7,.cls-8,.cls-9{font-size:54.42px;font-family:ACaslonPro-Regular, Adobe Caslon Pro;}.cls-6{letter-spacing:-0.01em;}.cls-7{letter-spacing:-0.02em;}.cls-8{letter-spacing:-0.08em;}.cls-9{letter-spacing:0.01em;}.cls-11,.cls-12,.cls-13{font-size:39.49px;font-family:ACaslonPro-Bold, Adobe Caslon Pro;font-weight:700;}.cls-11{letter-spacing:0.01em;}.cls-13{letter-spacing:0.01em;}</style></defs><title>asset3</title><g id="Layer_2" data-name="Layer 2"><g id="Layer_1-2" data-name="Layer 1-2"><g id="Strenghts_Opportunities" data-name="Strenghts Opportunities"><path class="cls-1" d="M21.24.5H348c11.45,0,20.74,9.63,20.74,21.5V152.5c0,11.87-9.28,21.5-20.74,21.5H21.24C9.78,174,.5,164.37.5,152.5V22C.5,10.13,9.78.5,21.24.5Z" transform="translate(-0.01 -0.01)"/><g class="cls-2"><text class="cls-3" transform="translate(43.95 45.73) scale(0.96 1)">Cus</text><text class="cls-4" transform="translate(88.26 45.73) scale(0.96 1)">t</text><text class="cls-3" transform="translate(97.43 45.73) scale(0.96 1)">om</text><text class="cls-5" transform="translate(132.05 45.73) scale(0.96 1)">e</text><text class="cls-3" transform="translate(142.91 45.73) scale(0.96 1)">r</text></g><g class="cls-2"><text class="cls-6" transform="translate(43.91 100.69) scale(0.96 1)">R</text><text class="cls-7" transform="translate(79.97 100.69) scale(0.96 1)">E</text><text class="cls-6" transform="translate(114.87 100.69) scale(0.96 1)">L</text><text class="cls-8" transform="translate(149.09 100.69) scale(0.96 1)">A</text><text class="cls-9" transform="translate(183.62 100.69) scale(0.96 1)">T</text><text class="cls-10" transform="translate(221 100.69) scale(0.96 1)">ION</text></g><g class="cls-2"><text class="cls-11" transform="translate(156.86 145.21) scale(0.96 1)">e</text><text class="cls-12" transform="translate(173.76 145.21) scale(0.96 1)">x</text><text class="cls-12" transform="translate(190.22 145.21) scale(0.96 1)">p</text><text class="cls-12" transform="translate(210.33 145.21) scale(0.96 1)">e</text><text class="cls-13" transform="translate(226.86 145.21) scale(0.96 1)">r</text><text class="cls-12" transform="translate(240.88 145.21) scale(0.96 1)">ience</text></g></g></g></g></svg>