<svg id="Layer_1" data-name="Layer 1" xmlns="http://www.w3.org/2000/svg" viewBox="0 0 369.48 174.48"><defs><style>.cls-1{fill:#dfe1d4;stroke:#58595b;stroke-miterlimit:10;stroke-width:0.98px;}.cls-10,.cls-11,.cls-12,.cls-2,.cls-3,.cls-4,.cls-5,.cls-6,.cls-7,.cls-8,.cls-9{isolation:isolate;}.cls-3,.cls-4,.cls-5{font-size:31.81px;font-family:ACaslonPro-Italic, Adobe Caslon Pro;font-style:italic;}.cls-10,.cls-11,.cls-12,.cls-3,.cls-4,.cls-5,.cls-6,.cls-7,.cls-8,.cls-9{fill:#231f20;}.cls-3{letter-spacing:0.03em;}.cls-4{letter-spacing:0.01em;}.cls-6,.cls-7,.cls-8,.cls-9{font-size:38.29px;font-family:ACaslonPro-Regular, Adobe Caslon Pro;}.cls-7{letter-spacing:-0.01em;}.cls-8{letter-spacing:-0.04em;}.cls-9{letter-spacing:-0.02em;}.cls-10,.cls-11,.cls-12{font-size:39.49px;font-family:ACaslonPro-Bold, Adobe Caslon Pro;font-weight:700;}.cls-10{letter-spacing:0.01em;}.cls-12{letter-spacing:0.01em;}</style></defs><title>asset4</title><g id="Layer_2" data-name="Layer 2"><g id="Layer_1-2" data-name="Layer 1-2"><g id="Strenghts_Opportunities" data-name="Strenghts Opportunities"><path class="cls-1" d="M21.25.5h327C359.71.5,369,10.13,369,22V152.5c0,11.87-9.29,21.5-20.75,21.5h-327C9.79,174,.5,164.37.5,152.5V22C.5,10.13,9.79.5,21.25.5Z" transform="translate(-0.01 -0.01)"/><g class="cls-2"><text class="cls-3" transform="translate(43.98 50.5) scale(0.97 1)">P</text><text class="cls-4" transform="translate(63.02 50.5) scale(0.97 1)">r</text><text class="cls-5" transform="translate(74.1 50.5) scale(0.97 1)">oject</text></g><g class="cls-2"><text class="cls-6" transform="translate(43.94 99.53) scale(0.97 1)">MA</text><text class="cls-7" transform="translate(107.65 99.53) scale(0.97 1)">N</text><text class="cls-8" transform="translate(136.67 99.53) scale(0.97 1)">A</text><text class="cls-6" transform="translate(162.57 99.53) scale(0.97 1)">G</text><text class="cls-9" transform="translate(192.8 99.53) scale(0.97 1)">E</text><text class="cls-6" transform="translate(217.37 99.53) scale(0.97 1)">M</text><text class="cls-9" transform="translate(253.63 99.53) scale(0.97 1)">E</text><text class="cls-6" transform="translate(278.21 99.53) scale(0.97 1)">NT</text></g><g class="cls-2"><text class="cls-10" transform="translate(156.96 145.21) scale(0.97 1)">e</text><text class="cls-11" transform="translate(173.88 145.21) scale(0.97 1)">x</text><text class="cls-11" transform="translate(190.35 145.21) scale(0.97 1)">p</text><text class="cls-11" transform="translate(210.47 145.21) scale(0.97 1)">e</text><text class="cls-12" transform="translate(227.01 145.21) scale(0.97 1)">r</text><text class="cls-11" transform="translate(241.04 145.21) scale(0.97 1)">ience</text></g></g></g></g></svg>