<svg xmlns="http://www.w3.org/2000/svg" viewBox="0 0 260.75 110.3"><defs><style>.cls-1{fill:none;stroke:#000;stroke-miterlimit:10;stroke-width:1.19px;}</style></defs><title>logo_going_tiny</title><g id="Layer_2" data-name="Layer 2"><g id="Layer_1-2" data-name="Layer 1"><path class="cls-1" d="M53.64,41.11C34.7,31,.13,41.11.6,72.37s27.47,36,35.52,36.46,17.52-5.21,17.52-5.21V79.47H36.12"/><path class="cls-1" d="M260.15,41.11c-18.94-10.11-53.51,0-53,31.25s27.47,36,35.52,36.46,17.52-5.21,17.52-5.21V79.47H242.63"/><path class="cls-1" d="M113.94,65.54a26.26,26.26,0,0,0,1.31-8.26A26.73,26.73,0,1,0,70,76.51"/><line class="cls-1" x1="137.91" y1="30.25" x2="129.9" y2="30.25"/><polyline class="cls-1" points="122.26 30.25 129.9 30.25 129.9 61.64"/><line class="cls-1" x1="206.63" y1="30.54" x2="198.52" y2="30.54"/><line class="cls-1" x1="192.93" y1="77.06" x2="152.45" y2="30.54"/><polyline class="cls-1" points="198.52 78.44 198.52 30.54 190.95 30.54"/><polyline class="cls-1" points="144.81 30.54 152.45 30.54 152.45 67.01"/><polyline class="cls-1" points="130 64.12 130 101.84 119.43 101.84 140.74 101.84"/><polyline class="cls-1" points="171.5 91.38 176.91 102.3 173.4 109.7 182.61 91.1"/><line class="cls-1" x1="168.7" y1="91.1" x2="174.3" y2="91.1"/><line class="cls-1" x1="179.81" y1="91.1" x2="185.41" y2="91.1"/><line class="cls-1" x1="170.6" y1="109.7" x2="176.2" y2="109.7"/><polyline class="cls-1" points="143.39 91.77 146.35 91.77 146.35 101.84 143.39 101.84 149.31 101.84"/><polyline class="cls-1" points="151.8 91.29 154.46 91.29 154.46 101.84 151.61 101.84 157.55 101.84"/><path class="cls-1" d="M154.46,94.8c1.71-2.7,3.84-3.65,5.5-3.7s3.61,1.23,3.61,2.85v7.89h2.8"/><circle cx="146.35" cy="86.45" r="0.87"/><polyline class="cls-1" points="203.87 90.47 203.87 82.15 198.52 80.83 192.93 79.44 164.62 72.42 160 71.28 152.45 69.4 139.74 66.25 130.76 64.03 130.2 63.88 128.04 64.42 119.03 66.67 113.94 67.93 95.02 72.65 86.4 74.8 76.33 77.31 69.96 78.89 56.88 82.15 56.88 90.47"/><polyline class="cls-1" points="56.88 90.47 56.88 82.15 69.96 78.89"/><line class="cls-1" x1="55.67" y1="55.83" x2="30.74" y2="55.83"/><line class="cls-1" x1="76.36" y1="28.15" x2="70.57" y2="14.18"/><line class="cls-1" x1="57.18" y1="43.13" x2="54.37" y2="41.96"/><line class="cls-1" x1="64.48" y1="35.02" x2="46.85" y2="17.4"/><line class="cls-1" x1="88.52" y1="24.93" x2="88.52"/><line class="cls-1" x1="99.65" y1="28.48" x2="105.44" y2="14.51"/><line class="cls-1" x1="111.53" y1="35.35" x2="129.16" y2="17.72"/><line class="cls-1" x1="119.88" y1="54.49" x2="128.2" y2="54.49"/><line class="cls-1" x1="116.33" y1="65.62" x2="119.03" y2="66.67"/><line class="cls-1" x1="117.02" y1="45.61" x2="128.2" y2="40.95"/></g></g></svg>