<svg id="Layer_2" data-name="Layer 2" xmlns="http://www.w3.org/2000/svg" viewBox="0 0 345.63 352.56"><title>answer</title><path d="M708.23,263.78c-4,6.65-26,43-27.5,47.5s1.5,16,6,16,71.73,2.53,81.5,0,8.73-.22,8.5-12.5,5.23-11.47-12-12.5-41,0-41,0l12.5-24s9-5,9,2a83.2,83.2,0,0,0,.5,10.5s25.15-2.5,31.07,2.5,16.93,11,14.43,21.5-3,12.5-3,12.5h43v-58.5l70-107s2-14-7.5-17-18-2.5-31.5,18-41.5,69-41.5,69l-10,17.5s-63.27-2-77,0S712.23,257.13,708.23,263.78Z" transform="translate(-616.44 -143.44)"/><path d="M778.5,333.25" transform="translate(-616.44 -143.44)"/><circle cx="167.81" cy="67.81" r="31"/><path d="M638.5,356Z" transform="translate(-616.44 -143.44)"/><path d="M912,356l1.5,132s5,8,11.75,8,16.5-1.75,16.25-7.5,0-132.5,0-132.5h15.25s6-4.5,5.25-8-2.25-8-7-8H789.25v16Z" transform="translate(-616.44 -143.44)"/><path d="M666.5,356,665,488s-5,8-11.75,8-16.5-1.75-16.25-7.5S637,356,637,356H621.75s-6-4.5-5.25-8,2.25-8,7-8H789.25v16Z" transform="translate(-616.44 -143.44)"/><path d="M708.33,369h20v90s-1,4.67-11.33,5-8.67-5-8.67-5Z" transform="translate(-616.44 -143.44)"/><path d="M868.23,369h-20v90s1,4.67,11.33,5,8.67-5,8.67-5Z" transform="translate(-616.44 -143.44)"/><path d="M745.67,369h38.58V474a19.2,19.2,0,0,1-16.58,10c-12,.33-21.67-1.67-22-11S745.67,369,745.67,369Z" transform="translate(-616.44 -143.44)"/><path d="M793.44,368.76H832v105a19.2,19.2,0,0,1-16.58,10c-12,.33-21.67-1.67-22-11S793.44,368.76,793.44,368.76Z" transform="translate(-616.44 -143.44)"/></svg>