<svg id="Layer_2" data-name="Layer 2" xmlns="http://www.w3.org/2000/svg" viewBox="0 0 975.27 909.16"><defs><style>.cls-1{fill:#020202;}.cls-2{fill:none;stroke:#020202;stroke-miterlimit:10;stroke-width:66px;}</style></defs><title>approve</title><polygon class="cls-1" points="287.6 431.97 393.6 539.97 248.94 576.63 287.6 431.97"/><polygon class="cls-1" points="308.94 403.97 624.27 92.63 736.27 203.3 422.27 517.97 308.94 403.97"/><path class="cls-1" d="M3134.33-84.67,3247,27.33s62-44,59.33-90S3265-128,3265-128s-24.67-22.67-50-18-34,10-58.67,38S3134.33-84.67,3134.33-84.67Z" transform="translate(-2478.73 146.63)"/><path class="cls-1" d="M2983.36-110.67H2564.95a23.53,23.53,0,0,0-2.87.17c-11.64,1.42-83.35,12.79-83.35,76.49V613.33s-1.73,92.26,142,80.74c.63-.05,1.28-.08,1.91-.08l310.73.91c18.77.06,13.43-47.27,11.23-52.86a23.71,23.71,0,0,0-22-15.11L2581,626h-17.48a18.12,18.12,0,0,0-2,.08c-2.75.3-16.42-.71-15.52-51.08,1-53.56,2.83-552.66,3-596a25.33,25.33,0,0,0-.46-4.74c-.81-4.33-.38-15.26,24.47-15.26h410.36A23.64,23.64,0,0,0,3007-64.64V-87A23.64,23.64,0,0,0,2983.36-110.67Z" transform="translate(-2478.73 146.63)"/><circle class="cls-2" cx="724.27" cy="658.16" r="218"/><path class="cls-1" d="M3128.32,473.14,3106,495.51a14.84,14.84,0,0,0-3.79,6.46c-1.37,4.83-2.72,12.87,1.39,17.88,5.25,6.41,57,57.4,72.49,72.57a14.8,14.8,0,0,0,10.38,4.24H3197a14.8,14.8,0,0,0,10.3-4.17s127.16-123.6,127.92-125.19c2-4.28,5.77-12.81,4.25-15.34s-13.12-13.67-19.63-19.87a14.7,14.7,0,0,0-15.47-3.1,34,34,0,0,0-10.85,7.19c-10.41,9.83-66.17,62.57-83.4,78.87a14.74,14.74,0,0,1-13.21,3.72c-2.93-.62-5.8-1.58-7-3-2.14-2.67-28.86-30.35-40.54-42.42a14.8,14.8,0,0,0-13.07-4.31h0A14.8,14.8,0,0,0,3128.32,473.14Z" transform="translate(-2478.73 146.63)"/></svg>