<svg xmlns="http://www.w3.org/2000/svg" viewBox="0 0 24.2 28.4"><title>Asset 1</title><g id="Layer_2" data-name="Layer 2"><g id="Layer_1-2" data-name="Layer 1"><path d="M4.4,5.7V17.8a8.39,8.39,0,0,0,3.4,1.7c1.3.1,8.1-2.1,9.1-2.4s4-.9,5.1-.4,2.2,1.1,2.2,1.1V5.7a6.21,6.21,0,0,0-5.7-1.4c-3.2,1-7,3.1-9.5,2.5L6.4,6.2h0Z"/><path d="M4.8,2.4A2.43,2.43,0,0,1,2.4,4.8,2.37,2.37,0,0,1,0,2.4,2.37,2.37,0,0,1,2.4,0,2.43,2.43,0,0,1,4.8,2.4Z"/><polyline points="1.5 4.4 1.5 28.4 3.5 28.4 3.5 4.4"/></g></g></svg>