<?xml version="1.0" encoding="utf-8"?>
<!-- Generator: Adobe Illustrator 21.1.0, SVG Export Plug-In . SVG Version: 6.00 Build 0)  -->
<svg version="1.1" id="Layer_1" xmlns="http://www.w3.org/2000/svg" xmlns:xlink="http://www.w3.org/1999/xlink" x="0px" y="0px"
	 viewBox="0 0 24.2 32.9" style="enable-background:new 0 0 24.2 32.9;" xml:space="preserve">
<title>flag</title>
<path d="M4.4,5.7v12.1c1,0.8,2.1,1.4,3.4,1.7c1.3,0.1,8.1-2.1,9.1-2.4s4-0.9,5.1-0.4s2.2,1.1,2.2,1.1V5.7c-1.5-1.4-3.7-1.9-5.7-1.4
	c-3.2,1-7,3.1-9.5,2.5L6.4,6.2l0,0L4.4,5.7z"/>
<path d="M4.8,2.4c0,1.3-1.1,2.4-2.4,2.4S0,3.8,0,2.4S1.1,0,2.4,0S4.8,1.1,4.8,2.4L4.8,2.4z"/>
<polyline points="1.5,4.4 1.5,28.4 3.5,28.4 3.5,4.4 "/>
</svg>
