<?xml version="1.0" encoding="utf-8"?>
<!-- Generator: Adobe Illustrator 21.1.0, SVG Export Plug-In . SVG Version: 6.00 Build 0)  -->
<svg version="1.1"
	 id="svg2" xmlns:cc="http://creativecommons.org/ns#" xmlns:dc="http://purl.org/dc/elements/1.1/" xmlns:inkscape="http://www.inkscape.org/namespaces/inkscape" xmlns:rdf="http://www.w3.org/1999/02/22-rdf-syntax-ns#" xmlns:sodipodi="http://sodipodi.sourceforge.net/DTD/sodipodi-0.dtd" xmlns:svg="http://www.w3.org/2000/svg"
	 xmlns="http://www.w3.org/2000/svg" xmlns:xlink="http://www.w3.org/1999/xlink" x="0px" y="0px" viewBox="0 0 512 512"
	 style="enable-background:new 0 0 512 512;" xml:space="preserve">
<style type="text/css">
	.st0{fill:#222222;}
</style>
<g id="layer1" transform="translate(0,-540.3622)">
	<path id="path2991" class="st0" d="M112.5,954.6c-1.4-4.5-4-8.7-7.5-12L-42.1,802.3c40-79.9,25.3-178.4-44-244.6
		c-88-83.9-230.6-83.9-318.5,0c-88,83.9-88,220,0,303.9c69.3,66.2,172.7,80.1,256.4,42l147.1,140.3c5.6,5.3,13.4,8.4,21.3,8.4
		c7.9,0,15.6-3.1,21.2-8.4l63.7-60.8c5.6-5.3,8.8-12.7,8.8-20.2C113.8,960.1,113.3,957.3,112.5,954.6L112.5,954.6z M-100.4,672.2
		c13.5,47.9,0.6,101.2-38.8,138.8c-58.6,55.9-153.7,56-212.3,0c-58.6-55.9-58.6-146.6,0-202.6c58.6-55.9,153.7-56,212.3,0
		C-120,626.7-107,648.8-100.4,672.2L-100.4,672.2z M-138.3,666.8c-0.2-0.7-0.5-1.4-0.8-2.1c-20.4-44.2-68.5-70.7-118.8-65.4
		c-10.3,1.1-17.7,9.9-16.6,19.7c0.1,0.9,0.3,1.8,0.5,2.7l2,7c2.4,8.4,10.8,14,19.9,13.2c30-2.7,58.9,13.3,71.5,39.4
		c3.8,7.9,13.1,12.1,21.9,9.8l7.3-1.9c10-2.6,16-12.4,13.3-21.9C-138.2,667.2-138.2,667-138.3,666.8z"/>
</g>
</svg>
